<?xml version='1.0' encoding='utf-8'?>
<COLLADA xmlns="http://www.collada.org/2005/11/COLLADASchema" version="1.4.1">
  <asset>
    <created>2026-09-14T00:00:00Z</created>
    <modified>2026-09-14T00:00:00Z</modified>
    <unit name="metre" meter="1" />
    <up_axis>Z_UP</up_axis>
  </asset>
  <library_effects>
    <effect id="qmat_4b294f1aa1dfaafb_effect">
      <profile_COMMON>
        <technique sid="common">
          <lambert>
            <emission>
              <color sid="emission">0 0 0 1</color>
            </emission>
            <diffuse>
              <color sid="diffuse">0.6717055 0.6924257 0.7742702 1</color>
            </diffuse>
            <reflectivity>
              <float sid="specular">0.5</float>
            </reflectivity>
          </lambert>
        </technique>
      </profile_COMMON>
    </effect>
    <effect id="qmat_fbc365fc3facc314_effect">
      <profile_COMMON>
        <technique sid="common">
          <lambert>
            <emission>
              <color sid="emission">0 0 0 1</color>
            </emission>
            <diffuse>
              <color sid="diffuse">0 0 0 1</color>
            </diffuse>
            <index_of_refraction>
              <float sid="ior">1.45</float>
            </index_of_refraction>
          </lambert>
        </technique>
      </profile_COMMON>
    </effect>
  </library_effects>
  <library_materials>
    <material id="qmat_4b294f1aa1dfaafb" name="qmat_4b294f1aa1dfaafb">
      <instance_effect url="#qmat_4b294f1aa1dfaafb_effect" />
    </material>
    <material id="qmat_fbc365fc3facc314" name="qmat_fbc365fc3facc314">
      <instance_effect url="#qmat_fbc365fc3facc314_effect" />
    </material>
  </library_materials>
  <library_geometries>
    <geometry id="geometry" name="calf_mirror_dae">
      <mesh>
        <source id="positions">
          <float_array id="positions_array" count="684">0.00678210333 0.0185798816 -0.213251606 0.017796468 0.0103829745 -0.220258877 0.0122280903 0.0132046733 -0.225549161 0.013791807 -4.94272645e-05 -0.229737386 0.0014616393 0.0182425398 -0.228043944 -0.0123905456 0.019320609 -0.213673741 0.00946432725 0.00890092459 -0.231855586 0.00204134267 0.00871640909 -0.23466751 0.0065450957 -0.00240194169 -0.234894812 -0.0172149148 -0.0115983831 -0.198091164 0.0181031898 -0.0114516765 -0.220401391 0.0104803545 -0.0137217762 -0.2280595 0.0109864231 -0.00807831064 -0.230297446 0.00370090618 -0.0105687482 -0.233750015 -0.0057432414 -0.00225800276 -0.234543338 0.00812923349 -0.0183196273 -0.214144304 0.00340391672 -0.0191000011 -0.223115146 -0.00597269041 -0.0174582936 -0.229769304 -0.0119180297 0.0163616762 -0.201464385 -0.0101218112 0.0182034429 -0.22654435 -0.00620242767 0.0102182627 -0.232931331 -0.0201946162 0.0128909377 -0.206020072 -0.0179840364 0.00812642649 -0.197666764 -0.0105811879 0.00959932152 -0.23108311 -0.0214955006 0.0139060775 -0.21739316 -0.0235055294 0.00956085417 -0.212204203 -0.0180287212 0.0127394153 -0.224816844 -0.0240321904 0.00501517579 -0.20694539 -0.0174102075 0.00627928181 -0.227753535 -0.0210171044 -0.000298862084 -0.224929526 -0.0248522777 0.00562632224 -0.217079625 -0.0258694701 -0.00236450252 -0.214046538 -0.0142668672 -0.00986698363 -0.229247406 -0.00637529977 -0.00986619759 -0.232725441 -0.00648023002 -0.0187139977 -0.205042347 -0.0174536407 -0.0172073022 -0.210692197 -0.0103806602 -0.0201775283 -0.22104004 -0.0173517559 -0.0165137276 -0.222658202 -0.0188079551 -0.00923066027 -0.224919751 -0.0228654183 -0.00955691282 -0.218242824 -0.0211381558 -0.0105545213 -0.205340222 -0.022602506 -0.0129194865 -0.213369712 -0.0242857877 -0.00554996543 -0.207605526 0.0109767057 0.00623040041 0.0295092743 0.00722441403 0.00305500044 0.0312311016 0.0151589205 0.00304590841 0.0241351128 0.0138212536 -0.00303982641 0.014313329 0.00876055378 -0.00303245056 0.00280254032 0.000115870418 -0.00297264033 0.0112892669 0.00357220578 0.00295414659 0.00860727765 0.0111193955 0.00313173584 -0.0011859173 0.00182964548 0.00679232879 0.0296052024 -0.0100861546 0.00305902236 0.0190218836 -0.000696439994 0.00310507999 0.0284034051 -0.00505845062 0.00748258689 0.0232815426 -0.00708171865 0.00936034881 0.0148758553 -0.0108629707 0.00927905831 0.0145797664 -0.00199542614 0.00714563671 0.020874491 -0.00916930009 0.00700645661 0.0101525187 0.00116339733 -0.00676767575 0.0295008533 -0.0136517063 -0.00698574819 0.0122347102 0.0144641474 -0.00690203113 0.0262876209 0.0112696234 -0.0068639731 0.00648577977 0.0144410487 -0.00302267703 0.0260070171 0.0146091366 0.00680573471 0.0235370435 0.0108933644 0.00683550118 0.00464026304 -0.00194447057 -0.00309781102 0.0274609104 0.00750194211 -0.00304431189 0.0311656874 -0.009974977 -0.00336084329 0.019039942 -0.00531658158 0.00294455374 0.0154192364 -0.0122880554 0.00942566991 0.00388028217 -0.0122695286 0.00697889365 -0.00324797677 -0.0176577494 -0.00676339259 0.00226530968 -0.00811318494 -0.0071644797 -0.014436502 -0.0170026217 0.00844292901 0.00256580184 -0.0194897968 -0.00143860467 -0.0128618581 -0.0180030894 0.000805378077 0.0068683885 -0.016916234 0.0090761669 -0.0122723691 -0.01221612 0.00826495606 -0.0122004347 -0.0145077901 0.00569768576 -0.0298898462 -0.0161522832 3.60051708e-05 -0.0280403402 0.0122422222 0.00672024069 -0.0194414277 0.0163519476 0.00672424305 -0.0440436527 0.0121155689 -0.00435587158 -0.00487376144 0.0142552676 -0.0065827393 -0.0326392576 -0.0105514294 -0.0121178273 -0.0227766056 0.00289402204 -0.00734579749 -0.0320927501 0.00174324319 -0.0108794412 -0.0389714092 0.0139965015 2.37651529e-05 -0.0217221603 -0.0065800352 -0.0142982649 -0.0328385457 -0.0022238174 -0.0147855785 -0.0370885916 -0.008133322 -0.0118558258 -0.0394892395 -0.0162611026 -0.0092723472 -0.0118648494 -0.0134962304 -0.00573980296 -0.0335233249 -0.00991252065 -8.51343884e-06 -0.046799317 0.00570833823 0.0167981964 -0.0505351126 0.00583764864 0.0109217502 -0.0452288128 0.0178323239 0.0125035681 -0.0654365569 0.00535959797 -0.0167274438 -0.0498296507 -0.00331717078 -0.00626779068 -0.0622667931 0.00052414299 -0.0118928095 -0.0655004457 0.0108801238 -0.00946796779 -0.0509155504 0.0192583241 -6.04429733e-05 -0.0520503595 0.0190310497 -0.00695611257 -0.0569708608 0.018274324 -0.0120794848 -0.0658987835 -0.00758728012 0.00603761384 -0.0505040847 -0.00618950697 0.0143396817 -0.0345083922 0.00550882099 0.0161490515 -0.0632624552 -0.00474747457 0.0118950782 -0.0501499176 0.0161334258 0.0152695999 -0.103682287 0.00511289947 0.0120392498 -0.0792272761 0.0132569075 -0.0167191792 -0.0700659305 0.00627179863 -0.0160950683 -0.0664260089 0.014993595 -0.0159066301 -0.0965042487 0.0194886904 -0.0155720515 -0.095860377 0.0220430419 -0.0119115785 -0.0852690488 0.00425076159 0.00626888685 -0.0845717266 0.00504922261 -8.75231478e-07 -0.0902272984 0.00601552147 -0.00603288924 -0.0912289396 0.00655016536 -0.011786419 -0.0844264477 0.0195703879 0.00778013142 -0.0599736944 0.0279949978 -0.000181639552 -0.0972217098 0.0160928946 0.0166122653 -0.0829771161 0.0233998373 0.0117721464 -0.0931391045 0.0120254047 -0.0107341036 -0.107909165 0.0182578489 -0.0143457567 -0.116878934 0.0319485925 0.000137144787 -0.131076038 0.0304490104 -0.00528695248 -0.131641418 0.0114039509 0.0109335082 -0.104539335 0.0278971381 0.00586599391 -0.105341256 0.0305783488 0.00531160925 -0.133573711 0.0274692159 0.00953380391 -0.134528697 0.0219840687 0.0140705202 -0.116840132 0.014428488 -0.00950671174 -0.129389942 0.0115528526 -0.00562784495 -0.118735813 0.011212877 0.00538412994 -0.116884843 0.0104181133 -7.56222289e-05 -0.118448772 0.00972753577 -0.00217672298 -0.141996488 0.0210294109 0.0109463148 -0.165506855 0.0303316023 0.00473400438 -0.169182733 0.0177005492 -0.0110665848 -0.15024367 0.00970327388 -0.00596172316 -0.152482912 0.0271986313 -0.0100219036 -0.127232298 0.0224740766 -0.0127622429 -0.133933172 0.0207408443 -0.0110649969 -0.167783141 0.000943348859 0.00092078856 -0.169459626 -0.0115325535 -0.00504185399 -0.189899519 -0.00170349947 -0.00557857705 -0.177208364 0.00998263992 -0.0087118065 -0.161339253 0.0137504069 -0.0113226995 -0.167590335 0.0113686267 0.00825763121 -0.155515209 0.00532183796 0.00536254654 -0.164279491 0.0108382693 0.00461396668 -0.142810538 0.0149744023 0.0107160648 -0.162283182 0.00758932158 0.00983630214 -0.168866992 0.00309404358 -0.0121947853 -0.179386124 0.0290539935 0.000291098317 -0.190115541 0.0315621421 -7.07149229e-06 -0.170104727 0.0304375272 -0.00474782754 -0.168861836 0.00143219728 0.0105148628 -0.178403214 0.00877530687 0.00547755603 -0.183989882 -0.00313597545 0.00521939714 -0.178430095 0.0257268175 0.00907432009 -0.170693398 0.0230724234 0.0106386757 -0.192021146 0.026555812 0.00526208011 -0.195958674 0.0229207836 0.00440769922 -0.211734638 0.0230189394 -0.00499947974 -0.211068168 0.0261036605 -0.00553375343 -0.19482182 0.00548486318 -0.00563436467 -0.181952119 0.00341817946 0.00504517788 -0.198778659 0.0204921234 0.00564944325 -0.191424057 0.0114781037 0.0140681667 -0.184448108 0.0136939138 -0.00550780445 -0.18708536 -0.00135535095 -0.00502060633 -0.195890665 0.0109841293 -0.0049368483 -0.203743741 -0.0120987408 0.00439904677 -0.189512283 -0.0110636763 0.0114922645 -0.020995209 0.0267387796 -0.00632380322 -0.0971220061 0.014578728 0.00919501856 -0.13348648 0.00663489895 -8.05552918e-05 -0.155306503 0.0179986227 0.0118176211 -0.137032181 0.0159532167 -0.0137033751 -0.187269866 0.0236532614 -0.0100937337 -0.192243651 -0.00126552721 -0.00533360103 -0.182934418 -0.00182906422 -0.00582902133 -0.177293241 0.026372483 -0.00569854863 -0.19492197 0.010051934 -0.0139836138 -0.183795616 0.00431296416 -0.0184750091 -0.211390004 0.021551488 -0.0120457076 -0.19128871 0.0126617076 -0.0163434278 -0.216648072 -0.00985810719 -0.0180640016 -0.20251824 -0.0189404208 -0.00186974532 -0.196780369 -0.0157871023 -0.0124290055 -0.19881089 0.00282755378 -0.011683505 -0.179431006 -0.00736121088 -0.00497567514 -0.192167714 -0.0111418832 -0.00525802048 -0.189209938 -0.00135695608 -0.00150965969 -0.182847559 -0.00763097592 -0.00156235625 -0.193037003 -0.0125962393 -0.00221562316 -0.189810514 -0.0168891363 0.0108002052 -0.198178336 -0.00452656439 0.0188635308 -0.205781147 0.013960164 0.0140220467 -0.186322093 0.00987349451 0.0175260715 -0.214831322 0.0152851306 0.0139955636 -0.218190864 0.0216825549 0.0116253113 -0.191355661 0.0263156928 0.0056924182 -0.194936529 0.000519306341 0.00970908813 -0.178212792 -0.00188755605 0.00568432827 -0.177340329 0.00565585028 0.0128842136 -0.181081668 -0.0073583466 0.00495745381 -0.192163616 -0.00126552745 0.0053148102 -0.182934418 -0.0116001209 0.0051416182 -0.189518899 -0.001356947 0.00149103266 -0.18284753 -0.00747665577 0.00144946424 -0.192706287 0.0186712649 -0.000274182676 -0.209280953 0.0193745941 0.00232048961 -0.220943034 0.022925809 0.00318504707 -0.2120502 0.0227558911 -0.00444397936 -0.21154438 0.0230041891 0.00532601262 -0.209800988 0.0225251373 0.00531496201 -0.197845891 0.0223094132 0.0014910301 -0.197746038 0.0188830663 0.00483973185 -0.208620235 0.0175992511 -0.0109474026 -0.219494224 0.0236639827 -0.00551538309 -0.207668409 0.0225251373 -0.00533396564 -0.197845891 0.018878974 -0.00488333637 -0.208628654 0.0223093946 -0.0015095938 -0.197746068 -0.0134912077 0.0154245878 -0.200297013</float_array>
          <technique_common>
            <accessor source="#positions_array" count="228" stride="3">
              <param name="X" type="float" />
              <param name="Y" type="float" />
              <param name="Z" type="float" />
            </accessor>
          </technique_common>
        </source>
        <source id="normals">
          <float_array id="normals_array" count="1023">0.240800336 0.969744325 -0.0401383564 0.778079927 0.46632874 -0.420867175 0.621934235 0.648436487 -0.439007819 0.762051642 0.00766473031 -0.647470891 0.159876525 0.854692817 -0.493902534 -0.256137371 0.964418888 0.0654972792 0.544255376 0.361156613 -0.757200122 0.087014392 0.321502894 -0.942902088 0.314139962 -0.072657004 -0.946592331 0.534900367 0.000102502527 0.844915152 0.532749951 -0.0039257803 0.846263587 0.53406173 0.00013127795 0.845445454 0.746531487 -0.487563223 -0.452739269 0.530399621 -0.628156662 -0.569293797 0.681430638 -0.27596724 -0.677860081 0.186987907 -0.414119184 -0.890809059 -0.266864091 -0.0495437123 -0.962459862 0.533629894 -0.0076618162 0.845683396 0.239197642 -0.939869881 -0.243780941 -0.136596948 -0.723217845 -0.676976502 0.535023034 -0.00102164026 0.844836891 0.532155693 0.00132903049 0.846645474 -0.288444996 0.81756109 -0.498390734 -0.250215173 0.349719137 -0.902822733 -0.354751974 0.872950256 0.334826738 -0.705118477 0.633140147 0.319282651 -0.783088982 0.306344241 0.541225255 -0.451488018 0.264296442 -0.852235854 -0.759693384 0.624077499 -0.182738081 -0.913292408 0.392210811 0.109852836 -0.709361851 0.421899408 -0.564629614 -0.923982441 0.170366347 0.342391253 -0.648687959 0.154382139 -0.745231569 -0.77994889 -0.0197546929 -0.625531316 -0.946363389 0.198610172 -0.254853457 -0.990848303 -0.108569525 -0.080201447 -0.54303962 -0.259651214 -0.79855448 -0.259532779 -0.279953122 -0.924266696 -0.137256861 -0.969796419 0.201632008 -0.492707282 -0.85020721 0.185437858 -0.191833749 -0.970595896 -0.145407796 -0.622884393 -0.667719662 -0.40763396 -0.75188148 -0.255454779 -0.607796967 -0.900467515 -0.297323853 -0.317422152 -0.716805041 -0.504352152 0.481476277 -0.80282867 -0.489804089 0.339938372 -0.852751851 -0.521917105 0.0204166472 -0.927099407 -0.190265924 0.32293272 0.529134691 -0.0301488023 0.848002076 0.281113744 -0.957959652 -0.0573445596 0.528363109 0.00233460451 0.849015296 0.489361644 0.501100719 0.713738918 0.100453138 -0.520823538 0.847733438 0.79624027 -0.568018377 0.208222494 0.0253774282 0.999622226 -0.0105538694 0.128991127 0.990058959 -0.0560763404 -0.00743772276 0.99997133 0.00140332372 0.695088327 -0.0207042154 0.718626201 0.636515021 -0.0219142586 0.77095288 0.820653379 -0.000279504718 0.571426272 0.0102245249 -0.999946237 -0.0017202294 0.0158486757 -0.999856889 -0.00591746904 -0.274567425 0.658702075 0.700517178 -0.808237731 0.165655658 0.565075159 -0.599417806 0.154682055 0.785348177 -0.413426578 0.716422379 0.561976373 0.462853312 0.866109431 -0.188735798 -0.51683259 0.782062173 0.348228216 0.122798257 0.992340207 0.0134729883 0.622882545 0.723899424 -0.296626002 -0.294384181 -0.620277524 0.727044523 -0.584357858 -0.733604074 0.346916378 0.692813754 -0.612394094 0.380765676 0.00373017602 -0.999980509 -0.00501172198 0.0015339338 0.99999702 0.00190670998 0.0295139439 0.998776436 0.0396811962 0.0103573492 0.999928832 -0.00591744389 -0.0173978172 0.999833405 0.00552226882 -0.00348166889 0.99998194 0.00489955768 0.602868676 0.012684254 0.797739625 0.605989337 0.00904745515 0.795421302 0.607215345 0.00717705721 0.794504881 0.862385213 0.463278949 -0.204118639 0.710806012 0.703375816 0.00414671935 -0.789307177 -0.241027996 0.564711988 0.0107705295 -0.999487162 0.0301572848 0.196604386 -0.964541078 0.176088586 -0.00425939867 -0.999940336 0.0100583024 -0.036030259 0.999345779 0.00314463698 0.942228675 -0.30956167 -0.127971619 0.898854196 -0.435109347 -0.0523547232 -0.729552388 0.669847071 0.138051718 -0.992801487 -0.0731708333 -0.0948223025 -0.943689764 0.0479690693 0.327335626 -0.16860798 0.985208511 0.0305870157 -0.624445081 0.781053483 -0.00488109048 0.218439206 0.961647332 0.165887803 0.99996376 -0.00691367779 0.00497230608 -0.900070965 0.360785723 -0.244347841 -0.969673932 0.0111349756 -0.244148448 0.0107476898 0.999942183 0.000296819839 0.675028324 0.720416069 0.159177646 0.978990674 0.0407123826 0.19979924 0.990180254 -0.0204241369 0.13829653 0.647057414 -0.748421729 0.145539328 -0.0569684245 -0.984188735 0.167711347 0.28853032 -0.937061965 0.196634457 0.635476172 -0.648545861 0.418996841 0.991330802 0.0454191975 0.123289481 0.967006445 0.22667931 -0.116254307 -0.290680766 -0.954443395 0.0673982352 0.443176657 -0.806779861 0.390769333 -0.725728571 -0.652731955 -0.217391253 -0.460250169 -0.88380456 0.0840194076 -0.967337072 -0.198494121 0.157667771 -0.90306586 -0.343254238 -0.258163959 -0.946128964 -0.00193220575 -0.323784202 0.323339731 0.908124864 0.266008854 0.658259094 0.613205135 0.436662793 0.686711848 0.693974555 0.21639362 0.306641102 -0.914976478 0.262277126 -0.901691973 -0.307410896 -0.304056227 -0.747702897 -0.617562592 -0.24404262 0.558928967 -0.76343292 0.323679745 0.981107771 -9.65591535e-05 0.193462014 0.824944258 -0.503733277 0.256358624 0.738549352 -0.63750881 0.21937938 -0.90323621 0.300830841 -0.306047708 -0.315052509 0.948352635 0.0370033085 -0.366565138 0.922746241 -0.119035117 -0.733277977 0.637359142 -0.236805141 -0.308986843 0.943783522 -0.117472716 -0.766015768 0.598090708 -0.235599846 0.281652898 -0.95711869 0.0677895248 -0.370690018 -0.920850337 -0.1209279 -0.290185124 -0.949775457 -0.11712902 0.430201173 -0.902637184 0.0131530594 0.786224067 -0.603373647 0.133386463 -0.923814714 0.267097503 -0.274272382 -0.967898488 -0.0087359082 -0.25118959 -0.937079549 -0.250268042 -0.243408665 -0.768356979 -0.595928133 -0.233446464 0.844889581 0.462030649 0.269609481 0.988667428 0.00987544749 0.149797082 0.272271663 0.961853802 0.0265596211 0.781178892 0.616327882 0.0994962975 -0.77483505 -0.608756244 -0.170430332 -0.270140857 -0.957834125 -0.0978655666 0.997881234 0.00941497833 0.0643774271 0.909516871 -0.414369613 0.0328154564 -0.775190532 0.606704891 -0.176036373 0.935447097 0.341840059 0.0899116993 0.899883926 0.434975445 0.031706702 0.675870597 0.736830473 -0.01672839 0.358272076 0.932831168 -0.0383026786 -0.76746273 -0.639828146 -0.0402599201 -0.946817517 -0.307497352 -0.0947734937 -0.956489623 0.268339902 -0.114548124 -0.997328222 -0.0124066006 -0.0719898194 -0.983636379 -0.13435021 0.120039433 0.204067513 0.978812456 0.0168125946 0.867753625 0.494152606 -0.0530738123 -0.358242393 -0.933601141 0.00716432137 -0.766742766 -0.613630414 0.188582167 0.711969793 -0.7020576 0.0146343783 0.292268157 -0.953150928 -0.0779913589 0.152769953 -0.988032997 0.0212622415 -0.871027708 0.0162288882 0.490965724 -0.593710124 -0.718666017 0.361977041 -0.635666728 -0.664737105 0.392495096 -0.481174529 -0.850093067 0.214039281 -0.110265911 -0.984069407 0.139459044 -0.583268225 0.801366568 0.13270174 -0.774234951 0.524683297 0.353931814 -0.919820428 0.373575062 0.119883753 -0.190530762 0.977672219 0.0886288732 -0.434990108 0.854700863 0.283319771 -0.373871803 -0.887480915 0.269439191 0.986370265 -0.0147162667 -0.163881361 0.997202516 0.00586362276 -0.0745168328 0.872673452 -0.485385805 -0.0533074588 -0.451852471 0.280512661 -0.846842349 -0.353002608 0.739209473 -0.573549092 -0.353775918 0.93496412 0.0261671059 0.54945451 0.835365832 -0.016238369 0.639470935 0.766733229 -0.0565432087 0.924816012 0.333955735 -0.182178348 0.962946415 0.0238923244 -0.268632352 0.963140547 -0.0622981191 -0.261685431 0.908398986 -0.385594487 -0.16164197 -0.0166356098 -0.99910593 -0.0388665125 -0.243154138 0.892024934 -0.381008685 -0.204974622 0.927089334 -0.313832432 -0.415577769 0.576108992 -0.703841984 -0.5503968 0.176428303 -0.816049278 -0.479833394 0.499130756 -0.721545875 0.0713756457 0.992632985 0.0979044363 -0.0164355934 -0.999412477 -0.0300756823 -0.0159608647 -0.999414206 -0.0302727222 -0.019716939 -0.999361038 -0.029811874 -0.0190686304 -0.999221504 -0.0345363654 -0.519013703 -0.0657931641 -0.852230012 -0.533230543 -0.0414124466 -0.844955742 -0.505666077 -0.130989656 -0.852727115 -0.528182745 0.121349834 -0.840414882 -0.83059901 0.531191945 -0.167153865 0.976418018 0.164935932 0.139298216 0.192955449 0.977587581 -0.0842061564 0.158692732 -0.42370376 0.891791284 -0.635606229 -0.113826521 0.763575971 -0.0118085276 -0.999795556 0.0164131336 0.912543654 0.0349079892 0.407486856 -0.0125615662 -0.999768317 0.0174806174 0.171881139 0.946249306 0.273987442 0.97289896 0.195865601 0.122899443 0.924553216 -0.362092763 0.118702024 -0.727538943 0.685179234 -0.0348774344 -0.956472158 -0.0523973778 0.287080944 -0.612971425 0.789908767 0.0176100247 0.254803926 -0.965203345 0.0588001609 -0.483965605 0.809169233 0.333200365 0.701017201 -0.709593892 -0.0710730031 -0.547195733 -0.124333307 -0.827718616 -0.531873584 -0.133262038 -0.836272478 -0.536532581 -0.128645107 -0.834016323 -0.51833725 -0.134211302 -0.844579101 -0.51951623 -0.191624552 -0.832696199 -0.513774931 -0.169886306 -0.840936363 -0.51308471 -0.122317299 -0.849577844 -0.0225912314 -0.999336362 -0.0285745338 -0.531801522 -0.0174814835 -0.846688569 -0.00868764054 0.996269286 0.0858607665 0.00743309408 0.996381521 0.0846678466 0.0646639168 0.997011602 0.042266991 0.0579005107 -0.976247549 0.208777875 0.190374613 -0.976184189 0.104028426 0.494808018 -0.868988991 -0.00480839191 0.523234963 -0.851288676 -0.0391509421 -0.196073219 -0.926133394 0.322230011 -0.530175865 0.00104103191 -0.847887039 -0.529970109 0.00323669286 -0.848010123 -0.533619583 -0.0037212465 -0.845716476 -0.525647521 0.00661178678 -0.850676775 -0.345777243 -0.823103547 0.450487137 0.532872021 0.0849933326 0.841916621 0.527845323 0.104959011 0.8428303 0.533972561 0.0786731616 0.841833651 0.526420057 0.110903561 0.842960417 0.323033124 0.761558473 0.561852574 0.324351192 0.808083415 0.491729051 -0.847749412 0.0482432544 0.528198421 -0.834676921 -0.0324446075 0.549783349 -0.838271141 -0.0135828117 0.545084417 -0.849819362 0.0660122931 0.522923887 -0.748138964 -0.283255786 0.600045204 -0.738775432 -0.0890946686 0.668036699 -0.766109884 -0.0783674568 0.637913942 -0.603785753 -0.580901206 0.545890629 -0.52799505 -0.00183071801 -0.849245489 -0.528871357 0.0023166677 -0.848698854 0.168182313 0.977537036 0.127027765 0.410451472 0.910337925 0.0530518182 -0.0084630968 0.978467226 0.206228703 0.714540899 0.682079613 -0.15555948 0.506757975 0.860925198 -0.0447672158 0.52823776 -0.0979999751 0.843422115 0.519744277 -0.105790228 0.847746611 0.537388086 -0.0718736425 0.840266764 0.52622515 -0.123407759 0.841342747 0.524762392 -0.131501406 0.84103018 0.531882584 -0.0934716761 0.841643631 -0.484394968 0.708843529 0.512740076 -0.68109715 0.448803753 0.57851696 -0.657787621 0.469646841 0.588852525 0.0121202851 -0.99781251 0.064986676 -0.0140203219 -0.998435259 0.054133717 0.00278461631 -0.99780041 0.0662313476 -0.010425563 -0.998549998 0.0528126918 -0.837882519 0.0157511085 0.545623362 -0.834682345 0.0324486047 0.549774885 -0.846240282 -0.0365502462 0.531546295 -0.848332584 -0.0528855957 0.526815832 -0.766345859 0.177908689 0.617302597 0.535682678 -0.121627621 0.835614026 0.518646896 -0.147764012 0.842123032 0.536539614 -0.121673457 0.835057378 0.553761244 0.122771107 0.82357496 0.536654532 -0.00728378911 0.843770623 0.525923908 -0.119415887 0.842106819 0.905426323 0.120363213 -0.407082111 0.90106374 0.208781362 -0.380124271 0.905474424 -0.229791775 -0.356807828 0.835830092 0.47768563 -0.270563185 -0.5293926 0.0101822168 -0.848315835 -0.517742634 0.0202670917 -0.855296314 -0.52803582 -0.0021708922 -0.849219322 0.763001919 0.631859303 -0.136315241 0.0762069002 -0.996565521 0.0323988236 0.211543515 -0.903455317 0.372850984 0.0637232959 -0.996894717 0.0462634079 0.953144968 -0.0452586189 -0.299109131 0.954545379 -0.0614653714 -0.291659296 0.949336112 -0.0121084191 -0.314029187 0.947308481 0.00215036632 -0.32031545 0.401441813 -0.768417656 0.498376161 0.502452016 -0.27399078 0.820043325 0.569918633 0.0170371402 0.821524501 0.438644052 0.533836722 0.722917557 0.00793163478 -0.999221861 0.0386366099 0.0205507092 -0.993352056 0.113266684 0.00190843351 -0.999993563 0.00303173182 0.531210065 -0.00663686683 0.847214162 0.531066239 -0.00783448853 0.847294092 0.532598019 0.00527342875 0.846351862 0.532735825 0.00649297982 0.846256673 0.0256297197 -0.989344776 0.143317863 0.825393438 -0.502399027 -0.257528514 0.846522331 -0.489487052 -0.209290072 0.109469451 0.990037739 0.0885537714 0.0782839954 0.996595144 0.0258802362 0.38773638 0.771421492 0.504548669 0.949119389 0.0116968639 -0.314699203 0.953754544 0.0614834242 -0.294231385 0.952659428 0.0466030464 -0.300446689 0.947269142 -0.00265895925 -0.320427924 0.0106097711 0.996847689 0.0786266029 0.0142935654 0.994679213 0.102024056 0.00187360088 0.999731064 0.023113912 0.531210184 0.00664512906 0.847214043 0.532599807 -0.0052650203 0.846350789 0.531066179 0.00784280803 0.847294033 0.532737792 -0.00648470968 0.846255481 -0.00234822184 0.999990284 -0.00372573943 0.763530374 -0.630888104 -0.137846246 -0.514090955 -0.0159073602 -0.857588172 -0.541889668 0.0534500703 -0.838748276 -0.150653929 0.933952093 0.324093908 -0.375574857 0.823281586 0.425618261 -0.51894474 -0.010292301 -0.854745865 -0.589294732 -0.581693172 0.560682476 0.535528123 0.0747630075 0.841201603</float_array>
          <technique_common>
            <accessor source="#normals_array" count="341" stride="3">
              <param name="X" type="float" />
              <param name="Y" type="float" />
              <param name="Z" type="float" />
            </accessor>
          </technique_common>
        </source>
        <vertices id="vertices">
          <input semantic="POSITION" source="#positions" />
        </vertices>
        <triangles material="qmat_4b294f1aa1dfaafb" count="362">
          <input semantic="VERTEX" source="#vertices" offset="0" />
          <input semantic="NORMAL" source="#normals" offset="1" />
          <p>43 51 44 52 45 53 46 54 47 55 48 56 49 57 48 58 47 59 49 60 50 61 45 53 51 62 52 63 53 64 54 65 55 66 56 67 55 66 57 68 58 69 59 70 60 71 61 72 61 72 60 71 62 73 48 56 63 74 46 54 64 75 65 76 57 68 66 77 67 78 48 56 67 78 63 74 48 56 52 79 68 80 69 81 69 81 68 80 48 58 70 82 58 69 71 83 52 63 60 71 68 84 60 71 72 85 73 86 44 52 69 87 45 53 59 70 68 84 60 71 66 77 48 56 68 88 46 89 61 72 62 90 57 68 65 76 58 69 51 62 53 64 44 52 74 91 75 92 76 93 74 91 70 94 77 95 70 94 78 96 77 95 70 82 71 83 78 97 77 95 79 98 80 99 71 83 81 100 82 101 58 69 65 76 71 83 50 102 47 59 83 103 83 103 62 90 84 104 62 73 60 71 84 104 73 86 85 105 86 106 86 106 85 105 87 107 88 108 83 103 84 104 65 109 45 53 50 102 85 105 89 110 90 111 85 105 91 112 89 110 75 92 92 113 72 114 76 93 75 92 72 114 80 99 93 115 75 92 75 92 93 115 92 113 80 99 94 116 93 115 95 117 96 118 97 119 90 111 89 110 98 120 94 116 99 121 93 115 99 121 100 122 91 112 93 115 99 121 91 112 87 107 90 111 98 120 87 107 98 120 101 123 87 107 85 105 90 111 82 101 88 108 102 124 84 104 101 123 103 125 86 106 101 123 84 104 103 125 101 123 104 126 79 98 94 116 80 99 71 83 82 101 78 96 79 98 105 127 94 116 106 128 107 129 108 130 107 129 109 131 110 132 111 133 112 134 113 135 104 126 114 136 115 137 108 130 116 138 105 127 105 127 116 138 94 116 117 139 118 140 99 121 99 121 119 141 100 122 99 121 118 140 119 141 97 119 96 118 120 142 120 142 102 124 121 143 98 120 112 134 111 133 100 122 119 141 112 134 122 144 97 119 123 145 113 135 124 146 125 147 126 148 121 143 127 149 110 132 109 131 128 150 123 145 120 142 129 151 130 152 121 143 126 148 123 145 129 151 131 153 123 145 131 153 132 154 124 146 133 155 125 147 124 146 134 156 133 155 124 146 118 140 134 156 118 140 124 146 119 141 128 150 116 138 110 132 128 150 135 157 116 138 135 157 117 139 116 138 122 144 123 145 132 154 122 144 132 154 109 131 135 157 136 158 117 139 135 157 137 159 136 158 132 154 131 153 138 160 131 153 130 152 139 161 130 152 126 148 139 161 125 147 133 155 140 162 133 155 141 163 140 162 137 159 141 163 133 155 142 164 143 165 144 166 114 136 125 147 143 165 145 167 146 168 147 169 140 162 148 170 149 171 150 172 151 173 152 174 150 172 153 175 154 176 151 173 150 172 154 176 141 163 147 169 148 170 147 169 155 177 148 170 145 167 147 169 141 163 156 178 157 179 158 180 159 181 160 182 161 183 139 161 126 148 157 179 131 153 139 161 162 184 139 161 157 179 156 178 163 185 139 161 164 186 139 161 156 178 164 186 165 187 156 178 166 188 156 178 158 180 167 189 147 169 146 168 168 190 169 191 164 192 165 193 163 194 164 192 170 195 161 183 160 182 169 191 138 160 163 185 171 196 172 197 173 198 167 199 173 198 174 200 167 199 165 193 166 201 174 202 165 193 174 202 173 203 138 160 162 184 163 185 163 194 170 195 160 182 171 204 163 194 160 182 161 183 169 191 175 205 146 168 173 198 172 197 64 206 43 51 45 53 50 102 49 57 47 59 51 62 54 65 52 63 57 68 54 65 51 62 49 57 69 81 48 58 54 65 57 68 55 66 47 55 46 54 83 207 65 109 64 206 45 53 67 208 66 209 59 70 67 208 59 70 61 72 83 103 46 89 62 90 54 65 56 67 52 63 56 67 55 66 70 94 70 82 55 66 58 69 74 91 56 67 70 94 52 63 56 67 76 93 76 93 56 67 74 91 45 53 69 87 49 60 44 52 52 210 69 87 60 71 76 93 72 114 52 63 76 93 60 71 66 209 68 84 59 70 51 62 43 51 64 75 43 51 51 62 44 52 51 62 64 75 57 68 46 89 63 211 61 72 63 211 67 208 61 72 44 52 53 212 52 210 77 95 78 96 176 213 74 91 77 95 75 92 77 95 80 99 75 92 77 95 108 130 79 98 71 83 65 76 81 100 84 104 60 71 86 106 60 71 73 86 86 106 176 213 78 96 96 118 82 101 81 214 88 108 77 95 106 128 108 130 77 95 176 213 106 128 81 214 50 102 88 108 81 214 65 109 50 102 85 105 73 86 92 113 88 108 50 102 83 103 73 86 72 85 92 113 85 105 92 113 91 112 92 113 93 115 91 112 95 117 176 213 96 118 91 112 100 122 112 134 89 110 91 112 112 134 98 120 89 110 112 134 102 124 88 108 84 104 103 125 102 124 84 104 106 128 176 213 95 117 120 142 82 101 102 124 96 118 78 96 120 142 78 96 82 101 120 142 101 123 86 106 87 107 79 98 108 130 105 127 106 128 95 117 107 129 107 129 122 144 109 131 108 130 107 129 110 132 114 136 111 133 113 135 104 126 111 133 114 136 104 126 98 120 111 133 107 129 95 117 122 144 104 126 101 123 98 120 94 116 116 138 117 139 108 130 110 132 116 138 103 125 104 126 115 137 177 215 103 125 115 137 177 215 121 143 103 125 121 143 102 124 103 125 123 145 97 119 120 142 113 135 112 134 119 141 94 116 117 139 99 121 95 117 97 119 122 144 127 149 177 215 142 164 127 149 121 143 177 215 142 164 177 215 115 137 114 136 113 135 125 147 129 151 120 142 121 143 130 152 129 151 121 143 131 153 129 151 130 152 115 137 114 136 142 164 117 139 136 158 134 156 118 140 117 139 134 156 119 141 124 146 113 135 128 150 109 131 178 216 128 150 178 216 135 157 137 159 179 217 141 163 137 159 152 174 179 217 136 158 137 159 134 156 178 216 150 172 152 174 135 157 152 174 137 159 135 157 178 216 152 174 180 218 109 131 132 154 134 156 137 159 133 155 142 164 114 136 143 165 178 216 109 131 180 218 158 180 127 149 142 164 143 165 125 147 140 162 153 175 180 218 132 154 150 172 180 218 153 175 178 216 180 218 150 172 158 180 126 148 127 149 145 167 175 205 146 168 151 173 161 183 175 205 145 167 151 173 175 205 157 179 126 148 158 180 181 219 149 171 155 177 153 175 132 154 138 160 144 166 149 171 181 219 154 176 153 175 171 196 159 220 154 176 171 196 182 221 158 180 142 164 182 221 144 166 181 219 144 166 140 162 149 171 140 162 141 163 148 170 144 166 143 165 140 162 152 174 151 173 179 217 179 217 145 167 141 163 148 170 155 177 149 171 142 164 144 166 182 221 153 175 138 160 171 196 151 173 145 167 179 217 151 173 154 176 159 220 151 173 159 220 161 183 138 160 131 153 162 184 147 222 168 223 155 224 163 185 162 184 139 161 167 189 158 180 182 221 166 188 156 178 167 189 168 190 146 168 172 197 165 187 164 186 156 178 168 223 172 225 155 224 160 182 170 195 164 192 169 191 160 182 164 192 159 181 171 204 160 182 172 225 167 226 182 227 172 225 182 227 181 228 166 229 167 199 174 200 155 224 172 225 181 228 175 205 169 191 165 193 175 205 165 193 146 230 146 230 165 193 173 203 183 231 184 232 185 233 186 234 187 235 188 236 187 235 189 237 188 236 190 238 187 235 186 234 187 239 190 240 191 241 190 240 192 242 191 241 193 243 190 238 186 234 185 244 193 245 186 246 193 245 185 244 184 247 194 248 195 249 184 232 183 231 194 248 184 232 194 250 183 251 196 252 194 250 196 252 197 253 195 254 198 255 191 256 195 254 191 256 192 257 187 239 199 258 200 259 187 239 191 241 199 258 201 260 202 261 200 262 203 263 202 261 201 260 204 264 203 263 201 260 205 265 204 266 201 267 205 265 206 268 207 269 208 270 206 268 205 265 206 271 199 272 207 273 207 274 209 275 210 276 207 274 211 277 209 275 212 278 210 279 209 280 213 281 212 278 209 280 211 282 199 272 191 256 211 282 191 256 198 255 213 283 209 284 211 285 213 283 211 285 198 286 198 286 194 248 197 287 213 283 198 286 197 287 197 287 214 288 213 283 215 289 216 290 217 291 218 292 216 290 215 289 215 289 203 263 218 292 202 293 203 294 215 295 200 259 202 293 215 295 205 296 218 292 203 263 219 297 218 298 205 299 219 300 220 301 214 302 221 303 219 300 214 302 219 297 221 304 218 298 216 305 221 304 214 306 217 307 216 305 214 306 221 304 216 305 218 298 213 308 220 309 212 310 205 299 207 274 210 276 220 311 219 312 210 313 205 299 210 276 219 297 210 313 212 314 220 311 205 296 203 263 204 264 213 308 214 315 220 309 200 259 215 295 187 239 222 316 215 289 217 291 222 316 217 291 223 317 185 233 223 318 224 319 223 318 225 320 224 319 214 306 225 320 217 307 214 321 226 322 224 323 214 321 224 323 225 324 226 325 214 326 197 327 224 319 183 231 185 233 226 328 183 329 224 330 226 328 196 331 183 329 196 332 226 325 197 327 223 317 185 333 222 316 223 318 217 307 225 320 222 316 188 236 189 237 222 334 189 335 187 239 215 295 222 334 187 239 188 236 222 316 185 333 198 286 195 249 194 248 206 271 208 336 227 337 227 337 199 272 206 271 208 336 200 262 227 337 199 272 211 282 207 273 201 260 200 262 208 336 201 267 208 270 205 265 199 258 227 338 200 259 192 257 190 238 193 243 184 339 192 257 193 243 184 339 195 254 192 257 186 246 188 340 185 244</p>
        </triangles>
        <triangles material="qmat_fbc365fc3facc314" count="82">
          <input semantic="VERTEX" source="#vertices" offset="0" />
          <input semantic="NORMAL" source="#normals" offset="1" />
          <p>0 0 1 1 2 2 2 2 1 1 3 3 0 0 4 4 5 5 0 0 2 2 4 4 4 4 6 6 7 7 6 6 3 3 8 8 1 9 9 10 10 11 3 3 10 12 11 13 8 8 12 14 13 15 12 14 11 13 13 15 14 16 8 8 13 15 7 7 8 8 14 16 10 11 9 10 15 17 10 12 16 18 11 13 16 18 17 19 11 13 13 15 11 13 17 19 0 20 18 21 9 10 5 5 4 4 19 22 4 4 7 7 20 23 18 24 21 25 22 26 20 23 14 16 23 27 20 23 7 7 14 16 24 28 25 29 21 25 24 28 5 5 19 22 19 22 20 23 23 27 18 24 0 0 5 5 24 28 19 22 26 30 21 25 25 29 27 31 26 30 23 27 28 32 28 32 29 33 30 34 24 28 28 32 30 34 25 29 24 28 30 34 30 34 29 33 31 35 32 36 33 37 17 19 28 32 14 16 32 36 34 38 35 39 36 40 17 19 36 40 37 41 29 33 38 42 39 43 9 44 35 39 34 38 40 45 35 39 9 44 40 45 41 46 35 39 32 36 17 19 37 41 39 43 37 41 41 46 27 31 31 35 42 47 42 47 39 43 41 46 31 35 29 33 39 43 1 9 0 20 9 10 3 3 1 1 10 12 6 6 2 2 3 3 4 4 2 2 6 6 7 7 6 6 8 8 12 14 3 3 11 13 33 37 14 16 13 15 8 8 3 3 12 14 15 17 9 10 34 48 15 49 34 38 36 40 15 49 36 40 16 18 10 12 15 49 16 18 24 28 21 25 5 5 21 25 18 24 5 5 28 32 23 27 14 16 9 10 18 21 22 50 26 30 19 22 23 27 19 22 4 4 20 23 22 26 21 25 27 31 9 44 22 26 42 47 22 26 27 31 42 47 24 28 26 30 28 32 29 33 28 32 32 36 27 31 25 29 30 34 27 31 30 34 31 35 32 36 14 16 33 37 16 18 36 40 17 19 33 37 13 15 17 19 9 44 42 47 40 45 40 45 42 47 41 46 29 33 32 36 38 42 39 43 38 42 37 41 36 40 35 39 37 41 35 39 41 46 37 41 38 42 32 36 37 41 42 47 31 35 39 43</p>
        </triangles>
      </mesh>
    </geometry>
  </library_geometries>
  <library_visual_scenes>
    <visual_scene id="scene">
      <node id="calf_mirror_dae">
        <instance_geometry url="#geometry">
          <bind_material>
            <technique_common>
              <instance_material symbol="qmat_4b294f1aa1dfaafb" target="#qmat_4b294f1aa1dfaafb" />
              <instance_material symbol="qmat_fbc365fc3facc314" target="#qmat_fbc365fc3facc314" />
            </technique_common>
          </bind_material>
        </instance_geometry>
      </node>
    </visual_scene>
  </library_visual_scenes>
  <scene>
    <instance_visual_scene url="#scene" />
  </scene>
</COLLADA>