<?xml version='1.0' encoding='utf-8'?>
<COLLADA xmlns="http://www.collada.org/2005/11/COLLADASchema" version="1.4.1">
  <asset>
    <created>2026-09-14T00:00:00Z</created>
    <modified>2026-09-14T00:00:00Z</modified>
    <unit name="metre" meter="1" />
    <up_axis>Z_UP</up_axis>
  </asset>
  <library_effects>
    <effect id="qmat_4b294f1aa1dfaafb_effect">
      <profile_COMMON>
        <technique sid="common">
          <lambert>
            <emission>
              <color sid="emission">0 0 0 1</color>
            </emission>
            <diffuse>
              <color sid="diffuse">0.6717055 0.6924257 0.7742702 1</color>
            </diffuse>
            <reflectivity>
              <float sid="specular">0.5</float>
            </reflectivity>
          </lambert>
        </technique>
      </profile_COMMON>
    </effect>
    <effect id="qmat_fbc365fc3facc314_effect">
      <profile_COMMON>
        <technique sid="common">
          <lambert>
            <emission>
              <color sid="emission">0 0 0 1</color>
            </emission>
            <diffuse>
              <color sid="diffuse">0 0 0 1</color>
            </diffuse>
            <index_of_refraction>
              <float sid="ior">1.45</float>
            </index_of_refraction>
          </lambert>
        </technique>
      </profile_COMMON>
    </effect>
  </library_effects>
  <library_materials>
    <material id="qmat_4b294f1aa1dfaafb" name="qmat_4b294f1aa1dfaafb">
      <instance_effect url="#qmat_4b294f1aa1dfaafb_effect" />
    </material>
    <material id="qmat_fbc365fc3facc314" name="qmat_fbc365fc3facc314">
      <instance_effect url="#qmat_fbc365fc3facc314_effect" />
    </material>
  </library_materials>
  <library_geometries>
    <geometry id="geometry" name="calf_dae">
      <mesh>
        <source id="positions">
          <float_array id="positions_array" count="684">0.0135341305 0.0103331711 -0.226296276 0.0187095851 0.00812334754 -0.220719367 0.0138330795 -0.00122589688 -0.22969 0.0084957052 0.00917319581 -0.232186005 0.00738248928 -0.000556765939 -0.23481454 0.00622916734 0.0188293308 -0.213062391 -0.0111272437 0.0174969286 -0.201915026 0.0147675946 0.0153304208 -0.21830295 0.0022759696 0.0196432006 -0.222279623 0.00270509813 0.0131720165 -0.233159229 -0.00810754392 0.0179649983 -0.229014844 0.00810221117 -0.0178264771 -0.214009151 -0.00298092607 -0.0165341962 -0.230363652 -0.00682031456 -0.00926622283 -0.232769907 0.00211719167 -0.00919935014 -0.234175906 0.017565053 -0.0115802186 -0.220040888 0.012885523 -0.0103881191 -0.226802945 -0.0113189081 -0.0171469152 -0.201842189 0.00528724212 -0.0176686887 -0.226427093 0.00741898827 -0.00968939438 -0.232532829 -0.00491922814 -7.54014764e-05 -0.235115558 -0.00866067596 -0.0197065547 -0.215763941 -0.00694242306 0.0112920888 -0.232608184 -0.0194271766 0.0156391505 -0.209425703 -0.0161475055 0.0189338028 -0.217407957 -0.0214127526 0.0099765854 -0.205457211 -0.0179967023 0.00814552419 -0.197662055 -0.0115421629 0.00905967038 -0.230968714 -0.0202692151 0.000603823806 -0.226212174 -0.0234331824 0.0109409504 -0.213592827 -0.0183853861 0.0118839731 -0.224759191 -0.0225538388 0.00945116486 -0.219017327 -0.0184776448 0.00579012465 -0.226652309 -0.0258157663 0.00277651101 -0.213987768 -0.0238401741 0.00398547342 -0.20655717 -0.0243762955 -0.00527548511 -0.208370835 -0.010701458 -0.0102701653 -0.231202319 -0.020534642 -0.0159098189 -0.213428497 -0.0121864667 -0.0176618341 -0.226007074 -0.0183876269 -0.00545081357 -0.197445944 -0.0238520224 -0.00960012246 -0.217677087 -0.0209181309 -0.0101211397 -0.205039755 -0.0185007844 -0.00894702133 -0.225232095 0.0135600585 -0.00308019971 0.0135321347 0.00905699562 -0.00297778612 0.0019045996 -0.000580883701 -0.00298144249 0.0118391272 0.0141486824 0.00302648009 0.0162617005 0.00216774619 0.00292008277 0.00969596021 0.00864501111 0.00287279906 0.0032127474 0.00428497419 0.00677153887 0.0312131327 -0.00972227938 0.00301947352 0.019177774 0.00207352173 0.00303676119 0.0307390932 -0.00569587108 0.00292452564 0.0157065 -0.0101207122 -0.00301611423 0.0189392343 0.00253532897 -0.00678937277 0.0299321115 -0.00228155474 -0.00707544386 0.0201555938 0.0144534614 -0.00694612646 0.026250802 0.0145352455 -0.00305167842 0.0258800332 0.0147053702 0.00682593416 0.0252022371 0.0140158599 0.00306565524 0.027089024 0.0108070811 0.00690185884 0.00238157832 0.0119602717 0.00326789962 -0.00463930424 -0.00305963028 -0.00310611492 0.0264991913 0.00748591498 -0.00308107608 0.0311571807 -0.0167923868 -0.000467534643 0.00919670146 -0.016290633 0.00677597243 0.00719617261 -0.0199144352 -0.000235312356 -0.00284368987 -0.00481764879 -0.00726118684 0.0234598927 -0.0145754516 -0.0086321393 0.0100246966 -0.0022246507 -0.00952707324 0.0208473727 -0.0116149327 -0.00937151536 0.00725917565 -0.0124000628 -0.00695077796 0.00213862979 0.0111599006 -0.00685452018 0.00592203764 -0.0177408643 0.0082811052 -0.00802642293 -0.0143461991 0.00567516126 -0.0305405073 -0.0185799506 -0.00024757575 -0.0182918347 -0.0136113651 0.0114145614 -0.0182929579 0.000858520623 0.00810018182 -0.0314357616 -0.0127506638 -0.00870931987 -0.0122699197 -0.000755580666 -0.00722298538 -0.0262483191 -0.0089826826 -0.0129695311 -0.0263625365 0.0122239748 -0.0042164824 -0.00528268237 0.0123755438 -0.00665847771 -0.0204638299 0.00243413658 0.0108543597 -0.0400154889 0.00201853877 0.00701284595 -0.0249446984 -0.00904163904 0.00697625102 0.0186690968 0.0154823149 -0.00657712063 -0.0389605723 -0.00607204065 0.0143877622 -0.0320176855 -0.00497233961 0.0120123914 -0.0492417179 0.0126324939 0.00668585114 -0.0223413073 0.0139583908 2.80890617e-05 -0.0213457365 -0.0151544409 -0.00996866263 -0.016467141 -0.0178505816 -0.00562400231 -0.0170912724 -0.0160030611 -0.00927086826 0.00249718945 -0.0056523052 -0.0126260174 -0.0457564071 0.0114527866 0.0165103581 -0.0586967207 -0.0113495197 0.000303097768 -0.0428144261 -0.0110306442 -0.00581217092 -0.040766038 -0.00514591252 -0.0146797178 -0.0358685926 0.00202687527 -0.016178403 -0.0446314514 -0.00235552178 -0.006335916 -0.064853631 -0.000271399389 -0.0118254283 -0.0632709488 0.00671093678 -0.0161535144 -0.0671100318 0.0149020152 -0.0166168492 -0.0755584687 0.019138027 1.07099163e-06 -0.051397793 0.0182838906 -0.00670021307 -0.0532940067 0.00229175296 0.0160516985 -0.0539586097 0.0181801617 0.00688544335 -0.0536092818 0.0188335609 0.0111150788 -0.0655243918 0.00802357029 -0.00939648598 -0.046420902 0.0186157953 -0.0114936493 -0.0657499433 -0.00708116544 0.00610075844 -0.0518805571 0.016407432 0.0151564544 -0.105432868 0.00523399655 0.0120846555 -0.0795214698 0.0228427984 -0.0119784344 -0.0903132185 0.0112949377 -0.0160880946 -0.0581812188 0.00368176936 0.00631547393 -0.0829752609 0.00494632637 -2.05039087e-05 -0.089917466 0.00792368036 -0.0058980938 -0.0983174518 0.00632008305 -0.0119455727 -0.0828955546 0.0225705672 0.00619115075 -0.0734228864 0.0230700877 -0.00598859275 -0.0757230818 0.0277240891 0.00016535983 -0.0957897007 0.0136469733 -0.016143905 -0.0904845372 0.0220157579 0.0118173212 -0.0850342289 0.0163897891 0.0166304167 -0.0853117853 0.0173259135 -0.0149965901 -0.109854139 0.0132503808 -0.0103430208 -0.115210935 0.018137997 -0.011932537 -0.135876745 0.0216153283 -0.01434852 -0.11285653 0.0272346176 -0.0097577218 -0.131831348 0.0277241785 -0.00603685062 -0.104693413 0.0326397568 4.69152874e-05 -0.142138019 0.0265031364 0.0105864769 -0.120862305 0.0278739035 0.00587396463 -0.105354734 0.0312734433 0.00494405488 -0.145091981 0.0104447016 -5.9318565e-05 -0.118526757 0.0121467179 -0.00538530573 -0.128621429 0.0106900008 0.00968775153 -0.105698645 0.0221024062 0.0140148606 -0.116634719 0.0162194613 0.010811083 -0.138822079 0.0218911842 0.0106657799 -0.162366107 0.0154266665 0.0107900351 -0.161739454 0.00992302131 0.00197014725 -0.140331417 0.00749281934 0.00216546329 -0.152275741 0.00777470879 -0.00459553534 -0.156919152 0.0126816332 0.00801499374 -0.124604151 0.0139572443 -0.00859961845 -0.141443133 0.0273705814 0.00852743164 -0.158409163 0.0150729436 -0.0108495271 -0.163677976 0.0219533462 -0.0120011847 -0.143480688 0.00938651245 0.00866510905 -0.16302374 0.00304540573 0.00517845387 -0.168027237 -0.00277904281 0.00529710762 -0.177932501 0.00179417699 -0.000713128538 -0.167829216 0.0202566907 -0.0112697743 -0.168927476 0.0104550319 -0.0139450328 -0.183865845 0.0198819824 -0.0125542469 -0.189846888 0.0269689225 -0.00838369317 -0.1659659 0.000828597927 -0.0100365644 -0.178152099 0.00956767611 -0.00877085701 -0.162912384 -0.00201931503 -0.0055864146 -0.177280903 0.0157413501 0.0137088932 -0.187133729 0.0034197839 0.0123095084 -0.179509535 0.00881115813 0.00549792033 -0.184016079 0.0307521187 -8.26657269e-05 -0.176828384 0.0300157964 -0.00497457851 -0.169229567 0.0253528878 -0.00821057335 -0.193108365 0.023062015 0.0108202072 -0.191832006 0.0286896601 0.00545375235 -0.181134313 0.0266386867 0.00526850251 -0.196133077 0.0269137938 -0.00499294419 -0.196340784 0.0177422799 -0.00549619831 -0.189683452 -0.0120271714 -0.00484180264 -0.189854905 0.00653131027 -0.00547152851 -0.182719722 0.023243295 -0.00460118242 -0.211438984 0.0225931648 0.00473160855 -0.211535186 0.00641004974 0.00499221124 -0.200811297 0.0210308582 0.0056471196 -0.191631347 0.00758231152 -0.00496225152 -0.201653451 -0.00255305669 -0.00514411181 -0.194298044 0.0309935752 -0.00502768904 -0.138987422 -0.0116236145 0.00469024014 -0.189607248 -0.00126552756 0.0053336611 -0.182934418 0.0263721589 0.00569837587 -0.194921702 -0.00182906457 0.0058290828 -0.177293241 0.0100522246 0.0139837461 -0.18379584 0.0215513315 0.0120459022 -0.19128865 0.00431291899 0.0184750818 -0.211389974 0.0126613835 0.0163439512 -0.216647789 -0.00985816587 0.0180640463 -0.202518404 -0.0189404897 0.0018692211 -0.196780279 -0.0157871004 0.0124290697 -0.198810905 0.0028275589 0.0116835656 -0.179431006 -0.00736121042 0.00497573707 -0.192167714 -0.011141872 0.00525807403 -0.189209938 -0.00135694735 0.00151002267 -0.18284753 -0.00763097499 0.00156243797 -0.193037003 -0.0125964554 0.00221453165 -0.189810485 -0.00452645775 -0.0188634861 -0.205781221 -0.0168889891 -0.0108004073 -0.198178381 0.0148014091 -0.0139578581 -0.186867103 0.00987345446 -0.0175260156 -0.214831293 0.0152851194 -0.0139954975 -0.218190864 0.0220271908 -0.0113380067 -0.191583067 0.0263158996 -0.00569346268 -0.194928721 -0.00189893972 -0.00568113755 -0.177352428 0.000519302557 -0.0097090248 -0.178212792 0.00579566788 -0.0129561573 -0.181172267 -0.00126552745 -0.00531475013 -0.182934418 -0.00735834753 -0.00495739328 -0.192163616 -0.0116001284 -0.00514154695 -0.189518929 -0.0013569477 -0.00149097259 -0.18284753 -0.0074766553 -0.0014493902 -0.192706287 0.0186712667 0.000274248625 -0.209280953 0.0193745922 -0.00232043723 -0.220943034 0.0227558892 0.0044440534 -0.21154438 0.0229258072 -0.00318493764 -0.212050214 0.0230041873 -0.00532594463 -0.209800988 0.0225251373 -0.00531489355 -0.197845891 0.0223094132 -0.00149097003 -0.197746038 0.01888307 -0.00483967969 -0.20862022 0.0176001862 0.0109449821 -0.219494864 0.0236639716 0.00551545108 -0.207668409 0.0225251373 0.00533402711 -0.197845891 0.0188789722 0.00488340668 -0.208628654 0.0223094132 0.00151002011 -0.197746038 -0.0134912087 -0.0154245263 -0.200297013</float_array>
          <technique_common>
            <accessor source="#positions_array" count="228" stride="3">
              <param name="X" type="float" />
              <param name="Y" type="float" />
              <param name="Z" type="float" />
            </accessor>
          </technique_common>
        </source>
        <source id="normals">
          <float_array id="normals_array" count="1080">0.644883633 0.490314752 -0.586273491 0.809661865 0.273643285 -0.519198418 0.759006858 -0.0444896035 -0.649560869 0.533131003 0.382211357 -0.754775345 0.354918271 -0.00625173841 -0.934876442 0.53706181 0.0493271574 0.842099428 0.531815946 0.00288145547 0.846855044 0.532868087 0.00763175171 0.846163929 0.152468055 0.988050699 0.0225680899 0.52202481 0.763128996 -0.380951822 0.188482448 0.957321465 -0.219111905 0.210578412 0.543115854 -0.812823415 -0.247147888 0.764196575 -0.595752895 0.533673942 -5.54108628e-05 0.84569031 -0.0344668776 -0.732822001 -0.679546833 -0.236430123 -0.287277907 -0.928209126 0.0820949227 -0.354368389 -0.931495309 0.738236725 -0.524846435 -0.42372483 0.666280091 -0.448006779 -0.59612149 0.529721141 -0.0011473872 0.848171115 0.307334661 -0.860153019 -0.407040715 0.431475639 -0.432997346 -0.791417718 -0.227853641 0.000486052042 -0.973695278 -0.362230986 -0.870872915 0.332218468 -0.0899480879 -0.995850801 0.0138043398 0.266054094 -0.96369487 -0.0225263368 -0.290787607 0.302713722 -0.907638133 -0.655348957 0.711249113 0.254248857 -0.350742787 0.890575528 0.289576799 -0.451295882 0.883887827 -0.122777358 -0.803366363 0.446241319 0.394298345 -0.791436672 0.357662141 0.495687157 -0.496053755 0.244801566 -0.833068371 -0.74520427 0.00811515283 -0.666786909 -0.890201092 0.455285072 -0.0160453953 -0.704642475 0.427269012 -0.56649822 -0.861506581 0.347353041 -0.370340824 -0.689008474 0.192371428 -0.698756456 -0.993163168 0.0851407051 -0.079862535 -0.919466615 0.133069739 0.369964302 -0.936437964 -0.227000907 0.267496794 -0.449540466 -0.294364214 -0.84336412 -0.679875135 -0.731893539 0.045843523 -0.390936017 -0.782558441 -0.484532028 -0.806058109 -0.248239592 0.537259161 -0.903004885 -0.348709255 -0.250966251 -0.76837647 -0.487896532 0.414191484 -0.69679898 -0.310019672 -0.646806717 0.529437482 0.00295217568 0.84834379 0.538574517 -0.00227048784 0.842574835 0.528051078 -0.00168456882 0.849210978 0.526943803 -0.00119947281 0.849899292 0.0269657522 0.999614477 -0.00661208341 0.146249011 0.988085747 -0.0479357727 0.0029987155 0.999979138 0.00572472112 0.0109329261 -0.999932826 0.00384949404 0.00423630606 -0.999955118 0.00847399328 0.0498137213 -0.998715699 -0.0092478469 -0.0396739058 -0.0134985596 0.999121487 -0.78073436 0.166435659 0.602289796 -0.397141933 0.119664744 0.909922302 0.00199804455 -0.999980688 0.00588056678 -0.0118580395 -0.999837279 0.013593602 -0.00232135574 -0.999955237 0.00916955806 0.614262521 -0.0222475622 0.78878808 0.622543037 -0.0383466557 0.781645477 0.640521467 -0.0280016419 0.767429531 0.818307161 -0.0650280267 0.571090877 0.848798633 -0.0516322665 0.526189089 0.650245547 -0.0728131235 0.756226838 -0.244908676 -0.604757309 0.757818103 0.31616956 -0.926382244 -0.204579502 0.695415258 -0.613781571 0.373724252 0.000655342708 0.99999696 0.0023710446 0.936808944 0.0758295506 0.341524363 0.761768579 0.0863154233 0.642073452 0.968101501 0.21092099 -0.135247409 0.916611373 0.393519461 -0.0704701692 0.980238676 0.125195399 0.153160781 0.0733620152 -0.997120559 -0.0191985928 -0.000871237309 0.999973059 0.00728887739 -0.00304077077 0.999994218 0.00150877668 -0.9164446 -0.0185348075 0.399732113 -0.790885091 -0.178351268 0.585398674 -0.917398393 0.205605358 0.340744197 -0.996219277 -0.0382296592 0.0780108571 0.00353854708 -0.999987006 0.00366157596 -0.629424572 -0.164666176 0.759414136 -0.646182775 -0.451105267 0.615590692 -0.658249378 -0.679852784 0.323276907 -0.349933773 -0.877942801 0.326745808 -0.115248442 -0.989390492 0.0884544551 0.813788772 -0.140251234 -0.56398356 0.782623053 -0.49661693 -0.375330269 0.77393955 -0.628825307 -0.0748084337 0.00308273733 0.999954522 0.00902505964 0.946421504 -0.295284927 -0.130740702 0.896531641 -0.440620065 -0.0456612706 -0.954313993 0.293294549 -0.0571233667 -0.906500995 0.341172576 -0.24871105 -0.981454372 0.0388862751 -0.18771033 0.566865861 0.697982848 0.437587678 0.187167093 0.972127616 0.141196236 0.366119266 0.898747265 0.241267607 0.377883196 -0.92162174 0.0884177908 0.29449147 -0.938350856 0.181031495 -0.0268141627 -0.985494912 0.167573228 0.982134163 -0.131445557 0.13466461 0.971447706 -0.216193423 0.0977231041 0.00896865409 -0.999959707 -0.000299671141 0.0438768007 -0.999034703 -0.00210719043 0.614509284 0.664883256 0.424627572 0.0149667477 0.999723136 0.018156644 0.118408129 0.990710557 0.0668741614 0.000634883763 0.999998689 0.00148527313 0.684328794 -0.710584879 0.163594499 -0.818035424 0.543510139 -0.188187987 0.0774315447 0.966870725 0.243239298 -0.72765404 0.647545516 -0.226283804 0.969305158 0.210086703 0.127714917 0.992567718 0.000928273541 0.121690206 0.976078808 0.211686775 -0.0495867878 -0.510046303 -0.859625638 0.0299417712 -0.922066987 -0.359564453 -0.143198714 -0.620019853 -0.776747227 0.110630468 -0.672160923 -0.708677292 -0.214420438 0.447007746 0.853624523 0.267412126 -0.949570119 0.0127872657 -0.313293874 -0.906353295 -0.316628873 -0.279767424 -0.330560625 -0.943702161 0.0124877812 0.223753795 -0.93945545 0.259533733 -0.902145147 -0.305864781 -0.304270953 -0.753259778 -0.605611444 -0.256582409 -0.34736371 -0.931405842 -0.108727425 0.321748376 -0.945111513 0.0569408014 0.982035577 0.00311138388 0.188670069 0.790625513 -0.559981048 0.247653961 -0.30554691 0.94994843 -0.0651080012 0.784556448 0.565905571 0.253420711 0.785725892 0.581037581 0.2122031 0.528415799 -0.777407169 0.34119615 0.773212433 -0.597932041 0.211234167 -0.899542451 0.310511976 -0.30725503 0.0243082214 0.999676764 0.0074509941 -0.327819258 0.936488986 -0.124591075 -0.771471381 0.592149198 -0.232790023 0.772116661 -0.626958668 0.103724234 0.493175 -0.824881256 0.276313812 -0.920916736 0.26836127 -0.282656372 -0.960771084 0.0245157573 -0.276256889 -0.942055821 -0.26287514 -0.208392739 -0.752762854 -0.617820799 -0.227256551 0.94364816 0.279485345 0.177245811 0.943920732 -0.279249191 0.17616348 0.988495171 0.00790487416 0.151045665 -0.274784207 -0.954961598 -0.111990809 0.791397572 0.59971416 0.118460231 0.258223534 0.96599704 0.0130503504 -0.277790934 -0.954843938 -0.105381474 -0.768104613 -0.627748072 -0.126284152 -0.414848387 -0.906389236 -0.0797453001 0.423908502 -0.905548513 -0.0168371908 0.682602823 -0.730785668 -0.0023746884 0.930191696 -0.354773879 0.0942281708 0.99959141 0.000971287198 0.0285664815 0.74664712 0.665024519 0.016141491 0.939418674 0.329371512 0.0949048921 0.87838459 0.477840394 -0.0104413694 -0.992918313 0.0565729141 -0.104464091 -0.946786463 -0.321135372 -0.0216203574 -0.845447004 0.500787139 -0.185557663 0.375654817 0.926461935 -0.0234894734 -0.62064606 0.782969415 -0.0419216268 0.20615609 0.978268206 0.0221583936 -0.140420556 0.986365855 0.0858166516 -0.965693712 0.235189259 0.110098481 -0.946030617 0.205132425 0.250891864 -0.852165699 -0.447724432 0.270844012 -0.880557239 0.471044928 -0.0523026548 -0.672857821 -0.738128185 0.0492869504 0.589755356 0.806834996 -0.0347253717 -0.195929855 -0.97641629 0.0906793326 0.200981274 -0.978578568 -0.0446154438 -0.543988585 0.794712126 0.26927495 -0.789838374 0.461936325 0.403447866 -0.807838321 0.325115114 0.491627276 -0.899156094 -0.0841754824 0.429456413 0.216490746 -0.975090742 0.0482681207 -0.00738049112 -0.991818428 0.127443209 0.448340267 -0.893861592 0.001554535 0.592887878 -0.804794908 -0.0280905887 -0.52981627 -0.766748011 0.36248067 -0.464812875 -0.849686921 0.248960152 -0.561881304 -0.712482035 0.420307845 0.218428314 0.974056125 0.0591920242 -0.367256761 0.890278399 0.26930815 -0.485736996 0.181274891 -0.855101705 -0.512094021 0.150024742 -0.845725894 -0.457258284 0.209849447 -0.864221096 0.993869245 -0.0207397155 -0.108599052 0.877840459 -0.47549969 -0.0574118048 0.799475312 -0.597953916 -0.057361383 0.651191771 0.756730318 -0.057519149 0.874774694 0.47621119 -0.0893990695 0.959700584 0.200983644 -0.196418956 0.97712785 -0.117406018 -0.177304789 -0.324929357 -0.743152738 -0.584931612 -0.48778218 -0.370005429 -0.790673494 -0.481810808 -0.125984862 -0.867171347 -0.619806111 -0.674976289 0.400309086 -0.0174792819 -0.99956727 -0.0236578658 -0.535063505 -0.142770514 -0.832660556 -0.528971672 -0.134435281 -0.837923706 -0.534363806 -0.162433773 -0.829500198 0.967259407 0.0523534268 -0.24833107 -0.00120990258 0.998554111 -0.0537418164 -0.00595537247 0.999428511 -0.0332743041 -0.0205715038 0.999228001 -0.0334693119 -0.00770100532 0.998231232 -0.0589495003 -0.537244141 0.17897369 -0.824219108 -0.603866518 0.207247093 -0.769671261 -0.546893179 0.169412673 -0.819882452 -0.0298987404 0.999219596 -0.0258123893 -0.545661569 0.0954567418 -0.832551181 -0.530115187 -0.0279985033 -0.84746325 -0.52906847 0.0340348929 -0.847896338 -0.0322894827 0.999132872 -0.0262838658 -0.00380966882 -0.999092162 -0.0424303152 -0.156131983 -0.950191438 -0.269738913 -0.528591633 -0.0455597676 -0.847652793 -0.516656816 -0.069840163 -0.853339374 -0.520178199 0.133292183 -0.843592227 -0.0687132552 -0.992913067 -0.0969643146 0.674599051 -0.0466547571 0.736708522 -0.753992677 0.209728882 0.622502029 0.00377067132 0.999978483 0.00537293497 -0.00106796145 0.99998945 -0.00447221892 0.213164777 0.974211872 -0.0739728287 0.0676686615 -0.997699261 -0.00414666301 0.169201434 -0.340312123 0.92496407 -0.00300480053 0.999988139 0.00384027371 0.773904026 0.188558236 0.604581118 0.922801435 0.0172641054 0.384888858 0.885777593 -0.46375379 0.0181788132 -0.526819408 -0.174279526 -0.83191824 0.964619756 0.0645616576 -0.255617976 0.00593772717 -0.999607444 -0.0273809116 -0.0333148167 0.999088347 -0.0266950931 -0.79741168 0.0180888157 0.603164554 -0.52774334 0.0443817414 -0.848243594 -0.00869320426 -0.996269345 0.0858593658 0.0646284446 -0.99701488 0.0422428437 0.00742821395 -0.996381581 0.0846676454 0.0579010732 0.976248324 0.208774209 0.494827062 0.868978083 -0.00482428819 0.190359324 0.976186216 0.104037724 0.523280084 0.851260304 -0.0391641259 -0.196072727 0.926134348 0.322227597 -0.530174911 -0.00104207569 -0.847887635 -0.533620536 0.00371807185 -0.84571588 -0.529964626 -0.00325365388 -0.84801352 -0.525664449 -0.00660719164 -0.850666344 -0.34577629 0.823104918 0.450485349 0.53287369 -0.0849785805 0.841917038 0.533973813 -0.0786573738 0.841834307 0.527842939 -0.104954965 0.842832267 0.526416779 -0.110902205 0.842962682 0.323057115 -0.761551201 0.56184864 0.324385434 -0.808051348 0.491759211 -0.847749114 -0.0482443236 0.528198779 -0.838271022 0.0135873193 0.545084417 -0.834676981 0.0324499868 0.549782991 -0.849818707 -0.0660131127 0.5229249 -0.748139977 0.283248544 0.60004735 -0.766113222 0.0783498064 0.637912154 -0.738779247 0.0890541002 0.668037891 -0.60378629 0.580903232 0.545887887 -0.528872132 -0.00231550983 -0.848698378 -0.527995884 0.00183275086 -0.849244952 0.193255156 -0.974086821 0.11750453 -0.00830736477 -0.978459358 0.2062722 0.402703196 -0.914189935 0.0456822403 0.715222001 -0.680213273 -0.160522059 0.53502512 -0.843274415 -0.051345285 0.526485026 0.0998691618 0.844298303 0.536548376 0.0725592002 0.840744317 0.513790429 0.113653973 0.850354135 0.523951709 0.134929478 0.84099263 0.525681973 0.125435531 0.841382444 0.531970561 0.091447711 0.841810346 -0.483487278 -0.709701061 0.512410402 -0.657863557 -0.469462544 0.588914692 -0.681088507 -0.448819131 0.578515232 0.0121293683 0.997833848 0.0646567792 0.00310516311 0.997823238 0.0658721179 -0.0140087102 0.998445213 0.0539523847 -0.0105129881 0.998556674 0.0526693165 -0.837882638 -0.0157511067 0.545623124 -0.846239686 0.0365504585 0.531547248 -0.834682763 -0.0324487388 0.549774289 -0.848331749 0.0528858975 0.526817143 -0.766368926 -0.17788063 0.617282093 0.535671413 0.121633634 0.835620344 0.536529064 0.121687509 0.835062087 0.518639624 0.147764042 0.842127502 0.553766072 -0.122703366 0.823581815 0.536649883 0.00726778526 0.843773723 0.525923431 0.119415313 0.842107177 0.905429125 -0.120380044 -0.407070905 0.905485451 0.229776204 -0.356789887 0.901066005 -0.208774522 -0.380122691 0.835825622 -0.47770983 -0.270534307 -0.529393971 -0.0101826405 -0.848315001 -0.528036237 0.00217129267 -0.849219024 -0.517741024 -0.0202654973 -0.855297327 0.767847896 -0.624903142 -0.141087279 0.0763806999 0.996551216 0.032428991 0.0638222769 0.996885121 0.0463332981 0.211566851 0.903443992 0.372865081 0.953144789 0.0452585593 -0.299109787 0.949335933 0.0121077187 -0.314029753 0.95454514 0.0614656806 -0.291659951 0.947308302 -0.00215137214 -0.320315957 0.401444674 0.7684201 0.498370022 0.502457321 0.273986936 0.820041299 0.569923222 -0.0170372184 0.821521342 0.438643545 -0.533836901 0.722917736 0.00793227646 0.999221802 0.0386374518 0.00190907833 0.999993563 0.00303276349 0.0205513481 0.993351996 0.113267161 0.531209648 0.00663690828 0.847214401 0.532597959 -0.00527317729 0.846351981 0.531065822 0.00783450808 0.847294331 0.532735765 -0.00649270695 0.846256733 0.0256303512 0.989344716 0.143318161 0.825439274 0.502311587 -0.257552058 0.846478164 0.489581794 -0.209247068 0.078250967 -0.996598303 0.0258567035 0.109464675 -0.990038276 0.0885532051 0.387735605 -0.771421611 0.504549086 0.949119627 -0.0116952537 -0.314698517 0.952659845 -0.0466055237 -0.300444961 0.953754902 -0.0614870489 -0.294229418 0.947269499 0.00266062072 -0.320426941 0.0106250988 -0.996845603 0.0786506757 0.00188837363 -0.999730587 0.0231345277 0.0143091334 -0.994676411 0.102049701 0.531209409 -0.00663677603 0.84721458 0.531065464 -0.00783434417 0.847294569 0.532598794 0.00527347159 0.846351385 0.532736719 0.00649302779 0.846256137 -0.00233376678 -0.999990404 -0.00370702986 0.763533413 0.630880833 -0.13786234 -0.514092922 0.0159145724 -0.857586861 -0.54187417 -0.0533782989 -0.838762879 -0.375805736 -0.823217034 0.425539434 -0.14076446 -0.937110424 0.319389135 -0.518943667 0.010304301 -0.854746342 -0.589294553 0.581693411 0.560682356 0.535532355 -0.0747423172 0.841200709</float_array>
          <technique_common>
            <accessor source="#normals_array" count="360" stride="3">
              <param name="X" type="float" />
              <param name="Y" type="float" />
              <param name="Z" type="float" />
            </accessor>
          </technique_common>
        </source>
        <vertices id="vertices">
          <input semantic="POSITION" source="#positions" />
        </vertices>
        <triangles material="qmat_4b294f1aa1dfaafb" count="362">
          <input semantic="VERTEX" source="#vertices" offset="0" />
          <input semantic="NORMAL" source="#normals" offset="1" />
          <p>43 52 44 53 45 54 46 55 47 56 48 57 49 58 50 59 51 60 51 61 50 62 52 63 52 64 53 65 45 66 48 67 45 66 44 68 52 64 50 69 53 65 54 70 55 71 56 72 57 73 43 52 45 54 58 74 59 75 46 76 60 77 46 76 61 78 46 55 48 57 61 79 58 74 49 58 59 75 49 58 51 60 59 75 62 80 63 81 57 73 50 59 64 82 53 83 65 84 66 85 64 82 51 61 52 63 46 55 59 86 51 61 46 55 62 87 53 83 67 88 53 83 68 89 67 88 69 90 68 89 70 91 67 88 68 89 69 90 55 71 69 92 70 93 55 71 71 94 56 72 62 80 45 54 53 95 62 87 67 88 54 70 43 96 56 72 72 97 73 98 74 99 75 100 76 101 73 102 77 103 71 94 78 104 79 105 78 104 80 106 79 105 61 78 44 68 81 107 81 107 72 97 82 108 72 109 79 105 82 110 76 101 77 103 83 111 65 112 84 113 77 103 85 114 84 113 65 112 82 110 79 105 86 115 76 116 87 117 88 118 89 119 61 78 90 120 90 120 82 108 86 115 90 120 81 107 82 108 71 94 70 93 78 121 70 91 91 122 78 104 92 123 91 122 93 124 66 85 92 123 93 124 66 85 75 100 92 123 92 123 94 125 91 122 87 117 83 111 95 126 96 127 97 128 92 123 92 123 97 128 94 125 80 106 94 125 98 129 80 106 98 129 99 130 96 127 100 131 97 128 97 128 100 131 94 125 94 125 101 132 102 133 99 130 94 125 102 133 99 130 102 133 103 134 104 135 86 115 105 136 87 117 106 137 88 118 107 138 90 120 104 135 77 103 107 138 108 139 86 115 109 140 105 136 109 140 110 141 105 136 87 117 95 126 106 137 79 105 109 140 86 115 79 105 80 106 109 140 88 118 111 142 74 99 95 126 83 111 108 139 89 143 107 138 84 113 106 137 112 144 113 145 110 141 103 134 114 146 115 147 103 134 110 141 88 118 116 148 111 142 116 148 117 149 111 142 111 142 117 149 96 127 100 131 118 150 119 151 117 149 118 150 100 131 108 139 107 138 120 152 121 153 105 136 110 141 120 152 104 135 122 154 102 133 119 151 123 155 95 126 124 156 125 157 108 139 124 156 95 126 96 127 117 149 100 131 126 158 127 159 128 160 123 155 127 159 126 158 114 146 129 161 130 162 131 163 114 146 130 162 132 164 122 154 131 163 103 134 123 155 129 161 133 165 124 156 134 166 135 167 122 154 132 164 136 168 118 150 117 149 136 168 137 169 118 150 113 145 138 170 116 148 125 157 124 156 139 171 125 157 139 171 112 144 138 170 136 168 117 149 140 172 141 173 142 174 143 175 144 176 145 177 140 172 144 176 143 175 146 178 143 175 136 168 112 144 140 172 146 178 112 144 139 171 141 173 137 169 147 179 127 159 133 165 135 167 148 180 128 160 149 181 150 182 128 160 147 179 149 181 127 159 147 179 128 160 146 178 140 172 143 175 142 174 151 183 140 172 152 184 153 185 154 186 155 187 156 188 157 189 150 182 155 187 158 190 145 177 159 191 160 192 154 186 159 191 145 177 160 192 159 191 149 181 154 186 161 193 159 191 142 174 162 194 163 195 142 174 141 173 162 194 144 176 151 183 152 184 151 183 142 174 163 195 163 196 164 197 153 198 152 184 151 183 153 185 165 199 166 200 167 201 149 181 159 191 156 188 168 202 169 203 170 204 170 204 165 199 171 205 172 206 167 207 157 208 161 193 173 209 174 210 174 211 156 212 159 213 170 204 171 205 175 214 170 215 176 216 177 217 178 218 170 215 177 217 168 219 170 220 178 221 164 222 178 218 177 217 177 223 176 224 173 225 153 226 164 222 177 217 172 206 179 227 171 228 172 206 157 208 156 212 176 224 175 229 179 230 162 231 168 219 178 221 162 231 178 221 164 197 173 209 180 232 174 210 48 67 47 233 45 66 49 58 85 234 50 59 85 114 49 235 60 236 47 233 52 64 45 66 72 109 56 72 71 94 44 53 43 52 81 237 62 80 57 73 45 54 60 77 58 74 46 76 54 70 67 238 55 71 63 239 62 87 54 70 63 239 54 70 56 72 81 107 43 96 72 97 85 234 65 84 50 59 50 59 65 84 64 82 46 55 52 63 47 56 49 235 58 240 60 236 64 82 66 85 68 89 53 83 64 82 68 89 70 91 68 89 93 124 71 94 55 71 70 93 55 241 67 241 69 241 57 242 63 239 56 72 43 96 57 242 56 72 74 99 96 127 75 100 76 116 88 118 74 99 76 116 74 99 73 98 73 98 75 100 66 85 68 89 66 85 93 124 85 114 89 143 84 113 85 114 60 236 89 143 61 78 48 67 44 68 72 109 71 94 79 105 73 102 65 112 77 103 89 119 60 77 61 78 87 117 76 101 83 111 80 106 78 104 91 122 65 84 73 98 66 85 91 122 94 125 80 106 90 120 61 78 81 107 70 91 93 124 91 122 92 123 75 100 96 127 99 130 98 129 94 125 94 125 100 131 101 132 115 147 99 130 103 134 115 147 109 140 99 130 110 141 109 140 115 147 104 135 90 120 86 115 107 138 89 119 90 120 121 153 104 135 105 136 83 111 77 103 108 139 77 103 84 113 107 138 109 140 80 106 99 130 74 99 111 142 96 127 112 144 138 170 113 145 106 137 125 157 112 144 88 118 106 137 113 145 106 137 95 126 125 157 101 132 100 131 119 151 116 148 88 118 113 145 114 146 121 153 110 141 122 154 104 135 121 153 124 156 108 139 120 152 120 152 107 138 104 135 102 133 101 132 119 151 103 134 102 133 123 155 119 151 127 159 123 155 181 243 131 163 130 162 181 243 132 164 131 163 131 163 121 153 114 146 129 161 123 155 126 158 122 154 121 153 131 163 114 146 103 134 129 161 124 156 120 152 134 166 134 166 120 152 122 154 135 167 134 166 122 154 133 165 134 166 135 167 119 151 118 150 127 159 118 150 137 169 127 159 116 148 138 170 117 149 139 171 124 156 133 165 138 170 112 144 146 178 138 170 146 178 136 168 137 169 143 175 145 177 137 169 145 177 147 179 136 168 143 175 137 169 140 172 112 144 141 173 139 171 133 165 141 173 141 173 133 165 148 180 130 162 150 182 158 190 130 162 129 161 150 182 158 190 181 243 130 162 129 161 126 158 150 182 126 158 128 160 150 182 154 186 173 209 161 193 154 186 153 185 173 209 141 173 168 202 162 194 141 173 148 180 168 202 155 187 149 181 156 188 165 199 132 164 166 200 166 200 132 164 181 243 166 200 181 243 158 190 158 190 155 187 157 189 150 182 149 181 155 187 149 181 147 179 160 192 140 172 151 183 144 176 147 179 145 177 160 192 144 176 154 186 145 177 144 176 152 184 154 186 153 185 151 183 163 195 166 200 158 190 167 201 171 205 165 199 167 201 148 180 135 167 169 203 161 244 174 211 159 213 135 167 132 164 165 199 169 203 135 167 165 199 168 202 148 180 169 203 170 204 169 203 165 199 172 206 171 228 167 207 176 245 170 204 175 214 172 206 174 210 180 232 174 211 172 206 156 212 157 189 167 201 158 190 171 228 179 227 175 246 172 206 180 232 179 227 173 225 176 224 179 230 182 247 153 226 177 217 163 196 162 231 164 197 153 185 182 248 173 209 182 249 177 223 173 225 173 209 179 227 180 232 183 250 184 251 185 252 186 253 187 254 188 255 188 255 187 254 189 256 190 257 186 253 188 255 188 258 191 259 190 260 190 260 191 259 192 261 193 262 186 253 190 257 184 263 186 264 193 265 193 265 185 266 184 263 194 267 185 252 195 268 183 250 185 252 194 267 194 269 196 270 183 271 194 269 197 272 196 270 195 273 191 274 198 275 195 273 192 276 191 274 188 258 199 277 200 278 188 258 200 278 191 259 201 279 199 280 202 281 203 282 201 279 202 281 204 283 201 279 203 282 205 284 201 285 204 286 205 284 206 287 207 288 208 289 205 284 207 288 207 290 206 291 200 292 206 293 209 294 210 295 206 293 210 295 211 296 212 297 210 298 209 299 213 300 210 298 212 297 211 301 191 274 200 292 211 301 198 275 191 274 213 302 211 303 210 304 213 302 198 305 211 303 198 305 197 306 194 267 213 302 197 306 198 305 197 306 213 302 214 307 215 308 216 309 217 310 218 311 215 308 217 310 215 308 218 311 203 282 202 312 215 313 203 314 199 277 215 313 202 312 205 315 203 282 218 311 219 316 205 317 218 318 219 319 214 320 220 321 221 322 214 320 219 319 219 316 218 318 221 323 217 324 214 325 221 323 216 326 214 325 217 324 221 323 218 318 217 324 213 327 212 328 220 329 205 317 209 294 206 293 220 330 209 331 219 332 205 317 219 316 209 294 209 331 220 330 212 333 205 315 204 283 203 282 213 327 220 329 214 334 199 277 188 258 215 313 222 335 216 309 215 308 222 335 223 336 216 309 184 251 224 337 223 338 223 338 224 337 225 339 214 325 216 326 225 339 214 340 224 341 226 342 214 340 225 343 224 341 226 344 197 345 214 346 224 337 184 251 183 250 226 347 224 348 183 349 226 347 183 349 196 350 196 351 197 345 226 344 223 336 222 335 184 352 223 338 225 339 216 326 222 335 189 256 187 254 222 353 188 258 189 354 215 313 188 258 222 353 187 254 184 352 222 335 198 305 194 267 195 268 207 290 227 355 208 356 227 355 207 290 200 292 208 356 227 355 199 280 200 292 206 291 211 301 201 279 208 356 199 280 201 285 205 284 208 289 200 278 199 277 227 357 192 276 193 262 190 257 185 358 193 262 192 276 185 358 192 276 195 273 186 264 184 263 187 359</p>
        </triangles>
        <triangles material="qmat_fbc365fc3facc314" count="82">
          <input semantic="VERTEX" source="#vertices" offset="0" />
          <input semantic="NORMAL" source="#normals" offset="1" />
          <p>0 0 1 1 2 2 3 3 2 2 4 4 5 5 6 6 7 7 5 8 7 9 8 10 8 10 7 9 9 11 8 10 9 11 10 12 7 7 6 6 11 13 12 14 13 15 14 16 9 11 3 3 4 4 2 2 15 17 16 18 6 6 17 19 11 13 15 17 18 20 16 18 16 18 19 21 2 2 4 4 14 16 20 22 17 23 21 24 11 25 18 20 14 16 19 21 14 16 18 20 12 14 9 11 20 22 22 26 23 27 6 28 24 29 6 28 25 30 26 31 27 32 20 22 28 33 23 27 29 34 25 30 24 29 8 10 10 12 6 28 5 8 24 29 24 29 30 35 31 36 30 35 32 37 31 36 24 29 31 36 29 34 30 35 27 32 32 37 31 36 32 37 28 33 27 32 28 33 32 37 29 34 31 36 33 38 29 34 33 38 34 39 33 38 35 40 34 39 31 36 28 33 33 38 20 22 13 15 36 41 17 23 37 42 21 24 21 24 38 43 18 20 36 41 12 14 38 43 34 39 35 40 39 44 35 40 40 45 41 46 28 33 36 41 42 47 42 47 38 43 40 45 41 46 37 42 17 23 40 45 38 43 37 42 0 0 7 9 1 1 1 48 7 7 11 13 3 3 0 0 2 2 7 9 0 0 3 3 9 11 7 9 3 3 18 20 38 43 12 14 20 22 9 11 4 4 2 2 1 1 15 17 13 15 20 22 14 16 15 49 1 48 11 13 4 4 2 2 19 21 14 16 4 4 19 21 11 25 21 24 18 20 15 17 11 25 18 20 16 18 18 20 19 21 22 26 10 12 9 11 27 32 22 26 20 22 6 28 23 27 25 30 29 34 23 27 24 29 6 6 26 50 39 51 24 29 5 8 8 10 30 35 24 29 10 12 30 35 10 12 22 26 26 31 25 30 34 39 26 31 34 39 39 44 30 35 22 26 27 32 25 30 29 34 34 39 6 6 39 51 17 19 28 33 20 22 36 41 36 41 13 15 12 14 17 23 39 44 41 46 39 44 35 40 41 46 41 46 40 45 37 42 42 47 36 41 38 43 40 45 28 33 42 47 21 24 37 42 38 43 35 40 33 38 40 45 33 38 28 33 40 45</p>
        </triangles>
      </mesh>
    </geometry>
  </library_geometries>
  <library_visual_scenes>
    <visual_scene id="scene">
      <node id="calf_dae">
        <instance_geometry url="#geometry">
          <bind_material>
            <technique_common>
              <instance_material symbol="qmat_4b294f1aa1dfaafb" target="#qmat_4b294f1aa1dfaafb" />
              <instance_material symbol="qmat_fbc365fc3facc314" target="#qmat_fbc365fc3facc314" />
            </technique_common>
          </bind_material>
        </instance_geometry>
      </node>
    </visual_scene>
  </library_visual_scenes>
  <scene>
    <instance_visual_scene url="#scene" />
  </scene>
</COLLADA>