<?xml version='1.0' encoding='utf-8'?>
<COLLADA xmlns="http://www.collada.org/2005/11/COLLADASchema" version="1.4.1">
  <asset>
    <created>2026-09-14T00:00:00Z</created>
    <modified>2026-09-14T00:00:00Z</modified>
    <unit name="metre" meter="1" />
    <up_axis>Z_UP</up_axis>
  </asset>
  <library_effects>
    <effect id="qmat_fbc365fc3facc314_effect">
      <profile_COMMON>
        <technique sid="common">
          <lambert>
            <emission>
              <color sid="emission">0 0 0 1</color>
            </emission>
            <diffuse>
              <color sid="diffuse">0 0 0 1</color>
            </diffuse>
            <index_of_refraction>
              <float sid="ior">1.45</float>
            </index_of_refraction>
          </lambert>
        </technique>
      </profile_COMMON>
    </effect>
  </library_effects>
  <library_materials>
    <material id="qmat_fbc365fc3facc314" name="qmat_fbc365fc3facc314">
      <instance_effect url="#qmat_fbc365fc3facc314_effect" />
    </material>
  </library_materials>
  <library_geometries>
    <geometry id="geometry" name="foot_dae">
      <mesh>
        <source id="positions">
          <float_array id="positions_array" count="330">0.0113559915 0.0146441981 -0.0115140416 0.0171994045 0.0116972085 -0.00677140802 0.0138596306 0.00848619454 -0.013858608 0.0192657765 0.000543265603 -0.00833500084 0.0148859303 -0.00126287795 -0.0150265517 0.011834438 0.00782494247 -0.0173017792 0.0131210033 -0.00102329138 -0.0157015901 0.00903214142 0.00895097107 -0.018031206 0.00962485466 0.00507350313 -0.0203611255 0.011435966 -0.00446986314 -0.0182815045 0.00186176191 0.0195021089 -0.00922432728 0.00433216337 0.016224565 -0.0163815469 -0.00337699777 0.0177001003 -0.0165033098 -0.00384636689 0.0188846458 0.00646763109 0.00813947059 0.0181574486 -0.00112703023 0.0121402564 0.0115613556 -0.0146777956 0.00492987828 0.0115750125 -0.0204541963 0.00305244187 0.00977574568 -0.0201938879 0.00572821125 0.0077518262 -0.0215761233 0.00549414475 0.0032405369 -0.0210305527 -0.00500651589 0.0143633736 -0.019112546 0.00219168584 0.00650683092 -0.0226119664 -0.00472827395 0.00861762371 -0.02091562 0.0125833871 -0.00750721712 -0.0166502148 0.0129893199 -0.0112712085 -0.0131693538 0.0174006354 -0.0114367316 -0.00690710638 0.0105122868 -0.0144893862 -0.0120116975 0.00125575811 -0.0187753774 0.00323669286 0.00732592074 -0.00674204947 -0.0213410109 0.00907670986 -0.00804828014 -0.0185791776 0.00742901303 -0.011269737 -0.0178339425 0.00583362021 -0.0157790873 -0.0161290672 0.00542731956 -0.00325145177 -0.0209798999 0.00340805878 -0.00845894124 -0.0202827174 0.00491952756 -0.0115997801 -0.0203467533 0.00598252052 -0.000571727986 -0.0224525388 0.00266298489 -0.00637610722 -0.0223143827 -0.00350383692 -0.00268598413 -0.0223734453 -0.000279612024 -0.010972769 -0.0208596773 0.0123891076 -0.0167599712 -0.00392573141 -0.00177909236 -0.0188922957 -0.0135508943 -0.0104486356 0.0200340711 -0.00469631981 -0.00946285762 0.016816793 -0.015743399 -0.024523383 0.00371438731 0.00516156759 -0.0258498862 0.0059106471 -0.000412394758 -0.0250896402 -0.00426206086 0.00411699852 -0.0230532307 0.00998121779 0.000739009178 -0.0243762769 0.00689291907 0.00472849887 -0.023241261 -0.000409263041 0.00882995035 -0.0229155421 -0.00117765833 0.00660740305 -0.0222973134 0.011736772 0.00524924323 -0.0205523986 0.00961834006 0.00760162342 -0.0173880737 0.00960933324 0.0149917714 -0.0190220699 -0.00045183886 0.0159166567 -0.0173204932 -0.0097280629 0.014921871 -0.0227034371 0.0133740706 -0.000788292498 -0.0184770413 0.0143231992 0.00809170492 -0.014497255 0.0147681665 0.0131324409 -0.0155854421 0.0184765253 0.000492969819 -0.00599129777 0.00494741742 -0.021245094 -0.00977607351 0.0114010787 -0.0187864099 -0.00925812591 0.00907246489 -0.0180871654 -0.010440059 0.00685361866 -0.0192597173 -0.0154270977 0.00994174648 -0.0153358551 -0.020020457 0.0150249302 -0.00661546271 -0.0207100231 0.0124694118 -0.00662725978 -0.0191196445 0.00970964599 -0.01229918 -0.0228402615 0.0104216151 -0.00656108093 -0.0153198242 0.017002264 -0.0109817386 -0.0173349734 0.0103242444 -0.012169769 -0.0214958768 0.0026575001 -0.01132634 -0.024480775 0.00553359371 -0.00574083254 -0.0164313912 0.00315298443 -0.0162059758 -0.0173812006 0.00546438294 -0.013285636 -0.019169461 0.00167355291 -0.0125152636 -0.0228101201 0.00861798227 -0.00389348739 -0.024674166 0.00338683208 -0.00188258209 -0.0258286949 -0.00155698764 -0.00316143339 -0.0241606254 -0.00515977247 -0.00307953823 -0.00817180704 -0.0180453919 0.0091590574 -0.0154012153 -0.018948203 -0.00294891489 -0.00253521418 -0.0200247001 -0.00664754678 -0.0237025004 -0.00766844582 0.00596112851 -0.018627895 -0.0141218984 0.0081019653 -0.0203250833 -0.00995701086 0.00749038998 -0.0230106711 -0.0090533467 0.00185536488 -0.0216769818 -0.0140648624 0.00039475938 -0.0217341818 -0.0116695073 0.00605899282 -0.0236144848 -0.0116223274 -0.000940325379 -0.0140294265 -0.0150104789 0.0128714042 -0.0252083931 -0.00753741944 -0.00208300725 -0.0227782521 -0.010158035 -0.00497512938 -0.00539760757 -0.00883833133 -0.020543538 -0.000208737663 -0.0150890537 -0.0186869055 -0.00683906721 -0.0124355145 -0.0186848566 -0.00996290427 -0.00927827694 -0.017865615 -0.00735663762 -0.00476961629 -0.0200264342 -0.00957329292 -0.0111775054 -0.0187227875 -0.0079422649 -0.000361680752 -0.0210272316 -0.0106233116 -0.00731321983 -0.0190879349 -0.00898849498 -0.0179655626 -0.0146703543 -0.0156916436 -0.0121915704 -0.0147290947 -0.0180105288 -0.0135087809 -0.0117770461 -0.0187572557 -0.00671021268 -0.0135492506 -0.0238429215 -0.00781740434 -0.00633279188 -0.0171092432 -0.00588632049 -0.0143109029 -0.017560821 -0.0102123227 -0.0117792031 -0.0193126518 -0.0149976602 -0.00764990645 0.0131606841 0.0161077827 -0.00423518382 0.0119809154 -0.00904247724 -0.0142501248</float_array>
          <technique_common>
            <accessor source="#positions_array" count="110" stride="3">
              <param name="X" type="float" />
              <param name="Y" type="float" />
              <param name="Z" type="float" />
            </accessor>
          </technique_common>
        </source>
        <source id="normals">
          <float_array id="normals_array" count="408">0.557725668 0.730513871 -0.394070596 0.741265535 0.492180258 -0.456381351 0.784859478 0.301297873 -0.541493475 0.847003043 0.024224015 -0.531035841 0.693131149 -0.020821372 -0.720510721 0.52348572 0.335858852 -0.783046305 0.580634534 0.013629023 -0.814050198 0.558099031 0.406483322 -0.723392546 0.64952004 0.201298431 -0.733213902 0.715033233 -0.0947883576 -0.692634583 0.174348384 0.971989453 -0.15760453 0.334674001 0.768169582 -0.545810223 -0.00600210391 0.824411869 -0.5659585 -0.0410531089 0.985603154 0.164015561 0.227960691 0.973553836 -0.0150631005 0.70514369 0.445120364 -0.551942289 0.276981294 0.218326092 -0.935743034 0.151182517 0.280711502 -0.94781059 0.0463774353 0.322561175 -0.945411801 0.060192056 -0.0235541072 -0.99790889 -0.503462732 -0.0779415071 -0.860494256 -0.175166905 0.457207352 -0.871939182 0.23942478 0.276947528 -0.930578232 -0.290192574 0.22378093 -0.930435598 0.612634838 -0.433453649 -0.660905778 0.690092921 -0.473043829 -0.54772377 0.738325477 -0.493538886 -0.459668159 0.572222948 -0.712381124 -0.406293094 0.540441215 -0.00705843605 0.841352165 0.538642228 -0.000119892851 0.842534602 0.533083677 -0.00362112699 0.846054733 0.244219139 -0.377507955 -0.893221557 0.554451704 -0.444909543 -0.703305662 0.617689073 -0.461818755 -0.636540413 0.402279794 -0.751262307 -0.523235977 -0.209544599 -0.0128287058 -0.977714956 -0.0455819219 -0.446740001 -0.893501878 0.345144838 -0.3035523 -0.888105333 0.81720829 -0.0388635881 -0.575030684 0.821735799 -0.379723847 -0.424923599 0.311604559 -0.298102766 -0.902240157 -0.214369431 -0.0849886984 -0.973048151 0.394510627 -0.188947544 -0.899255335 -0.0541518852 -0.357117116 -0.932488561 0.546338201 -0.0459613055 0.836302638 0.407670945 -0.887923002 -0.213066101 0.0813998356 -0.932266593 -0.352495492 -0.161993101 0.984775662 -0.0630488843 -0.342392027 0.717045724 -0.607135177 -0.937472105 0.0389452577 0.345874757 -0.952199936 0.237021387 -0.19270739 -0.77190733 -0.315917164 0.551684141 -0.944258928 0.322061419 0.0682021156 -0.867430627 0.361634761 0.341737419 -0.945742071 -0.0352697819 0.322998464 -0.971077085 -0.0857957378 0.22281909 -0.89893651 0.197030276 0.391269982 -0.807502925 0.233382478 0.541730225 -0.791200101 0.36595723 0.4899773 -0.849000812 -0.00641143369 0.528352618 0.530807912 0.000107973203 0.847492158 0.53030318 0.00399169466 0.847798705 0.531965673 -0.00395481754 0.846756697 -0.856513381 0.515507638 0.0252330843 -0.649721324 0.655342996 0.385211229 -0.489073873 0.776613176 0.397087753 -0.389872432 0.913682997 0.114816412 0.532313585 0.00225024484 0.846544266 -0.3207829 0.128551349 -0.938388467 -0.402195722 0.159740582 -0.901510715 -0.421131492 0.0809055641 -0.90338397 -0.351143211 0.316960454 -0.881041706 -0.675228059 0.272059828 -0.685602307 -0.700720191 0.643073738 -0.308945626 -0.543714762 0.282988459 -0.790121377 -0.485041887 0.279363871 -0.8286677 -0.875908494 0.35054931 -0.331510961 -0.505181134 0.735496342 -0.451483279 -0.424009979 0.243621662 -0.872275174 -0.711064637 0.0488667041 -0.701426506 -0.953116655 0.226183847 -0.201021314 -0.696183324 0.0819325149 -0.713173091 -0.700906336 0.155479863 -0.696100771 -0.593671441 0.0640741885 -0.802152574 -0.972370565 0.232522503 -0.0207053535 -0.929239929 0.135559201 -0.343710363 -0.938486397 -0.119283989 0.324059635 -0.954373419 -0.177893311 -0.239844441 -0.176732391 -0.966020584 0.188599944 -0.372887194 -0.927658617 -0.0201167315 0.0515045896 -0.997549534 -0.0473515727 -0.939022779 -0.299002945 0.169804096 -0.627757728 -0.671810329 0.393180758 -0.76512593 -0.393964678 0.509287834 0.438125461 0.0467162095 -0.897699118 -0.918830931 -0.394042611 -0.0219119452 -0.602760911 -0.781309009 0.161973849 -0.969406724 -0.100825243 0.223796621 -0.743020356 -0.658882201 0.117452025 -0.862722695 -0.203232884 0.463039905 -0.970908523 -0.235601753 0.0427610427 -0.49219662 -0.787986815 0.369890839 -0.743286252 0.054280106 0.666767716 -0.920344412 -0.325838953 -0.216321796 -0.736861229 -0.591125071 0.32803452 -0.895689368 -0.400818348 -0.192575112 -0.327516407 -0.252669752 -0.910434544 0.00393080106 -0.646639884 -0.762785316 -0.237058774 -0.39103359 -0.889323294 -0.448356897 -0.135199517 -0.883570731 -0.3049559 -0.211610988 -0.928559482 -0.213670328 0.0150507167 -0.976789892 -0.346030116 -0.00159163738 -0.938222051 -0.316837907 -0.394598812 -0.862499595 -0.266068816 -0.801354706 -0.53575933 -0.639037609 -0.0841435269 -0.764559269 -0.703651428 -0.448608696 -0.551021695 -0.508923054 -0.221174255 -0.831913054 -0.926181316 -0.281531215 -0.250855297 -0.527098536 -0.201882184 -0.82547605 -0.0409905948 -0.105084315 -0.99361819 -0.678649306 -0.665253878 -0.311243355 0.536432683 0.035500221 0.843196154 0.53305155 0.00369246677 0.8460747 0.461896598 0.855373979 -0.234492734 0.605457127 0.000598039012 0.795877695 0.305647969 0.778488815 -0.548210204 0.739934385 0.315162927 -0.594280601 0.533530116 -0.00210677134 0.845778406 0.21526739 -0.504499018 -0.836146355 -0.658425391 -0.54806006 -0.515854776 0.0917676017 -0.991691411 0.0901487544 0.683927119 -0.229553029 -0.69249481 0.527481914 0.0105926571 0.849500239 0.532385647 7.1059716e-05 0.846501946 0.722491145 -0.0990105346 -0.684253991</float_array>
          <technique_common>
            <accessor source="#normals_array" count="136" stride="3">
              <param name="X" type="float" />
              <param name="Y" type="float" />
              <param name="Z" type="float" />
            </accessor>
          </technique_common>
        </source>
        <vertices id="vertices">
          <input semantic="POSITION" source="#positions" />
        </vertices>
        <triangles material="qmat_fbc365fc3facc314" count="216">
          <input semantic="VERTEX" source="#vertices" offset="0" />
          <input semantic="NORMAL" source="#normals" offset="1" />
          <p>0 0 1 1 2 2 2 2 3 3 4 4 5 5 4 4 6 6 7 7 6 6 8 8 8 8 6 6 9 9 10 10 0 0 11 11 10 10 11 11 12 12 13 13 14 14 10 10 0 0 15 15 11 11 11 11 7 7 16 16 12 12 16 16 17 17 16 16 7 7 17 17 18 18 8 8 19 19 17 20 18 18 19 19 20 21 21 22 22 23 4 4 3 3 23 24 24 25 25 26 26 27 25 28 1 29 27 30 8 8 9 9 28 31 23 24 29 32 9 9 29 32 24 25 30 33 30 33 24 25 31 34 19 19 28 31 32 35 28 31 29 32 33 36 29 32 30 33 34 37 35 38 32 39 36 40 32 35 28 31 33 36 21 22 35 38 37 41 36 40 33 42 38 43 37 41 36 40 38 43 25 28 27 30 39 44 39 45 40 46 31 34 24 25 26 27 31 34 41 47 12 12 42 48 20 21 22 23 42 48 12 12 20 21 42 48 43 49 44 50 45 51 46 52 44 50 47 53 48 54 43 49 49 55 47 53 43 49 48 54 50 56 46 52 51 57 52 58 47 53 53 59 1 29 53 60 54 61 52 62 53 60 1 29 55 63 46 52 50 56 56 64 55 63 50 56 57 65 56 64 52 58 51 57 56 64 50 56 56 64 58 66 55 63 57 65 58 66 56 64 13 67 52 62 1 29 13 13 58 66 57 65 22 23 21 22 59 68 60 69 22 23 61 70 61 70 59 68 62 71 61 70 62 71 63 72 55 63 58 66 64 73 65 74 64 73 66 75 64 73 65 74 67 76 65 74 66 75 67 76 68 77 69 78 66 75 67 76 70 79 71 80 60 69 61 70 63 72 63 72 62 71 72 81 69 78 63 72 73 82 69 78 73 82 66 75 73 82 72 81 74 83 67 76 75 84 46 52 46 52 75 84 44 50 75 84 71 80 76 85 71 80 70 79 77 86 76 85 77 86 78 87 79 88 80 89 81 90 53 59 48 54 82 91 82 91 83 92 54 93 82 94 84 94 83 94 82 91 85 95 84 96 85 97 86 98 87 99 85 97 88 100 86 98 89 101 83 92 80 89 83 92 86 98 80 89 84 102 87 99 83 92 87 99 86 98 83 92 48 54 49 55 82 91 49 55 85 95 82 91 45 51 90 103 85 104 90 103 91 105 85 104 92 106 93 107 94 108 95 109 92 106 94 108 96 110 92 106 95 109 95 109 94 108 97 111 98 112 96 110 99 113 99 113 96 110 95 109 80 89 100 114 81 90 94 108 93 107 100 114 40 46 100 114 93 107 101 115 100 114 102 116 70 79 103 117 104 118 78 87 104 118 91 105 95 109 97 111 101 115 72 81 99 113 105 119 105 119 95 109 106 120 74 83 105 119 103 117 80 89 107 121 100 114 100 114 107 121 102 116 86 98 107 121 80 89 88 100 107 121 86 98 102 116 106 120 101 115 77 86 104 118 78 87 14 122 13 67 108 123 108 123 13 67 1 29 108 124 1 1 0 0 15 15 0 0 2 2 3 125 1 29 25 28 2 2 1 1 3 3 5 5 2 2 4 4 7 7 5 5 6 6 14 14 108 124 10 10 10 10 108 124 0 0 92 106 37 41 38 43 11 11 15 15 7 7 12 12 11 11 16 16 7 7 15 15 2 2 7 7 2 2 5 5 18 18 7 7 8 8 19 19 8 8 28 31 17 126 7 7 18 18 21 22 19 127 35 38 21 22 17 17 19 127 20 21 17 17 21 22 23 24 3 3 25 26 1 29 79 128 27 30 25 26 24 25 23 24 6 6 4 4 23 24 109 129 23 24 24 130 9 9 6 6 23 24 25 26 39 45 26 27 28 31 9 9 29 32 29 32 23 24 109 129 29 32 109 129 24 25 33 42 29 32 34 37 35 38 19 127 32 39 37 41 35 38 36 40 36 40 32 39 33 42 38 43 33 42 34 37 38 43 34 37 93 107 39 45 27 131 81 90 39 45 81 90 40 46 26 27 39 45 31 34 34 37 30 33 31 34 93 107 34 37 31 34 31 34 40 46 93 107 59 68 21 22 37 41 41 47 13 13 10 10 20 21 12 12 17 17 41 47 10 10 12 12 44 50 76 85 78 87 43 49 47 53 44 50 51 57 46 52 47 53 56 132 51 132 47 132 52 58 56 64 47 53 53 59 47 53 48 54 13 67 57 133 52 62 58 66 13 13 41 47 60 69 42 48 22 23 61 70 22 23 59 68 98 112 37 41 96 110 62 71 59 68 37 41 62 71 37 41 98 112 72 81 62 71 98 112 68 77 41 47 42 48 58 66 41 47 68 77 64 73 58 66 68 77 64 73 68 77 66 75 55 63 64 73 67 76 68 77 42 48 60 69 69 78 68 77 63 72 68 77 60 69 63 72 67 76 66 75 70 79 75 84 67 76 71 80 73 82 63 72 72 81 74 83 72 81 105 119 70 79 66 75 73 82 70 79 73 82 74 83 55 63 67 76 46 52 44 50 75 84 76 85 76 85 71 80 77 86 1 29 89 134 79 128 1 29 54 61 89 134 27 131 79 88 81 90 53 59 82 91 54 93 84 102 85 97 87 99 54 93 83 92 89 101 79 88 89 101 80 89 49 55 43 49 45 51 49 55 45 51 85 104 85 97 91 105 88 100 45 51 44 50 90 103 44 50 78 87 90 103 92 106 38 43 93 107 96 110 37 41 92 106 72 81 98 112 99 113 100 114 40 46 81 90 97 111 94 108 100 114 101 115 97 111 100 114 102 135 103 117 106 120 70 79 74 83 103 117 104 118 103 117 102 116 91 105 104 118 107 121 104 118 102 116 107 121 105 119 99 113 95 109 106 120 95 109 101 115 103 117 105 119 106 120 88 100 91 105 107 121 77 86 70 79 104 118 90 103 78 87 91 105</p>
        </triangles>
      </mesh>
    </geometry>
  </library_geometries>
  <library_visual_scenes>
    <visual_scene id="scene">
      <node id="foot_dae">
        <instance_geometry url="#geometry">
          <bind_material>
            <technique_common>
              <instance_material symbol="qmat_fbc365fc3facc314" target="#qmat_fbc365fc3facc314" />
            </technique_common>
          </bind_material>
        </instance_geometry>
      </node>
    </visual_scene>
  </library_visual_scenes>
  <scene>
    <instance_visual_scene url="#scene" />
  </scene>
</COLLADA>