<?xml version='1.0' encoding='utf-8'?>
<COLLADA xmlns="http://www.collada.org/2005/11/COLLADASchema" version="1.4.1">
  <asset>
    <created>2026-09-14T00:00:00Z</created>
    <modified>2026-09-14T00:00:00Z</modified>
    <unit name="metre" meter="1" />
    <up_axis>Z_UP</up_axis>
  </asset>
  <library_effects>
    <effect id="qmat_4b294f1aa1dfaafb_effect">
      <profile_COMMON>
        <technique sid="common">
          <lambert>
            <emission>
              <color sid="emission">0 0 0 1</color>
            </emission>
            <diffuse>
              <color sid="diffuse">0.6717055 0.6924257 0.7742702 1</color>
            </diffuse>
            <reflectivity>
              <float sid="specular">0.5</float>
            </reflectivity>
          </lambert>
        </technique>
      </profile_COMMON>
    </effect>
    <effect id="qmat_ddc4e6410bf0a5b2_effect">
      <profile_COMMON>
        <technique sid="common">
          <lambert>
            <emission>
              <color sid="emission">0 0 0 1</color>
            </emission>
            <diffuse>
              <color sid="diffuse">0.9 0.95 0.95 1</color>
            </diffuse>
            <reflectivity>
              <float sid="specular">0.5</float>
            </reflectivity>
          </lambert>
        </technique>
      </profile_COMMON>
    </effect>
  </library_effects>
  <library_materials>
    <material id="qmat_4b294f1aa1dfaafb" name="qmat_4b294f1aa1dfaafb">
      <instance_effect url="#qmat_4b294f1aa1dfaafb_effect" />
    </material>
    <material id="qmat_ddc4e6410bf0a5b2" name="qmat_ddc4e6410bf0a5b2">
      <instance_effect url="#qmat_ddc4e6410bf0a5b2_effect" />
    </material>
  </library_materials>
  <library_geometries>
    <geometry id="geometry" name="hip_dae">
      <mesh>
        <source id="positions">
          <float_array id="positions_array" count="654">0.0354796499 0.0375113487 0.0349764675 0.0333406851 0.0118165836 0.0364860855 0.0369750671 0.0111923041 0.0327731073 0.0478682332 0.037516959 0.00805390533 0.0453406945 0.0375144631 -0.0182530191 0.0227383319 0.010335464 0.0424536876 0.0216494408 0.0117112231 0.0174075495 0.0103750704 0.0104082348 0.00364334462 0.0105273696 0.0121361641 0.013624425 0.0156957004 0.037515834 0.04549722 0.0105947871 0.010395444 0.0471011549 0.0100870151 0.0181533881 0.0472047329 0.0104925297 0.0103458213 0.0152916573 0.000743476499 0.0375152677 0.0480359793 -0.00775883393 0.0182127189 0.0473728329 0.0104291206 0.0110794539 -0.00368014956 0.0484619699 0.0107625853 -0.00347173191 0.0358384661 0.0374728329 -0.0354950242 0.0373392515 0.0107618328 -0.03161956 0.0333672836 0.0117995869 -0.03653723 0.0439510755 0.0103175817 -0.0202077348 0.0283985063 0.0110462941 -0.0240174197 0.0236520246 0.0375020988 -0.0422254279 0.0210385248 0.0103255436 -0.0436388813 0.0484619699 0.0115624396 0.00285466295 0.0211059134 0.0105465371 -0.0260316357 0.0106277252 0.0374967791 -0.047418382 0.0106084598 0.0103581706 -0.0472688712 0.0181404818 0.011230018 -0.0145907775 -0.0106133912 0.0375125185 -0.0473736674 0.0099979369 0.0180364251 -0.0476326309 -0.0149846682 0.0181537773 -0.0462983884 0.0105211427 0.0112005528 -0.0150762321 -0.0212697554 0.0374754891 0.043510858 -0.0351513736 0.0181687512 0.0334169231 -0.021128241 0.0181786641 0.0431891158 -0.0363558084 0.0375025794 0.0328169242 -0.0531904213 0.037493974 0.021867428 -0.0503897332 0.0375150479 -0.0256851129 -0.0485340469 0.0181551427 0.0264261812 -0.053322304 0.018179385 0.0195418131 -0.0297818314 0.0374936275 -0.0377699137 -0.0358409099 0.0181958396 -0.0331731625 -0.0505355522 0.0182246752 -0.0252472237 -0.0568579994 0.0181818511 -0.00591639429 0.0425409526 0.0375017002 0.0229245294 0.0442158245 0.0103433179 0.0197913945 0.0210266709 0.0112208128 0.0249931179 -0.0567655414 0.0375098288 -0.00447426969 0.00770275062 0.0169083849 0.0490989611 0.01018399 0.0120240338 0.0426220261 -0.000251714955 0.0178489983 0.0374653935 -0.0333631374 0.00205555558 0.0404950827 -0.016964756 0.0119655263 0.0459968485 -0.0260025598 -0.0154151702 0.0436951965 -0.0256789513 0.0175555907 0.0428866893 -0.0298172161 0.0185893886 0.0213924721 0.01018399 -0.0171519965 0.0468652956 -0.0141061591 -0.0206256285 0.034084022 0.01018399 -0.0165976472 0.0345307365 -0.0183521956 -0.015758574 0.0313430429 -0.0213984922 -0.0174102802 0.0469915532 -0.0608726293 -0.0204840377 0.021022683 -0.0335270092 -0.0251907147 0.0132327601 -0.0412851237 -0.0158793777 0.0153463511 -0.0499716438 -0.00416008616 0.00639086124 -0.0568961836 -0.0173675474 0.0153300436 -0.0539429225 -0.0197101403 -0.00081400905 -0.0467045717 -0.0255307034 0.00764121022 -0.047493618 -0.0224504136 -0.00930527598 -0.0556746759 -0.00782891735 0.00282596471 -0.0605410933 -0.0348925702 -9.30908864e-05 -0.0612003505 -0.029566586 -0.00699135801 -0.0612128377 0.0176422335 0.0221656132 -0.0612962693 0.00145695638 0.0281220283 -0.0331574567 0.0194659792 0.0247996189 -0.0436643474 0.0194659792 0.0107730599 -0.0390603915 0.0113471029 0.0279889777 -0.0345347561 0.0103412867 0.00987930968 -0.0179154538 0.0120579842 0.0320745744 -0.0533665605 0.0180458743 0.00693980372 -0.0483994596 0.0103734061 0.00764756603 -0.0516273975 0.0177773722 -0.0081132669 -0.0504219905 0.00855075009 -0.00664549507 -0.0612694249 0.00398892397 -0.00335600437 -0.0612745173 -0.000854084908 0.00486318907 -0.0348926224 0.0121657746 0.0203287955 -0.0356697813 0.0149258822 0.0184518751 -0.0343335606 0.013099636 0.0172490254 -0.0292051155 0.0183116235 0.0022673551 -0.0344492197 0.0106119048 -0.00737515558 -0.0244700294 0.0122621115 -0.029228108 0.0101532899 0.0151990885 -0.0481755361 0.00899243634 0.0157531947 -0.0356562436 -0.0190563221 0.0118498141 -0.0460885167 -0.0187105928 0.0172914565 -0.0462951213 -0.0197142195 -0.0176741779 -0.047973644 -0.0150175672 0.017428048 -0.0334803686 -0.0323890038 0.0187037028 -0.0180616863 -0.0326078236 0.00271588517 -0.041881267 -0.02752853 -0.0153953349 -0.0449387059 0.00964200776 -0.018335497 -0.0354206823 -0.017478466 -0.018544808 -0.0317269638 0.01018399 -0.017057851 -0.0473685563 -0.0313745961 -0.0220509619 -0.0145215429 -0.0605705976 -0.0188563354 -0.0231664684 -0.048149135 -0.0370412581 -0.000297906634 -0.049760472 -0.0153228706 -0.0156613123 -0.061272826 0.00314393546 -0.0282316636 -0.0515315495 -0.00866314396 -0.0056204875 -0.03863414 0.0193367824 -0.00892902818 -0.0410134122 0.0103586745 -0.0249436256 -0.0403089337 0.0182239898 -0.0327434577 -0.0612830892 0.0177799948 -0.021839194 0.031228764 0.0114970459 0.000705607119 0.0368033387 0.0107113374 0.0333017074 0.0484339483 0.0108893383 -0.00432871887 0.0309289582 0.0172740109 0.00379048288 0.0180567503 0.016839698 0.0238579866 0.0455907546 -0.0151219722 0.0173577722 0.0304590855 -0.0151441824 0.00805607438 0.0253504682 -0.0144367823 -0.0149854599 0.0453850515 -0.0151760215 -0.0178319458 0.016596565 -0.0144542744 0.023340242 0.0327260941 -0.0151478071 0.0211660918 0.0325098224 -0.010195029 0.018858755 0.0418314859 -0.0118911918 0.0057435343 0.0346935354 -0.0156547017 0.034611471 0.0260104295 -0.0122255879 0.0371445119 0.00503823627 -0.0104450816 0.039047312 0.0169334728 -0.0153687485 0.0454400629 -0.00477844942 -0.0157347135 0.0305471178 0.0265527628 -0.0234429128 0.0122474078 0.00976839662 -0.0140192118 0.0413689502 -0.00522373803 -0.0235829987 0.0291769113 -0.000619111699 -0.0139471339 0.0281193946 0.00524664065 -0.0225639604 0.0274915323 0.0138278725 -0.0235800669 -0.0272502862 0.0276654139 -0.023082545 -0.00938066747 0.0306725949 -0.0116726821 -0.0287102852 0.0147113809 -0.0122299809 -0.0392764881 0.0074621141 -0.0159145724 -0.0314350575 0.040597219 -0.0108366329 -0.0133431042 0.0209936444 0.0144388266 -0.0224081781 0.0309302509 0.0107412981 -0.0390200764 0.0217416119 -0.0154353576 -0.0453711897 -0.0137969572 -0.0107865529 -0.0374403708 -0.00245415233 0.0154060246 -0.0301982872 0.00927457958 -0.0223125294 -0.0262702219 0.0057611065 -0.0140814865 -0.027715601 -0.00608332548 0.0102678807 -0.0463969707 -0.0310761426 -0.0110546304 0.0243311711 -0.019775087 -0.0145610413 0.0210916363 -0.0287584011 -0.0151595427 0.0114922971 -0.0305038542 -0.0149221001 -0.00830875989 -0.0431020521 -0.0113312285 0.00556535972 -0.0444922522 -0.0151888151 0.0187399797 -0.0344406478 0.0115991458 0.0338304378 -0.0218027234 0.0113915354 0.0225306898 -0.0480659604 0.0110399155 0.00499678357 -0.0220602881 0.0172401834 0.0220848229 -0.0304482263 0.0114727626 3.26926747e-05 -0.0272301808 0.0172965415 -0.0130829867 -0.0440988168 -0.0154290795 -0.0224847384 -0.0394863673 -0.0130984075 -0.0114973206 0.00416266872 0.0108757168 0.0461030006 -0.0210531373 -0.0152155962 0.0447602905 -0.0169003792 0.0102304062 0.0453562997 -0.0223891903 -0.0126224682 0.0386986583 -0.022983944 -0.0231345817 -0.0197318979 -0.0252890475 -0.0230096951 0.0122537706 -0.0229006875 0.0115264552 -0.0216529593 -0.0365384109 0.0106801912 -0.0330164582 -0.0298977178 -0.0106708696 -0.0301683322 -0.0173817296 -0.0153530119 -0.0457755513 -0.0232825186 -0.0143474638 -0.0199820213 -0.0122496141 -0.0194682386 -0.0244746357 0.00106504816 0.0115234703 0.0310557932 -0.000324625929 -0.0108766863 -0.0409724154 -0.0620296076 -0.00703462353 -0.0286164843 -0.0613558292 -0.0294248983 -0.00294403499 -0.062157765 -0.0150906658 -0.0253725424 -0.061555855 -0.0228210613 -0.0189495701 -0.0622786544 -0.0267754048 -0.0136997234 -0.0620773546 0.0143206846 -0.0249743536 -0.0620541871 0.00570945954 -0.0285385959 -0.0622277595 0.0256435145 -0.0129746562 -0.0620773137 -0.0289227441 0.00765598984 -0.0623160005 -0.0296909809 0.000528519275 -0.0621225014 -0.0173644349 0.0240152106 -0.061946854 -0.0240527969 0.017579589 -0.0620055087 -0.0065555051 0.0287962388 -0.0622385703 0.0281378292 0.00442457525 -0.0622051358 0.00732417451 0.0283506177 -0.0623160005 0.0255554561 0.0129691493 -0.0619319007 0.017296588 0.0230671298 -0.0615310743 0.0250296537 0.0137216924 -0.0616380386 0.0281684715 -0.00314127048 -0.0616227351 0.0201413874 -0.0202821009 -0.0626159906 0.02435725 -1.47683795e-05 -0.0696159601 0.0253009703 0.00485210167 -0.0626159906 0.0186012443 0.0184017811 -0.0696159601 0.00400497904 -0.0259379707 -0.0696060061 8.82919558e-05 0.0260439496 -0.0696159601 0.0202963371 -0.0153621612 -0.0696159601 0.0154916951 0.0201104749 -0.0695961863 -0.0264784154 -0.00479986332 -0.0695553049 -0.0178169645 -0.0201372709 -0.0696159601 -0.0210407507 0.017400125 -0.0626159906 -0.01650705 0.0199115146 -0.0626634955 -0.0253474601 0.00998043176 -0.0628401712 0.00439556735 -0.0215618536 -0.0626159906 -0.0103953714 -0.0237502512 -0.0626159906 -0.0255605187 -0.00235909666 -0.0626159906 0.00092664134 0.0260439496 -0.0626159906 0.0206575803 -0.0146781038 -0.0626270771 0.00633127475 -0.0252112318 -0.0626159906 -0.0218608659 -0.0149050523</float_array>
          <technique_common>
            <accessor source="#positions_array" count="218" stride="3">
              <param name="X" type="float" />
              <param name="Y" type="float" />
              <param name="Z" type="float" />
            </accessor>
          </technique_common>
        </source>
        <source id="normals">
          <float_array id="normals_array" count="1350">0.695736349 0.011505872 0.718205035 0.600499153 -0.00300948834 0.799619734 0.808061719 -0.0078737326 0.589045167 0.000501301372 0.999999821 0.000241265225 -0.000268504053 0.99999994 8.48293203e-05 0.000347725203 0.999999821 -0.00050904596 0.428737938 0.00402461365 0.903419912 -0.069823496 -0.995020628 0.0711237788 -0.290418983 -0.918248534 0.269214511 -0.0194206163 -0.999810159 0.00156829262 -0.0377900079 -0.998449922 0.0408614129 -0.000736498157 0.999999464 -0.000702341902 0.327135891 0.0236589517 0.944681108 0.344426513 -0.00926116295 0.938767612 0.195008725 -2.61962959e-05 0.980801523 -0.00433683675 -0.999989331 0.00157401408 0.472648799 -0.749244988 -0.463934392 0.0525678582 -0.998326957 -0.0240804404 -0.0119495457 0.0237064008 0.999647558 -0.154201224 -0.00140891608 0.98803848 -0.998065829 -0.0621154457 0.00251437817 -0.999879539 0.00621109083 -0.0142248254 -0.999922156 -0.00115793804 -0.0124225263 -0.206114173 -0.96365273 0.169971496 -0.999078393 -0.0429158583 -0.000750803039 -0.99852246 -0.0543405637 -4.32920679e-05 -0.999970615 0.0028500054 -0.00711902697 -0.997856557 -0.0653556064 0.00330974744 0.948144972 0.00760866608 -0.317747146 0.990101814 0.0273857247 0.137653321 0.992256284 0.0161937773 -0.123146951 0.709511518 -0.0190157797 -0.704437196 0.831659734 -0.0280018765 -0.554579079 0.63865447 -0.0265276469 -0.769036293 -0.0342830904 -0.999346912 0.0114187943 -0.00195204618 -0.999879003 -0.0154328644 -0.086334914 -0.994186699 -0.0643357933 0.00536905881 0.999971151 -0.00537280645 0.000306258473 0.999999642 -0.00079321058 0.434360027 0.00137389859 -0.900738299 0.413529515 -0.00137813319 -0.910489678 0.0105965873 -0.999613047 0.0257183108 0.0105894776 -0.99904871 -0.0423034541 -0.0151875503 -0.996857643 0.0777443498 0.0159466341 -0.999010146 -0.0415257625 0.0282392409 -0.999190331 0.0286577977 0.0347979963 -0.999317288 0.0124096051 0.187272027 0.00964405481 -0.982260764 0.33611542 -0.00542713515 -0.941805184 -0.00316277449 -0.999852896 0.0168574695 -0.215193674 0.0106695732 -0.976513088 0.302016973 -0.00870285835 -0.953262806 -0.309245348 -0.0127642713 -0.950896621 -0.996939003 -0.0781793594 -0.000745087047 -0.996851206 -0.0792924911 -0.000628945883 -0.993066251 -0.117236711 -0.00865668617 -0.0176753365 -0.999688804 0.0176037326 0.000139627955 0.999999821 0.000539012253 -0.414977729 0.00603045756 0.909811616 -0.522504449 -0.00816800538 0.852597475 -0.440414011 -0.0181959718 0.897610366 7.75499502e-05 0.99999994 0.000356796518 -8.17305263e-05 1 0.000138289877 -0.000103180537 1 3.0783865e-06 -0.543737292 0.0147373034 0.83912605 -0.645041406 -0.00594979292 0.764124453 -0.00213563 -0.99998033 0.0058942521 -0.00223957584 -0.999978065 0.00623544166 -0.00207681046 -0.999955297 0.00922524836 0.00161681627 -0.9999879 -0.00464620395 2.32458078e-05 -0.999999523 -0.000993066817 -0.00140776241 -0.999998987 -0.000161048854 -0.856360555 0.0155836418 0.516143143 -0.936709762 -0.0355415568 0.348298222 -2.33069841e-05 0.999999762 -0.000648619665 -0.0128611671 0.999636233 -0.0237068757 -0.00172282802 -0.999998391 0.000456239301 -0.00322976639 -0.999994397 0.000861872802 -0.773978055 -0.0111979991 -0.633113444 -0.499896258 -0.0158544891 -0.865940154 -0.507413507 -0.0335825905 -0.861048043 -0.770708025 -0.00863722805 -0.637129903 0.000647070701 -0.999998868 -0.00135129248 -0.000537243788 -0.999999702 -0.000534493127 -0.995624304 0.00414435705 -0.0933545455 0.994629383 0.00202372135 0.103480667 0.00802325085 0.999960184 0.00390085648 0.90423876 0.01091222 0.42688778 0.927167296 -0.00696417317 0.374582857 8.99526713e-05 -0.999991119 -0.00420856802 0.0127046462 -0.999901474 0.00596988015 0.623137057 -0.443264723 -0.644373059 0.920541525 -0.0189913101 -0.390182793 0.000615785539 0.999998927 -0.00133867224 -0.00625329278 -0.999824166 0.0176791996 -0.000838139735 0.999988556 -0.00471321167 -0.00315250433 -0.999829173 0.0182119999 -0.00127669866 -0.999992609 0.00363005255 0.000815541134 0.999999523 0.000491149956 -0.997597039 0.00988841802 -0.0685734674 -0.00463120546 -0.999988496 0.00123761548 0.664892077 0.74676311 -0.0162287764 0.939834952 0.333308876 -0.0749366134 0.35725534 0.659044921 -0.661837161 0.686909914 -0.105010837 -0.719115794 0.145610675 -0.670570016 -0.727415502 0.480391532 0.130012393 -0.867364287 -0.225492597 0.692899823 0.684867084 -0.0195022319 0.99846822 0.0517775975 0.116923355 -0.992009342 0.0473966002 0.18161273 -0.918896258 -0.350209236 0.164389551 -0.974128664 -0.155078888 -0.0150481779 -0.0438242778 -0.998925924 0.0308478214 0.998980284 0.0329669639 0.0243516136 0.998695374 0.044884041 0.352883369 0.79578948 -0.492130458 -0.193991989 -0.562156022 0.803957522 -0.0950699151 0.0194996018 0.99527961 0.00452141929 -0.0651103705 0.997867823 -0.710060716 -0.546466529 0.444058746 -0.0810303167 -0.963540435 0.254997969 0.445475876 0.497967899 -0.744029045 0.844484031 0.27305457 -0.460747182 0.414743155 -0.649074256 -0.637723029 0.0561047606 -0.579636633 -0.812941313 0.690816104 0.161484301 -0.704766572 0.851661086 0.476135552 0.219016656 0.633308411 0.661121845 -0.402291358 0.565855384 0.60773921 0.557190061 -0.0255203992 -0.274127811 0.961354613 0.0806883276 -0.703005373 0.706592381 0.0258354843 -0.871879756 0.48903802 -0.999510229 0.0140497331 0.027961757 -0.996426642 -0.076230444 0.036371585 -0.861822248 0.325226814 0.389217108 -0.82829839 0.00767935021 0.560234547 -0.0813678429 0.996641517 0.00921635609 0.370351583 0.886497617 -0.277419597 0.0622193739 0.993845582 -0.0916496664 0.613459945 -0.719638169 -0.325250268 0.169645458 -0.985202789 0.0244103651 0.0221754164 -0.999738634 0.00555592077 0.0358657129 -0.958791137 0.281839043 0.314888954 0.116970152 -0.94189328 0.521919131 0.0391613394 -0.852095544 0.850536585 0.0882705003 -0.518455267 0.982998073 0.14696689 0.110070802 0.98282063 0.147514552 0.110919371 0.982977331 0.147030964 0.110170096 0.983414769 0.145667255 0.10805767 -0.0329568051 -0.785241663 -0.618311763 -0.00918181427 -0.772369146 -0.635107577 0.0879451111 -0.711694956 -0.696961939 0.580951214 0.418826789 -0.697911084 0.476955146 -0.365736753 -0.799218655 0.335247636 0.695441246 -0.635586798 0.247460231 0.449393153 -0.858375907 0.661137581 -0.626260757 -0.413151979 -0.533139884 0.530387402 -0.659128964 -0.621641278 0.578600168 -0.527999997 -0.809510767 0.565231085 -0.158764541 0.283382446 -0.82956177 0.481167018 -0.934322 0.352433324 -0.0532276779 0.697365701 0.490717769 -0.522376418 -0.669276476 -0.682752371 0.293118089 -0.383350313 -0.687044203 0.617262304 -0.412867874 -0.6920681 0.592099547 0.927883446 0.00776026119 -0.372789562 0.852578998 -0.107689328 -0.51138252 0.716336906 -0.243067071 -0.6540488 -0.957270861 0.278451473 -0.0780850649 0.913654089 -0.336281329 -0.228366077 0.729084074 -0.684023499 -0.0234153327 -0.957607567 -0.286664724 0.0284791924 -0.869162619 0.369418591 -0.328764737 -0.94137007 0.126937404 0.312584877 -0.945470333 0.247542426 0.211680532 -0.945198536 0.0800561383 0.316529244 -0.894435287 0.441645473 0.0702477023 -0.0710229203 0.997365773 -0.0147416741 0.0379059725 -0.998202324 0.0464248247 0.130019829 -0.990310669 0.0487809516 0.362298101 0.908078194 0.210081235 0.698482513 0.708633065 -0.0998067558 0.667422831 0.62868762 0.399122417 0.122300245 -0.991488218 0.0446516052 0.115209691 -0.99171567 0.0568042882 0.113956921 -0.991991222 0.0544724166 0.241583675 -0.646443248 0.723704696 -0.147116289 0.686939895 -0.711667299 -0.024535913 0.0161537025 -0.999568403 -0.238238901 -0.0057406649 -0.971189618 0.15595299 0.877229393 0.454034388 0.0674714223 0.997083426 -0.0356678367 0.514307261 0.815808952 0.264468908 0.628110528 -0.227357268 0.744167864 0.563839674 -0.476359189 0.674660444 0.646294773 -0.219713435 0.730772972 0.367338091 0.561002254 0.741848469 0.0157816727 -0.995873272 -0.089371793 -0.00821715407 -0.996313155 -0.0853965878 0.0020575379 -0.998129666 -0.0610975139 0.034862116 0.980195642 0.194938853 0.0220950581 0.99083364 0.133268639 0.0667447075 0.023326572 0.99749738 0.0653756559 0.0250181016 0.99754703 -0.0121981222 -0.919158161 -0.393699735 -0.0175411776 -0.778144836 -0.627839863 0.0347126685 -0.914007723 -0.404209018 0.25549382 0.49952659 0.827765703 0.25442338 0.852913678 0.455858529 0.810271144 0.328997105 0.484996527 -0.0480200201 -0.711562514 -0.700979888 -0.814974427 0.0557002425 -0.576813757 0.757744789 0.122612283 0.640928328 0.925141096 -0.0806634203 0.370954722 0.295643747 0.955094337 -0.0197387338 0.627962291 -0.714854598 0.307646245 0.279417276 0.892587125 0.353856206 -0.0422668383 0.998915792 -0.0195126068 -0.143888235 0.953006208 -0.266599566 -0.686712384 0.666716695 -0.289680809 0.944194078 0.0474066287 0.325960338 -0.121790797 -0.142851293 -0.982222259 0.00131831737 -0.999976456 -0.00673090527 0.0293069631 0.999523997 -0.00963654649 0.243757859 0.651442885 -0.718473613 0.994699538 -0.0825409591 -0.0613174774 -0.0832367092 -0.558701754 0.825181186 0.346291631 0.138597101 -0.927832365 -0.180352479 -0.847382247 -0.499415934 -0.961926579 0.263549507 -0.0723806694 -0.2784096 0.831136405 -0.481352627 -0.0504994951 -0.574859917 0.816691995 0.52355057 -0.373363256 -0.765829444 0.0744929165 0.995670497 0.0555972978 0.0226251166 -0.994184494 -0.10528668 0.00684950128 0.994274735 0.106633872 0.0207424909 -0.0249843132 -0.999472618 -0.905846119 -0.122289754 -0.405571252 -0.146774217 -0.789698184 -0.595679522 -0.918065727 -0.0575445667 0.392229497 0.100570068 0.994028211 0.0423499607 0.147655368 0.982005239 0.117743798 0.0833032578 0.996318579 0.020245336 0.965455353 -0.0819737911 0.24733825 0.820316792 -0.235686839 0.521087348 0.991945744 0.0957542881 -0.0829140842 0.00525391707 -0.999803364 -0.0191206224 0.016613327 -0.999447167 -0.0287991576 -0.0110913413 -0.999789417 0.0172656961 -0.0345864519 -0.999272287 0.0160816312 0.0420165844 0.99909246 -0.00698934169 -0.322149396 0.882335961 -0.343078703 -0.279493392 0.95829308 -0.0596475564 -0.296060354 0.947134733 -0.123628907 -0.984723866 0.0363337733 0.170290336 0.731930971 0.0817585289 0.676455915 0.691374958 -0.0194457304 0.722234368 0.956014633 0.0133711062 0.293014139 -0.0966552421 -0.984886646 -0.143722206 0.00174804626 -0.999001741 -0.0446374603 -0.0393034369 -0.999048471 -0.0189035702 0.0646535084 0.977275789 -0.201871008 -0.0873785764 0.991100371 -0.100424156 -0.0972065032 0.990845501 -0.0936808288 0.277914792 0.0455096886 0.959527075 -0.0635803342 -0.137354925 0.988479197 0.524534106 0.137236238 0.840256035 0.527999401 0.171540022 0.831739545 -0.0101518035 -0.999845386 0.0143577205 0.00580770709 -0.999939501 -0.00934336521 -0.534190774 -0.82545191 -0.18239896 -0.11591173 -0.174942553 0.977731824 0.101941518 0.762547314 -0.638850212 -0.533602357 0.209021375 -0.819498956 -0.1008678 0.648993909 -0.754077315 0.00158590323 -0.999987245 -0.00479846401 0.379120201 -0.65138936 -0.657236457 0.0538081266 -0.998454988 -0.0138679789 -0.74047929 0.00914644077 -0.672016919 -0.699929178 0.0978272632 -0.707480729 -0.13888146 -0.423174381 -0.895340919 -0.192374989 0.975737929 0.104533844 -0.169492066 0.976786971 0.130994663 -0.0259230956 0.987123728 0.157843888 0.0665815845 -0.370081902 -0.926610112 0.764353335 -0.111308612 -0.63511765 0.78022784 -0.179521054 -0.599179983 -0.231393903 -0.972088277 -0.0387454964 -0.00653308816 -0.999754429 0.0211765077 0.898122549 0.242499232 -0.3668378 0.0805627853 0.991366744 -0.103448391 0.995788515 0.0443547517 -0.0802362487 0.932331026 -0.0171073675 -0.361200988 0.500853479 0.582616568 -0.640081048 0.389596522 0.0173362195 -0.920822442 -0.237235308 0.968141139 0.0801380277 -0.0159869362 -0.999868393 -0.00275620772 -0.0314988866 -0.999115646 0.027851779 0.0724984482 0.969019055 0.236106008 -0.0277355816 0.973574519 -0.226679072 0.0193686653 -0.999812365 -0.000278319552 0.0147412755 -0.999863744 0.00742588332 0.039512042 0.99916935 0.00997110549 -0.25630635 0.642472744 0.722174346 -0.63064754 0.22155942 0.743770838 -0.64087224 0.28934288 0.711029828 -0.00191816397 -0.998453557 0.0555592626 -0.0958466381 0.753604174 0.650303185 -0.0970904678 0.601342142 -0.793070674 0.274560601 0.945781469 -0.173533455 0.317541718 0.825775862 -0.46611321 0.430996567 0.839546084 -0.330763221 0.196254894 0.979432106 0.0468695946 0.274875432 0.957982719 -0.0819307044 -0.00608222932 -0.999966323 -0.00551219052 0.00557323406 -0.999979854 -0.00304066623 0.033745151 -0.999421597 -0.00421014288 0.0258969441 0.999608457 0.0105979899 0.00345754437 0.999789774 0.0202096663 -0.0201657917 0.999766529 -0.00776454899 -0.547237635 0.642441392 0.536470056 -0.850916624 0.519835293 0.0755788833 -0.687868059 0.0250085294 0.725404799 -0.705462515 0.640358567 -0.303749233 -0.996745169 0.0172306336 0.0787539482 -0.910909772 -0.0136110764 -0.412381083 -0.928848326 -0.0476265438 0.367385983 0.193512723 0.979190469 0.0611461811 0.118386254 0.0387195572 0.992212415 -0.399535596 -0.0296544302 0.916237891 -0.27819711 0.0229100287 0.960250735 0.0807406381 0.988029599 -0.131447762 0.453236967 0.753572285 -0.476135522 0.325821131 0.911646783 -0.25048098 0.0801398307 -0.98451823 -0.155889109 0.0308098905 -0.999034107 -0.0313306339 -0.209776565 -0.789897382 -0.576242924 -0.00835677981 -0.999678016 -0.02395772 -0.00835677888 -0.999950588 -0.005384163 0.345244765 0.827645183 -0.442503691 0.198373526 0.805004001 0.559121251 -0.631749272 -0.184304625 0.752943993 -0.634082735 -0.207987726 0.74476856 -0.28306976 0.906360984 -0.31365782 -0.0287580546 0.999574423 -0.00489648758 -0.0274350215 0.998929799 -0.037236385 0.0626950264 -0.997920573 0.0149620222 0.598986864 -0.77352947 0.20704335 0.0198637899 -0.99974066 -0.0111352112 -0.33155337 0.0126301888 -0.943351924 0.0346906371 -0.98966074 0.139169693 0.0269359611 -0.999444246 0.0196366552 0.2131394 0.638252378 0.739733398 0.117136903 0.907345295 0.4037368 -0.0101802386 -0.999716759 -0.021511592 0.316150218 0.820203841 0.476775348 0.153009951 0.957095623 0.246081218 -0.254018575 0.967048168 0.0170997605 -0.0272200163 0.945915759 0.323268324 -0.00540300226 0.999011755 0.0441177487 -0.00149737671 -0.99964112 0.0267470516 0.0254221298 0.999571741 -0.0144930733 0.0551125519 0.9982903 0.0194688439 -0.12599054 0.990252435 -0.0593843609 -0.0632693619 -0.974237382 -0.216468304 0.0623651221 0.976270258 0.207381293 -0.751226544 0.0161609594 0.659846604 -0.0141537795 -0.999831438 0.011696348 -0.00477415929 0.998756707 0.0496205948 -0.740216076 0.0604595989 -0.66964525 -0.350551695 -0.0385471582 -0.935749769 0.999511242 -0.00525496714 -0.0308158137 0.546596825 -0.824215233 -0.14799042 0.998345315 -0.0250976756 -0.0517367162 0.99843502 0.0549844876 0.0102079744 -0.805990756 -0.414149642 -0.422917217 -0.999383092 -0.0233960375 -0.0261932965 -0.999443173 -0.0154707516 -0.0295643434 -0.999298692 0.0203100611 -0.031459216 -0.999880016 0.00265579252 -0.0152626168 -0.999179423 0.0354810506 -0.0195351504 -0.999898672 -0.0087360004 0.011239822 -0.993180215 0.114701331 0.0208968893 -0.999941051 -0.00409624353 0.0100579774 -0.996088922 -0.0734360665 0.049132891 0.97460264 -0.21053876 0.0763094053 0.43938902 -0.896745026 0.0527796596 -0.416985452 -0.890195429 -0.183508247 0.900876582 -0.397177756 -0.175132096 0.999354482 -0.0149149066 0.0326828547 0.998886108 -0.0253975838 0.0397682413 0.999852061 0.00606348412 0.0160962995 -0.99980092 0.0187315792 -0.00687107677 -0.999990165 0.00034186375 0.0044235657 -0.999972224 -0.00711648911 -0.00222770544 -0.999912083 -0.0115593541 -0.0064948299 -0.990915656 0.0831511244 0.105697975 -0.0912048966 0.769143105 0.63253504 0.671794116 0.608608842 0.422241539 0.250223249 0.896567583 0.365451664 0.999305665 -0.00794423744 0.0364012234 0.998620093 0.0520817786 -0.00673416443 0.893088877 0.442703515 0.0800369158 -0.879981518 0.470123529 -0.067943655 -0.888883054 0.327599555 -0.320258349 0.999228299 0.0164471548 -0.035669513 0.998429537 -0.0111778537 -0.0548956357 0.999825001 0.00733780302 -0.0172076188 -0.999047995 -0.00165996247 -0.0435925052 0.953154266 0.274261475 -0.127583787 0.999571383 -0.00178341439 0.0292216688 0.0829915851 0.993657172 -0.0758800581 0.135081112 0.976938128 0.165363073 -0.0619708411 0.726006925 0.684889436 -0.999998808 -0.00154692493 7.49150786e-05 -0.999999821 -0.000296243263 -0.000506165437 -1 -0.00017942561 0.000152915367 -0.99999994 -0.000396146352 -8.10306574e-07 -0.999999464 -0.00085948105 -0.000552182551 -0.999997556 0.00150403706 -0.00161415106 -0.999999166 -0.00111403479 -0.000665887026 -0.999998927 0.000927874236 -0.00111814833 -0.012362523 -0.469851464 0.882658899 0.014780771 -0.719067693 0.694782794 -0.142445594 -0.940227091 0.309325486 0.999602973 -0.00434039207 0.0278393868 0.999999464 -0.000296212966 -0.000988996471 0.999930561 0.00957390945 0.00686719129 0.999999046 -0.00128541631 0.000522588613 1 -1.11439178e-07 0 0.999985099 -0.00470036967 -0.0027807483 -0.0446311906 0.556398034 0.829716384 0.015752146 -0.0238430686 0.999591589 -0.0215016641 0.0438754745 0.998805583 -0.00588609558 0.81264919 -0.582723439 0.00909930654 0.842782259 -0.538177729 -0.0684870034 -0.31869188 -0.945380867 -0.0105601773 0.150378242 -0.988572121 0.0147553049 0.315665275 -0.94875586 0.033411473 -0.622251749 -0.782103837 0.998629749 -0.0159948766 0.0498279259 0.0283103045 -0.837774694 -0.545281708 0.0507786125 -0.983641803 -0.172830358 0.164702088 -0.981046796 -0.102080218 1 1.04764047e-06 0 0.999943018 -0.00988984294 0.00402035471 0.99982816 -0.0169542246 0.00749491248 1 -6.20293292e-07 0</float_array>
          <technique_common>
            <accessor source="#normals_array" count="450" stride="3">
              <param name="X" type="float" />
              <param name="Y" type="float" />
              <param name="Z" type="float" />
            </accessor>
          </technique_common>
        </source>
        <vertices id="vertices">
          <input semantic="POSITION" source="#positions" />
        </vertices>
        <triangles material="qmat_4b294f1aa1dfaafb" count="232">
          <input semantic="VERTEX" source="#vertices" offset="0" />
          <input semantic="NORMAL" source="#normals" offset="1" />
          <p>0 0 1 1 2 2 0 3 3 4 4 5 0 0 5 6 1 1 2 7 6 8 7 9 2 7 8 10 6 8 9 11 0 3 4 5 9 12 10 13 5 6 9 12 11 14 10 13 10 15 12 16 5 17 13 18 14 19 11 14 11 20 8 21 12 22 11 23 7 9 8 10 11 24 15 25 7 26 11 20 12 22 10 27 4 28 3 29 16 30 17 31 4 28 18 32 17 31 18 32 19 33 20 34 21 35 18 36 4 5 17 37 22 38 22 39 17 31 19 33 22 39 19 33 23 40 24 41 15 42 16 43 21 35 19 44 18 36 21 35 25 45 19 44 25 45 23 46 19 44 26 47 23 40 27 48 16 43 28 49 20 34 16 43 15 42 28 49 29 50 30 51 31 52 30 53 27 54 32 55 30 53 32 55 15 25 25 45 27 56 23 46 33 57 9 11 4 5 33 58 34 59 35 60 36 61 4 5 37 62 4 5 38 63 37 62 36 64 39 65 34 59 34 66 39 67 11 68 39 69 40 70 11 71 37 72 40 73 39 65 38 63 29 74 41 75 11 71 42 76 31 77 38 78 41 79 42 80 38 78 42 80 43 81 11 71 44 82 43 83 38 78 43 81 44 84 16 30 3 29 24 85 0 3 45 86 3 4 45 87 0 0 2 2 46 88 3 29 45 87 46 88 45 87 2 2 24 85 3 29 46 88 46 89 2 7 7 9 24 41 46 89 7 9 1 90 5 17 12 16 1 90 12 16 47 91 2 7 1 90 8 10 0 0 9 12 5 6 1 90 47 91 8 10 47 91 12 16 8 10 24 41 7 9 15 42 6 8 8 10 7 9 9 12 13 18 11 14 11 24 30 53 15 25 4 28 16 30 20 92 18 32 4 28 20 92 20 34 28 49 21 35 21 35 28 49 25 45 26 93 4 5 22 38 26 47 22 39 23 40 30 51 26 47 27 48 28 49 15 42 32 94 28 49 32 94 25 45 25 45 32 94 27 56 29 50 26 47 30 51 29 74 4 5 26 93 38 63 4 5 29 74 33 57 13 95 9 11 13 18 33 58 14 19 33 58 35 60 14 19 11 68 14 96 35 97 36 61 33 57 4 5 35 97 34 66 11 68 33 58 36 64 34 59 36 64 37 72 39 65 48 98 37 62 38 63 11 71 40 70 44 82 37 72 48 99 44 84 40 73 37 72 44 84 30 100 11 71 31 77 41 79 29 50 31 52 42 80 41 79 31 52 42 76 11 71 43 83 48 99 38 78 44 84 49 101 50 102 51 103 52 104 53 105 54 106 55 107 51 103 56 108 55 107 49 101 51 103 57 109 58 110 59 111 53 105 57 112 54 106 57 113 59 114 60 115 57 109 61 116 58 110 49 117 61 116 57 118 61 116 62 119 63 120 61 116 63 120 58 110 60 115 58 110 63 121 52 104 54 106 64 122 65 123 64 124 66 125 67 126 68 127 69 128 66 125 68 127 67 126 66 125 67 126 70 129 62 119 71 130 68 131 62 119 72 132 71 133 73 134 74 135 55 107 73 136 75 137 76 138 55 107 74 135 61 116 77 139 78 140 79 141 73 142 56 142 75 142 80 143 81 144 65 145 82 146 80 147 65 148 82 146 65 148 83 149 65 150 84 151 83 152 56 153 79 154 78 155 85 156 65 156 70 156 65 123 66 125 70 157 75 158 56 159 86 160 78 161 75 161 87 161 56 159 88 162 86 160 75 137 88 163 76 138 76 164 88 165 87 166 75 167 86 168 87 169 86 160 88 162 78 170 89 171 78 140 90 172 85 173 70 129 74 135 70 174 72 132 74 135 73 134 85 173 74 135 73 134 84 175 85 173 76 176 83 177 81 178 73 136 76 138 80 179 81 180 83 181 90 172 76 182 86 183 78 184 91 185 92 186 93 187 91 185 94 188 92 186 95 189 92 190 96 191 97 192 92 193 95 189 98 194 97 192 95 189 98 194 91 195 97 196 94 188 99 197 100 198 101 199 102 200 96 201 102 202 103 203 100 198 92 204 100 198 103 205 104 206 72 207 105 208 69 128 106 209 104 210 69 128 104 210 107 211 107 211 104 210 100 198 107 211 67 126 69 128 106 212 72 207 104 206 84 175 108 213 72 132 83 214 70 129 109 215 110 216 90 172 98 194 90 172 83 181 111 217 76 182 89 218 110 216 90 172 91 195 98 194 90 172 111 217 91 185 111 217 109 215 107 211 82 219 112 220 113 221 70 129 84 175 72 132 76 182 110 216 82 219 95 189 96 191 108 213 94 188 111 217 99 197 113 221 112 220 95 189 50 102 49 101 57 222 53 105 50 223 57 112 49 117 55 107 61 116 79 154 51 103 50 102 50 224 53 105 79 141 56 153 51 103 79 154 54 225 57 113 60 115 60 115 59 111 58 110 64 226 54 225 60 115 64 226 60 115 63 121 68 127 64 226 63 121 66 125 64 226 68 127 63 120 62 119 68 131 69 128 68 127 106 227 61 116 74 135 62 119 109 215 70 129 67 126 68 131 71 130 106 228 62 119 74 135 72 132 79 141 53 105 77 139 77 139 53 105 52 104 73 134 55 107 56 108 80 143 76 229 81 144 73 136 80 179 113 221 65 150 85 230 84 151 78 170 88 162 75 231 56 153 78 155 87 232 56 233 87 166 88 165 89 218 76 182 78 184 73 134 113 221 84 175 81 144 77 139 65 145 65 145 52 104 64 122 65 145 77 139 52 104 78 140 81 180 90 172 78 140 77 139 81 180 86 168 76 234 87 169 92 204 94 188 100 198 93 235 97 192 91 195 92 193 97 192 93 235 101 199 96 201 103 236 102 200 105 208 96 201 102 202 101 237 103 203 96 191 92 190 103 238 99 197 107 211 100 198 108 213 96 191 105 239 107 211 109 215 67 126 72 207 106 212 71 240 102 200 104 206 105 208 104 210 102 202 100 198 108 213 105 239 72 132 83 214 84 175 70 129 82 219 110 216 112 220 84 175 113 221 108 213 110 216 89 171 90 172 111 217 83 214 109 215 99 197 111 217 107 211 112 220 110 216 98 194 76 176 82 241 83 177 113 221 80 179 82 219 91 185 111 217 94 188 112 220 98 194 95 189 108 213 113 221 95 189</p>
        </triangles>
        <triangles material="qmat_ddc4e6410bf0a5b2" count="200">
          <input semantic="VERTEX" source="#vertices" offset="0" />
          <input semantic="NORMAL" source="#normals" offset="1" />
          <p>114 242 115 243 116 244 117 245 118 246 114 247 119 248 120 249 121 250 119 248 121 250 122 251 123 252 124 252 120 252 125 253 126 254 120 255 125 256 120 256 124 256 115 257 127 258 119 259 128 260 129 261 125 262 129 263 128 264 123 265 115 257 130 266 127 258 131 267 132 268 120 269 131 270 120 249 127 271 133 272 129 272 123 272 131 267 134 273 132 268 135 274 123 275 136 276 132 277 137 278 138 279 123 275 120 280 132 281 125 282 124 282 123 282 121 283 139 284 140 285 141 286 121 287 137 278 121 287 138 288 137 278 126 289 125 262 142 290 117 245 114 247 143 291 114 242 116 244 143 292 116 293 122 294 144 295 144 295 122 294 145 296 126 254 142 297 121 283 120 255 126 254 121 283 121 283 142 297 139 284 125 262 146 298 140 299 118 300 143 292 147 301 121 250 141 302 145 303 136 276 138 304 148 305 121 306 148 305 138 307 142 290 140 299 139 308 125 262 140 299 142 290 121 283 140 285 149 309 143 292 144 295 150 310 151 311 152 312 153 313 153 313 154 314 155 315 153 316 156 317 154 318 157 319 158 320 159 321 160 322 161 323 158 324 162 325 161 323 160 322 159 326 163 327 156 328 155 315 154 314 164 329 165 330 166 331 130 266 165 330 167 332 166 331 168 333 129 334 135 274 168 333 135 274 152 312 129 334 133 335 135 274 168 336 151 337 129 261 132 277 169 338 137 278 134 339 170 340 132 277 170 341 136 276 169 342 129 261 151 337 146 298 152 312 136 276 170 341 153 343 170 344 134 273 160 322 118 300 162 325 162 325 171 345 161 323 161 346 171 345 172 347 155 348 164 349 173 350 162 325 118 300 147 301 150 310 145 296 174 351 175 352 163 353 141 302 149 309 176 354 148 305 176 354 149 309 146 355 163 353 174 356 141 302 175 357 146 355 173 358 116 293 115 257 119 259 118 300 115 243 114 242 128 264 125 359 123 265 119 248 127 271 120 249 177 360 115 243 118 300 115 257 165 330 130 266 177 360 165 361 115 243 127 271 130 362 131 270 135 274 133 335 123 363 125 262 129 261 146 298 136 276 123 275 132 281 136 276 132 364 138 304 122 251 121 250 145 303 143 292 116 244 144 295 122 294 116 293 119 259 118 300 117 365 143 292 140 299 146 298 178 366 145 303 141 302 174 356 150 310 144 295 145 296 147 301 143 292 150 310 121 306 149 309 148 305 178 367 149 309 140 285 155 315 151 311 153 313 151 311 168 333 152 312 167 332 157 368 166 331 153 313 152 312 170 341 166 369 156 317 153 316 166 331 157 368 156 328 154 318 156 317 163 353 157 368 159 326 156 328 159 321 158 320 161 346 157 319 167 370 158 320 118 300 160 322 177 360 160 322 158 324 177 360 167 370 165 361 177 360 130 362 166 369 131 270 158 320 167 370 177 360 134 273 131 267 153 343 131 270 166 369 153 316 152 312 135 274 136 276 132 277 170 340 169 338 146 298 151 337 155 348 172 347 159 321 161 346 159 326 172 371 163 327 172 371 174 351 163 327 175 352 154 318 163 353 164 329 154 314 175 357 173 358 164 329 175 357 146 298 155 348 173 350 176 354 175 357 169 342 175 372 141 286 169 338 169 342 148 305 176 354 169 342 136 276 148 305 162 325 147 301 171 345 172 347 171 345 150 310 171 345 147 301 150 310 172 371 150 310 174 351 175 357 176 354 146 355 169 338 141 286 137 278 146 355 149 309 178 367 179 373 180 374 181 375 181 375 180 374 182 376 182 377 183 378 181 379 181 379 184 380 185 381 181 379 186 382 184 380 183 378 186 382 181 379 187 383 183 378 188 384 189 385 186 382 183 378 189 385 183 378 187 383 189 385 187 383 190 386 187 387 188 388 180 374 180 374 188 388 183 389 180 374 183 390 182 376 190 391 180 374 189 392 189 392 180 374 191 393 192 394 191 395 193 396 186 382 189 385 191 395 186 382 191 395 192 394 192 394 193 396 194 397 194 397 193 396 195 398 195 399 196 400 194 401 195 402 180 374 196 400 196 400 180 374 197 403 192 404 196 400 197 403 186 382 192 394 197 405 184 380 186 382 198 406 198 407 180 374 184 408 184 408 180 374 185 409 185 409 180 374 179 373 179 410 181 379 185 381 186 411 197 403 198 407 197 403 180 374 198 407 194 401 196 400 192 404 191 393 180 374 193 412 193 412 180 374 195 402 187 387 180 374 190 391 199 413 200 414 201 415 202 416 203 417 204 418 200 419 203 417 205 420 206 421 203 417 207 422 207 422 203 417 202 416 208 423 203 417 206 421 204 418 203 417 200 419 209 424 208 425 210 426 211 427 209 428 212 429 212 429 209 428 213 430 214 431 209 428 199 432 199 432 209 428 211 427 205 433 201 415 200 414 203 434 201 415 205 433 201 415 203 434 214 435 199 413 204 436 200 414 215 437 204 436 199 413 212 438 202 439 216 440 202 439 212 438 207 441 211 427 212 429 216 442 207 441 212 438 217 443 207 441 217 443 206 444 213 445 206 444 217 443 210 426 208 425 206 444 210 426 206 444 213 445 213 430 217 446 212 429 214 435 203 434 208 425 214 435 208 425 209 424 210 447 213 430 209 428 215 448 211 427 216 442 204 436 216 440 202 439 204 436 215 437 216 440 215 448 199 432 211 427 199 432 201 449 214 431</p>
        </triangles>
      </mesh>
    </geometry>
  </library_geometries>
  <library_visual_scenes>
    <visual_scene id="scene">
      <node id="hip_dae">
        <instance_geometry url="#geometry">
          <bind_material>
            <technique_common>
              <instance_material symbol="qmat_4b294f1aa1dfaafb" target="#qmat_4b294f1aa1dfaafb" />
              <instance_material symbol="qmat_ddc4e6410bf0a5b2" target="#qmat_ddc4e6410bf0a5b2" />
            </technique_common>
          </bind_material>
        </instance_geometry>
      </node>
    </visual_scene>
  </library_visual_scenes>
  <scene>
    <instance_visual_scene url="#scene" />
  </scene>
</COLLADA>