<?xml version='1.0' encoding='utf-8'?>
<COLLADA xmlns="http://www.collada.org/2005/11/COLLADASchema" version="1.4.1">
  <asset>
    <created>2026-09-14T00:00:00Z</created>
    <modified>2026-09-14T00:00:00Z</modified>
    <unit name="metre" meter="1" />
    <up_axis>Z_UP</up_axis>
  </asset>
  <library_effects>
    <effect id="qmat_4b294f1aa1dfaafb_effect">
      <profile_COMMON>
        <technique sid="common">
          <lambert>
            <emission>
              <color sid="emission">0 0 0 1</color>
            </emission>
            <diffuse>
              <color sid="diffuse">0.6717055 0.6924257 0.7742702 1</color>
            </diffuse>
            <reflectivity>
              <float sid="specular">0.5</float>
            </reflectivity>
          </lambert>
        </technique>
      </profile_COMMON>
    </effect>
    <effect id="qmat_ddc4e6410bf0a5b2_effect">
      <profile_COMMON>
        <technique sid="common">
          <lambert>
            <emission>
              <color sid="emission">0 0 0 1</color>
            </emission>
            <diffuse>
              <color sid="diffuse">0.9 0.95 0.95 1</color>
            </diffuse>
            <reflectivity>
              <float sid="specular">0.5</float>
            </reflectivity>
          </lambert>
        </technique>
      </profile_COMMON>
    </effect>
  </library_effects>
  <library_materials>
    <material id="qmat_4b294f1aa1dfaafb" name="qmat_4b294f1aa1dfaafb">
      <instance_effect url="#qmat_4b294f1aa1dfaafb_effect" />
    </material>
    <material id="qmat_ddc4e6410bf0a5b2" name="qmat_ddc4e6410bf0a5b2">
      <instance_effect url="#qmat_ddc4e6410bf0a5b2_effect" />
    </material>
  </library_materials>
  <library_geometries>
    <geometry id="geometry" name="thigh_mirror_dae">
      <mesh>
        <source id="positions">
          <float_array id="positions_array" count="1086">0.048375193 0.0565325692 -0.000785094919 0.0372069813 0.0565511473 -0.00056674378 0.0482894108 0.0487294197 -0.000628990005 0.037409693 0.048703257 -0.000500405265 0.0318618156 0.0484949909 -0.0191123821 0.0348253176 0.056795001 -0.0136142233 0.0439632609 0.05604342 -0.019762801 0.0401665904 0.0565449484 -0.0263322182 0.0244736616 0.0566935726 -0.0272898637 0.0421165489 0.049938798 -0.0233395491 0.0372693613 0.0487449691 -0.0301945992 0.0411000848 0.0544111431 -0.0250348039 0.0410149582 0.0526449606 -0.00747798989 0.0464217365 0.0487449691 -0.0130860321 0.018303331 0.0485274494 -0.0318137109 0.0108587183 0.0567781366 -0.0350053944 0.00220104866 0.0485357977 -0.0364221446 -0.00477894116 0.0566882007 -0.0359856077 -0.017684998 0.0484949909 -0.0322860964 -0.019655643 0.0567895435 -0.0308441985 -0.00911029894 0.0565449595 -0.0466426089 -0.0330697522 0.056795001 -0.0161632709 -0.0269465167 0.0565511808 -0.0391433872 -0.037025135 0.0487449691 -0.000445990008 -0.0315598808 0.0485431924 -0.0184178129 -0.00947283395 0.0487449802 -0.0465652868 -0.0270139799 0.0487449802 -0.0391052626 -0.0404874831 0.048879981 -0.0251873843 -0.0387419499 0.0565449484 -0.0276867636 -0.0464962944 0.0487449691 -0.0110692577 -0.0416582972 0.0553642064 -0.0233107917 0.00762685621 0.0486830585 -0.0469275489 0.00959547237 0.0565449595 -0.0466432832 0.0272564571 0.0565449595 -0.0392622873 0.0209846888 0.0487469062 -0.0428570807 -0.0464821346 0.0565449484 -0.0111262882 -0.0455076434 0.0547420271 -0.0146637131 -0.0463281348 0.05238856 -0.0117793474 -0.0422531404 0.0551202931 -0.00737898983 -0.045863308 0.0521055162 -0.00737993466 -0.0449824445 0.053317517 -0.00217896001 -0.0414231643 0.0507347882 -0.00737898983 -0.0477700159 0.0487091169 -0.000599637046 -0.0477418788 0.0566045009 -0.000609447714 -0.0367960036 0.0565578565 -0.000524401024 -0.0437416174 0.0494495779 -0.0192214623 -0.0415426791 0.0519728586 -0.00217896001 0.0453706756 0.0504936576 -0.00748512102 0.0461782105 0.0506972857 -0.014105319 0.0468454622 0.0531935953 -0.011840757 0.0450995043 0.0550025627 -0.00747798989 0.0315167345 0.021536231 0.0406435281 0.00424220646 0.0217998065 0.0505769812 0.0226491131 0.00689821877 0.0446439646 0.0223955195 -0.00816115085 0.0251249671 0.0231412891 -0.0014020321 0.0264264569 0.00623964006 -0.00197122665 0.0334955938 -0.0139504373 -0.00242612138 0.031938713 -0.00259925076 -0.00741204992 0.0330717191 -0.0243115406 -0.00420015864 0.0264957361 0.0111254351 -0.0131832967 0.0240757447 0.0302223898 -0.00899024121 0.0109095639 0.0313219428 0.00722745433 0.0359847546 0.0316150412 0.00742797274 0.0124040553 0.0439039394 0.0165757351 0.0251792017 0.0414283611 0.0216385312 0.0308031086 0.0138881113 -0.0166209899 -0.00585470581 -0.0355669707 -0.00945271272 0.00894463062 -0.0111083994 -0.0134186791 0.0238487069 -0.0406003073 -0.00252723834 -0.000403779908 -0.0465074815 0.00657160394 0.00727232639 -0.0403705202 -0.0028677485 -0.0172515754 -0.0483929515 0.0211086646 -0.0164819025 -0.0403567217 0.0216095336 0.0317708626 -0.0483929515 0.0215229262 0.0153625216 -0.0372727513 -0.00258048763 0.0103883976 -0.0313240811 0.00578572741 0.0354248881 -0.0113445343 0.00610976387 0.0460297316 -0.00471302308 0.0105728908 0.0497524552 -0.0250084996 0.0216333084 0.0445294976 -0.0404259935 -0.0104163848 -0.0173559692 -0.0254676975 -0.0148921153 0.00312705804 0.00241821189 -0.0162552781 -0.0169933345 -0.0387243256 -0.00140613876 -0.00359799573 -0.0428166613 0.00689449534 0.012987514 -0.046005711 0.0217120647 0.0144704403 -0.0465451218 0.0210577864 -0.0162021331 0.0191474073 0.00807944499 0.0434052497 0.0282205064 0.0217988752 0.0397609733 0.0329928733 0.0114851659 0.034013655 -0.0197803825 0.0216548108 0.0449118093 0.00838153996 0.0217983536 0.0480786152 -0.0080845058 0.0081791468 0.0454154611 0.0427233018 0.0195317138 0.0245005973 0.0221736506 0.000805120508 0.0248352755 -0.0173268653 -0.000997437397 0.0291414317 -0.0339446813 -0.00194104004 0.0119280526 0.0212851502 -0.00840504374 0.0219489224 0.0289570596 -0.00704777939 0.00965624116 0.0182262231 -0.0129213994 -0.00173721497 -0.0365651138 -0.00647543045 0.00124761253 0.0032207875 -0.0132990889 -0.0163875129 -0.0341258273 -0.0105340928 -0.0173559692 -0.0141249737 -0.0141067291 0.000612366246 -0.0233376175 -0.00864944141 0.0213838983 -0.00656758109 -0.0120415939 0.0214846637 0.00613541529 -0.00047043318 0.0313626714 0.000940186961 -0.00718527148 0.0304465462 -0.029065026 0.00632193312 0.0327529311 -0.0400396623 0.0215583406 0.0278908536 -0.0354723968 0.0567141958 0.0102081513 -0.0367055126 0.0565414391 0.00182042504 -0.0478066504 0.0565693006 0.00187100004 -0.0369760133 0.048689086 0.0017461488 -0.0296002403 0.0567432195 0.0225716941 -0.0313860439 0.0484959409 0.0203563701 -0.0158222653 0.056795951 0.0343721211 -0.0157178435 0.0484959409 0.0344207175 -0.00317813968 0.0487459712 0.0486779399 -0.0247167777 0.0487459712 0.0418342538 -0.0166074242 0.0565459616 0.0457569733 0.000463516219 0.0565459616 0.0487982929 0.0180994626 0.0565459616 0.0453692153 0.0335149765 0.056795951 0.0174707863 0.0200278722 0.0567909479 0.0321563855 0.0348164625 0.0565459691 0.0341692381 0.00301581342 0.056758441 0.0376154371 0.0347750895 0.048579324 0.0138153816 0.0275282487 0.0485429652 0.0257022604 0.0176753551 0.0486213937 0.033174973 0.00384972151 0.0485169925 0.0376133434 0.0185449012 0.0487459712 0.0451838151 0.0368819647 0.0487716198 0.0319042392 0.0418460667 0.0554019101 0.0250460319 0.0415457264 0.0504982732 0.0255530328 0.0467894152 0.0487120375 0.0129050817 0.0435010493 0.0492686704 0.0219794214 0.0417389423 0.0543969423 0.00862099044 0.0423649475 0.0502679832 0.00862191804 0.0439331308 0.0565459691 0.0209048595 0.0468557514 0.0533967391 0.0130509371 0.0483883359 0.0565380491 0.00208800728 0.048272904 0.0486862659 0.00188 0.037258558 0.0565582961 0.00177562202 0.0372730754 0.0487205274 0.00177413935 0.0462467261 0.051004868 0.014892905 0.0464830436 0.0526459813 0.00862809271 -0.0361294784 0.0565054044 0.0322374105 -0.0374392308 0.0487289988 0.0306161251 -0.043576356 0.0558189303 0.0208208282 -0.0401713811 0.0527453423 0.0269689765 -0.0427038483 0.0494986549 0.02261452 -0.0467778482 0.0487404689 0.0111201676 -0.045533143 0.0507095009 0.0156376231 -0.0432818569 0.0499253869 0.00871999003 -0.0459837765 0.0526554808 0.00871999003 -0.0464259423 0.0530248731 0.0128902458 -0.0432629511 0.0553679392 0.00871999003 -0.0405379198 0.0526459813 0.00872750208 -0.0460881218 0.0565511435 0.0138229756 -0.0477908663 0.0487063229 0.00187100004 0.0372058451 0.0481459312 0.0315106064 0.0388180166 0.0473960005 0.0187029839 0.0339533761 0.0483959913 0.0251801815 0.0139506422 0.0446119644 0.0452910885 0.00826573931 0.0353086181 0.0466121174 -0.00172138785 0.0477956161 0.0471392721 0.0406020805 0.0471052714 0.0243920628 0.0361397117 0.0352617614 0.0303626768 0.032746952 0.0453959666 0.0335038267 -0.0122767091 0.0352668576 0.0455701537 0.0406883731 0.0483959913 0.013675821 0.0460910201 0.0477691554 0.01552389 0.0432540961 0.0480947495 0.0221381411 0.0428595133 0.0351975188 0.0159647446 0.0404226407 0.0436959788 0.0170127396 0.00416565547 0.0481459312 0.0486432798 0.0116267204 0.0483959801 0.0421732888 0.0201594085 0.0483959801 0.0395978279 0.0165257659 0.044292368 0.0398747288 0.0369780399 0.0182468332 0.0310999006 0.0165050644 0.0352672786 0.041658897 0.0231574997 0.044769045 0.0412622355 0.0249669626 0.0352356918 0.0401352942 0.0157199502 0.046170745 0.0461009815 0.006513739 0.0184125453 0.047973264 0.0271409191 0.0468959771 0.0334074348 0.0240581036 0.0187669154 0.042381227 0.0233460329 -0.00619882578 0.0194023978 -0.00416401587 -0.0104390606 0.0230921209 0.0142588448 -0.0123222647 0.00448982883 0.0107332766 0.0118343104 0.0356680565 0.025962729 0.0119263111 0.0277017877 0.00804055668 0.00559024885 0.0312807709 -0.0117862755 0.00648087729 0.0308981035 -0.00514304545 -0.0052340976 0.0308139119 0.0364309624 0.0124280006 0.0109625161 0.0457320809 0.0187329613 0.0161619205 -0.00251740939 0.0153429452 0.0427440219 0.0156273413 -0.00513680605 0.0271548312 0.019680351 0.0056078895 0.0258778147 0.0288117379 0.00596875325 0.0139561417 0.04605297 0.0479054004 -0.0144113675 0.0411312655 0.0483959988 -0.0123166293 0.0449869595 0.0452783033 0.00622536335 0.0411448851 0.043407429 -0.0159890298 0.0446774438 0.0352682285 -0.0134459343 0.0390489101 0.0483959988 -0.0186764449 0.0411308408 0.0351959392 -0.0202870686 0.0407367051 0.0448582768 -0.0225265026 0.0452860817 0.0186362769 -0.0159650613 0.0259713996 -0.00826248061 0.00838007126 0.0269876644 -0.00853151176 -0.0119081596 -0.0084759593 -0.0133782523 -0.00154757127 0.00758966571 -0.0102858078 -0.0440086164 0.0357658081 0.0113593498 -0.0131678535 0.0323669165 0.00579934195 -0.00370320398 0.0294669326 0.00405700738 -0.0249134898 0.0316695645 -0.00406491337 -0.0021522278 -0.030455526 0.0481166653 0.0377632119 -0.0294657815 0.0473745465 0.0297368784 -0.0422088318 0.0481459312 0.0234054551 -0.0227019619 0.0448923707 0.0412507467 -0.0391626544 0.0448173396 0.0255398788 -0.0243623443 0.0352609828 0.0402166396 -0.0348667689 0.0353786126 0.0312934294 -0.0134366062 0.0186931975 0.0466550626 -0.0430619307 0.0453959703 0.0135515686 -0.0397737026 0.0436959788 0.0171179995 -0.0440334007 0.0352245122 0.0150464186 -0.0407280102 0.0351959392 0.0211325027 -0.0123158526 0.0481396094 0.047133863 -0.0110253729 0.0468959697 0.0456525274 -0.0152481971 0.0467933118 0.041914206 -0.0207305476 0.0468959697 0.0374503732 -0.0163215306 0.0436959714 0.0406087786 -0.0162941571 0.0351959318 0.0408044383 -0.0210185908 0.0471388437 0.0437096246 -0.0326579995 0.00719508482 0.0158698224 -0.0347870998 -0.00400506053 0.00918840617 -0.0248908363 0.00679667247 0.024343852 -0.0263698455 -0.00814861152 0.016181767 -0.0234129615 -0.00481750676 0.0237285141 -0.0349897146 0.0180487614 0.0328775495 -0.0447074324 0.0173902847 0.0158582646 -0.0456773117 0.0478959605 0.0152710062 -0.0454486012 0.0182967652 -0.0130231502 -0.0443900414 0.0443543345 -0.012694411 -0.0389382616 0.0483959988 -0.0156945921 -0.039545767 0.0436959788 -0.0187055413 -0.0426496044 0.0353102274 -0.0147064254 -0.0454719737 0.0481459387 -0.0145732779 -0.0427029505 0.0472975001 -0.0201689657 -0.0411136001 0.00801960379 -0.0177419633 -0.0381582938 0.00700510805 0.00260384055 -0.0333843231 -0.00923578162 -0.00541239232 -0.0400723815 -0.00456043566 -0.0155672645 -0.0230257921 -0.0106706833 -0.0382782631 0.0178687572 0.00682906155 -0.054647252 0.019333588 -0.00496856309 -0.0502590537 0.00820701942 -0.00485532731 -0.0887765363 0.00423934637 -0.00786172599 -0.0897118226 0.0119529217 0.0136360824 -0.0503323972 0.00783743896 0.00977392867 -0.0644690767 0.0127839325 0.0459772386 -0.0418651029 0.018415628 0.0451960005 -0.0439054631 0.0034202165 0.0468959883 -0.0473778136 0.0332321152 0.0352542028 -0.0324890241 0.00136769586 0.0451687574 -0.046042826 0.01301941 0.0353696831 -0.0442655161 0.0428803302 0.0481459387 -0.02179249 0.0339574926 0.0184646472 -0.0335084833 0.0309348851 0.0481459498 -0.0365053043 0.0172471181 0.0352558717 -0.0401088409 0.0175522733 0.0472902209 -0.0394344255 0.0199175049 0.0461418517 -0.0371867791 -0.010312031 0.0352090336 -0.0447846949 0.0336271785 0.0483959988 -0.0244421773 0.0290433858 0.0465550199 -0.0307767913 0.0201847907 0.0165107343 -0.043859005 -0.000312099932 0.0182869844 -0.0478155911 0.0234731939 0.0447458178 -0.0398234501 0.0285030399 -0.00505596539 -0.0253289789 0.030080298 0.0117943082 -0.0305878427 -0.0268918276 -0.0103339851 -0.144047379 -0.00710641732 -0.0105980486 -0.103219882 -0.0344523825 0.0129729118 -0.0428873375 -0.0245123822 0.0110591194 -0.0626384467 -0.0343266912 0.00866407342 -0.0644470528 -0.0131852878 0.0138436826 -0.0515885241 -0.0332169719 0.00989777688 -0.107567675 0.00294325221 0.0476257801 -0.0409790948 -0.014180054 0.0483959988 -0.0394747816 -0.0203712303 0.0474648587 -0.0422237143 -0.0410931371 0.0468959808 -0.0228539258 -0.040877182 0.0352720283 -0.0225482136 -0.0340518951 0.0354331993 -0.0303930845 -0.0292461216 0.0474646948 -0.0287970733 -0.0164425485 0.044069346 -0.0384921506 -0.0227232352 0.0448773168 -0.0399953648 -0.0160568915 0.0351959504 -0.039803192 -0.0239425451 0.0352795161 -0.0392358489 -0.0179773606 0.0178218726 -0.0444490016 -0.0320342816 0.0183955263 -0.0356701165 -0.0331322625 0.0481459461 -0.0341237634 -0.0372042693 -0.00507148495 -0.0889848769 -0.0344859809 -0.00780380284 -0.0857541785 -0.0381431468 0.00497392938 -0.0725625455 -0.0402433537 0.0111846505 -0.0269042663 0.000638881407 -0.00457878737 -0.134692922 -0.00372089539 -0.00939506572 -0.146255985 -0.0335434191 -0.00682758307 -0.150868058 -0.000337342673 0.00706021581 -0.15032436 -0.000460273644 -0.0127975186 -0.171183705 -0.0177033525 -0.011572334 -0.148116291 -0.0178801306 0.0123508712 -0.148746908 -0.0338104255 0.007845941 -0.142120346 -0.000757232192 0.0101828203 -0.107551932 -0.00243266765 0.00987683609 -0.149762735 0.00286735944 -0.00442006532 -0.179083914 0.00723031396 -0.00735431118 -0.192741394 -0.0121468175 -0.00684001995 -0.188856527 -0.00989196543 0.000426594634 -0.18578662 -0.0137958219 -0.0154017564 -0.178517506 0.00442514848 -0.0131183472 -0.193167582 -0.0065908432 0.0181812588 -0.173078015 0.0102055231 0.0180361923 -0.209819183 -0.00476655597 0.0190553162 -0.207547069 0.00343410904 0.0162232518 -0.191154078 0.00283231749 0.0110151442 -0.179410577 0.00958200544 0.011283664 -0.197928324 -0.0307383798 0.0129177915 -0.181853518 -0.030309245 -0.0105425501 -0.183575436 -0.0239788163 -0.0143615771 -0.18663384 -0.0234841928 -0.0115552442 -0.205027997 -0.0249863379 0.0177709982 -0.183764368 -0.0231392533 0.0146760428 -0.205337554 0.0157195944 -0.00731985224 -0.210104585 0.0109129101 -0.0138280476 -0.209416628 0.000473951513 -0.0160603225 -0.217671081 -0.0120335314 -0.0133147594 -0.218890116 0.000477554597 -0.0119860396 -0.226145402 -0.0171951167 -0.00731874909 -0.217377365 0.011890565 -0.00734278373 -0.222509131 -0.000580087188 -0.00732202921 -0.227354005 0.0107527245 -0.013217791 -0.219241664 -0.0187371764 0.0113228075 -0.215758666 -0.0077471002 0.0171958115 -0.222045869 0.00739452103 0.016122127 -0.223716587 -0.00284944125 0.011262631 -0.227303788 0.0157023482 0.0113726743 -0.216690406 -0.0021677094 0.0192240141 -0.219000921 -0.0141810756 0.010539718 -0.188771263 -0.027948482 0.0105010876 -0.196710631 -0.0277838558 -0.006886872 -0.197705939 0.00178251264 0.0461853147 0.0442646705 0.022794703 0.0481999032 0.0431266427 -0.0383328535 0.0479221381 0.0161013585 0.00907669682 0.00611894252 -0.0852421075 -0.0335377082 0.0447166003 -0.0316838883 0.00301098148 0.00676315231 -0.113430873 -0.0223720577 0.000609175884 -0.193143889</float_array>
          <technique_common>
            <accessor source="#positions_array" count="362" stride="3">
              <param name="X" type="float" />
              <param name="Y" type="float" />
              <param name="Z" type="float" />
            </accessor>
          </technique_common>
        </source>
        <source id="normals">
          <float_array id="normals_array" count="1725">0.0195764545 0.0197824109 0.999612629 0.0148868784 0.0131363338 0.999802887 0.0165470857 0.0154891238 0.999743104 0.0117964232 0.00875682477 0.999892056 -0.83778578 0.0111236181 0.545885742 -0.975508332 0.0392096713 0.216439664 -0.928909063 0.0435373262 0.367739707 0.039787177 0.999131441 -0.0123841614 0.188544735 0.981549323 -0.0318081081 0.0377248004 0.999285161 -0.00245537283 -0.663459539 0.00702664861 0.748179197 0.920171201 -0.19066295 -0.341954142 0.551711917 -0.661336958 -0.508180439 0.795724869 0.0401715413 -0.60432452 0.87082684 -0.0562931411 -0.488356113 0.55407095 0.826138973 -0.102468431 0.69550699 -0.694284558 -0.185037628 -0.494974792 0.00855438877 0.868865192 -0.282853216 0.009061113 0.959120393 -0.0406226888 0.0125551065 0.999095678 0.152934328 0.0215916652 0.988000453 0.475692779 0.0040954412 0.879601955 0.570032299 -0.0230427235 0.821299076 -0.00199084752 0.999885499 -0.0150002521 -0.017574057 0.999824882 -0.00642832555 -0.0499221683 0.997561812 -0.0487662964 -0.00657639233 0.99990195 -0.0123621104 -0.00206052 0.999918461 -0.0126028294 0.355869651 0.695210993 -0.624530554 0.968407273 0.0106216287 0.249147624 0.841886878 0.0227316935 0.539175093 0.893626094 0.0202250853 0.44835633 -0.038475696 -0.998474181 -0.0396094508 -0.206046686 -0.976958513 -0.0556494482 -0.00433421647 -0.999838173 -0.0174581651 -0.00958883297 -0.999902725 -0.0101265637 -0.00469251862 -0.999973238 -0.00561217731 -0.0387629233 -0.999106348 -0.0168500263 -0.556369901 -0.00735004013 -0.830902219 -0.573385358 0.667081535 -0.475637913 -0.550738573 0.000683166785 -0.834677517 -0.896336436 -0.091618523 -0.433805257 -0.705684245 -0.689761698 -0.161983296 -0.916357875 0.222953185 -0.332535952 -0.201118618 0.00495583331 -0.979554355 -0.215451136 0.000333554519 -0.976514578 0.121350363 -0.00158050843 -0.992608488 0.188368067 0.0215512812 -0.981862009 0.00898337178 0.999866903 -0.0136186518 0.00670022471 0.99991864 -0.0108545944 0.000894455996 0.999964595 -0.00836698711 0.43214789 0.0221404638 -0.901530921 0.574315667 -0.028680319 -0.818131387 -0.000541299116 -0.999950707 -0.00991306175 0.0112482021 -0.999789894 -0.0171363018 0.00978660118 -0.999817729 -0.0163947623 0.0055286861 -0.999620736 -0.0269786883 0.0169851556 -0.999816895 -0.00881514605 -0.710143387 0.6873492 -0.152471393 -0.919338226 0.184726626 -0.347409338 -0.964891911 -0.00372366607 -0.262620836 -0.372294545 -0.914337516 -0.159322605 0.332294554 -0.940611541 -0.0695004091 0.137562394 -0.990442336 -0.010027322 0.670431197 -0.736335933 -0.091276139 0.0697044134 -0.953289509 -0.293905467 0.278612703 0.940354347 -0.195214465 0.345509022 0.918110192 -0.194157541 0.323914498 0.916784704 -0.233634859 0.880879939 -0.457217127 -0.122486636 -0.992809057 0.0023914706 -0.119684815 0.00430125743 0.999977529 -0.0051465854 -0.00573988957 0.999975443 0.00402680179 -0.0143023906 0.00129341614 0.999896884 -0.0103347925 0.00670396164 0.999924123 -0.011669795 0.00488354638 0.999919951 -0.00772538362 0.0102618588 0.999917507 0.00337972865 -0.999989748 -0.00301351398 -0.992894292 0.00339100813 -0.118951514 -0.698723257 -0.652848959 -0.292530358 -0.0175074171 0.994372129 -0.104487397 0.0722616091 0.991422176 -0.108905226 0.356069773 0.910859704 -0.208683729 -0.666977823 -0.674280524 -0.31699577 -0.982926905 -0.183621883 -0.0117335906 0.711453199 0.702092886 -0.0299981777 0.972523808 -0.0261991359 0.231324509 0.00238573411 -0.999995887 -0.00160685484 0.00825826917 -0.999962509 0.00259887776 -0.197004229 0.980383515 0.00612456538 -0.369163394 0.667604685 -0.646546543 -0.431248456 0.901890576 -0.0248638391 0.941605628 -0.0559031293 -0.332044661 0.974022329 0.128561825 -0.186419845 -0.698405743 -0.231482491 -0.677233517 -0.711836636 -0.702316523 0.00633424008 -0.964007199 -0.238997132 -0.116492324 0.708872259 -0.683717191 -0.173294172 0.516952455 -0.851366282 -0.0890820101 0.7381531 0.663964927 -0.119501531 0.988849401 -0.013837507 -0.148274735 0.00202131784 0.999830186 0.0183169097 -0.983542979 -0.0238904487 0.179087773 0.49811849 -0.862991631 -0.0844000876 -0.000882186694 0.00152850337 -0.99999845 0.594990611 -0.147270188 0.790125132 0.0935431793 -0.0631243736 0.993612111 0.374013454 -0.503222585 0.779025614 0.560993075 -0.551692903 0.617188573 0.639676571 -0.572294652 0.513120532 0.147924244 -0.663161695 0.73371315 -0.225627393 -0.67563498 0.70186156 -0.0472737215 -0.465457439 0.883806884 -0.419898033 -0.71461463 0.559474349 0.178183824 -0.886276126 0.427510411 0.655645609 -0.670183361 0.347826153 0.659150958 -0.593144536 0.462276518 0.845627367 -0.523401797 0.104713514 0.973694444 -0.208664596 -0.091532506 0.792143285 -0.188308001 0.580559254 0.0681539476 -0.994248927 0.0826081187 -0.679041982 -0.644774437 0.350952983 -0.182813913 -0.885075629 0.428042233 -0.873305023 -0.471013665 0.124436505 -0.897557139 -0.408091545 0.166890651 -0.981883407 -0.182798252 -0.0498972349 -0.965671003 -0.248564526 -0.0754668117 -0.775260925 -0.304119498 0.55360806 -0.922819674 -0.266760349 0.277925879 -0.779660642 -0.495125324 0.383380026 -0.575067699 -0.524223268 0.628082037 -0.221363813 -0.601402521 0.767667294 -0.0828069746 -0.317609459 0.944598973 -0.463419974 -0.198109582 0.863709748 -0.771823943 -0.635821879 0.00428001769 -0.225727886 -0.970071256 0.0894910395 -0.0662468225 -0.997508943 -0.0242333394 0.854471385 0.488148838 -0.177733853 0.885150373 0.463021308 -0.0460450724 0.849400222 0.458091229 -0.262052774 0.949377596 0.226146504 -0.218036503 0.9710024 0.238932788 -0.00809429307 -0.330839366 0.541777432 -0.772672355 -0.334579855 0.818470299 -0.467078835 -0.697944343 0.503121972 -0.5096488 0.417292833 0.245042115 -0.875112057 -0.12192136 0.154792652 -0.980395019 0.134386882 0.538974941 -0.831532419 -0.661115706 0.667299926 -0.342982352 -0.779379904 0.559969604 -0.281071067 -0.597037733 0.61020422 -0.520765603 0.297705531 0.678998411 -0.671068251 0.697084367 0.601928532 -0.389558047 -0.495197415 0.677933872 -0.54330951 -0.658425927 0.671699107 -0.339552164 -0.132956773 0.986623108 -0.0943257585 0.767983198 0.596206844 -0.233963966 -0.000135219598 0.99887991 0.0473173037 0.489721566 0.871137381 -0.0359503701 0.114661954 0.992473662 -0.0429963991 0.504271388 0.671246529 -0.543266475 0.0586543344 0.940716207 -0.334084809 -0.148480594 0.6349985 -0.758109808 -0.0385645553 0.567682922 -0.822343528 0.547613382 0.557078779 -0.624325871 0.768843234 0.295225263 -0.567205489 0.454741299 0.0586645976 -0.888689399 0.733166754 -0.109508075 -0.67117399 0.345144182 0.0971288383 -0.933510303 0.700474501 -0.0276756547 -0.713140666 0.716659784 0.00807219464 -0.697376192 0.714112341 0.0135854771 -0.699899316 0.707110465 0.00438406458 -0.707089543 -0.207173735 0.923793316 -0.322001457 -0.00251528854 0.999988854 -0.0039911815 -0.00148684182 0.999994278 -0.00304716616 -0.00310745835 0.999948144 -0.00969699211 0.00758633437 0.999927342 -0.00937094353 -0.00430522254 0.999987245 0.00263117673 0.035948094 0.999301136 -0.0102475472 -0.0747621879 0.997200549 0.00129695388 0.0244127009 0.999613464 -0.0133013222 -0.0740312189 0.997233331 0.00671175634 -0.000133789246 -0.0475561731 -0.998868585 0.000148329142 0.0079310583 -0.999968529 0.000258506421 0.0138262743 -0.999904394 0.151404396 0.0822806209 -0.98504144 0.0294882935 0.999480546 -0.0130022364 0.0578953177 0.995119274 0.0799111426 0.903994799 0.288658291 -0.315388262 -0.0100317383 0.999947667 -0.00201791432 0.00241379556 0.999777675 -0.0209480692 -0.00722380076 0.999951541 -0.00669161649 0.975863099 0.0429361239 -0.21412085 0.988933086 -0.0326985791 -0.144713894 0.957850218 0.0437521487 -0.283916682 0.766524076 0.00652081473 -0.64218241 0.838706493 0.0112446351 -0.544467628 0.435445756 0.00759131601 -0.900182962 0.432725251 0.00291731977 -0.901521146 0.000403880229 -0.999852359 0.0171792489 -0.0115281921 -0.999738991 0.0197238568 -0.00838548038 -0.999753714 0.0205480754 -0.0105986074 0.999749124 0.019731123 -0.0086780116 0.999734342 0.021353757 0.00145155587 0.999875903 0.0156876687 0.361687779 -0.0118962955 0.93222338 0.0584257431 -0.0426672623 0.997379541 -0.0682433248 -0.0239266865 0.997381747 0.00692725601 0.99980092 0.0187124275 0.0165483356 0.999835789 0.00738835381 0.017663464 0.999621034 0.0211134143 0.505804241 0.656131268 0.560048044 -0.00229037693 0.999490142 0.0318460576 -0.941999018 0.015259671 -0.335268497 -0.737904251 -0.0401441865 -0.673710465 -0.888111711 -0.0052772169 -0.459597319 -0.52406466 -0.0162927397 -0.851522624 -0.432174087 0.0120233372 -0.901710033 -0.0885820165 -0.00872463454 -0.996030688 0.00401779218 -0.999941111 0.0100821452 0.0777142718 -0.995904148 0.0462111197 0.00712097436 -0.999883473 0.0135050826 -0.00210144138 -0.99940908 0.034308143 0.0265143458 -0.99952966 0.0154085262 0.0258439127 -0.999636948 0.00761675928 0.377935886 -0.012017983 0.925753772 0.725394309 -0.0298373122 0.687686622 0.885451317 0.202137023 0.41846931 0.905563831 -0.0373611115 0.422561556 0.00872868858 -0.999679029 0.0237838924 0.0527301691 -0.998218238 0.0279266424 0.811896682 -0.2466923 0.529118776 0.992894232 0.112987876 0.0373460911 0.473484993 0.864503503 0.168658346 0.707833409 0.633988976 0.311496198 0.968556464 0.134225443 0.209480181 0.987757981 0.0421614908 0.150188327 0.974217534 -0.0341360122 0.223013207 0.0208924264 0.0159773752 -0.999654055 0.0169198439 0.0104170702 -0.999802589 0.0280943029 0.0260592028 -0.999265552 -0.976742208 -0.0183435529 -0.213631004 -0.979146659 -0.00177606218 -0.203146994 0.00962405372 0.000206988436 -0.999953687 0.00381444115 -0.999984622 -0.00402343785 -0.00313314702 -0.999993265 0.00191653753 0.946512818 -0.0520500354 0.318440437 -0.287392467 -0.950600266 0.11732319 -0.34050703 -0.921828449 0.185168281 -0.273224622 -0.95678395 0.0995627195 -0.241956085 -0.968378603 0.0608287454 -0.00149810582 -2.45913634e-06 0.999998868 -0.519487798 0.846796453 0.114316188 0.432963461 0.900892854 0.0305737052 -0.636489213 0.751657903 0.172892526 -0.961730003 0.27176553 0.0349131115 0.935896337 -0.0765926018 0.343848169 0.0101367384 0.999924362 -0.00696333079 0.00222899765 0.999890804 -0.0146086477 0.990900517 -0.0181018356 0.133373693 -0.346373111 -0.0472278781 0.936907232 -0.0582009591 -0.00847036019 -0.998268962 -0.534563124 0.66908741 0.516298652 -0.52627629 0.0650813431 0.847819388 -0.0164276548 0.999798536 0.0115355719 -0.55291748 -0.683201015 0.47698918 -0.0166404601 -0.999826491 0.00836895686 -0.941919565 0.173138604 0.287768304 -0.876795709 0.0297909826 0.479939371 -0.943939328 -0.184380069 0.273829371 -0.724040091 -0.677113712 0.131464899 0.511713445 0.858090401 0.0427810512 0.365328372 0.930782437 0.0133888451 -0.0267232005 0.992823124 0.116568252 0.983725131 -0.00686670048 0.179548755 0.961093426 -0.263972104 0.0813520551 0.668809533 -0.737614334 0.092838183 0.632431805 -0.773296177 0.0451999791 -0.00137585448 4.7800354e-06 0.999999046 -0.00274730939 9.54478583e-06 0.999996245 -0.00137887255 4.79052096e-06 0.999999046 0 0 1 -0.721034288 0.691484451 0.0442585237 -0.706696689 -0.707470715 0.00806435756 -0.702382803 -0.711725414 0.0102643752 -0.704777241 0.68527025 0.183558479 -0.994884551 0.0601230115 0.081178166 -0.93453002 -0.149837956 0.322803646 -0.00154922763 -0.999991357 0.00386246736 -0.00762738613 -0.999967813 -0.00249397918 -0.00873903371 0.00383190438 -0.999954462 -0.00727509847 0.00584398396 -0.999956489 -0.0115436781 -2.31645099e-05 -0.999933362 -0.00453144871 0.00961468183 -0.999943495 -0.989818811 -0.00198756857 0.142319217 -0.99136287 0.0170680266 0.130032167 0.0321756005 0.999477863 -0.00296155014 -0.0258084536 0.999654353 -0.00500745978 0.0692955256 0.996890724 -0.0375100374 -0.544738829 -0.317175835 -0.776311219 -0.209020346 0.0638991222 -0.975821376 0.00246074307 0.667343616 -0.744745851 -0.762786388 -0.586065054 -0.273284942 -0.779416382 0.0314774811 -0.625715017 -0.556092918 -0.520535707 -0.647922277 0.470665276 0.000641976134 -0.882311583 0.080641076 0.991865873 0.0984842926 0.0385471769 0.998608947 0.0359766781 -0.0959044248 0.992329597 -0.0780018345 -0.967939734 -0.0342340171 -0.248838767 -0.805511415 -0.592525661 -0.00804594159 -0.947311163 -0.28775999 -0.140697464 -0.217216685 -0.938611507 -0.26800248 0.00262015453 0.999849617 0.0171442386 0.130885914 0.962823808 0.236303255 -0.313635349 -0.563713431 -0.764107347 -0.212159768 -0.346031845 -0.913920224 -0.360802621 -0.176205575 -0.915845573 0.747084558 -0.0071485634 0.664690614 0.675041437 -0.48960948 0.551907241 0.880263805 -0.0121015823 0.474330276 -0.000986801693 0.999988258 -0.00473950943 0.00800635666 0.999952853 0.00549805257 -0.000607289548 0.999999464 -0.000814262661 -0.301775694 -0.345096081 -0.888729513 -0.455445468 0.0312649906 -0.889714539 -0.0237758253 -0.0250749923 -0.999402821 0.0948726833 0.94069761 0.325710356 0.0298657902 0.992094636 0.121886134 -0.673923552 0.100286342 -0.73196286 0.305552989 -0.0114962002 0.952105701 0.0505484417 -0.0125853494 0.998642325 0.106038213 -0.486160457 0.86741221 0.00277955015 0.999996006 0.000478334812 -0.290100306 -0.876872778 -0.383322269 0.434781939 -0.466260642 0.770432174 -0.0105370609 0.99990052 -0.00937828608 0.629401445 -0.608929753 0.482761264 -0.0411037803 -0.92833966 0.369453639 0.169080585 -0.981311858 0.0918627083 0.234968498 -0.753583491 0.613923192 0.430649936 -0.784199893 0.446733862 0.217687264 -0.440873653 0.870771289 -0.291363746 -0.420561463 0.85920614 -0.0919842795 -0.505513728 0.857901335 0.608073115 -0.779530942 0.150261641 0.856458962 -0.463478416 0.227301225 -0.0392776653 -0.815660536 0.577195942 0.385847688 -0.562143564 0.731516302 0.557813585 -0.393154591 0.730940104 0.806758642 -0.456207424 0.375519991 0.0892290026 0.995977402 -0.00819855183 0.0944518074 0.995466173 -0.0112235118 -0.922901154 -0.373557508 -0.093318142 -0.952717364 -0.223542914 0.205811158 -0.955442846 -0.226503491 0.18927528 -0.938904643 -0.230810523 0.255312622 0.0575016253 0.998135984 -0.0204481892 -0.908940196 -0.0520647094 0.41366294 -0.818721235 -0.5030092 0.276906729 -0.84408313 -0.365589678 0.392259896 0.97958678 -0.0116550559 -0.200683594 0.875030756 -0.422929019 -0.23548308 0.595629454 -0.775286973 0.210132629 0.514434695 -0.855268896 -0.0622261167 -0.0663036034 -0.996822238 0.0441508554 0.114512779 -0.992144346 -0.0503624789 0.722359538 -0.685481548 -0.0911691561 0.936292589 -0.350758702 0.0180149451 0.939145565 -0.221357495 -0.262690812 0.910085917 -0.408511639 0.0697270855 0.115703844 0.990942836 -0.0681537017 0.099752605 0.992817938 -0.0660448745 0.0471438989 0.998671651 -0.020792665 0.245117918 -0.486771405 -0.838433564 0.786801934 -0.467114449 -0.403418958 0.372851253 -0.848262548 -0.376075238 0.435743034 0.00147305895 -0.900069892 0.718003869 -0.0936384276 -0.68971169 -0.257065684 -0.455131918 0.85250932 0.804917455 -0.501933813 -0.316496938 0.870371222 -0.281295508 -0.404137015 0.932786047 -0.171006545 -0.317280591 0.917879939 -0.129473254 -0.375144154 0.147016704 0.879169583 -0.453262508 0.328120738 0.485658109 -0.810230196 0.442369074 0.663383365 -0.603516459 0.10106276 0.993892133 -0.0443248525 0.432122022 -0.0939192101 -0.896911204 0.427543372 0.0208596028 -0.903754115 0.000544563693 0.999958873 -0.00905212015 0.00447887927 0.999941945 0.00979784504 -0.46711266 -0.0330141932 0.883581281 -0.65034318 -0.0252441559 0.759221017 -0.718795955 -0.506835639 0.475867659 -0.818311214 -0.442767739 0.366501629 -0.537083507 -0.499585837 0.679672897 -0.426848799 -0.835270345 0.346588433 -0.502611995 -0.503692985 0.702619791 -0.651323557 -0.40523988 0.64152801 -0.886121213 -0.371360034 0.277273983 -0.979037464 -0.019131368 0.202779844 -0.977507114 -0.163572282 -0.133131295 0.904093862 -0.340867162 0.257728308 0.825288475 -0.535720289 0.17861335 0.933164775 -0.33983919 -0.117101952 0.952116072 0.120736793 0.280887276 -0.048385296 0.997049868 -0.0595852062 -0.0691133365 0.992597222 -0.0998702124 -0.0727727935 0.988754749 -0.13064532 -0.973729789 -0.012569543 -0.227359533 -0.875486374 0.0110012833 -0.48311761 -0.00566559657 0.99997896 -0.00316607184 -0.000219463938 0.999994695 -0.00324412785 0.000272896083 0.999993563 0.00357238995 -0.977558494 -0.208191007 -0.0321850702 -0.891840577 -0.403041005 0.205373585 -0.459212989 -0.882587731 0.100808524 -0.876111031 -0.479689121 0.0482468195 -0.101131059 -0.994612932 -0.0227512904 0.829056263 0.368976265 -0.420145452 0.865353465 -0.411209345 -0.286478996 0.879812539 -0.425607741 -0.211631596 0.466055036 -0.879152417 -0.0994171202 0.246936843 0.803290844 -0.541983366 0.253598213 0.952556789 -0.16829586 0.0932228118 0.984955549 -0.145506307 0.263121009 0.518605351 -0.81352061 0.0782216042 0.991870821 -0.100367442 -0.687094033 -0.029512573 0.725968897 -0.456665128 -0.23297061 0.858592868 -0.0186479576 -0.463464677 0.885919154 -0.454109401 -0.117618442 0.883148074 0.857465506 -0.00411450956 -0.514524996 0.70870465 -0.300051421 -0.638519228 0.40398851 0.768640637 -0.49596855 -0.476806909 -0.0488284267 0.877650797 -0.299463063 0.924605608 0.235427991 -0.217803583 0.171264499 0.960848629 0.379982859 -0.114263691 0.917908967 0.112880841 0.945653081 -0.304955989 0.0309955329 0.999095738 -0.0291037932 -0.179113537 0.974347413 0.136255324 0.00895718578 0.0227176286 -0.999701798 0.565959156 0.231253475 -0.791335642 0.0113146184 0.363764882 -0.931422055 -0.397162139 -0.816973507 0.418110698 -0.187648058 -0.467125356 0.864049852 -0.00171926513 0.999992192 0.00355666131 -0.000145250931 0.999998927 0.00147165474 -0.00356762926 0.999933004 0.0110096866 0.826114476 -0.515213788 -0.228231564 0.781450093 -0.443999797 -0.43840614 -0.288700551 -0.956930876 0.0305817239 0.117742211 -0.993006408 -0.00866349228 -0.505217135 0.81947577 -0.270583004 -0.102086097 0.9899593 -0.0977701843 -0.407322675 0.908220351 -0.0960416868 -0.0746676177 0.910817266 -0.406000763 -0.501844108 0.864866138 -0.012611459 -0.059148334 -0.890756309 0.450615913 0.476333618 -0.265565574 0.838201165 0.0695639178 0.990423322 -0.119258024 -0.0562740043 0.993703008 -0.0968894586 0.785164058 -0.567482352 0.247953966 0.993638873 -0.105164386 0.040277537 0.892968178 0.0284046214 0.449222744 0.702410936 0.0381402932 0.71074903 0.578991234 -0.11959736 0.806514502 0.394797504 -0.141740248 0.907769024 0.0288059171 0.99887526 0.0376614109 -0.0243716668 0.962256432 -0.27105096 0.14991349 -0.591742814 0.792064607 0.346910059 -0.054457061 0.936316073 -0.388040304 0.03516775 -0.920971215 0.00554760173 0.999967277 -0.00588882575 0.00857489463 0.999923706 -0.00889121182 -0.321892381 0.479946762 -0.816110551 -0.673264205 0.360609561 -0.645504475 0.130041763 -0.977568626 0.165676594 0.216303051 -0.913208187 0.345345944 0.410373449 0.0200127661 0.911697924 -0.688623309 0.0332003757 -0.724358797 -0.000184244665 0.999985456 0.00538946874 -0.00150990824 0.999985278 0.00521670794 -0.920675457 -0.388364762 -0.0391092896 -0.505303741 -0.862939239 -0.0019950259 -0.92753768 0.371844888 -0.0374864526 -0.958923399 0.114848629 -0.259375602 0.954655588 -0.28517437 -0.085488461 0.337539792 -0.935954213 0.100282691 -0.874810874 -0.483617038 -0.0286450014 0.952954829 0.300715208 0.0380451344 0.650615633 -0.741558254 0.163678586 0.0111892335 -0.996546149 0.0822836533 -0.0465793684 0.991872668 0.118401848 -0.810322464 0.585438907 -0.0252736676 0.392593205 0.917769432 -0.0597482398 0.541470885 0.833371818 0.110908657 0.979452848 0.113331877 -0.166817203 0.000939862221 0.99707824 -0.0763814226 0.3114191 0.768314838 -0.559205174 0.497359604 0.0682396889 -0.864856482 -1.38107762e-05 -0.997474253 0.0710292906 0.565918505 -0.789772868 0.236632809 0.203223273 0.963662744 0.173362166 0.562585831 0.822612524 0.0824974775 0.00390342739 0.999851167 0.016805999 0.734903395 0.609269261 0.297838837 0.991662979 -0.0588429272 -0.114638939 0.799003422 0.510632098 0.317566276 -0.89794153 0.43017289 -0.0930177346 -0.858212769 -0.504919767 -0.092341125 -0.345580518 -0.937498391 -0.0408757851 -0.721087813 -0.593465924 -0.357533902 -0.388397664 0.921438217 -0.00994431414 -0.706201613 0.623648047 -0.335175246 0.847029805 -0.524381876 0.0869721696 0.553662956 -0.824135244 0.119408861 0.0336589254 -0.977850258 -0.206581533 -0.445910782 -0.706861079 -0.549100161 0.0145860408 -0.580387115 -0.814210117 0.00755374366 0.999930441 -0.00905712508 -0.000200962197 0.999999821 0.000581013388 0.00108802947 0.999998331 0.00148321898 0.586383939 -0.721208096 -0.36879909 0.0119772879 -0.999860525 -0.0116371345 0.00480454648 -0.999962509 -0.00720037892 -0.378379971 0.704884112 -0.599972546 0.468451917 0.457531393 -0.755789578 -0.108864769 -0.413468093 -0.90398705 0.111190684 -0.976573348 -0.184231088 -0.113144279 -0.257425368 -0.959651291 0.669033766 -0.411723226 -0.618771255 0.743907392 0.666328073 -0.0510756373 -0.0173971374 0.967302799 -0.253027022 -0.655911088 0.541665912 -0.525717318 0.459721625 -0.380286783 -0.802519798 0.393986285 -0.700509429 -0.595030487 -0.930516064 0.278636694 -0.237700433 0.00722551206 0.999810755 -0.0180610251 -0.685444891 -0.369555652 -0.627370656 -0.294332683 0.634833992 -0.714390755 -0.14871408 -0.92892313 0.339095712 -0.0184590463 -0.642515659 -0.76605016 -0.870325863 -0.356356472 -0.33991605 0.979721665 -0.0077116061 0.200214982 -0.0689800605 0.996398151 0.0493203364 -0.00395952677 0.999944985 -0.00971612614 0.519896209 0.000682299491 0.854229152 -0.518155634 0.786026239 -0.337160915 -0.0223492254 0.99974972 0.00102209975 0.00373839494 0.999992967 -0.000221719267 0.0151694957 0.99987793 -0.00374110579 -0.859940231 -0.0141463224 0.510198653 -0.222329274 -0.00739060109 0.974943638 0.680659413 -0.677993298 -0.277538925 0.060233742 0.994699955 -0.0833301097 0.628998995 0.106588006 -0.770064414 0.0691408142 -0.896825135 -0.436948717 0.00316410465 0.999966145 0.00759895192 0.00173871231 0.999997795 -0.00117313559 0.861578584 0.464850426 -0.203952029 -0.0076634055 0.999352455 0.0351552777 -0.640138745 -0.477367938 0.601948738 0.58774966 -0.435634494 0.681742609 -0.157935053 -0.978309095 0.134044111 0.071523279 0.994613349 0.0750246644 0.872288048 0.473791689 -0.120975055 0.821440518 -0.427664369 0.377277911 -0.942224383 -0.215541363 -0.256427556 0.530231893 0.0724416897 -0.844752252 0.541414559 0.115918122 -0.832726419 -0.00480588572 0.999988377 -0.000365085754</float_array>
          <technique_common>
            <accessor source="#normals_array" count="575" stride="3">
              <param name="X" type="float" />
              <param name="Y" type="float" />
              <param name="Z" type="float" />
            </accessor>
          </technique_common>
        </source>
        <vertices id="vertices">
          <input semantic="POSITION" source="#positions" />
        </vertices>
        <triangles material="qmat_4b294f1aa1dfaafb" count="310">
          <input semantic="VERTEX" source="#vertices" offset="0" />
          <input semantic="NORMAL" source="#normals" offset="1" />
          <p>0 0 1 1 2 2 1 1 3 3 2 2 4 4 3 5 5 6 5 7 6 8 7 9 4 4 5 6 8 10 9 11 10 12 7 13 7 13 11 14 9 11 11 14 12 15 9 11 9 11 13 16 10 12 8 10 14 17 4 4 8 10 15 18 14 17 16 19 14 17 15 18 15 18 17 20 16 19 18 21 16 19 17 20 17 20 19 22 18 21 20 23 21 24 19 25 20 23 22 26 21 24 20 23 19 25 17 27 20 23 17 27 15 28 23 29 24 30 21 31 24 30 18 21 19 22 18 32 24 33 25 34 24 33 26 35 25 34 24 33 23 36 26 35 23 36 27 37 26 35 26 38 28 39 22 40 26 38 27 41 28 39 23 36 29 42 27 37 27 41 30 43 28 39 22 26 28 39 21 24 22 40 20 44 26 38 20 44 25 45 26 38 20 44 31 46 25 45 20 44 32 47 31 46 8 48 33 49 32 50 34 51 32 47 33 52 31 53 34 54 14 55 34 54 10 12 14 55 25 34 31 53 14 55 14 55 16 56 25 34 16 56 18 32 25 34 10 12 4 57 14 55 33 52 7 13 10 12 33 52 10 12 34 51 15 28 8 48 20 23 10 12 13 16 4 57 32 47 34 51 31 46 8 48 32 50 20 23 28 39 35 58 21 24 35 58 36 59 37 60 38 61 36 62 30 63 38 61 39 64 36 62 39 64 38 61 40 65 41 66 39 67 40 68 39 64 37 69 36 62 37 60 29 42 35 58 29 42 42 70 35 58 35 58 43 71 44 72 42 73 23 74 43 75 23 74 44 76 43 75 23 36 42 77 29 42 42 70 43 78 35 58 35 58 44 72 21 24 27 37 29 42 45 79 41 66 27 80 45 81 41 66 40 68 46 82 39 67 41 66 45 81 38 61 46 83 40 65 38 61 41 84 46 83 41 84 38 61 30 43 27 41 41 84 30 43 30 43 35 58 28 39 37 85 39 67 45 81 37 60 45 79 29 42 30 43 36 59 35 58 19 22 21 31 24 30 21 31 44 86 23 29 13 16 2 87 3 88 9 89 47 90 48 91 47 90 9 11 12 15 13 16 48 92 49 93 50 94 6 95 49 96 11 14 6 97 50 98 5 7 0 99 6 8 0 99 2 100 13 16 5 7 1 101 0 99 3 5 1 102 5 6 6 97 11 14 7 13 50 98 12 103 11 14 47 90 12 104 50 94 47 90 49 96 48 91 49 96 47 90 50 94 0 99 13 16 49 93 49 93 6 8 0 99 9 11 48 92 13 16 13 16 3 88 4 57 8 48 5 7 7 9 8 48 7 9 33 49 51 105 52 106 53 107 54 108 55 109 56 110 56 110 57 111 58 112 57 111 59 113 58 112 60 114 54 108 58 112 61 115 55 109 54 108 62 116 51 105 53 107 55 109 63 117 64 118 64 118 62 116 55 109 64 118 65 119 62 116 65 119 51 105 62 116 62 116 53 107 55 109 55 109 61 115 63 117 66 120 61 115 60 114 67 121 68 122 59 113 69 123 70 124 71 125 70 124 72 126 71 125 70 124 73 127 74 128 70 124 75 129 76 130 73 127 70 124 76 130 76 130 75 129 59 113 76 130 59 113 57 111 72 126 70 124 74 128 70 124 69 123 75 129 77 131 78 132 79 133 78 132 52 106 79 133 79 133 76 130 77 131 78 132 77 131 53 107 53 107 77 131 56 110 56 110 77 131 57 111 77 131 76 130 57 111 79 133 73 127 76 130 69 123 71 125 80 134 66 120 81 135 82 136 81 135 80 134 82 136 81 135 67 121 80 134 80 134 67 121 69 123 75 129 69 123 67 121 59 113 75 129 67 121 68 122 67 121 81 135 68 122 81 135 66 120 60 114 68 122 66 120 60 114 61 115 54 108 68 122 60 114 58 112 68 122 58 112 59 113 56 110 58 112 54 108 55 109 53 107 56 110 52 106 78 132 53 107 83 137 71 138 84 139 85 140 84 139 86 141 87 142 88 143 89 144 90 145 91 146 92 147 87 142 92 147 91 146 93 148 63 149 89 144 94 150 89 144 63 149 95 151 92 147 87 142 96 152 83 137 84 139 97 153 98 154 99 155 71 138 83 137 100 156 101 157 102 158 103 159 101 157 103 159 99 155 102 158 71 138 100 156 102 158 100 156 104 160 103 159 102 158 104 160 103 159 104 160 105 161 99 155 105 161 97 153 99 155 103 159 105 161 63 149 98 154 94 150 106 162 94 150 107 163 107 163 94 150 97 153 107 163 95 151 106 162 104 160 96 152 95 151 107 163 104 160 95 151 104 160 107 163 105 161 94 150 98 154 97 153 107 163 97 153 105 161 96 152 104 160 100 156 96 152 84 139 108 164 95 151 96 152 108 164 92 147 95 151 108 164 106 162 95 151 87 142 106 162 87 142 94 150 89 144 88 143 93 148 91 146 88 143 87 142 94 150 87 142 89 144 108 164 109 165 90 145 92 147 108 164 90 145 108 164 84 139 109 165 84 139 85 140 109 165 71 138 86 141 84 139 100 156 83 137 96 152 101 166 99 167 82 168 99 167 66 169 82 168 99 167 61 170 66 169 98 171 63 172 61 170 65 173 93 148 88 143 52 174 88 143 91 175 91 175 90 176 52 174 90 176 73 177 79 178 90 176 109 179 73 177 85 180 86 181 74 182 102 183 82 168 80 184 71 185 102 183 80 184 71 186 72 186 86 186 86 181 72 187 74 182 85 180 74 182 73 177 73 177 109 179 85 180 90 176 79 178 52 174 52 174 51 188 88 143 51 188 65 173 88 143 65 119 64 118 93 189 63 117 93 189 64 118 99 167 98 171 61 170 102 183 101 166 82 168 110 190 111 191 112 192 113 193 111 194 110 195 110 195 114 196 115 197 115 197 113 193 110 195 116 198 117 199 115 197 114 196 116 198 115 197 118 200 119 201 117 202 116 203 120 204 121 205 122 206 121 207 118 208 122 209 123 210 124 211 122 209 125 212 123 210 122 209 124 211 126 213 116 203 121 205 122 209 122 209 126 213 116 203 127 214 128 215 123 216 124 217 123 216 128 215 124 217 129 218 130 219 128 215 129 218 124 217 129 220 128 221 131 222 130 223 129 220 131 222 127 224 132 225 131 222 117 202 130 223 131 222 128 221 127 224 131 222 131 222 118 200 117 202 125 212 122 206 131 226 125 212 131 226 132 227 132 227 133 228 125 212 132 227 134 229 133 228 127 224 135 230 136 231 127 224 136 231 132 225 132 227 136 232 134 229 137 233 134 229 138 234 134 229 137 233 133 228 133 228 139 235 125 212 125 212 139 235 123 210 139 235 133 228 140 236 141 237 139 235 140 236 140 236 135 238 141 237 142 239 143 240 141 241 123 216 143 242 127 214 143 242 144 243 127 214 142 239 144 244 143 240 127 224 144 245 135 230 144 245 142 246 135 230 140 236 145 247 135 238 137 248 146 249 140 250 133 251 137 248 140 250 137 252 138 252 146 252 145 253 138 234 136 254 138 234 134 229 136 254 146 255 138 234 145 253 145 253 140 256 146 255 145 247 136 257 135 238 141 258 143 259 123 210 139 235 141 258 123 210 135 238 142 260 141 237 118 208 131 226 122 206 121 207 120 261 118 208 126 262 130 219 117 199 116 198 126 262 117 199 126 262 124 217 130 219 120 261 147 263 119 264 116 203 147 263 120 204 116 203 114 265 147 263 119 201 148 266 117 202 148 266 115 267 117 202 147 263 149 268 150 269 150 269 151 270 148 266 148 266 152 271 115 267 153 272 151 273 154 274 154 274 155 275 153 272 155 275 156 276 153 272 157 277 149 278 156 276 154 279 158 280 157 281 155 282 154 279 157 281 158 283 151 270 150 269 158 283 154 274 151 270 157 284 158 285 149 268 149 268 158 285 150 269 149 268 147 263 159 286 156 287 149 268 159 286 159 286 152 271 156 287 153 288 152 271 151 270 152 271 160 289 113 290 112 291 113 292 160 293 112 291 111 294 113 292 152 271 113 290 115 267 159 286 112 295 160 296 159 286 160 296 152 271 152 271 153 288 156 287 114 265 159 286 147 263 114 265 110 190 159 286 156 276 155 275 157 277 152 271 148 266 151 270 150 269 148 266 147 263 147 263 148 266 119 264 119 264 118 208 120 261 110 190 112 192 159 286</p>
        </triangles>
        <triangles material="qmat_ddc4e6410bf0a5b2" count="398">
          <input semantic="VERTEX" source="#vertices" offset="0" />
          <input semantic="NORMAL" source="#normals" offset="1" />
          <p>161 297 162 298 163 299 164 300 165 301 166 302 167 303 168 304 169 305 166 302 165 301 170 306 171 307 162 298 172 308 173 309 172 308 162 298 167 303 174 310 168 304 162 311 175 312 167 303 167 303 163 313 162 311 176 314 177 315 166 302 177 316 178 317 179 318 161 319 180 320 173 321 165 322 181 323 174 324 178 317 182 325 179 318 182 325 183 326 181 327 184 328 178 329 177 315 164 300 179 318 181 330 164 300 181 330 165 301 184 331 176 332 185 333 181 323 183 334 174 324 182 325 186 335 169 305 163 313 167 303 169 305 169 305 168 304 183 326 161 319 187 336 180 320 183 334 168 337 174 324 184 331 185 333 187 336 188 338 189 339 190 340 187 336 185 333 191 341 187 336 191 341 192 342 193 343 194 344 195 345 180 320 196 346 197 347 185 333 198 348 191 341 199 349 189 339 188 338 200 350 201 351 192 342 171 307 172 308 202 352 171 307 202 352 203 353 204 354 203 355 205 356 205 356 206 357 204 354 203 353 202 352 207 358 205 356 208 359 206 357 207 360 209 361 205 356 202 362 197 347 210 363 197 347 196 346 210 363 211 364 190 340 212 365 190 340 213 366 214 367 215 368 216 369 217 370 188 338 190 340 211 364 218 371 211 364 212 365 219 372 220 373 221 374 222 375 223 376 220 377 223 376 224 378 225 379 176 332 226 380 185 333 227 381 228 382 229 383 228 382 223 376 230 384 228 382 230 384 229 383 231 385 232 386 233 387 219 372 234 388 220 373 233 387 232 386 235 389 223 376 225 379 230 384 235 389 170 306 236 390 222 375 236 390 224 378 225 391 224 392 174 324 237 393 219 394 226 380 238 395 239 396 240 397 226 380 198 348 185 333 239 396 241 398 242 399 243 400 244 401 238 395 195 345 242 399 241 398 194 344 242 399 195 345 198 348 240 397 194 344 194 344 240 397 242 399 245 402 246 403 244 401 227 381 247 404 248 405 248 405 247 404 249 406 247 404 250 407 249 406 251 408 248 409 252 410 251 411 252 412 246 403 245 413 248 409 251 408 230 414 174 324 229 415 247 404 229 383 250 407 244 401 253 416 254 417 239 396 255 418 241 398 254 417 256 419 239 396 238 395 244 401 254 417 254 417 239 396 238 395 213 366 257 420 214 367 189 339 213 366 190 340 258 421 259 422 260 423 259 422 261 424 260 423 262 425 258 421 263 426 264 427 265 428 266 429 209 361 267 430 208 359 264 431 268 432 269 433 270 434 271 435 272 436 270 434 210 363 271 435 264 431 269 433 273 437 274 438 264 431 275 439 268 432 276 440 269 433 277 441 270 442 278 443 266 444 279 445 280 446 278 447 275 439 281 448 205 356 209 361 208 359 207 358 270 442 277 441 276 449 267 450 273 451 272 436 271 435 279 445 265 428 272 436 279 445 212 365 214 367 261 424 282 452 212 365 259 422 279 445 271 435 283 453 279 445 283 453 258 421 283 453 217 370 258 421 258 421 217 370 259 422 257 420 284 454 285 455 286 456 287 457 288 458 289 459 263 426 287 457 288 458 287 457 290 460 291 461 292 462 268 432 291 463 266 429 293 464 294 465 250 466 295 467 294 465 295 467 296 468 292 462 297 469 298 470 297 471 292 472 293 464 292 462 298 470 276 440 298 470 299 473 300 474 293 475 266 444 280 446 174 324 300 476 301 477 293 475 302 478 303 479 248 409 297 471 252 410 293 475 280 446 302 478 248 480 294 465 297 481 299 473 296 468 301 482 304 483 293 475 303 479 174 324 301 477 296 484 295 485 174 324 296 484 302 478 289 459 286 456 303 479 302 478 286 456 255 418 305 486 306 487 256 419 305 486 255 418 253 416 307 488 256 419 308 489 307 488 253 416 246 403 308 489 253 416 303 479 286 456 308 489 280 446 262 425 289 459 309 490 261 424 310 491 307 488 311 492 305 486 261 424 285 455 310 491 312 493 309 490 313 494 285 455 284 454 314 495 290 460 315 496 316 497 317 498 318 499 315 496 319 500 320 501 321 502 322 503 319 500 321 502 313 494 323 504 324 505 325 506 326 507 327 508 328 509 329 510 330 511 331 512 332 513 311 492 284 454 333 514 323 504 314 495 284 454 323 504 332 513 334 515 333 514 331 512 335 516 336 517 316 497 315 496 335 516 315 496 325 506 335 516 337 518 324 505 338 519 339 520 340 521 341 522 342 523 343 524 344 525 338 519 339 520 345 526 324 505 339 520 338 519 329 510 346 527 330 528 347 529 348 530 349 531 348 530 350 532 349 531 344 533 343 534 341 522 326 507 330 511 350 535 330 528 346 527 349 531 335 516 327 508 351 536 335 516 351 536 347 529 335 516 347 529 336 517 336 517 347 529 346 537 352 538 353 539 329 510 329 510 353 539 346 527 336 517 353 540 331 512 336 517 346 537 353 540 354 541 321 502 342 523 342 542 340 521 334 515 323 504 333 514 339 520 333 514 334 515 340 521 161 297 173 309 162 298 166 302 177 315 355 543 164 544 166 544 355 544 164 300 355 545 177 316 175 312 204 354 174 310 167 303 175 312 174 310 162 311 171 546 175 312 176 314 184 328 177 315 172 547 173 321 197 347 356 548 178 329 184 328 170 549 165 322 174 324 179 318 182 325 181 327 173 321 180 320 197 347 164 300 177 316 179 318 356 550 184 331 187 336 163 299 356 548 161 297 186 551 356 548 163 299 186 335 163 313 169 305 178 329 356 548 186 551 161 319 356 550 187 336 182 325 169 305 183 326 182 325 178 317 186 335 193 343 195 345 199 349 199 349 195 345 189 339 192 342 193 343 200 350 180 320 192 342 196 346 191 341 198 348 193 343 188 338 200 350 199 349 192 342 191 341 193 343 200 350 193 343 199 349 180 320 187 336 192 342 196 346 192 342 201 351 201 351 200 350 188 338 171 546 203 355 204 354 204 354 175 312 171 546 202 362 172 547 197 347 204 354 206 357 174 310 207 358 202 352 270 442 270 434 202 362 210 363 203 355 207 360 205 356 174 324 206 552 208 553 218 371 212 365 282 452 210 363 196 346 215 368 283 453 215 368 217 370 217 370 216 369 218 371 196 346 216 369 215 368 218 371 188 338 211 364 218 371 201 351 188 338 210 363 215 368 283 453 216 369 201 351 218 371 196 346 201 351 216 369 221 374 220 373 357 554 221 555 245 402 244 401 243 400 221 555 244 401 223 376 222 375 224 378 226 380 219 394 243 400 231 385 166 302 232 386 176 314 166 302 231 385 176 332 231 556 226 380 220 377 223 376 357 557 219 394 221 555 243 400 232 386 166 302 170 306 245 413 221 374 357 554 237 558 233 387 234 388 219 372 237 558 234 388 228 382 357 557 223 376 235 389 232 386 170 306 237 558 231 385 233 387 234 559 233 387 235 389 222 375 234 560 235 389 222 375 235 389 236 390 234 560 222 375 220 377 236 561 170 549 174 324 224 392 236 561 174 324 231 556 237 393 226 380 230 414 225 391 174 324 240 397 243 400 238 395 198 348 194 344 193 343 240 397 239 396 242 399 198 348 226 380 240 397 189 339 195 345 241 398 240 397 226 380 243 400 294 465 248 405 249 406 229 415 174 324 250 562 252 412 308 489 246 403 248 405 357 557 227 381 245 413 357 554 248 409 245 402 251 411 246 403 227 381 357 557 228 382 247 404 227 381 229 383 253 416 244 401 246 403 213 366 189 339 255 418 189 339 241 398 255 418 255 418 239 396 256 419 254 417 253 416 256 419 358 563 258 421 260 423 263 426 258 421 358 563 289 459 262 425 263 426 261 424 214 367 285 455 317 498 263 426 358 563 291 463 264 427 266 429 274 438 272 436 265 428 209 361 207 360 278 447 274 438 275 439 272 436 264 427 274 438 265 428 281 448 275 439 273 437 275 439 264 431 273 437 264 431 291 461 268 432 278 443 270 442 272 436 275 439 278 443 272 436 266 444 265 428 279 445 276 449 273 451 269 564 209 361 278 447 281 448 209 361 281 448 267 430 207 360 277 565 278 447 267 430 281 448 273 437 174 324 208 553 267 450 276 449 174 324 267 450 210 363 283 453 271 435 259 422 212 365 261 424 259 422 217 370 282 452 212 365 190 340 214 367 282 452 217 370 218 371 262 425 279 445 258 421 280 446 279 445 262 425 286 456 289 459 287 457 214 367 257 420 285 455 257 420 306 487 284 454 308 489 288 458 307 488 307 488 288 458 290 460 287 457 263 426 315 496 292 472 291 463 293 464 294 465 249 406 250 466 308 489 252 412 304 483 359 566 294 465 296 468 308 489 304 483 303 479 298 567 297 481 299 473 268 432 292 462 276 440 276 440 298 470 300 474 300 474 299 473 301 482 174 324 276 449 300 476 304 568 297 471 293 464 252 410 297 471 304 568 297 481 359 566 299 473 299 473 359 566 296 468 295 485 250 562 174 324 297 481 294 465 359 566 213 366 255 418 257 420 257 420 255 418 306 487 256 419 307 488 305 486 308 489 286 456 288 458 302 478 280 446 289 459 306 487 305 486 311 492 284 454 306 487 311 492 309 490 360 569 260 423 317 498 358 563 360 569 360 569 358 563 260 423 260 423 261 424 309 490 290 460 316 497 307 488 307 488 316 497 311 492 310 491 285 455 314 495 313 494 309 490 310 491 316 497 331 512 311 492 315 496 318 499 325 506 290 460 287 457 315 496 312 493 360 569 309 490 317 498 360 569 312 493 315 496 263 426 317 498 317 498 312 493 318 499 284 454 311 492 332 513 320 570 319 500 324 505 310 491 323 504 313 494 310 491 314 495 323 504 324 505 323 504 339 520 352 538 329 510 322 503 325 506 328 509 326 507 319 500 313 494 324 505 319 500 312 493 313 494 328 509 318 499 329 510 325 506 318 499 328 509 329 510 318 499 312 493 319 500 329 510 312 493 322 503 329 510 319 500 284 454 332 513 333 514 332 513 353 540 354 571 331 512 353 540 332 513 361 572 322 503 321 502 354 573 361 572 321 502 331 512 316 497 335 516 353 539 322 503 361 572 353 539 352 538 322 503 335 516 325 506 327 508 345 526 337 518 338 519 343 534 337 518 345 526 343 524 320 501 337 574 337 518 320 570 324 505 341 522 343 534 345 526 321 502 320 501 342 523 342 523 320 501 343 524 351 536 326 507 348 530 345 526 339 520 341 522 347 529 351 536 348 530 327 508 326 507 351 536 348 530 326 507 350 535 350 532 330 528 349 531 328 509 330 511 326 507 346 537 347 529 349 531 340 521 344 533 341 522 342 542 344 533 340 521 354 573 353 539 361 572 354 571 342 542 334 515 339 520 333 514 340 521 332 513 354 571 334 515</p>
        </triangles>
      </mesh>
    </geometry>
  </library_geometries>
  <library_visual_scenes>
    <visual_scene id="scene">
      <node id="thigh_mirror_dae">
        <instance_geometry url="#geometry">
          <bind_material>
            <technique_common>
              <instance_material symbol="qmat_4b294f1aa1dfaafb" target="#qmat_4b294f1aa1dfaafb" />
              <instance_material symbol="qmat_ddc4e6410bf0a5b2" target="#qmat_ddc4e6410bf0a5b2" />
            </technique_common>
          </bind_material>
        </instance_geometry>
      </node>
    </visual_scene>
  </library_visual_scenes>
  <scene>
    <instance_visual_scene url="#scene" />
  </scene>
</COLLADA>