<?xml version='1.0' encoding='utf-8'?>
<COLLADA xmlns="http://www.collada.org/2005/11/COLLADASchema" version="1.4.1">
  <asset>
    <created>2026-09-14T00:00:00Z</created>
    <modified>2026-09-14T00:00:00Z</modified>
    <unit name="metre" meter="1" />
    <up_axis>Z_UP</up_axis>
  </asset>
  <library_effects>
    <effect id="qmat_4b294f1aa1dfaafb_effect">
      <profile_COMMON>
        <technique sid="common">
          <lambert>
            <emission>
              <color sid="emission">0 0 0 1</color>
            </emission>
            <diffuse>
              <color sid="diffuse">0.6717055 0.6924257 0.7742702 1</color>
            </diffuse>
            <reflectivity>
              <float sid="specular">0.5</float>
            </reflectivity>
          </lambert>
        </technique>
      </profile_COMMON>
    </effect>
    <effect id="qmat_ddc4e6410bf0a5b2_effect">
      <profile_COMMON>
        <technique sid="common">
          <lambert>
            <emission>
              <color sid="emission">0 0 0 1</color>
            </emission>
            <diffuse>
              <color sid="diffuse">0.9 0.95 0.95 1</color>
            </diffuse>
            <reflectivity>
              <float sid="specular">0.5</float>
            </reflectivity>
          </lambert>
        </technique>
      </profile_COMMON>
    </effect>
  </library_effects>
  <library_materials>
    <material id="qmat_4b294f1aa1dfaafb" name="qmat_4b294f1aa1dfaafb">
      <instance_effect url="#qmat_4b294f1aa1dfaafb_effect" />
    </material>
    <material id="qmat_ddc4e6410bf0a5b2" name="qmat_ddc4e6410bf0a5b2">
      <instance_effect url="#qmat_ddc4e6410bf0a5b2_effect" />
    </material>
  </library_materials>
  <library_geometries>
    <geometry id="geometry" name="thigh_dae">
      <mesh>
        <source id="positions">
          <float_array id="positions_array" count="1086">0.048374217 -0.0565320142 -0.00078090484 0.0482894108 -0.0487294197 -0.000629010028 0.0372030586 -0.0565398932 -0.000561376743 0.0374096893 -0.0487032607 -0.000500423252 0.0318618193 -0.0484949909 -0.019112397 0.0359469578 -0.0567143112 -0.00896772929 0.0279923007 -0.056795001 -0.0243832357 0.0439631604 -0.0560434461 -0.0197630376 0.0401663035 -0.0565449409 -0.0263326671 0.0421165749 -0.0499387681 -0.0233395305 0.0372693688 -0.0487449691 -0.0301946104 0.0411000066 -0.0544108264 -0.0250349473 0.0410149582 -0.0526449606 -0.00747800991 0.0464217551 -0.0487449691 -0.0130859781 0.0183032528 -0.0485274233 -0.031813886 0.0108586662 -0.0567781143 -0.0350054018 0.00220105471 -0.0485357754 -0.036422167 -0.010449728 -0.0567949899 -0.0352827534 -0.0178042538 -0.0484949909 -0.0322286673 -0.01404572 -0.0565831997 -0.0453527905 -0.0255237091 -0.0566779412 -0.0258596558 -0.0337810554 -0.0567519926 -0.0141347088 -0.0287241451 -0.0565449409 -0.0378796719 0.00503430795 -0.0565449409 -0.0473134853 -0.0369854644 -0.0487207547 -0.000470227038 -0.0318062454 -0.0485399663 -0.0180170741 -0.00947244372 -0.0487449616 -0.0465653911 -0.0270140003 -0.0487449616 -0.0391052663 -0.0404874794 -0.0488799885 -0.0251874197 -0.0400451943 -0.0565648638 -0.025767833 -0.0464962944 -0.0487449691 -0.0110692792 -0.0416944064 -0.0553814694 -0.0232468434 0.00762686692 -0.0486830361 -0.0469275676 0.0272563044 -0.0565449409 -0.0392624103 0.0209846962 -0.0487468839 -0.0428570956 -0.0464984477 -0.0565449446 -0.0110606123 -0.0462505817 -0.0522746146 -0.0118660219 -0.0459823422 -0.054284256 -0.0132253403 -0.0408746563 -0.0513114445 -0.00737900008 -0.0446349904 -0.0550229512 -0.00737900008 -0.0456357114 -0.0517233051 -0.00737900008 -0.0449824445 -0.0533175208 -0.00217897026 -0.0477700159 -0.0487091169 -0.000599657127 -0.0367915593 -0.0565584973 -0.000528145523 -0.0477418788 -0.0566045009 -0.000609467621 -0.0437390245 -0.0494493172 -0.0192270782 -0.0415426791 -0.0519728586 -0.00217897003 0.0461782739 -0.0506973974 -0.0141051291 0.0453706682 -0.0504936576 -0.00748513173 0.0468454622 -0.0531936027 -0.0118407737 0.045099508 -0.0550025627 -0.00747800991 0.0315168537 -0.0215362571 0.0406434461 0.0226446223 -0.00694915932 0.044662118 0.00424220134 -0.0217998289 0.0505769812 0.0223955233 0.00816114899 0.0251249634 0.00625677872 0.00198010984 0.0334889255 0.0231363606 0.00141312904 0.026425207 -0.00259926263 0.00741203129 0.0330717228 -0.0139504364 0.00242610136 0.0319387168 -0.0243115444 0.00420014374 0.0264957342 0.0111254426 0.0131832929 0.0240757521 0.0302223898 0.00899023563 0.0109095657 0.0313219428 -0.0072274683 0.0359847546 0.0439039394 -0.0165757332 0.0251792017 0.0316150412 -0.00742797274 0.0124040535 0.0414283276 -0.0216385443 0.0308031403 0.0138881095 0.0166209899 -0.0058546979 -0.0355669707 0.00945271552 0.00894462876 -0.0111084068 0.0134186773 0.0238487069 -0.040600311 0.00252724322 -0.000403804472 -0.0403705202 0.00286776316 -0.0172515772 -0.0465074293 -0.00657153269 0.00727237063 -0.0483929515 -0.0211086646 -0.0164819025 -0.0483929515 -0.0215229262 0.0153625226 -0.0403566919 -0.0216095448 0.0317709036 -0.0313240737 -0.0057857316 0.0354248844 -0.0372727551 0.00258048647 0.0103883883 -0.0113445418 -0.00610977318 0.0460297242 -0.0250085387 -0.0216333233 0.0445294641 -0.00471301377 -0.0105728572 0.0497524366 -0.040426001 0.010416382 -0.0173559692 0.00241819769 0.0162552763 -0.0169933364 -0.0254676808 0.0148921171 0.00312708621 -0.038724307 0.00140637031 -0.00359787419 -0.0428166687 -0.00689451443 0.0129875252 -0.046005711 -0.0217120647 0.0144704403 -0.0465451218 -0.0210577883 -0.0162021331 0.019147398 -0.00807945617 0.0434052534 0.0329928771 -0.0114851817 0.0340136513 0.0282204878 -0.0217988919 0.0397609808 -0.0197804142 -0.0216548312 0.0449117944 -0.00808451977 -0.00817915983 0.0454154573 0.00838153902 -0.021798376 0.0480786152 0.0427233018 -0.0195317157 0.0245005973 0.0221735872 -0.000805152464 0.0248353686 -0.0173268709 0.000997427851 0.0291414298 -0.0339446738 0.00194103969 0.0119280638 0.0212851651 0.00840504002 0.0219489075 0.0182262249 0.0129213994 -0.00173721358 0.0289570577 0.00704777427 0.00965624209 -0.0365651101 0.00647543371 0.00124762824 0.00322079053 0.0132990889 -0.0163875129 -0.0141249727 0.0141067291 0.000612366886 -0.0341258422 0.01053409 -0.0173559692 -0.0233375803 0.00864944048 0.0213839244 -0.00656754896 0.0120416004 0.02148466 0.00613541249 0.000470407103 0.0313626826 0.000940187194 0.00718526123 0.0304465443 -0.029065039 -0.0063219443 0.0327529237 -0.0400396734 -0.0215583462 0.0278908368 -0.035472706 -0.0567142107 0.0102073746 -0.0478066504 -0.0565693006 0.00187098002 -0.0367055163 -0.0565414354 0.00182040129 -0.0369762219 -0.0486886129 0.00174654822 -0.0313861668 -0.0484959409 0.0203565247 -0.0296010971 -0.0567432605 0.0225707088 -0.0158222821 -0.056795951 0.034372095 -0.0157178286 -0.0484959409 0.0344206989 -0.0031781646 -0.0487459898 0.0486779176 -0.0247167367 -0.0487459898 0.0418342575 0.000463397708 -0.0565459803 0.0487982742 -0.0166074503 -0.0565459803 0.0457569472 0.0180994384 -0.0565459803 0.0453692079 0.0200278722 -0.0567909516 0.0321563706 0.0335149914 -0.0567959547 0.0174707696 0.0348164439 -0.0565459691 0.0341692343 0.00301580969 -0.0567584597 0.0376154184 0.034775082 -0.0485793203 0.0138153806 0.0275282487 -0.0485429652 0.0257022418 0.00384983304 -0.0485170111 0.0376133248 0.0176756941 -0.0486214161 0.0331747532 0.0185445342 -0.0487459898 0.0451839529 0.0369719155 -0.0487502664 0.0317894965 0.0418457687 -0.0554019772 0.0250464939 0.0415457375 -0.050498262 0.0255529955 0.0469708331 -0.0487459786 0.012314084 0.045892112 -0.0503270403 0.0162296239 0.0417389497 -0.0543969497 0.00862096995 0.0423649475 -0.0502679832 0.00862189662 0.0439749882 -0.0565539412 0.0207961891 0.0468557514 -0.0533967502 0.0130509222 0.0483821556 -0.0565202571 0.00203195959 0.0482508801 -0.0487016663 0.00185178407 0.0372585543 -0.0565582961 0.00177560421 0.0372730717 -0.0487205274 0.00177413016 0.0464830436 -0.0526459813 0.00862807222 -0.0337928347 -0.0565459765 0.034719836 -0.0374392234 -0.0487289988 0.030616099 -0.0403574035 -0.0533738025 0.0266946927 -0.0431206226 -0.0562588312 0.0217897967 -0.0426335596 -0.0556340814 0.0227540601 -0.0420851111 -0.0495168604 0.0237897672 -0.0467778519 -0.0487404615 0.0111201322 -0.0455330461 -0.050709419 0.0156378523 -0.0432818495 -0.0499253869 0.00871996954 -0.0459837765 -0.0526554808 0.00871996954 -0.0464247987 -0.0530241355 0.0128947077 -0.0432629511 -0.0553679392 0.00871996954 -0.0405379236 -0.0526459813 0.008727476 -0.0460881032 -0.0565511398 0.0138230314 -0.0477908663 -0.0487063229 0.00187098002 0.0197259709 0.00599380163 0.0237087309 0.0192693882 -0.00547289802 0.0261635594 0.0274011623 -0.00551794609 0.0164408535 0.00558095239 -0.00738683669 0.0326772891 0.0250608958 0.00850054342 0.0104407705 0.00959722046 0.0124228932 0.0107262237 -0.00637547672 0.00907908753 0.0259388592 0.0381524004 -0.0184288733 0.0298280101 0.0164573342 -0.0184195358 0.0455783978 0.0265634805 -0.0187627859 0.0408535786 0.0291248579 -0.0482475683 0.0390454754 0.0180433057 -0.0451960005 0.0452900939 0.0163960643 -0.0438537411 0.0400951542 0.019934563 -0.0483959988 0.0393130183 0.0139222732 -0.0483959988 0.042501241 0.0414859951 -0.0353098065 0.0225655995 0.0339113623 -0.0353284068 0.0329586975 -0.0432732925 -0.0351959392 0.0154507216 0.0192634091 -0.0352483988 0.0413857326 0.0140226781 -0.0444593541 0.0452743247 0.0233927518 -0.0447658859 0.0411156975 0.0321890004 -0.0463715978 0.034284275 0.0426328517 -0.0480118208 0.0235735551 0.0406445526 -0.0472928137 0.0241564214 0.0321396999 -0.0473960005 0.0280799903 0.0410241187 -0.0429784693 0.0174927954 0.0388076715 -0.0473960005 0.0179049745 0.0443088152 -0.0351959392 0.0151054608 -0.00116481958 -0.0457940213 0.047264155 0.00372895668 -0.0481459498 0.0486665852 -0.00389065989 -0.0468959883 0.0485501811 0.0460235402 -0.0478959605 0.0157786701 0.0455818027 -0.0185526274 0.0161351841 0.030798085 0.00521736173 0.00189075444 0.0319430083 -0.00477337325 -0.000182542717 0.0459416583 -0.0186718535 -0.0134350676 0.0337384641 -0.0108101601 -0.0198506098 0.00585184898 0.0103762634 -0.0458815843 -0.00645395555 0.0134270824 0.00225684 0.0340911932 -0.0112176295 0.0125569422 0.0312466435 -0.00558079639 -0.0177251119 0.029214019 0.00469262712 -0.0236740671 0.024027871 0.00964988861 -0.0144929737 0.0460752062 -0.0481459312 -0.0140584959 0.0410893783 -0.0465800986 -0.01514652 0.0432848893 -0.0478328913 -0.020985499 0.0445822701 -0.0358236991 -0.0136465942 0.0446865931 -0.0458827391 -0.0124823861 0.0447869785 -0.0468959808 0.0109235439 0.0425413847 -0.0453959703 0.000558325148 0.04648697 -0.0472109355 -0.00512287021 0.0415014923 -0.0351959392 -0.0192306433 0.0409183279 -0.018580297 -0.0248229802 0.00334898266 0.00312255463 0.0313191749 -0.015123778 -0.00741434004 0.0304352809 -0.017862061 -0.0183621179 0.044887621 -0.0321447849 -0.0180342216 0.0356605835 -0.0277253278 -0.00693763047 0.0216240678 -0.0442694724 -0.0179014485 0.0180771295 -0.0354498401 -0.00661397539 0.00997901801 -0.011203818 0.0051731267 0.0297846198 -0.0346349999 0.00411592424 0.0094072856 -0.0245458893 0.00638782606 0.0214351844 -0.0159122627 -0.0473067239 0.0411799252 -0.0106916474 -0.046531003 0.043234963 -0.0162974298 -0.0437488556 0.0400954448 -0.0119934035 -0.0352619328 0.0456359647 0.0121506797 -0.0353250355 0.0457093976 -0.01878291 -0.0352165103 0.0413747132 -0.0407154262 -0.044421833 0.0230416395 -0.0389195792 -0.0444025993 0.017103957 -0.021615997 -0.0480454452 0.0360226929 -0.0229150541 -0.0448249467 0.0411180072 -0.0313473642 -0.0449200273 0.0349422358 -0.0202893224 -0.0472539961 0.0433942154 -0.0456661209 -0.0478959605 0.0153156649 -0.0428387709 -0.0478965305 0.0221798457 -0.00392285502 -0.0185711924 0.048334673 -0.0327532068 -0.0481459498 0.0357311331 -0.0397104025 -0.0483959988 0.0148433102 -0.0306618605 -0.0464736558 0.0290203094 -0.0287828669 -0.0352334678 0.0371438824 -0.0399342589 -0.0071438537 -0.00530383037 -0.0410736054 -0.00786852092 -0.0183696654 -0.045726046 -0.0193314366 -0.0132667441 -0.0315474458 0.00990926009 -0.00375978881 -0.0206837822 0.0107292961 -0.0439729244 -0.0400900804 0.00475319568 -0.0175134242 -0.0400286689 -0.0351959392 -0.0226199292 -0.0337550491 -0.0352236517 -0.0298009235 -0.0408766717 -0.0468789078 -0.00919017848 -0.0443050824 -0.0446824729 0.0145404954 -0.0402364284 -0.012123201 -0.025837373 -0.0451427549 -0.041233331 -0.0155966412 -0.0455700457 -0.0478959605 -0.0144538032 -0.039574191 -0.0436959788 -0.0187343676 -0.0385469273 -0.0473960005 -0.016389858 -0.0434824415 -0.0442830771 -0.0131587358 -0.0443864428 -0.0412587672 -0.0173783321 -0.044706095 -0.0412574969 -0.0166254025 -0.0438798741 -0.0412574783 -0.0185715128 -0.0428373106 -0.0474321842 -0.0205331072 -0.0298097227 -0.0474838354 -0.028251512 0.0073438338 0.00478015514 -0.093145296 0.0135678723 -0.00581991486 -0.0682142824 0.00441706553 -0.00692343246 -0.105123155 0.0184532348 -0.00917001162 -0.050303556 0.0184081085 -0.0176097099 -0.0444505885 0.00940235704 -0.0128053613 -0.0530526191 0.0315751322 -0.0187070407 -0.0358492061 0.0251196176 -0.0124586169 -0.0385651812 0.014196666 -0.0352714621 -0.0439919271 0.0141909346 -0.0446617715 -0.0435195528 0.0170083717 -0.0440754704 -0.0384485871 0.00202575675 -0.0173675288 -0.0480825864 0.0154237645 -0.0474736951 -0.0450794101 0.00375271356 -0.0468959697 -0.0473531336 0.0155609231 -0.0483959801 -0.0392017812 0.0197130702 -0.0351959318 -0.0404228754 0.0241957437 -0.0449757129 -0.0393773392 0.0312476624 -0.0353406221 -0.0341924392 0.0226125456 -0.0483959876 -0.0343827158 0.0225281678 -0.0479486138 -0.0421477482 0.033110626 -0.0478671752 -0.0346902125 0.0404136218 -0.0453959703 -0.0203497037 0.0331599526 -0.0468959808 -0.025380034 0.0341204628 -0.0448764525 -0.0314730853 -0.00404395629 -0.0352540165 -0.0458028354 0.00388233131 -0.0477666073 -0.0409052074 0.00123272405 -0.0453959592 -0.045656234 -0.03672323 -0.0101888049 -0.0452999212 -0.0380261354 -0.00607246347 -0.0707182437 -0.0280347764 -0.0105408588 -0.0626144782 0.00320459763 -0.0108304536 -0.0658199638 -0.0214848109 -0.0122598503 -0.150245652 -0.00719442219 -0.011273684 -0.14670527 -0.0335810445 0.00864989962 -0.0541032776 -0.0365496092 0.00467970967 -0.106192939 -0.0262300912 -0.0132589117 -0.0493533313 -0.0351817161 -0.0187858231 -0.0323272981 -0.0105776265 -0.0177021641 -0.0467494316 -0.0154839698 -0.0475429706 -0.0442849994 -0.0155274104 -0.0352538526 -0.0406778045 -0.0151529554 -0.0476249829 -0.0379657336 -0.032917507 -0.0481325611 -0.0343349837 -0.0236126781 -0.0451441407 -0.0394453891 -0.0163184255 -0.0436959714 -0.0390602015 -0.0345830806 -0.0454093851 -0.0306460783 -0.0130466931 -0.0451299138 -0.0441492461 -0.0260628909 -0.0352276228 -0.0379150845 -0.0264263172 -0.0182478949 -0.0399052911 -0.0410986803 -0.0464300327 -0.0221805871 -0.034893997 -0.006878471 -0.131069124 -0.0257265419 0.0109472284 -0.148819208 -0.0320457891 0.00795088988 -0.151194721 -0.0307697002 -0.010194703 -0.150913686 0.00143406936 0.00647477759 -0.122966073 0.0109601198 0.006444511 -0.0760516226 -0.00868454762 0.0105525646 -0.14350155 -0.000635761418 -0.0076252427 -0.149806008 -0.0249204766 0.0143488646 -0.187549517 -0.0301001444 0.0105427336 -0.186196283 0.0029762669 -0.00043762874 -0.178497285 0.0027202568 -0.0105606476 -0.178918615 0.00318897585 0.0129342545 -0.18862325 0.0028126128 0.00715092756 -0.180285141 0.0120852487 0.00733810151 -0.202281103 -0.00076233258 0.00793468021 -0.152229026 0.00834200438 -0.011271663 -0.195438117 0.00339180557 -0.0158362538 -0.189544335 -0.00655962853 -0.0183119141 -0.17394644 -0.0112408865 0.0150999473 -0.174294218 -0.0133222518 -0.000213114297 -0.187832892 0.0037860726 -0.0187237728 -0.206058979 -0.0277613848 -0.0111229913 -0.197437882 -0.0148556568 -0.00893158279 -0.188558862 -0.0303110834 -0.0133837219 -0.185111508 -0.0277803708 -3.87893961e-05 -0.196129784 0.0135666225 0.0111072687 -0.208437368 0.0128499316 0.00743494928 -0.221739069 0.0107992906 0.0145650776 -0.216237783 -0.00681377016 0.014895902 -0.220640644 0.000526037009 0.0126662627 -0.225708008 -0.00589711405 -0.0154324602 -0.224400982 0.00653991103 -0.016323993 -0.223964259 -0.0026317141 -0.0186774563 -0.219151363 0.0107294703 -0.0113126189 -0.224267095 0.0152144814 -0.0137577392 -0.212434962 -0.000928650028 0.00730807567 -0.227354005 -0.0148336161 -0.0113712559 -0.220818251 -0.0133750429 0.00748381065 -0.22140415 -0.0273188241 0.00645737536 -0.197391674 -0.0237952322 0.00811677519 -0.208133191 -0.0057484312 -0.0192442741 -0.208626404 -0.0166851711 -0.016141694 -0.214180872 -0.0248368327 -0.017831238 -0.183689535 0.020974813 -0.0122781741 0.0322747827 0.000835355662 -0.0173959807 0.0435783044 -0.0392272733 -0.0354188047 0.0254306775 -0.0441539809 -0.0352689475 -0.0137059698 0.0187280998 0.00581362378 -0.0494692661</float_array>
          <technique_common>
            <accessor source="#positions_array" count="362" stride="3">
              <param name="X" type="float" />
              <param name="Y" type="float" />
              <param name="Z" type="float" />
            </accessor>
          </technique_common>
        </source>
        <source id="normals">
          <float_array id="normals_array" count="1773">0.0196574535 -0.0192461833 0.999621511 0.0166012459 -0.0149070099 0.999751031 0.0149198882 -0.0125199342 0.999810278 0.0117982924 -0.00808831025 0.999897659 -0.859327316 -0.00571525516 0.511394024 -0.956260145 -0.0380641557 0.29003036 -0.975622356 -0.0481619164 0.214106247 -0.726737797 -0.0111811999 0.686823905 0.0246184468 -0.99964726 -0.00996440835 0.154353946 -0.987512469 -0.0315283164 0.0337442458 -0.999282241 -0.0172132682 0.0259328149 -0.9990924 0.0337916948 0.920173168 0.190662041 -0.341949314 0.795720577 -0.0401684083 -0.60433042 0.551710427 0.661339045 -0.508179426 0.870824873 0.0562927574 -0.48835963 0.554062366 -0.826144457 -0.102470696 0.695520997 0.694276035 -0.185016915 -0.498826921 0.02159857 0.866432428 -0.280951858 0.0140280435 0.959619343 -0.0366957821 0.0269081816 0.998964131 0.253729731 -0.0284706838 0.966856062 0.496589005 0.00800101925 0.867948949 -0.00644653989 -0.999842644 -0.0165252965 0.00858108979 -0.999963164 0.000194262728 -0.0134711992 -0.999907196 -0.00202191714 -0.0082705766 -0.999910891 -0.0104806218 -0.00766749401 -0.999803305 -0.0182904191 0.0107308095 -0.999649048 -0.0242195129 0.00299203652 -0.999803782 -0.0195819754 0.971034229 -0.0179516021 0.238265127 0.925337672 -0.0178180374 0.378725082 0.858792126 -0.0284899566 0.511531472 0.701337814 -0.0188220181 0.712580562 -0.0197737962 0.999733329 -0.0119258612 -0.00433229469 0.99983865 -0.0174335707 -0.00888267718 0.999891639 -0.0117387138 -0.0534079522 0.998132169 -0.0296613872 -0.5624547 0.0168250799 -0.826656878 -0.618055522 0.00613694871 -0.78611052 -0.896178901 0.0830992088 -0.435841531 -0.581820846 -0.682554126 -0.442271858 -0.712284803 0.682932496 -0.162029639 -0.940221965 -0.0552353747 -0.336053073 -0.309567153 0.00663133804 -0.95085448 -0.186590999 -0.0112916604 -0.982372761 0.0990216434 -0.0254412964 -0.994759977 0.168635637 -0.00722690625 -0.98565197 0.00932890177 -0.999807477 -0.017263582 0.409498453 -0.0673104823 -0.909824312 0.564028859 0.0168200135 -0.825583756 -0.00054147857 0.999950707 -0.00991258956 0.00978740398 0.999817669 -0.0163946599 0.0112489136 0.999789894 -0.0171369985 0.00551595399 0.999621212 -0.0269626025 -0.0398496501 0.998381972 -0.0405637361 0.016985625 0.999816895 -0.00881528575 -0.709961653 -0.686903238 -0.15530102 -0.957095146 0.00441073393 -0.289740235 -0.948500872 -0.077558659 -0.307133138 -0.751123667 0.657110989 -0.0633903071 0.238221213 0.953045547 -0.186962277 0.336960942 0.940617085 0.0411923416 0.591251731 0.805750906 -0.0344515294 0.805354595 -0.557826757 -0.200582206 0.956490755 0.290086627 -0.0312277414 0.95684433 -0.269872189 -0.107786641 -0.00532196136 0.999982715 0.00249102945 -0.99286586 -0.0019576503 -0.119220465 -0.00538209407 -0.999978781 0.00367372367 0.00423960201 -0.999977529 -0.00519334758 -0.00923604239 -0.00380787067 0.999950111 -0.00742092077 -0.00126896531 0.999971688 -0.0101594171 -0.00509947818 0.999935389 -0.0120085077 -0.00768603478 0.999898374 0.00111857627 0.99999398 -0.00328846159 -0.992988706 -0.00339163421 -0.118160844 -0.698362768 0.65327239 -0.292445928 0.0716262907 -0.987057924 -0.143479452 0.00479112519 -0.990704656 -0.135945886 -0.0773336142 -0.987613678 -0.136523589 0.232089266 -0.945580721 -0.228060558 0.345615774 -0.884114563 -0.314469725 -0.345769674 0.884508312 -0.313190728 -0.534946442 0.828094959 -0.167603821 0.976206005 0.0225585978 0.215668529 0.00825804286 0.999962509 0.00259944727 0.00238538929 0.999995887 -0.00160600501 -0.19705379 -0.980373502 0.00613284064 -0.43129608 -0.901867867 -0.0248596612 -0.369161963 -0.667604923 -0.646547079 0.974025905 -0.128690183 -0.186312482 0.941608131 0.0558945611 -0.332038999 -0.698405743 0.23148632 -0.677232206 -0.964004934 0.239005864 -0.116493411 -0.711831152 0.702322066 0.00633796491 0.516962826 0.851361156 -0.0890707672 0.708937407 0.683646321 -0.173307642 0.736599922 -0.665213108 -0.122115143 0.988852322 0.0136325182 -0.148274362 0.00110953464 -0.999787629 0.0205780901 -0.988788068 0.024927143 0.147230223 0.498119235 0.862992585 -0.0843860731 -0.000881042622 -0.00152651314 -0.99999845 0.595220447 0.147085145 0.789986432 0.373922288 0.501610935 0.780108094 0.0933446363 0.062890321 0.993645608 0.561119437 0.551594734 0.617161453 0.148424774 0.66269201 0.734036326 0.639577746 0.571739078 0.51386261 -0.0472357385 0.465082794 0.884006083 -0.225636706 0.675650179 0.701843917 -0.419898152 0.714614332 0.559474707 0.178184003 0.886275768 0.427511096 0.655641794 0.670144856 0.347907513 0.658457756 0.593481362 0.462831795 0.973705411 0.208616123 -0.0915266126 0.84561795 0.523449183 0.104552537 0.792142749 0.188308209 0.580559969 0.0681540444 0.994248927 0.0826080963 -0.679041743 0.644774556 0.350953013 -0.182814062 0.88507539 0.42804268 -0.873304963 0.471013814 0.124436192 -0.981883705 0.182796851 -0.0498969667 -0.897556245 0.408093005 0.166891694 -0.965670824 0.248565331 -0.0754657313 -0.922819555 0.266761154 0.277925491 -0.775260508 0.304119289 0.553608716 -0.575067401 0.524223387 0.628082275 -0.779660285 0.495125949 0.383379966 -0.221216321 0.60139972 0.767711997 -0.463419944 0.198109508 0.863709807 -0.082655184 0.317978293 0.944488168 -0.7718243 0.635821402 0.00427989801 -0.0662468821 0.997508943 -0.0242336467 -0.225727782 0.970071316 0.0894911811 0.854478061 -0.488139153 -0.177728593 0.849400699 -0.458089679 -0.262054086 0.885150313 -0.463021487 -0.046043843 0.949377656 -0.226146415 -0.218036383 0.97100246 -0.238932312 -0.00809427164 -0.330839247 -0.541777492 -0.772672296 -0.697944105 -0.503122211 -0.509648919 -0.334580213 -0.818468571 -0.467081666 0.417293102 -0.245041952 -0.875111938 0.13438715 -0.538974702 -0.831532538 -0.121921077 -0.154792458 -0.980395079 -0.661115825 -0.667299569 -0.342982769 -0.77937907 -0.559970081 -0.281072527 -0.59703511 -0.610206306 -0.520766079 0.297705561 -0.678997934 -0.671068668 0.6970824 -0.601929247 -0.389560401 -0.495198607 -0.677934229 -0.5433079 -0.132956937 -0.986623108 -0.0943256915 -0.658426046 -0.671698809 -0.339552343 0.767980993 -0.596209347 -0.233964965 -0.000135214927 -0.99887991 0.0473173708 0.114662096 -0.992473662 -0.0429963432 0.489721686 -0.871137321 -0.0359506495 0.504270613 -0.671246886 -0.543266773 0.0586538352 -0.940716267 -0.334084809 -0.14847964 -0.634998262 -0.758110106 -0.0385643616 -0.567682981 -0.822343528 0.547613502 -0.5570786 -0.624325991 0.768843353 -0.295224875 -0.567205548 0.454742461 -0.0586619824 -0.888688982 0.34514299 -0.0971278474 -0.93351084 0.73316747 0.109509684 -0.671172976 0.700474381 0.0276770703 -0.713140666 0.716659367 -0.00807141513 -0.697376609 0.714111865 -0.0135849053 -0.699899793 0.70710969 -0.00438428391 -0.707090259 -0.207173422 -0.923793137 -0.322002143 -0.00251535187 -0.999988854 -0.00399235357 -0.00148609397 -0.999994278 -0.0030442616 -0.00310870958 -0.999948263 -0.00968811661 -0.00430638855 -0.999987245 0.0026317758 0.00758682471 -0.999927282 -0.00937178824 0.0359504111 -0.999301016 -0.0102486257 -0.0747621059 -0.997200549 0.00129698089 -0.0740312338 -0.997233331 0.00671178941 0.0244117547 -0.999613523 -0.0133011974 -0.000133448877 0.0475562662 -0.998868525 0.000148360617 -0.00793086085 -0.999968529 0.000258507236 -0.0138260704 -0.999904394 0.151405573 -0.0822806805 -0.985041261 0.0294872914 -0.999480605 -0.0130021134 0.0578934103 -0.99511975 0.0799061432 0.903995454 -0.288658917 -0.315385848 -0.0100330273 -0.999947608 -0.00201977417 -0.00722501334 -0.999951482 -0.00669238996 0.00241410546 -0.999777555 -0.0209511966 0.975864232 -0.0429136008 -0.21412012 0.95785445 -0.0437307321 -0.283905715 0.98893553 0.0327301994 -0.144690245 0.838701904 -0.0112349503 -0.54447484 0.766548097 -0.0064876508 -0.642154098 0.435443699 -0.00758579979 -0.900183976 0.432719678 -0.00291854283 -0.901523769 0.00040386332 0.9998523 0.0171806142 -0.00838573743 0.999753654 0.0205497202 -0.0115286196 0.999738932 0.0197266955 -0.00895683747 -0.999777436 0.0191009585 0.00145142595 -0.999875903 0.0156861097 -0.00761266751 -0.999741435 0.0214257166 0.361691982 0.0118954731 0.93222177 -0.0682437643 0.0239261184 0.997381747 0.0584231615 0.0426658541 0.99737972 0.00692737568 -0.99980092 0.018712122 0.0176626388 -0.999621093 0.0211116448 0.0208753087 -0.99977386 0.00405897107 0.506088912 -0.655101359 0.560995817 -0.00229143607 -0.999489963 0.0318514816 -0.941999137 -0.0152612105 -0.33526811 -0.888112187 0.00527589908 -0.459596485 -0.737904966 0.0401444435 -0.673709631 -0.524063408 0.0162924211 -0.851523399 -0.0885854363 0.00872343592 -0.99603039 -0.432183594 -0.0120315962 -0.901705384 0.0040159421 0.999941111 0.010081796 0.00680228649 0.999887824 0.0133436313 0.0777250007 0.995902717 0.0462238863 -0.00209992356 0.999409199 0.034304522 0.0140190842 0.999897897 0.00277432892 0.540431321 0.676262558 0.500602603 0.378179908 0.0125618586 0.925646901 0.884835422 -0.20753938 0.417125523 0.880944073 0.28005141 0.381456017 0.705853462 0.691084146 0.155478716 0.881061256 0.301485151 0.3644692 0.992893219 -0.112996489 0.0373483337 0.987664759 -0.149750113 0.0457514822 0.7067523 -0.63747263 0.306805968 0.967377186 -0.136739522 0.213268965 0.988548696 -0.0459399931 0.143739253 0.992400467 0.0194634236 0.121500999 0.016856201 -0.0138897914 -0.999761462 0.0231114533 -0.0226443745 -0.999476433 0.0133982413 -0.00905065797 -0.999869287 -0.976742268 0.0183427241 -0.21363084 -0.97914654 0.00177606102 -0.203147605 0.00707390998 -0.000201165603 -0.999974966 0.00591624156 0.999977887 -0.00302913366 -0.00174654904 0.999990404 0.00402162271 -0.287391424 0.950600564 0.117323034 -0.27322337 0.956784427 0.0995619744 -0.340508819 0.92182678 0.185173169 -0.241953298 0.968379498 0.0608253516 -0.00149771234 2.69582802e-06 0.999998868 -0.356428325 -0.920849025 0.158101112 -0.239486992 -0.970192313 0.0370521136 0.0114006475 -0.999849916 -0.0130471103 -0.642680824 -0.745311558 0.177403539 -0.946131289 -0.322821945 0.0249305647 0.0106967809 -0.999936521 -0.00354835275 0.00344237708 -0.999993563 -0.000986876665 -0.338810384 0.0563931949 0.939163089 -0.0581993125 0.00847130548 -0.998269022 -0.51369065 -0.0263277199 0.857571423 -0.687359452 -0.00545910513 0.726296902 -0.0213799775 -0.999712288 0.0108721666 -0.0248866491 -0.999616027 0.0121843871 -0.585027218 0.662006736 0.468497902 -0.0166441426 0.999826372 0.00837548822 -0.856960297 0.00833826512 0.515314996 -0.775267243 -0.246299237 0.581633389 -0.555161834 -0.541502714 0.631324053 -0.920162439 0.261550456 0.291363001 -0.723864734 0.677088678 0.132554993 0.487054855 -0.872753859 0.0328379534 -0.018549379 -0.991573274 0.128211945 0.32775566 -0.944762409 -0.000416544877 0.983780324 0.00702495826 0.17923978 0.961618066 0.26201874 0.081466794 0.668168902 0.738358915 0.0915225446 0.633180976 0.772649169 0.0457717851 -0.00137487997 -4.77431422e-06 0.999999046 -0.00137789338 -4.78477841e-06 0.999999046 -0.00274536479 -9.5333653e-06 0.999996245 0 0 1 -0.997334957 0.00765711023 0.0725554824 -0.710768282 0.7019732 0.0451885313 -0.751878858 0.658174038 0.0385370143 -0.994560778 -0.0584930293 0.0861827955 -0.967740297 -0.0117073953 0.251677662 -0.937128723 0.00238994858 0.348975748 -0.927241147 0.174269184 0.331442505 -0.00765585527 0.999967635 -0.00247439253 -0.00159310829 0.999991238 0.00386488903 -0.00871592667 -0.00381044601 -0.99995476 -0.0115051288 2.30901296e-05 -0.999933839 -0.00726031512 -0.0058109276 -0.999956787 -0.0045319302 -0.00956035126 -0.999944031 -0.99136281 -0.0170682538 0.13003248 -0.989818752 0.00198755576 0.142319679 -0.0378867276 -0.998617649 0.0364328772 -0.0201891456 -0.999675274 0.0155496048 -0.822070539 0.567390203 0.0476275012 0.51897186 0.584104717 0.624091268 0.540019751 0.422814995 0.727740407 0.794393122 0.407360286 0.450552046 0.157499447 0.492168337 0.856133282 0.57985276 0.770579934 0.264532357 0.127247006 0.979946852 0.153337255 -0.0480792299 0.885160863 0.462794393 0.683016598 0.493299603 0.538649976 0.102253854 0.905896008 0.41097036 0.0934240073 0.987351298 0.128099263 0.563084483 0.011769101 0.826315522 0.470189333 -0.770830035 0.429817468 0.289509296 0.0249540117 0.956849873 0.336087346 -0.405862361 0.849894702 -0.499945939 0.191183269 -0.844691098 -0.186185315 0.299655467 -0.935703814 -0.559317172 0.292464525 -0.775647342 -0.000439750118 -0.999941945 -0.0107638882 -0.00157627172 -0.999998569 -0.00061706343 0.00642022351 -0.999970198 -0.00429427577 -0.687061846 0.0863410383 -0.721450746 -0.518175066 0.29289934 -0.803557456 0.0999025032 -0.908166647 0.406512946 -0.260960996 -0.0859422609 -0.961516142 -0.281395048 0.258424193 -0.9241395 -0.670954704 0.0986840725 -0.734902143 0.850104868 -0.00154897326 0.526611209 -0.695827186 -0.0313446224 -0.717524946 -0.71966815 0.650126278 -0.243749052 -0.0864909887 0.983054161 -0.161628589 -0.071497865 0.989067614 -0.128970355 -0.918172479 0.249596342 -0.307670265 -0.74361372 0.658194423 -0.11755316 -0.914920568 0.101481996 -0.390668303 -0.952608526 0.136031628 -0.272089005 -0.0554483421 -0.779682815 -0.623714864 -0.0928580984 -0.818961442 0.566285729 0.137011275 -0.896872282 -0.420533091 0.247911185 -0.854781985 0.455947131 0.978586137 0.00952981319 0.20561713 0.855677724 0.469095528 0.218552068 -0.00783461612 -0.999951541 -0.00596472807 0.862297058 0.490789562 0.124777593 0.977185369 0.207251459 0.046428252 0.882160366 0.443731934 -0.157781497 0.716017127 0.653070092 -0.246615067 0.157687694 0.985370696 -0.0646468699 -0.054584533 0.996537685 0.0627146065 0.62095201 0.758892059 0.196217731 0.949460268 0.273587137 -0.153867841 0.848586261 0.483620793 -0.214504749 0.39257288 0.917812467 -0.0592179857 -0.533103883 -0.789152503 0.30502224 -0.777813852 -0.463052481 0.424956411 -0.441727757 -0.87115413 0.214399457 -0.941418767 0.099419944 0.322252065 -0.826141953 -0.390637994 0.406068295 -0.171410233 -0.978401899 -0.115534425 -0.524027944 -0.85067755 -0.0417425707 -0.641332388 -0.767244756 0.00531760231 -0.45656994 -0.889073193 -0.0330559053 -0.510778487 -0.859298348 -0.0266782325 -0.453726262 -0.890616 -0.0305880643 0.430683315 0.901736557 0.0371889509 -0.963474691 0.0756282583 -0.256898582 0.981834769 0.00845785625 -0.189549282 -0.0349218398 -0.999379456 0.00459439494 -0.232610703 -0.972383976 0.0190181118 0.774215579 0.403303891 -0.487787038 0.877119362 0.00199378422 -0.480268359 0.128800377 0.439076036 0.889169693 -0.300948322 0.542100489 0.784574509 -0.31659326 0.436033964 0.842403173 -0.620586157 0.414616406 0.665556908 -0.62062192 0.5007177 0.60341543 -0.87110281 0.364323795 0.32931456 -0.82251817 0.432291508 0.369578063 -0.241242185 0.480363578 0.843239605 -0.797960579 0.476029545 0.369668484 -0.517726421 0.639693499 0.568112373 0.339058697 -0.814620554 -0.470566154 0.447370768 -0.408998072 -0.795348942 0.338572949 0.163743377 -0.92658323 0.059751831 0.0410897247 -0.997367203 0.374239326 0.155643165 -0.914177299 -0.27969256 -0.0550082549 -0.958512485 0.341488808 0.0907032564 -0.935498953 0.977794707 0.155493528 -0.140496582 0.763866007 0.609072745 -0.213398799 0.671423137 0.712046862 0.2053781 0.673776984 -0.147746399 -0.724013567 0.193623915 0.454843938 -0.869267941 0.167275265 0.875286818 -0.453753203 0.612618625 0.52757901 -0.588522494 0.0212226231 -0.996077895 0.0858980939 0.009216181 -0.996941388 0.0776074454 -0.980984986 0.0145490728 0.193537638 -0.863834202 0.0275998767 0.503019631 -0.000924976543 -0.99982971 -0.0184323564 -0.0025936747 -0.999975324 -0.00652582292 -0.000533041719 -0.999997556 -0.00213695737 -0.0772979036 0.0112276534 0.996944845 -0.41698119 -0.00200313982 0.908912897 -0.152352095 0.00734626269 0.988298953 0.0090387864 -0.999958992 -0.000571297016 -0.0453304872 -0.99829793 0.0366937704 0.67245245 0.571501374 -0.470312566 0.391889691 0.873037517 -0.290220588 0.600534201 -0.0535312444 -0.79780513 -0.686177075 0.0196271297 0.727169693 -0.941493809 0.312450767 0.126348183 -0.977812827 0.191082448 -0.0858462527 -0.976043761 0.167643666 -0.138687253 -0.414191812 0.90388906 0.106909521 -0.0751657858 0.996987879 -0.0191132724 -0.865139246 0.500374198 0.0340553485 -0.00165267556 -0.999998629 -0.000140792588 -0.000230208505 -0.999999762 0.00065086229 -0.072144717 -0.997394145 -0.000215259846 -0.0640687644 -0.997868001 -0.0124363322 0.157635331 -0.987123132 0.0271844491 0.624562681 0.194941089 -0.756253541 0.824734628 0.348215371 -0.445599377 -0.964098692 -0.0284399148 -0.264016718 -0.934968233 0.00601898599 -0.354680389 -0.979285419 -0.0102400146 -0.20222567 0.976487577 0.209952667 0.0489072055 0.657729805 0.74388355 0.118443191 0.95011133 0.305041134 0.0651031658 0.875877202 0.0105839502 0.482417941 0.803797424 0.52113843 0.286922425 -0.920456469 -0.00207900675 -0.390839607 -0.920476615 -0.00245126337 -0.390789956 -0.906578362 -0.00104802637 -0.42203626 -0.867290318 -0.0222107116 -0.497306883 0.116469614 -0.992855966 0.0259203054 0.0458865128 -0.998786569 0.0178833026 0.030529093 -0.999517024 -0.00580106117 0.0402191468 -0.996415973 0.0744152665 0.97625941 -0.0393824987 -0.212994218 0.793752253 -0.52974838 -0.298871219 0.856675684 -0.495389998 -0.143859491 0.158410951 -0.902020693 -0.401577741 0.50077194 -0.225556076 -0.835674524 0.237525374 -0.844785929 -0.479498118 0.688478231 0.282802194 -0.667847812 0.822780967 0.172321275 -0.54160583 -0.423317671 0.130021945 0.89660269 -0.496331304 0.358137161 0.790817976 -0.494469523 0.26309076 0.82842207 0.00971296243 -0.4257496 -0.904788911 0.288349688 -0.0137846861 -0.957425952 0.0245438963 -0.0232538395 -0.999428272 -0.55806011 0.378167778 0.73861903 -0.37766695 0.148868591 0.913895965 -0.183656722 0.400247484 0.897815228 -0.671113253 -0.0543607138 0.739359081 -0.0640416816 0.725142896 0.685613871 0.487747908 -0.00724773668 -0.872954428 0.0485299155 -0.997137666 -0.0579764694 0.0450989604 -0.997300386 -0.0579487048 0.0311185084 -0.995932579 -0.0845569968 -0.857608557 -0.289256305 0.425250977 -0.173526466 -0.965542316 0.193949878 -0.522449911 -0.536496758 0.662734747 -0.870864451 0.141997933 0.470565349 -0.1360946 -0.985274494 0.103500865 -0.00253312266 -0.999978065 0.0061234599 0.00137048808 -0.999987781 0.00474496651 -0.00361028081 -0.999635935 0.0267388206 -0.0502771735 0.866518438 0.496606469 -0.0262224302 0.521958232 0.852567852 0.11687877 -0.0445211753 0.992147803 -0.882646143 0.0886709839 0.461598575 0.695827961 -0.00381353358 -0.718198359 -0.0281874053 -0.999182463 0.0289804079 -0.368901163 -0.899228036 -0.235161453 -0.831415236 -0.553033352 -0.0538782552 -0.194310978 -0.976178646 -0.0965321064 0.19166711 -0.972762406 -0.130372494 -0.106636047 -0.987920225 0.112438299 0.281907767 -0.955492258 0.0869630426 -0.403854311 0.914752901 -0.0113484757 -0.924254656 0.379741013 -0.0393712483 -0.226632461 -0.91697818 -0.32831189 -0.779536426 -0.274167687 -0.563165247 -0.166806445 -0.415955901 -0.89395541 -0.328865081 -0.0418523885 -0.94344908 0.00154339697 -0.999903262 0.0138254613 0.0133830402 -0.999905705 -0.00308227888 0.0430514552 -0.996499896 0.0716558844 0.00708090235 -0.999588013 -0.027814161 0.380353868 -0.0669109151 0.922417402 0.175516963 0.632480323 0.754428506 0.557754159 0.260253847 0.788148582 0.734578252 -0.115199134 0.668673277 0.611231863 0.494774997 0.617732346 0.455014348 0.437116206 0.775816619 0.509751678 -0.0522732884 0.858732045 0.516046166 0.368473649 0.773255169 0.519612849 0.592538118 0.615549445 -0.465868682 -0.497254997 -0.731917918 0.00081888726 -0.99999702 0.00231110188 -0.674237967 -0.0354177579 -0.737664342 0.145658284 0.984267771 0.100002997 0.18057175 0.947341144 0.264459044 0.168883875 0.974940121 0.144810259 0.99502629 -0.0626503527 0.0774439275 -0.0132868681 -0.992422521 -0.122151412 -0.00812921859 -0.990565658 -0.136797801 -0.926097453 -0.373314947 -0.0545844287 -0.234425947 0.970823169 0.0504667498 -0.223210618 0.973221481 0.0549272485 -0.316016227 -0.945201099 0.0820282549 0.85980773 0.495223701 -0.124435194 0.787252009 0.589864433 -0.179705977 0.191444173 0.980499029 0.0443930775 0.879952669 -0.468663961 0.077700451 -0.380807966 0.921067774 -0.0813603029 -0.876612246 0.461103201 -0.137603775 0.914371848 -0.0349706337 -0.403362364 0.979116678 0.14044635 -0.146987706 0.595561862 0.76614058 0.241525844 0.988611162 0.063922748 -0.136241734 0.90215975 0.247786909 0.353142142 0.817195058 0.57073009 0.0803707615 0.82880801 -0.416760176 0.373347253 0.66292733 -0.710009396 0.237516358 0.220944211 -0.959354818 0.17556192 0.0835077763 0.991458297 0.100184575 0.491064787 -0.102206215 -0.865106523 0.27450034 -0.960583925 0.0439102799 0.0452600978 0.998853564 -0.0155912088 0.351498246 0.766003013 -0.538227022 0.49638775 0.201672375 -0.844350278 -0.882110655 -0.454633355 -0.123244919 0.515455425 -0.0695030764 -0.854093075 0.931777537 0.336301833 0.136717781 0.712730348 0.444167465 -0.542891085 0.533462882 0.81942898 -0.209650859 -0.281653315 0.849754989 -0.445632011 0.0675467849 0.628576338 -0.774809182 -0.248735145 -0.313768566 -0.91634059 0.284448951 -0.676274121 -0.679516077 -0.0488213114 -0.963920295 -0.261675566 0.598214805 0.418984652 -0.683074594 0.512691975 -0.858031988 -0.0304635502 -0.0796080902 0.312403917 -0.946607828 0.0104569867 -0.999936402 -0.00423015235 0.000954194635 -0.999922276 -0.0124300113 0.0110584479 -0.999928534 -0.00454228744 -0.0207574386 0.985789597 -0.166697279 -0.555207372 0.546339929 -0.627102494 0.486304998 -0.198870122 -0.850857258 -0.597138643 0.737244487 -0.316063285 -0.957162738 0.0964865834 -0.273001522 -0.0748544782 -0.995894909 -0.0508930869 -0.576421201 -0.731382728 -0.364441842 -0.375279993 -0.926911473 0.000149700427 0.34040603 0.773458242 0.534683168 0.0378307104 0.88071841 0.472126961 -0.00219970639 -0.999997556 -1.2321022e-05 -0.591037512 -0.544678748 -0.59497869 -0.0204639193 0.975177526 0.220476717 -0.0692759007 -0.997355938 -0.0219542719 0.0120170563 -0.986585438 0.162802964 -0.00944032706 -0.993461251 0.113779061 -0.682699502 -0.41364944 -0.602341771 -0.682698965 -0.413647741 -0.60234344 -0.0897567347 -0.993094742 -0.0755419657 -0.486907125 0.870749772 -0.0686755404 0.00725720916 -0.999952018 -0.00657791132 0.943448544 -0.0715531483 -0.323705047 0.844306827 -0.018632656 -0.535536051 0.0781101063 -0.995486796 -0.0538972095 0.021687258 -0.999763072 0.0018483192 0.971071422 0.0672490969 0.229124203 0.727805734 0.642681003 -0.239290625 -0.299476832 -0.949274719 -0.0958704948 0.00108103105 -0.992140234 -0.125126481 -0.0122531075 -0.987881482 -0.154725686 -0.0253525339 0.828546762 0.559345663 -0.936196625 0.350057244 -0.031556122 -0.492697388 0.846236348 0.202813596 -0.198644057 0.975559652 0.0939354599 -0.966884911 0.026335666 -0.253850371 -0.86330837 -0.423068166 -0.275158167 0.0208957382 -0.999769151 -0.00499881152 0.410523802 0.911263287 0.0327027887 -0.0316655077 -0.997915924 -0.056223467 -0.200758845 -0.959324419 -0.198475689 0.0138722146 -0.998190939 0.0585013367 -0.613999784 -0.549735248 -0.566388011</float_array>
          <technique_common>
            <accessor source="#normals_array" count="591" stride="3">
              <param name="X" type="float" />
              <param name="Y" type="float" />
              <param name="Z" type="float" />
            </accessor>
          </technique_common>
        </source>
        <vertices id="vertices">
          <input semantic="POSITION" source="#positions" />
        </vertices>
        <triangles material="qmat_4b294f1aa1dfaafb" count="310">
          <input semantic="VERTEX" source="#vertices" offset="0" />
          <input semantic="NORMAL" source="#normals" offset="1" />
          <p>0 0 1 1 2 2 2 2 1 1 3 3 4 4 5 5 3 6 5 5 4 4 6 7 6 8 7 9 5 10 6 8 8 11 7 9 9 12 8 13 10 14 8 13 9 12 11 15 11 15 9 12 12 16 9 12 10 14 13 17 6 7 4 4 14 18 6 7 14 18 15 19 16 20 15 19 14 18 15 19 16 20 17 21 18 22 17 21 16 20 19 23 20 24 21 25 19 23 21 25 22 26 19 23 17 27 20 24 19 23 15 28 17 27 15 28 19 23 23 29 24 30 21 31 25 32 25 32 21 31 20 33 17 21 18 22 20 33 25 32 20 33 18 22 25 34 26 35 27 36 25 34 27 36 28 37 27 38 22 39 28 40 28 40 22 39 29 41 25 34 28 37 30 42 28 40 29 41 31 43 22 26 21 25 29 41 22 39 27 38 19 44 19 44 27 38 26 45 23 46 26 45 32 47 6 8 23 29 33 48 34 49 33 50 23 46 32 51 14 52 34 53 34 53 14 52 10 14 26 35 14 52 32 51 14 52 26 35 16 54 16 54 26 35 18 55 10 14 14 52 4 56 33 50 10 14 8 13 33 50 34 49 10 14 15 28 23 29 6 8 10 14 4 56 13 17 19 44 26 45 23 46 23 46 32 47 34 49 29 41 21 25 35 57 35 57 36 58 37 59 38 60 31 43 39 61 39 61 31 62 37 63 40 64 41 65 39 61 39 61 36 66 40 64 36 58 35 57 30 42 25 34 30 42 24 67 30 42 35 57 42 68 35 57 21 25 43 69 35 57 43 69 44 70 42 71 44 72 43 73 42 71 43 73 24 74 24 67 30 42 42 75 42 68 35 57 44 76 28 37 45 77 30 42 38 78 45 79 28 80 40 64 46 81 41 82 38 78 46 81 40 64 40 64 45 79 38 78 39 61 41 83 46 84 39 61 46 84 38 60 28 40 31 43 38 60 31 43 29 41 35 57 36 66 45 79 40 64 36 58 30 42 45 77 39 61 37 63 36 66 31 43 35 57 37 59 18 55 26 35 25 34 21 31 24 30 43 85 13 17 3 86 1 87 9 88 47 89 48 90 48 90 12 16 9 12 13 17 49 91 47 92 50 93 49 94 7 95 11 15 50 96 7 97 5 10 7 9 0 98 0 98 13 17 1 99 5 10 0 98 2 100 3 6 5 5 2 101 7 97 8 13 11 15 50 96 11 15 12 102 48 90 50 93 12 103 48 90 47 89 49 94 49 94 50 93 48 90 0 98 49 91 13 17 49 91 0 98 7 9 9 12 13 17 47 92 13 17 4 56 3 86 6 8 33 48 8 11 51 104 52 105 53 106 54 107 55 108 56 109 55 108 57 110 58 111 58 111 57 110 59 112 60 113 57 110 54 107 61 114 54 107 56 109 62 115 52 105 51 104 56 109 63 116 64 117 63 116 56 109 62 115 63 116 62 115 65 118 65 118 62 115 51 104 62 115 56 109 52 105 56 109 64 117 61 114 66 119 60 113 61 114 67 120 59 112 68 121 69 122 70 123 71 124 71 124 70 123 72 125 71 124 73 126 74 127 71 124 75 128 76 129 74 127 75 128 71 124 75 128 59 112 76 129 75 128 58 111 59 112 72 125 73 126 71 124 71 124 76 129 69 122 77 130 78 131 79 132 79 132 78 131 53 106 78 131 77 130 75 128 79 132 52 105 77 130 52 105 55 108 77 130 55 108 58 111 77 130 77 130 58 111 75 128 78 131 75 128 74 127 69 122 80 133 70 123 66 119 81 134 82 135 82 135 81 134 80 133 82 135 80 133 67 120 80 133 69 122 67 120 76 129 67 120 69 122 59 112 67 120 76 129 68 121 82 135 67 120 68 121 66 119 82 135 60 113 66 119 68 121 60 113 54 107 61 114 68 121 57 110 60 113 68 121 59 112 57 110 55 108 54 107 57 110 56 109 55 108 52 105 53 106 52 105 79 132 83 136 84 137 70 138 85 139 86 140 84 137 87 141 88 142 89 143 90 144 91 145 92 146 87 141 92 146 91 145 93 147 88 142 64 148 94 149 64 148 88 142 95 150 87 141 91 145 96 151 84 137 83 136 97 152 98 153 99 154 70 138 100 155 83 136 101 156 102 157 103 158 101 156 98 153 102 157 103 158 100 155 70 138 103 158 104 159 100 155 102 157 104 159 103 158 102 157 105 160 104 159 98 153 97 152 105 160 98 153 105 160 102 157 64 148 94 149 99 154 106 161 107 162 94 149 107 162 97 152 94 149 107 162 106 161 95 150 104 159 95 150 96 151 107 162 95 150 104 159 104 159 105 160 107 162 94 149 97 152 99 154 107 162 105 160 97 152 96 151 100 155 104 159 96 151 108 163 84 137 95 150 108 163 96 151 91 145 108 163 95 150 106 161 87 141 95 150 106 161 94 149 87 141 88 142 93 147 89 143 92 146 87 141 89 143 94 149 88 142 87 141 108 163 90 144 109 164 91 145 90 144 108 163 108 163 109 164 84 137 84 137 109 164 85 139 70 138 84 137 86 140 100 155 96 151 83 136 101 165 81 166 98 167 98 167 81 166 66 168 98 167 66 168 61 169 99 170 61 169 64 171 65 172 89 143 93 147 53 173 92 174 89 143 92 174 53 173 90 175 90 175 78 176 74 177 90 175 74 177 109 178 85 179 73 180 86 181 103 182 80 183 81 166 70 184 80 183 103 182 70 185 86 185 72 185 86 181 73 180 72 186 85 179 74 177 73 180 74 177 85 179 109 178 90 175 53 173 78 176 53 173 89 143 51 187 51 187 89 143 65 172 65 118 93 188 63 116 64 117 63 116 93 188 98 167 61 169 99 170 103 182 81 166 101 165 110 189 111 190 112 191 113 192 110 193 112 194 110 193 114 195 115 196 114 195 110 193 113 192 116 197 114 195 117 198 115 196 114 195 116 197 118 199 117 200 119 201 116 202 120 203 121 204 122 205 118 206 120 207 122 208 123 209 124 210 122 208 124 210 125 211 122 208 126 212 123 209 116 202 122 208 120 203 122 208 116 202 126 212 127 213 124 214 128 215 123 216 128 215 124 214 123 216 129 217 130 218 128 215 123 216 130 218 130 219 131 220 128 221 129 222 131 220 130 219 127 223 131 220 132 224 117 200 131 220 129 222 128 221 131 220 127 223 131 220 117 200 118 199 125 211 131 225 122 205 125 211 132 224 131 225 132 224 125 211 133 226 132 224 133 226 134 227 127 223 132 224 135 228 135 228 134 227 136 229 132 224 134 227 135 228 137 230 138 231 134 227 134 227 133 226 137 230 133 226 125 211 139 232 125 211 124 210 139 232 139 232 140 233 133 226 141 234 140 233 139 232 140 233 141 234 135 228 135 228 141 234 142 235 142 236 141 237 143 238 124 214 127 213 143 239 143 239 127 213 144 240 142 236 143 238 144 241 144 242 135 228 142 243 127 223 135 228 144 242 140 233 135 228 136 229 137 244 140 245 145 246 133 247 140 245 137 244 137 248 145 248 138 248 138 249 136 250 134 251 145 252 136 250 138 249 136 250 145 252 140 253 139 232 124 210 143 254 139 232 143 254 141 255 118 206 122 205 131 225 120 207 118 206 121 256 126 257 117 198 129 217 116 197 117 198 126 257 126 257 129 217 123 216 121 256 119 258 146 259 116 202 121 204 146 260 116 202 146 260 115 261 119 201 117 200 147 262 147 262 117 200 114 263 146 259 148 264 149 265 149 265 148 264 150 266 146 259 151 267 148 264 147 262 114 263 152 268 153 269 154 270 151 271 154 270 153 269 155 272 155 272 153 269 156 273 157 274 156 273 149 275 154 276 157 277 158 278 155 279 157 277 154 276 148 264 151 267 158 280 158 280 151 267 154 270 157 281 150 282 158 280 150 282 148 264 158 280 156 283 159 284 149 285 159 284 156 283 152 268 153 286 151 267 152 268 152 268 113 287 160 288 111 289 160 290 113 291 111 289 113 291 112 292 152 268 114 263 113 287 159 284 160 293 111 294 159 284 152 268 160 293 152 268 156 283 153 286 115 261 146 260 149 295 115 261 149 295 159 296 115 261 159 296 110 189 157 281 149 297 150 282 156 273 157 274 155 272 152 268 151 267 147 262 151 267 146 259 147 262 146 259 119 258 147 262 119 258 121 256 118 206 110 189 159 296 111 190</p>
        </triangles>
        <triangles material="qmat_ddc4e6410bf0a5b2" count="398">
          <input semantic="VERTEX" source="#vertices" offset="0" />
          <input semantic="NORMAL" source="#normals" offset="1" />
          <p>161 298 162 299 163 300 161 298 164 301 162 299 161 298 165 302 166 303 167 304 161 298 166 303 168 305 169 306 170 307 168 305 170 308 171 309 170 308 169 310 172 311 173 312 174 313 175 314 176 315 177 316 178 317 170 308 172 311 171 309 179 318 173 312 180 319 172 311 174 320 171 309 179 321 181 322 173 312 181 322 182 323 174 313 168 305 171 309 183 324 177 325 184 326 182 323 182 327 184 326 185 328 177 325 182 323 181 322 184 326 186 329 187 330 176 331 188 332 186 329 176 331 186 329 184 326 189 333 190 334 191 335 172 311 190 334 175 336 192 337 193 338 183 324 176 315 178 317 188 339 165 302 161 298 194 340 194 340 163 300 195 341 193 338 196 342 197 343 166 303 198 344 199 345 200 346 197 343 201 347 202 348 194 340 201 347 203 349 165 302 194 340 163 300 200 346 195 341 204 350 205 351 206 352 207 353 205 351 208 354 204 350 208 354 205 351 192 355 209 356 204 357 210 358 211 359 209 360 209 361 208 361 210 361 188 332 208 354 209 362 193 338 192 337 196 342 196 342 192 337 204 363 186 329 209 362 187 330 188 339 212 364 207 365 213 366 196 342 206 367 214 368 215 369 164 301 216 370 164 301 215 369 217 371 218 372 219 373 219 373 218 372 220 374 167 304 221 375 214 368 221 375 215 369 214 368 222 376 220 374 218 372 222 376 218 372 223 377 223 377 218 372 215 369 191 335 224 378 225 379 226 380 225 379 224 378 189 333 191 335 225 379 189 381 227 382 228 383 229 384 227 382 226 380 178 385 230 386 231 387 226 380 224 378 232 388 229 384 226 380 233 389 233 389 226 380 232 390 233 389 232 390 234 391 224 378 235 392 232 393 219 373 236 394 237 395 228 396 227 397 229 398 238 399 235 400 191 401 239 402 237 403 232 393 232 390 240 404 241 405 235 392 239 402 232 393 230 386 241 405 231 387 242 406 233 389 234 391 216 370 239 407 235 400 243 408 244 409 245 410 220 374 243 408 219 373 246 411 199 345 247 412 248 413 244 409 243 408 248 413 243 408 222 376 222 376 246 411 248 413 222 376 243 408 220 374 178 317 249 414 250 415 240 416 236 417 251 418 231 419 240 404 252 420 245 410 253 421 254 422 245 410 254 422 255 423 256 424 251 425 257 426 249 427 258 428 256 424 254 422 259 429 260 430 254 422 261 431 259 429 261 431 262 432 255 423 251 418 255 433 257 434 257 434 262 435 263 436 264 437 265 438 266 439 267 440 268 441 269 442 197 343 213 366 270 443 197 343 270 443 271 444 271 444 270 443 268 441 272 445 273 446 274 447 275 448 276 449 277 450 274 447 273 446 278 451 279 452 274 447 280 453 281 454 279 452 280 453 282 455 280 453 274 447 268 441 283 456 276 449 284 457 282 458 283 459 285 460 286 461 206 352 284 462 287 463 280 453 206 352 286 461 284 464 279 465 288 466 272 467 289 468 273 446 290 469 278 451 273 446 289 468 288 470 290 469 272 445 212 471 287 463 285 460 213 366 206 367 284 472 212 364 279 465 281 473 291 474 292 475 293 476 294 477 295 478 296 479 248 413 297 480 298 481 248 413 298 481 253 421 248 413 253 421 244 409 199 345 198 344 247 412 275 448 299 482 269 442 253 421 291 474 300 483 178 317 250 415 279 465 301 484 275 448 302 485 279 465 303 486 288 466 304 487 305 488 302 489 303 490 306 491 307 492 250 493 249 427 308 494 288 470 309 495 290 469 303 490 307 492 309 495 310 496 308 494 306 491 307 492 263 497 304 498 311 499 301 484 302 485 250 415 310 500 279 465 300 483 311 499 305 501 311 499 302 485 305 501 257 502 263 503 312 504 253 421 305 501 262 432 249 427 312 505 308 494 289 506 302 489 277 507 304 487 302 489 289 506 298 481 313 508 292 475 297 480 314 509 315 510 292 475 313 508 316 511 317 512 318 513 264 437 294 477 293 476 295 478 198 344 318 513 319 514 317 512 266 439 320 515 293 476 316 511 295 478 314 509 321 516 315 510 315 510 322 517 298 481 294 477 296 479 266 439 323 518 320 515 324 519 325 520 326 521 327 522 328 523 320 515 323 518 326 521 328 523 323 518 329 524 324 519 330 525 320 515 331 526 330 525 319 514 328 523 332 527 326 521 323 518 333 528 331 526 334 529 330 525 324 519 329 530 335 531 333 528 324 519 336 532 315 510 321 516 322 517 314 509 319 514 332 527 313 508 337 533 316 511 338 534 336 532 335 531 339 535 327 522 340 536 341 537 339 535 340 536 325 520 339 535 341 537 342 538 341 537 343 539 339 535 325 520 327 522 344 540 345 541 346 542 347 543 345 541 344 540 334 529 346 542 345 541 330 525 334 529 348 544 343 539 340 536 349 545 327 546 349 547 340 548 329 524 330 525 348 544 348 544 345 541 347 543 329 530 347 543 350 549 343 539 349 545 351 550 352 551 333 528 338 534 353 552 352 553 322 517 354 554 355 555 346 542 335 531 329 530 350 549 331 526 356 556 354 554 354 554 356 556 355 555 194 340 161 298 163 300 163 300 357 557 200 346 162 299 357 557 163 300 161 298 214 368 164 301 358 558 169 306 357 557 358 558 357 557 164 301 167 304 214 368 161 298 357 557 162 299 164 301 200 346 168 305 193 338 357 557 168 305 200 346 169 306 168 305 357 557 174 320 172 311 175 336 177 316 179 559 178 317 228 383 179 318 180 319 193 338 168 305 183 324 174 320 182 560 171 309 179 321 177 325 181 322 173 312 181 322 174 313 169 306 358 558 238 561 169 310 238 399 190 334 172 311 169 310 190 334 179 559 228 396 229 398 179 559 229 398 178 317 183 562 182 563 185 564 183 565 171 566 182 560 185 328 184 326 187 330 183 562 185 564 187 567 190 334 238 399 191 401 175 314 180 319 173 312 189 381 180 319 175 314 228 383 180 319 189 381 192 355 183 562 187 567 189 333 175 336 190 334 186 329 188 332 209 362 177 325 176 331 184 326 166 303 165 302 203 349 200 346 193 338 197 343 197 343 196 342 213 366 198 344 166 303 203 349 194 340 195 341 201 347 203 349 194 340 202 348 201 347 195 341 200 346 210 358 208 354 211 359 207 353 212 471 205 351 205 351 212 471 285 460 204 568 209 568 211 568 204 350 211 359 208 354 205 351 285 460 206 352 192 355 187 567 209 356 212 364 178 317 279 465 188 332 207 353 208 354 206 367 196 342 204 363 188 339 178 317 212 364 216 370 358 558 164 301 216 370 238 561 358 558 215 369 218 372 217 371 217 371 216 370 215 369 223 377 221 375 167 304 221 375 223 377 215 369 223 377 167 304 246 411 227 382 189 381 225 379 229 398 242 569 178 317 226 380 227 382 225 379 240 416 237 403 236 417 252 420 178 570 231 419 178 385 359 571 230 386 239 407 219 373 237 395 242 406 229 384 233 389 191 335 235 392 224 378 217 371 219 373 239 407 232 393 237 403 240 416 231 419 241 405 240 404 230 386 234 391 241 405 230 386 359 571 234 391 359 571 242 406 234 391 234 391 232 390 241 405 216 370 217 371 239 407 238 399 216 370 235 400 242 569 359 572 178 317 244 409 253 421 245 410 167 304 166 303 199 345 246 411 167 304 199 345 222 376 223 377 246 411 249 414 178 317 360 573 251 418 236 417 255 433 360 574 178 570 252 420 252 420 240 404 251 425 219 373 245 410 236 394 219 373 243 408 245 410 236 394 245 410 255 423 252 420 251 425 258 428 258 428 360 574 252 420 249 427 360 574 258 428 256 424 258 428 251 425 255 433 262 435 257 434 254 422 253 421 261 431 260 430 259 429 255 423 259 429 261 431 255 423 254 422 260 430 255 423 198 344 361 575 318 513 264 437 318 513 265 438 266 439 265 438 294 477 267 440 294 477 265 438 267 440 269 442 294 477 361 575 202 348 271 444 203 349 202 348 361 575 271 444 202 348 201 347 275 448 269 442 268 441 271 444 201 347 197 343 265 438 271 576 267 440 198 344 203 349 361 575 271 444 268 441 267 440 318 513 271 444 265 438 318 513 361 575 271 444 283 459 282 458 278 577 282 455 274 447 278 451 279 452 272 445 274 447 283 459 278 577 276 578 275 448 268 441 276 449 283 456 270 443 284 472 282 455 284 579 280 453 284 580 286 581 287 463 281 454 280 453 287 463 273 446 272 445 290 469 276 578 278 577 277 507 278 577 289 506 277 507 212 471 281 454 287 463 286 581 285 460 287 463 268 441 270 443 283 456 270 443 213 366 284 472 269 442 299 482 294 477 294 477 299 482 293 476 247 412 198 344 319 514 248 413 246 411 297 480 301 484 311 499 299 482 299 482 311 499 291 474 311 499 300 483 291 474 299 482 291 474 293 476 299 482 275 448 301 484 246 411 247 412 297 480 253 421 292 475 291 474 253 421 298 481 292 475 263 436 262 435 305 488 304 487 263 436 305 488 303 490 310 496 306 491 312 504 263 503 308 494 302 485 275 448 277 450 309 495 289 468 290 469 289 468 309 495 304 498 288 470 303 490 309 495 308 494 263 503 306 491 310 496 250 493 308 494 306 491 263 503 307 582 279 465 310 500 303 486 309 495 307 492 304 498 253 421 300 483 305 501 312 505 249 427 256 424 312 505 256 424 257 426 261 431 253 421 262 432 297 480 315 510 298 481 293 476 292 475 316 511 317 512 264 437 266 439 319 514 318 513 317 512 297 480 247 412 314 509 319 514 317 512 328 523 314 509 247 412 319 514 328 523 317 512 320 515 298 481 322 517 313 508 320 515 266 439 296 479 322 517 337 533 313 508 325 520 328 523 326 521 324 519 320 515 330 525 332 527 328 523 325 520 352 551 326 521 333 528 334 529 331 526 354 554 333 528 323 518 324 519 336 532 324 519 335 531 320 515 296 479 331 526 321 516 314 509 332 527 331 526 295 478 356 556 296 479 295 478 331 526 322 517 338 583 335 584 337 533 322 517 335 584 295 478 316 511 356 556 356 556 316 511 337 533 338 534 333 528 336 532 332 527 325 520 341 537 343 539 341 537 340 536 327 546 326 585 349 547 348 544 334 529 345 541 346 542 355 555 344 540 332 527 341 537 342 538 321 516 332 527 342 538 329 530 348 586 347 543 334 529 354 554 346 542 350 549 347 543 344 540 353 552 321 516 342 538 322 517 321 516 353 552 342 538 343 539 351 550 326 585 352 587 349 547 349 547 352 587 353 588 349 547 353 588 351 589 342 538 351 550 353 552 322 517 352 553 338 583 355 555 350 590 344 540 356 556 337 533 355 555 335 584 350 590 355 555 337 533 335 584 355 555</p>
        </triangles>
      </mesh>
    </geometry>
  </library_geometries>
  <library_visual_scenes>
    <visual_scene id="scene">
      <node id="thigh_dae">
        <instance_geometry url="#geometry">
          <bind_material>
            <technique_common>
              <instance_material symbol="qmat_4b294f1aa1dfaafb" target="#qmat_4b294f1aa1dfaafb" />
              <instance_material symbol="qmat_ddc4e6410bf0a5b2" target="#qmat_ddc4e6410bf0a5b2" />
            </technique_common>
          </bind_material>
        </instance_geometry>
      </node>
    </visual_scene>
  </library_visual_scenes>
  <scene>
    <instance_visual_scene url="#scene" />
  </scene>
</COLLADA>