<?xml version='1.0' encoding='utf-8'?>
<COLLADA xmlns="http://www.collada.org/2005/11/COLLADASchema" version="1.4.1">
  <asset>
    <created>2026-09-14T00:00:00Z</created>
    <modified>2026-09-14T00:00:00Z</modified>
    <unit name="metre" meter="1" />
    <up_axis>Z_UP</up_axis>
  </asset>
  <library_effects>
    <effect id="qmat_103403739752e509_effect">
      <profile_COMMON>
        <technique sid="common">
          <lambert>
            <emission>
              <color sid="emission">0 0 0 1</color>
            </emission>
            <diffuse>
              <color sid="diffuse">0.01341 0.01341 0.01341 1</color>
            </diffuse>
            <index_of_refraction>
              <float sid="ior">1.45</float>
            </index_of_refraction>
          </lambert>
        </technique>
      </profile_COMMON>
    </effect>
    <effect id="qmat_1163a26947310579_effect">
      <profile_COMMON>
        <technique sid="common">
          <lambert>
            <emission>
              <color sid="emission">0 0 0 1</color>
            </emission>
            <diffuse>
              <color sid="diffuse">0.023455 0.023455 0.023455 1</color>
            </diffuse>
            <index_of_refraction>
              <float sid="ior">1.45</float>
            </index_of_refraction>
          </lambert>
        </technique>
      </profile_COMMON>
    </effect>
    <effect id="qmat_4b294f1aa1dfaafb_effect">
      <profile_COMMON>
        <technique sid="common">
          <lambert>
            <emission>
              <color sid="emission">0 0 0 1</color>
            </emission>
            <diffuse>
              <color sid="diffuse">0.6717055 0.6924257 0.7742702 1</color>
            </diffuse>
            <reflectivity>
              <float sid="specular">0.5</float>
            </reflectivity>
          </lambert>
        </technique>
      </profile_COMMON>
    </effect>
    <effect id="qmat_e137245c464f31d5_effect">
      <profile_COMMON>
        <technique sid="common">
          <lambert>
            <emission>
              <color sid="emission">0 0 0 1</color>
            </emission>
            <diffuse>
              <color sid="diffuse">0.009018 0.009018 0.009018 1</color>
            </diffuse>
            <index_of_refraction>
              <float sid="ior">1.45</float>
            </index_of_refraction>
          </lambert>
        </technique>
      </profile_COMMON>
    </effect>
  </library_effects>
  <library_materials>
    <material id="qmat_103403739752e509" name="qmat_103403739752e509">
      <instance_effect url="#qmat_103403739752e509_effect" />
    </material>
    <material id="qmat_1163a26947310579" name="qmat_1163a26947310579">
      <instance_effect url="#qmat_1163a26947310579_effect" />
    </material>
    <material id="qmat_4b294f1aa1dfaafb" name="qmat_4b294f1aa1dfaafb">
      <instance_effect url="#qmat_4b294f1aa1dfaafb_effect" />
    </material>
    <material id="qmat_e137245c464f31d5" name="qmat_e137245c464f31d5">
      <instance_effect url="#qmat_e137245c464f31d5_effect" />
    </material>
  </library_materials>
  <library_geometries>
    <geometry id="geometry" name="base_dae">
      <mesh>
        <source id="positions">
          <float_array id="positions_array" count="1164">0.329242289 0.0128706386 0.0480044857 0.333399057 0.00154062081 0.0584737994 0.326702714 0.00644085696 0.0507143214 0.301271021 0.0160352066 0.0653595105 0.309216738 0.0213946681 0.0510936379 0.314857394 -0.00541160209 0.0674265474 0.329724222 0.016941363 -0.0217822716 0.326474667 0.00868887361 0.00713901361 0.32521686 -0.00148316578 0.0339770615 0.284958869 0.0351582281 0.0532112978 0.311193287 0.0327700675 0.0163909588 0.257325679 0.0495250709 0.0560998656 0.270602196 0.0147900945 0.0764293745 0.243945301 0.00558420597 0.0816141441 0.273924083 0.0526196547 0.0190146659 0.236343309 0.0639757887 0.0586274005 0.194656998 0.0455489643 0.0771717504 0.230837733 0.0322316177 0.0776156932 0.200998753 0.00991361402 0.0888651386 0.229065925 0.0193221588 0.0887473971 0.222828373 0.0243665818 0.0810938701 0.242476702 0.000139364885 0.0887804031 0.215099424 0.0400965773 0.0569661073 0.233978599 0.0384061038 0.038887959 0.218354091 -0.00207278528 0.0541722849 0.236980408 -0.0386303328 0.0343509465 0.223477125 -0.0399513803 0.0508010462 0.249930441 0.0647122115 0.0450970083 0.265162945 0.0628439188 0.0144478176 0.256874681 0.0625967011 0.014251464 0.24238053 0.0585595332 0.0432497114 0.245824262 0.0373379439 0.0114717986 0.319304496 -0.0178419836 0.0497358441 0.259883255 -0.0477821678 0.0562652461 0.302829951 -0.0372984856 0.0215017293 0.273804814 -0.0241760947 0.0702204406 0.211100459 -0.0499637164 0.0721398667 0.325966984 -0.00642725453 0.0504077338 0.329059303 -0.0128437402 0.0499965623 0.218496531 -0.0234442372 0.0890929103 0.203798041 -0.0176665783 0.082236886 0.236188859 -0.019334916 0.0816724449 0.195508629 -0.0382301696 0.0815423504 0.235845953 -0.0649187192 0.0583312362 0.254375249 -0.0653748438 0.0395533517 0.305571139 0.0408974774 -0.0284836795 0.283701718 0.0470420904 -0.0140757104 0.328740805 -0.0145245809 -0.0221415162 0.321710736 -0.0294986777 -0.0240758993 0.267264992 0.0401684009 -0.0386650786 0.326886773 -0.00922610238 0.00464696717 0.243506968 0.0271497406 -0.0120241195 0.236344025 -0.000775376975 -0.0258648079 0.243888021 -0.0277596563 -0.0114274723 0.246626377 0.0214281548 -0.0441850983 0.240169764 0.00165798818 -0.0459274463 0.258122325 0.0408547185 -0.0130652785 0.293319941 -0.0438763723 -0.0108657777 0.303670675 -0.0424768329 -0.0288954433 0.27786234 -0.0437689684 -0.035749387 0.249953434 -0.0274438579 -0.0433028787 0.261718929 -0.0445975363 -0.00780994305 0.246352941 -0.0372265093 0.00689317938 0.270384043 -0.0513720773 0.0269501414 0.271633327 -0.0562666506 0.0214573704 0.258880973 -0.0666515678 0.0160570499 0.270010293 -0.0565273911 0.006156113 0.249172896 -0.0577858947 0.0295845158 0.202821642 0.0164895002 0.0822002962 0.196981251 0.011839374 0.0631367788 0.169214636 -0.00961150229 0.0567274615 0.167145088 0.00911656953 0.0553426482 0.155091688 0.0177472103 0.0633094013 0.170555368 0.0424523167 0.0668845624 0.154884949 0.0536245517 0.0686685219 0.123766422 0.0531996824 0.0797491074 0.170394719 0.0410610288 0.0827406421 0.130224526 0.0789541677 0.0466887504 0.0916396305 0.0720083788 0.0516599789 0.138118893 0.0693369731 0.0543516241 0.118001662 0.0655539632 0.0589914098 0.126602441 0.0480988398 0.0512544923 0.1285128 0.0707300752 0.0436789691 0.128532767 0.0232235827 0.0444925874 0.144967169 0.00899684895 0.0345824212 0.128703579 0.0096964594 0.034675777 0.145210728 -0.00977276824 0.0348340496 0.128653601 -0.00985779986 0.0345055833 0.128600001 -0.0702226013 -0.0569437183 0.121950768 0.0322426781 0.0723562837 0.170287713 -0.0257401038 0.0794560015 0.114958651 0.047346279 0.0789105073 0.0856118873 0.0367601253 0.0570375659 0.0862098783 -0.0371781327 0.0571664721 0.12078689 -0.0304798651 0.0718985051 0.128605977 0.093285203 0.0288313348 0.128592506 0.0743777379 -0.0569140688 0.127358571 0.0968708545 0.0042494745 0.127305508 0.0967373624 -0.0276645757 0.128545672 0.0930495635 -0.0433758944 0.198800072 -0.0395773388 0.0634218976 0.180075318 -0.0467689373 0.0753627047 0.121942438 -0.0462859608 0.0799884945 0.178818017 -0.0142156165 0.0665853396 0.160049468 -0.0474263988 0.0642635077 0.136055842 -0.0631062314 0.0616499484 0.128278092 -0.0234331191 0.0447400212 0.144935861 -0.0202583242 0.0583100691 0.134601444 -0.0699826255 0.0509129725 0.126657262 -0.0423687175 0.0509718135 0.0628042966 -0.0493189096 0.061890915 0.123358168 -0.0533140562 0.0802732706 0.128549293 -0.0837519914 0.0430335514 0.094811067 -0.0660720244 0.0547956601 0.128598079 -0.0973510966 -0.0283341277 0.128509447 -0.0975928456 0.014853918 -0.127988607 -0.0714664012 -0.0569863804 0.128549799 -0.0837061405 -0.0523786023 0.128586963 -0.0943053141 -0.0404650681 0.0473971181 0.0472269654 0.0595202409 0.0688665286 0.087342605 0.0375062674 0.0630955547 0.0751648024 0.0491306558 0.0859563351 0.084667936 0.0408925526 0.0744335726 0.0514991805 0.0634180531 0.0493180603 0.0850062072 0.0398807526 0.0184651352 0.0787066594 0.0464644767 0.0575285442 0.0897159874 0.0342389606 0.0649554953 0.0948324427 0.0194715299 0.0831588432 0.0951787159 0.0194845013 0.0452021547 0.0957697481 0.0166267157 -0.0149101894 0.0959130973 0.0165678691 0.0323984697 0.086290352 0.0385002978 0.0173856225 0.0902571306 0.0317280069 -0.127825409 0.0756449774 0.0491644293 0.0255802572 0.095743075 0.018788835 0.00195486331 0.0857535675 0.0376011394 -0.0108837215 0.0827534124 0.042136468 0.00221731281 0.079318665 0.0456112102 -0.057357125 0.0528669842 0.0585096106 0.00137782749 0.0944305956 0.0228907336 -0.127997547 0.0766809583 -0.0562002435 -0.12799336 0.0969010368 -0.0309580751 -0.127886146 0.091802299 -0.0437341891 0.0626509935 0.0941034481 -0.0217879377 -0.019732995 -0.0486231893 0.057911668 0.057545945 -0.0785437971 0.0466734581 0.044490464 -0.0895437822 0.0349047072 0.0471853986 -0.0948887095 0.0234413836 0.0218702704 -0.0955872312 0.0225598402 -0.000390559639 -0.0955038667 0.0212222971 0.0188435484 -0.0832349136 0.0419797897 0.0145785101 -0.0931277052 0.0251526441 -0.0778436512 -0.0631555542 0.0553500503 -0.02534182 -0.0698853657 0.0517415628 -0.0138749508 -0.0784386098 0.0463956036 0.0469166115 -0.0683101043 0.0529423319 0.0358405523 -0.0776088238 0.0470231734 0.00510636717 -0.080539085 0.0448915474 -0.127963439 -0.0971866474 0.0136344489 -0.00936237536 -0.0880353302 0.0362950079 0.0684676915 -0.0949145183 -0.0223676041 -0.12797609 -0.097445935 -0.0277498215 -0.127868295 0.0485475883 0.0570526682 -0.0237726327 0.0834491774 0.0421975516 -0.0342628546 0.0902291164 0.0320804492 -0.0473369099 0.0950916037 0.0178842023 -0.0137410648 0.0905303881 0.0321112387 -0.067492269 0.0878408775 0.0354738049 -0.0597438477 0.0905365646 0.0308530536 -0.0698770881 0.0932493955 0.0252584852 -0.0501345582 0.0818501487 0.0426238738 -0.127959341 -0.048469685 0.0570159405 -0.1280123 0.0602518059 0.0632732809 -0.127976939 0.0919205844 0.0328427702 -0.0902792141 0.0899063274 0.0337666869 -0.0846394449 0.0950266644 0.0193500295 -0.127984628 0.0970819816 0.00343691953 -0.0394451059 -0.0841825977 0.0413787365 -0.0422736146 -0.0945574567 0.0240869932 -0.025689831 -0.0882333443 0.0353247151 -0.0235251859 -0.0952076614 0.0214121956 -0.04892952 -0.0861599073 0.0402111821 -0.127998233 -0.0864882767 0.0408964381 -0.128004178 -0.0605199933 0.0631952807 -0.127991229 -0.0929893628 -0.043057479 0.0935279354 0.0907546356 0.0326145403 -0.127978548 -0.083199203 -0.0525188521 -0.079090558 0.0799909309 0.0447626002 -0.0918179452 -0.0598150827 -0.057000041 -0.0962821916 -0.056435369 -0.0764073581 -0.0929722339 -0.0332918279 -0.0620000213 -0.0908795074 0.0565333515 -0.0570000447 -0.0929099992 0.0332569033 -0.0620042607 -0.0957358927 0.0553649738 -0.0764587298 -0.122215666 0.061321985 -0.056999974 -0.0962566733 0.0613739341 -0.0569999702 -0.126721576 -0.0383701101 -0.0619999468 -0.127579555 0.0556141548 -0.056999933 -0.126315325 0.0358148105 -0.061999958 -0.119474784 -0.0345975384 -0.0741736963 -0.121900029 -0.031967096 -0.0620000176 -0.0960679501 -0.0365012996 -0.0764267966 -0.125469044 0.0451830029 -0.0737189054 -0.119474545 0.0341525748 -0.074173525 -0.119406849 0.0574571714 -0.0741802305 -0.119189322 -0.0580618866 -0.0742009655 -0.12235935 -0.0615889244 -0.0570000112 -0.127557233 -0.0564348027 -0.0569999591 -0.125411421 -0.0468899682 -0.0737546906 -0.119790293 0.0310150031 -0.0619999468 -0.095835723 0.0358820483 -0.0764503926 0.239319652 0.0147207603 -0.0389455445 0.22940509 0.000126136278 -0.0413118415 0.240542755 -0.0149589349 -0.040134646 0.24096629 0.0141073829 -0.0436006822 0.216646492 0.0133303516 -0.0507504456 0.213494673 -0.00552583672 -0.0507106259 0.213897884 0.00475352863 -0.0504162051 0.18799825 0.0135779688 -0.0530642495 0.213198081 0.00502676098 -0.0451297313 0.187961608 0.0146544334 -0.0585200265 0.212514967 -0.00525936252 -0.0453537628 0.217074543 -0.0144033926 -0.0514767021 0.186616629 -0.0141120199 -0.0536113195 0.188813522 -0.00604577502 -0.0577369593 0.148334026 0.0171130877 -0.0535648651 0.130611658 0.0257320646 -0.0590032227 0.153068796 -0.0170028228 -0.0539078154 0.1626461 0.00543704489 -0.056147974 0.179238141 0.00568893319 -0.0592755564 0.148607939 -0.00832668878 -0.0577129461 0.130585864 -0.0269536059 -0.0590154342 0.184848368 -0.0142992502 -0.058802601 0.130623907 0.0268467497 -0.0539928563 0.0897283107 0.0276055988 -0.0540129915 0.0896054804 0.0276540425 -0.0589961335 0.0898500979 -0.0294374861 -0.0540146232 0.0896503404 -0.0281520821 -0.0589394867 0.319722027 0.0292736087 -0.036946319 0.325775772 0.0143042784 -0.0286900681 0.330791205 0.00446920982 -0.0340756476 0.327813447 0.020501554 -0.022498738 0.312462479 0.0340037271 -0.0318445265 0.304704994 0.0416428559 -0.0287815649 0.274222553 0.0427549817 -0.0368119329 0.302026778 0.0410540849 -0.0417736582 0.283912599 0.043005947 -0.0464998819 0.248091042 -0.0144262547 -0.0561979637 0.313194782 -0.0373422131 -0.0263990499 0.328383386 -0.0159028042 -0.022425808 0.322158664 -0.024623828 -0.028825704 0.325197101 -0.0215817224 -0.0355248898 0.27602452 -0.0424131677 -0.0487209409 0.311684996 -0.036356952 -0.0390591472 0.295250535 -0.0428408533 -0.0430072695 0.284067184 -0.0455856062 -0.0342167877 0.257248789 -0.0297466591 -0.0536323339 0.253335744 0.0302609354 -0.0424219184 0.255355 0.0266429447 -0.054216601 0.249085128 0.0146107087 -0.0555069819 0.26718989 0.0371272229 -0.0506024286 0.242376521 0.0147449085 -0.0443370864 0.257429391 -0.0343730748 -0.041328948 0.222316667 0.0141369225 -0.052710209 0.222395256 -0.0144902151 -0.0528051071 0.241622865 -0.0148348147 -0.0444797985 0.220714211 0.0133072473 -0.0489897393 0.221359909 -0.0139009571 -0.0488448665 0.128128976 -0.0611860491 -0.0569999963 0.0836158916 0.0302493479 -0.056999933 0.0836094767 -0.0306997988 -0.0569999553 0.1194629 0.0529943258 -0.0960797295 0.112944663 0.0576473437 -0.0954525843 0.123974971 0.06499549 -0.0569999963 0.0902133137 0.0405092724 -0.0932632834 0.0950191915 0.0341380127 -0.0937259048 0.119282745 0.0384567901 -0.0960625783 0.12611109 0.0292672087 -0.0619998723 0.11312671 0.0339378417 -0.0954701602 0.0894324332 0.0270398445 -0.0619999804 0.0893385783 -0.0275510568 -0.0619999953 0.121572465 -0.066176489 -0.0569999889 0.119407579 -0.0533790216 -0.0960746258 0.122547857 -0.0278400145 -0.0619999766 0.127344653 -0.0342278071 -0.0619999692 0.119717263 -0.0398529842 -0.0961043164 0.0902145058 -0.040924985 -0.0932635814 0.0950940698 -0.0345262773 -0.0937331915 0.0843285471 -0.0642647222 -0.0569998659 0.128418252 0.0588735417 -0.056999974 0.0839537531 0.0635597557 -0.0569998957 0.113985315 -0.034521129 -0.0955528021 0.0967924669 -0.0582856089 -0.0938972309 0.113000624 -0.0580898859 -0.0954580456 0.0905437097 -0.0531258285 -0.0932955593 0.0902373269 0.0511575304 -0.0932657868 0.0950584337 0.0574574471 -0.0937297717 0.326263994 -0.00535332505 0.0429999903 0.32651028 -0.00470367866 0.0461866409 0.326413989 0.000988636399 0.0479912199 0.326414019 0.00494807586 0.0443121232 0.326413989 0.00222536526 0.0382177308 0.326420009 -0.0036362859 0.0390201844 0.327066392 0.00543671986 0.0476483442 0.322564006 0.00283857412 0.0500154346 0.327164978 -0.00459894398 0.0494569428 0.322564006 0.00550196879 0.0367636755 0.322564006 -0.00860190205 0.043461889 0.327079117 0.00599689735 0.0389428698 0.327207565 -0.00521918526 0.0368006043 0.326763988 0.00290792785 0.0147140622 0.326234579 -0.00841119979 0.00905605406 0.326293409 -0.00626844587 0.00141548074 0.326157928 0.00699639414 0.0112400819 0.326130658 0.000956105592 -0.00131526869 0.326116949 -0.00180253712 0.0152795585 0.32637006 0.00693529285 0.00260914862 0.317135304 -0.0206588674 -0.0795582086 0.311598122 -0.0361566469 -0.0657198727 0.322215855 -0.0221014712 -0.08247035 0.294625103 -0.0156031549 -0.0965630263 0.327140361 -0.0163366199 -0.0452973321 0.305421561 -0.0268128365 -0.0919602811 0.282889992 -0.0284766704 -0.0884977356 0.299653769 -0.0237637125 -0.097815156 0.301841497 -0.0248868484 -0.0900196955 0.254539073 -0.0161011945 -0.0569519624 0.259406596 -0.0167499371 -0.0797651634 0.272778273 -0.0194157325 -0.0906571001 0.275005519 -0.0359057672 -0.0696685538 0.280796468 -0.0358535126 -0.0879924148 0.287794292 -0.040692728 -0.0475051627 0.254127741 -0.0201149359 -0.0571093522 0.248242557 0.0111961346 -0.0511093736 0.27069062 -0.0373091958 -0.0453456677 0.312263578 -0.0319329388 -0.0347192474 0.299517751 -0.0373115279 -0.0455696769 0.249431461 -0.0173594933 -0.0480900854 0.268808126 -0.0281174481 -0.0727309361 0.27166903 -0.0335260294 -0.052789025 0.253223449 0.0188625902 -0.0581127293 0.324518263 0.00935036782 -0.0279845968 0.280682951 0.0404166318 -0.0397070311 0.308544904 0.0404902399 -0.035425365 0.302088112 -0.0376769491 -0.0339485854 0.318558037 -0.0280037764 -0.0594128855 0.32753256 -0.00883729663 -0.0376328342 0.318392605 0.0228233691 -0.0594603047 0.315033764 0.0326559134 -0.0482894145 0.277478397 0.0372681953 -0.0512423962 0.268708557 0.0277415384 -0.0726845413 0.319642663 0.0225189216 -0.0878408551 0.305469483 0.0275380109 -0.0876652002 0.311298251 0.0347457267 -0.0633469224 0.325239539 0.0168569349 -0.0424944051 0.320216179 0.0147863654 -0.0873781368 0.315293312 0.015180585 -0.0797403976 0.288428277 0.0382888205 -0.0472399332 0.301806599 0.0384207517 -0.0886286274 0.298485518 0.0373330414 -0.091630578 0.29550761 0.0164147094 -0.0914395675 0.271347851 0.0146775572 -0.0911775827 0.282284737 0.0344267376 -0.0889589638 0.275574774 0.0359262414 -0.0712713003 0.282288849 0.0209863447 -0.089401409 0.258637011 0.0183860138 -0.0755524337 0.289347082 0.0375619493 -0.0505228266 0.268586308 0.0231030099 -0.0636514723 0.25417313 -0.00234504114 -0.0658019707 0.274074495 0.013574617 -0.0631812438 0.285666734 0.0120291039 -0.0817604363 0.280095249 -0.0137795815 -0.078176558 0.273448855 -0.0149102267 -0.0633772388 0.309389591 0.0139609864 -0.0539240576 0.315106213 -0.0231414624 -0.0715914816 0.307497919 0.0125566497 -0.0757301673 0.298211247 -0.0127505511 -0.0838458985 0.310961157 -0.0281819161 -0.0530162156 0.309765249 -0.0150490738 -0.0537460446 0.29067263 -0.0376952067 -0.0495859012 0.284529656 -0.0293583088 -0.0850488245 0.319745421 0.0170211531 -0.0496413708 0.318999171 -0.0199633837 -0.0506917797 0.313121855 0.024191441 -0.0520863533 0.268293977 -0.0231188778 -0.0637376755 0.312888056 0.0281641819 -0.0684263706 0.298872799 0.0285884794 -0.0851471424 0.278148353 0.0281415209 -0.077540271</float_array>
          <technique_common>
            <accessor source="#positions_array" count="388" stride="3">
              <param name="X" type="float" />
              <param name="Y" type="float" />
              <param name="Z" type="float" />
            </accessor>
          </technique_common>
        </source>
        <source id="normals">
          <float_array id="normals_array" count="1983">0.899384797 0.381035656 0.214286685 0.671791017 -0.0664895996 -0.73775059 0.846601725 -0.301290154 -0.438736558 0.336373121 0.601635098 0.724491775 0.346814245 0.603347003 0.718117118 0.39374736 -0.247727215 0.885208607 0.538328171 0.125136003 0.833392918 0.920598209 0.38538304 0.0630778 0.975903749 -0.216173142 0.0296831187 0.99773097 0.066531606 -0.0103205265 0.424875766 0.697177112 0.577429414 0.56293112 0.816666484 0.127139419 0.461278975 0.617608905 0.637009382 0.234433308 0.281614393 0.930448472 0.161470115 0.0606875978 0.985009849 0.586826324 0.78398937 0.202473685 0.37195316 0.392984331 0.840960264 0.143903375 0.47365284 0.868875563 0.184009671 0.447007805 0.87539959 -0.184804142 0.271219164 0.944609761 0.34190765 0.64171952 0.68650949 -0.115359426 0.534305871 0.837382495 0.723829687 -0.0585855134 0.687486947 0.89608109 0.314465821 0.313288957 -0.523668945 0.33474198 -0.783401966 -0.792884648 0.214909598 -0.570217311 -0.489227176 -0.00250003557 -0.872152805 -0.845719278 -0.232807547 -0.480166107 -0.633180499 -0.309856385 -0.709275305 0.145320967 0.980398893 0.13304089 0.528149843 0.833836257 0.160545498 -0.328085005 0.67677027 -0.659046412 -0.592743754 0.618620276 -0.515716732 -0.664655209 0.617351532 -0.420844972 -0.893828511 0.323914081 -0.310081154 0.400754571 -0.789297819 0.465193212 0.56576705 -0.720736027 0.400558621 0.513959646 -0.838356912 0.181667879 0.295980215 -0.60358578 0.740324199 0.202028066 -0.468602031 0.859998167 0.888144016 0.242788225 -0.390197426 0.878242671 -0.402808309 0.257750481 -0.0520571843 -0.815847397 -0.57591933 0.186189473 -0.30728367 0.933225691 0.029948635 -0.317485273 0.947790146 0.287935287 -0.347526252 0.892366946 0.521685541 -0.667745829 0.530998707 0.631506026 -0.666361213 0.396437645 0.419190645 0.907591045 -0.0236169472 0.149395615 0.973310292 -0.174206823 0.26793772 0.00134891155 -0.963435292 0.259521157 0.00291462219 -0.965733051 0.259822458 5.24133475e-06 -0.9656564 0.259728223 -0.000917734578 -0.965681314 -0.365154207 0.902371049 -0.228886187 0.980180562 0.195526183 0.0318688378 0.974617898 -0.221124098 0.0349864699 -0.914882302 0.4001185 -0.0538108796 -0.998400569 -0.0239107236 0.0512305833 -0.953161716 -0.301661462 -0.0219788942 -0.839928627 0.510982275 -0.182803214 -0.982545733 0.0194991678 -0.184996411 0.0205688048 0.100468807 -0.994727552 -0.523727834 0.725780308 -0.446040452 -0.531065941 0.794534028 -0.294422567 0.724609137 -0.685896277 0.0669913962 0.320935965 -0.946780682 -0.0246272832 0.322784066 -0.945625365 0.0400384553 0.258002818 -0.000842243375 -0.966143787 0.257610053 -0.000743239885 -0.966248691 0.258236974 -0.000955163734 -0.966081142 -0.161905676 -0.959359586 -0.2311185 0.258492827 0.00015946597 -0.966013193 0.260441631 -0.000398272037 -0.965489507 -0.554194272 -0.786962986 -0.271215737 -0.769673228 -0.597024858 -0.226195663 0.259807795 0.00025508317 -0.965660334 -0.878546119 -0.38516435 -0.282497972 0.690506697 -0.571221173 0.443741918 0.610491395 -0.755015194 0.239274487 0.611278236 -0.788124919 0.0720978379 0.082770668 -0.930248201 -0.357473433 -0.544569314 -0.779602349 -0.309296638 -0.768893182 -0.558493912 -0.311268091 -0.684336245 -0.51895231 -0.512223065 -0.101474963 0.287340134 0.952438176 -0.14394699 0.174498752 -0.974078774 0.369809568 -0.487781137 -0.790765762 0.386928797 0.467502594 -0.794812799 0.352522135 0.459536016 -0.815202296 0.100914687 0.00316347345 -0.994890034 0.343874127 0.867049754 0.360520869 -0.0488329902 0.52479279 0.849828124 -0.0326091237 0.29093799 0.956186056 -0.00932433922 0.685734391 0.727792144 -0.0357284062 0.615948737 0.786975622 0.0648842081 0.706075311 0.705157936 -0.0309722275 0.77452141 0.631788969 0.972863913 -0.133265674 -0.189145759 0.972904682 -0.0047481074 0.23115772 0.993883073 -0.0747092068 -0.0813325047 0.999532104 0.00474998122 0.0302157216 0.482852668 0.446144521 -0.753530562 0.374596804 0.392998695 -0.839779317 0.00839513261 0.32151264 -0.946868062 0.377640486 -0.415278584 -0.827605844 0.999992907 0.00320339133 0.00197731121 0.99993825 -0.00953449309 0.00570694869 0.999999464 -0.00104293542 -0.000193690386 -0.255128801 -0.238962516 0.936913133 -0.0876428485 0.0653765127 0.994004369 0.700768709 0.00683837291 -0.71335572 0.619284034 0.00403194968 -0.785156727 -0.282459855 -0.124865614 0.951117754 -0.906061292 0.0440886021 -0.420843393 -0.209286898 -0.376834273 0.902327478 -0.225483224 0.337011993 0.914100766 -0.303453594 0.210074991 0.929400027 0.999732733 0.0025259445 -0.0229808483 0.999999225 0.00116549362 -0.000373252347 0.950441003 0.310891688 -0.00288095931 0.945547402 0.325478971 -0.00187710149 0.999386966 0.0349975266 -0.0009488574 -0.0423504636 -0.0169914197 0.998958349 -0.225754976 -0.452140421 -0.862904251 -0.488364011 -0.250461221 0.835924506 -0.0409056097 -0.187103152 0.981488228 -0.0897218809 -0.47240147 0.876804888 0.154001147 -0.888665438 -0.431922883 -0.371941417 -0.699819446 -0.609846175 -0.22105059 0.216437802 0.950942338 0.0506797731 -0.438895971 -0.897107542 0.272568673 0.0218920093 -0.96188724 0.424964577 -0.527695596 -0.735487878 0.394426763 -0.623872876 -0.67469269 0.014447582 -0.321271449 -0.946876943 0.495850474 -0.477042675 -0.725646317 0.470891923 -0.455977082 -0.755212367 0.99928391 -0.00760074146 0.0370653309 -0.652133703 -0.186045289 -0.734920919 -0.100216635 -0.019612046 0.994772315 -0.0763478503 -0.494114995 0.866037726 0.222964004 -0.810046017 0.542321444 0.0343796536 -0.771622717 0.635150731 0.782274604 -0.567289948 0.257349104 0.459185183 -0.775021315 0.434155464 -0.0878541842 -0.650386512 0.754505813 0.988772154 0.016721962 0.148492604 0.60729444 0.176362261 -0.774654686 0.989287019 0.0376553461 -0.141043454 1 -0.000190705978 0.00014233336 0.999973655 -0.0069765877 0.00201312499 0.00115228025 0.307509899 -0.951544166 0.000948090921 -0.161740139 -0.986832917 -0.000969666231 -0.178966284 -0.983854711 0.00227873586 -0.551874638 -0.833923995 0.999977767 -0.00473584794 -0.00469490793 0.99999404 0.00344859692 -5.01691829e-05 -0.0457138717 -0.0184167959 0.998784781 -0.000233332656 0.820974648 0.570964634 0.00230413117 0.68638736 0.727232516 0.0558874644 0.760211229 0.647267699 -0.199718073 0.640987933 0.741112113 -0.00798198208 0.790765107 0.61206764 -0.0104804654 0.702187777 0.711914718 -0.0329953544 0.864895284 0.500866711 -0.00361095439 0.921249986 0.388954282 -0.0139537305 0.964659512 0.263129801 -0.00237096893 0.969697595 0.244296744 -0.0100709088 0.998410761 0.0554483123 -0.01734256 0.975663841 0.218584687 0.00529967062 0.826545894 0.562844396 -0.00362343271 0.864552259 0.502529919 0.047587458 0.664124429 0.746105969 0.0202705748 0.972601533 0.231593162 0.0192155447 0.812901974 0.582083464 0.0411486663 0.791283429 0.610063374 0.00727086794 0.772420824 0.63506943 -0.000834710198 0.0992078185 0.995066404 -0.00346257817 0.93082273 0.365454584 0.00322800968 0.827250004 -0.561824739 -0.00236547948 0.340055466 -0.940402389 0.00544174435 0.982732713 -0.184950739 -0.00310300058 0.807432711 -0.589951515 -0.0173767656 0.994234204 -0.10581284 -0.00429632375 0.990895629 0.13456358 -0.00332866167 -0.0178191755 0.99983567 -0.0092695402 -0.628619552 0.777657747 -0.00326412357 -0.83088994 0.556427181 0.00633648923 -0.933207154 0.359283 -0.00497907726 -0.978520453 0.206089482 0.0443848409 -0.626986086 -0.777765036 0.00786253251 -0.924957037 0.379990339 -0.019207634 -0.775956035 0.630494535 -0.0592536069 -0.847740293 0.527091444 -0.0427876525 -0.828701973 0.558052242 0.0503472127 -0.532433748 0.844973087 -0.00936225057 -0.528387368 0.848951817 -0.0105324313 -0.584042132 0.811654985 -0.00683699595 -0.539510012 0.84195143 -0.00761136552 -0.589747131 0.807552099 0.00423630793 -0.712294638 0.701867819 -0.00193960045 -0.983645499 0.180104852 0.0227069613 -0.824696481 0.565119505 -0.00384405907 -0.986573815 0.163270682 0.00618324289 -0.990956545 -0.134040654 -0.020587204 -0.993336439 -0.113397196 0.00485668518 -0.239509836 0.97088182 0.00266550481 0.766182005 0.64261806 0.0134872897 0.884823978 0.46573025 -0.00562702119 0.961899638 0.273344904 -0.0966077745 0.887999296 0.449582279 0.0158717874 0.823714077 0.566783249 0.0171250682 0.882865131 0.469314247 0.0140768364 0.933160067 0.359185398 -0.0354674794 0.935651362 0.35113892 -0.999986291 -0.0052366145 -0.000159490985 -0.999998033 0.00167152542 -0.00104455953 -0.999999404 0.00106635515 0.000137246461 -0.999990344 -0.00391111802 0.00199904642 -0.999993145 0.00299736182 0.0021600211 0.119429365 0.670059443 0.732637048 0.0104960203 -0.469190478 0.883034587 0.0256076232 0.857237101 0.51428473 0.00185006787 0.97529763 0.220887125 0.000263751193 0.885407627 0.464815319 -0.99999994 -9.08984293e-05 0.000247167365 0.000271133351 0.997234166 0.0743230581 -0.00365942228 0.236930877 0.971519589 0.0279961657 -0.733215332 0.679419935 0.0113175204 -0.930129349 0.367057681 0.00302031217 -0.850737512 0.525582075 -0.000670727866 -0.917649269 0.397390693 0.0359369554 -0.76157105 0.647084236 0.0231223553 -0.797629535 0.602704346 0.050796859 -0.145972237 0.987983704 -0.000611929863 -0.856332839 -0.516424 0.000168227692 -0.884875476 -0.465827554 -1 3.68531801e-05 6.42084888e-06 -0.999995589 -0.00297410344 0.000151994522 -0.999991536 -0.00409570616 0.000331362447 -0.0992233753 0.879249513 -0.465913057 0.664450824 0.745653272 -0.050063584 0.545613289 -0.437135041 0.714995861 -0.658727705 -0.527547061 -0.53644371 -0.164222598 0.112200037 -0.980021477 0.285620183 0.705933392 -0.648135185 -0.0576972328 0.856990397 0.512092292 0.0071826512 0.912943184 0.408023447 -0.95692277 -0.0276645105 -0.289021522 0.516852319 0.0198974144 -0.855843306 -0.000597927428 -0.536116302 -0.844143927 -0.00837607589 0.806067765 0.591763973 -0.945129156 0.226919785 0.235028341 -0.999996364 0.00217403611 -0.0015769219 -0.999630928 0.0212831832 -0.0168818925 -0.99999994 -0.000188899561 -0.000372628245 -0.999993324 0.00224488182 -0.0028799288 -0.999999821 -0.000516349741 -0.000321992411 -0.999990702 -0.002260081 -0.00367548619 0.973275185 -0.00093286339 -0.229640082 0.975779653 -0.00339087425 -0.218729407 0.854700863 -0.00606286945 -0.519085407 0.892915905 0.371416301 -0.254462481 0.825524867 -0.00648150221 -0.564328551 0.718357205 0.619642258 -0.316237837 -0.379153639 0.881996036 -0.279866844 0.319361001 0.907820106 -0.271792591 -0.961019456 0.169872969 -0.218139276 -0.887848496 0.381097406 -0.25785628 -0.938544571 -0.224771515 -0.261938751 -0.342392802 0.628866911 -0.698064208 -0.425047815 0.862091064 -0.275922775 0.0485178679 0.97443223 -0.219380721 -0.71661222 -0.00599105563 -0.697446108 -0.334580034 -0.61978513 -0.709875107 -0.343089104 0.626987219 -0.699411809 -0.330674797 -0.634586751 -0.698536873 -0.364375979 -0.897200763 -0.249521449 -0.879113257 -0.403140575 -0.254239291 -0.0958473459 2.51055517e-05 -0.995396018 -0.095879443 5.9744656e-05 -0.995392978 -0.711419344 -0.0216184389 -0.702435136 2.0033815e-06 1.155723e-06 1 2.30669093e-06 -2.68451026e-06 1 2.56278031e-06 -9.68346626e-07 1 1.39725694e-06 -8.62938759e-06 1 2.85056512e-06 -3.85290787e-06 1 2.94966617e-06 -1.02635749e-05 1 0 7.3279416e-06 1 0.0550969504 -0.980918825 -0.186447203 0.0569921136 -0.981273532 -0.183994994 -4.87693142e-05 -2.00231589e-05 -1 -8.71217708e-06 4.1667613e-07 -1 1.96512474e-06 9.5760754e-07 -1 -1.47533483e-05 -7.07721668e-08 -1 0.978173316 -0.0107157659 -0.207514077 0.97990793 -0.00510651618 -0.199385077 -0.095880039 6.54426549e-05 -0.995392919 -0.0958482251 2.92115055e-05 -0.995395958 0.0445624255 0.973097324 -0.22604382 0.0720652118 -0.975254118 -0.209012032 0.0815021321 -0.977579892 -0.194151863 -0.265771031 -0.934476495 -0.236895397 -0.21224764 0.00231310609 0.977213204 -0.215050891 -0.0464875735 0.975495756 -0.212971225 -0.0812593028 0.973673522 0.0123170586 0.991358638 -0.130599946 0.00609619729 0.991689205 -0.12851195 0.139281571 0.916322291 -0.375438511 0.245215699 -0.0766442865 -0.966434121 0.254088223 0.0770738348 -0.964105189 -0.00835851301 -0.0113112871 -0.999901116 0.0115835452 0.893901408 0.448113978 -0.211437285 0.0630395487 0.975356519 0.0254494566 0.97808522 0.206643701 0.0415913835 -0.61309725 0.788911819 0.350027114 -0.0453467481 -0.935641348 0.361837894 0.210436881 -0.908179283 -0.242676646 -0.103905126 0.964526713 0.148629457 0.0750959441 -0.986037493 0.943505704 0.0256454926 0.33036235 0.0523275696 0.391601413 0.918645859 0.24078308 0.964855015 -0.105253533 0.050903298 -0.424513847 0.903989434 0.0436765999 -0.947502553 0.316751182 -0.0051327059 -0.203166634 -0.979130745 0.0377849005 -0.643513799 -0.764501333 -0.00270509766 -0.995518565 -0.0945277661 0.0194023773 -0.0179380495 -0.999650836 0.0481493846 0.0374164656 -0.998139083 0.0150708025 0.0163866207 -0.999752164 0.0676718652 0.089732632 -0.993664205 0.132272705 -0.701290905 0.700496256 0.0589469634 -0.996011794 0.0669757575 0.000334423705 0.0445352197 0.999007761 -0.0068370197 0.00451985979 0.999966383 0.0446712188 0.998960555 -0.00907298364 0.0468187705 0.998866737 0.00855649076 -0.999694586 -0.00213513733 0.0246208981 -0.999673009 -0.00205939775 0.0254876614 -0.999227524 -0.000852903933 0.03928978 0.0301284138 -0.806744814 0.590131402 0.027838733 -0.966934204 -0.253502071 -0.000864346628 -0.000295140664 -0.999999583 -0.00182564615 -0.00101652928 -0.999997795 -0.999186158 -0.000762022974 0.0403290652 0.310541302 -0.0919005796 -0.94610697 -0.00744522316 -0.999516129 -0.0302001201 -0.00716959545 -0.999392152 -0.0341159888 0.233325154 -0.934225917 0.269780159 -0.0561303645 0.990711391 0.123855837 0.183355227 -0.0959589705 -0.97835207 0.248071894 0.945493519 -0.210955724 0.709245741 0.622324109 0.331184417 0.741872728 0.550867915 -0.38232103 0.818090618 0.534034073 -0.213390082 0.659674108 0.466987163 -0.588857472 0.632824242 0.773070812 -0.0435324199 0.473447889 0.79571265 -0.377741218 -0.254422545 0.0092939809 0.967048526 -0.258049577 0.00101604231 0.966131151 -0.256884009 0.00098095974 0.966441751 0.0126868999 0.821537554 0.570013285 -0.0303857233 0.992492378 -0.11847192 0.250210702 0.0049371263 -0.968178809 0.258499295 -0.000129897744 -0.966011465 0.112035692 0.00571643142 -0.993687749 -0.257981986 5.32304402e-05 0.966149747 -0.2504583 -0.00198147772 0.968125343 0.874626756 -0.178158239 0.450874388 0.859614611 -0.510852516 -0.00961100962 0.888205945 -0.403575331 0.219583914 0.710171103 0.00970779639 -0.703962147 0.765804291 -0.0781839415 -0.63830328 -0.063398093 -0.709852219 -0.701491594 0.260217518 -0.011607985 -0.965480268 0.347460628 -0.751525283 -0.560785949 0.621565223 -0.774147332 -0.119802259 0.530287683 -0.844350278 -0.0766002908 0.253742754 -0.000678101089 -0.967271507 0.0165514182 -0.994735658 -0.101128735 0.258080035 -0.00460452354 -0.966112554 -0.655199468 0.694197416 -0.297999293 -0.740477622 0.596455276 -0.309732109 -0.561226845 0.775729299 -0.288562834 -0.458464146 0.867258608 -0.194095641 0.243617624 0.015003195 -0.969755292 0.283278704 -0.00383547274 -0.959029973 -0.231906265 0.966109157 -0.113369405 0.0708126128 0.0213071983 -0.997262061 -0.239265427 0.00126493745 0.970953405 -0.192042172 0.00307128509 0.981381893 -0.242123052 0.000231926795 0.97024554 -0.352210075 0.912837565 -0.206580922 -0.563794851 0.00922105741 -0.825863421 -0.0831042603 0.988372862 0.127329201 -0.632141948 -0.0106931189 -0.774778843 -0.258469611 -0.000193424232 0.966019392 -0.571061671 -0.790751338 -0.220456198 -0.656422317 -0.693021536 -0.298045218 -0.366136014 -0.912491977 -0.182490587 -0.0538212731 -0.995085597 0.0831135958 -0.537727356 -0.778398037 -0.32395339 -0.923292994 -0.00311683305 -0.384083748 -0.968076587 -0.0243025683 -0.249473572 0.253840595 -0.00394311408 -0.967238009 0.268277258 0.00823521335 -0.963306546 -0.0822114274 0.769775331 0.632998645 0.868467569 -0.173919275 0.464237183 -0.102429159 0.979353964 0.174281612 -0.210006192 0.000222067945 0.977700055 -0.210335329 0.000474418979 0.977629185 -0.201202154 0.00040016498 0.979549646 -0.0731654912 -0.98906666 0.128038779 3.99408549e-07 -3.996551e-08 1 1.43560976e-06 -3.31322838e-07 1 1.33589174e-06 4.52005509e-07 1 0.872309625 0.399085373 -0.282501012 0.245481476 0.936762512 -0.249428928 0.446658283 0.857922316 -0.253900975 -0.692426682 -0.180270627 -0.698604226 -0.337751895 -0.61855644 -0.709444523 -0.868671119 -0.207491279 -0.449842036 0.872380853 -0.398926795 -0.282505035 0.738500535 -0.239306286 -0.630356669 0.256004125 -0.9318223 -0.25723353 -0.573226452 -0.643131256 -0.507733881 -0.871072292 0.200892687 -0.448191077 -0.580367744 0.636987031 -0.507366538 0.31506744 -0.915012598 -0.251961291 0.862817049 -0.420699269 -0.28028363 0.850566864 -0.44860062 -0.274396658 0.453090459 0.851912558 -0.262591064 0.937892616 0.145761743 -0.314818829 0.895473897 0.346204728 -0.279765666 -0.696487129 0.1747659 -0.695961595 -0.3319498 0.623004615 -0.708289862 3.3562128e-06 2.73742626e-06 1 9.63380558e-07 8.92220726e-07 1 -2.32108661e-07 1.69917325e-06 1 7.44686162e-08 1.67084613e-06 1 2.79542587e-06 -1.14426336e-06 1 3.25619021e-06 2.67924747e-07 -1 1.33824244e-06 1.23788493e-06 -1 2.56959424e-06 1.67440589e-06 -1 0.320825636 0.907626629 -0.27071169 -0.0958349705 7.90898866e-06 -0.99539721 -0.249938726 -0.646634996 -0.720689833 -0.0957804844 7.85845771e-07 -0.995402455 -0.0958001614 8.5003976e-06 -0.995400608 -0.0958320647 3.7643747e-06 -0.995397508 -0.673400581 -0.260662943 -0.691799462 -0.695305884 -0.675407708 -0.245711446 0.917287886 0.295201212 -0.267281055 -0.0957754329 4.01979196e-06 -0.995402992 -0.0957994983 1.2903939e-05 -0.995400667 -0.095847778 4.57098349e-06 -0.995396018 -0.0958386287 4.8149424e-08 -0.995396912 -0.690495372 0.177012578 -0.701343536 -0.322009563 0.633369982 -0.703670561 -0.694311857 0.675863624 -0.247263834 0.274977505 -0.926701605 -0.256147414 -0.999863744 -0.00693479739 0.0149792545 -0.995327711 -0.044068791 0.0859107077 -0.9996503 0.00295810169 0.026278846 -0.999895394 0.014223 0.00263313903 -0.99983418 0.0103238402 -0.0150005734 -0.999090612 -0.00677445671 -0.0420951098 0.98285073 -0.180183336 -0.0392221436 0.999604225 -0.0231148433 -0.0160333402 0.999655128 -0.0249452796 -0.00820470508 0.999958098 0.0053398679 -0.00743725058 0.999947548 0.0101859346 0.00108060555 0.999828279 0.0126142865 0.0135775637 0.916838646 0.0795161501 0.39125964 -0.556830347 0.334537774 0.760279179 0.47155714 -0.484398156 0.736880124 -0.734782994 0.674111247 0.0752857327 -0.919555545 -0.195325196 0.340977579 -0.368088067 0.916311026 0.157750741 -0.138928428 0.988271415 0.0633913651 0.625444114 -0.779227972 0.0402915552 0.956503749 -0.234326139 -0.17375803 0.871845126 0.101278096 -0.479195982 0.412254483 0.175476298 -0.894010246 -0.701126575 -0.305891812 -0.644089818 0.999823511 0.0067364159 -0.0175369568 0.998345077 -0.0550335199 0.0166859161 0.999740183 -0.00859982707 -0.0211094785 -0.999933064 -0.0098999897 -0.00598958787 -0.998738468 0.0299972054 0.0402699523 -0.999965131 0.00470089354 -0.00689816196 -0.998959422 0.0227895435 0.0395060703 -0.917779505 0.169206545 0.359235168 0.998175442 -0.0003329014 -0.0603797697 0.999966264 -0.00628385972 0.005286464 0.98260814 -0.117738187 0.143593013 0.99833113 0.0406083204 -0.0410599113 -0.999472499 -0.028444564 -0.0156711265 -0.998100877 0.0563302338 -0.0249302872 0.536999404 0.446969092 0.715437114 0.562348366 0.589608014 -0.579764307 0.314265728 0.930934787 -0.186003864 0.682841778 0.406046063 -0.607333302 -0.711585462 0.592050791 0.378314734 -0.0679238141 -0.408901125 -0.910047352 0.0503690876 -0.924781322 -0.377150446 0.168345109 -0.967887223 -0.186692983 0.0148933819 -0.994272113 0.105835296 -0.208542913 -0.977870822 -0.0166877471 0.163042188 -0.969393492 0.183557868 0.828104317 -0.544864357 0.131780401 0.877115071 -0.439390957 0.193919376 0.925228238 -0.242605597 0.291710913 -0.844803631 0.464468241 -0.265661508 -0.0512440279 0.997912169 -0.0393113829 0.14174296 0.987585902 -0.0676980093 0.128103733 0.915026128 0.382513523 0.0947796926 0.922464132 0.374268264 -0.340074867 0.912608564 0.226924449 -0.307128698 -0.928909779 0.206878081 -0.288452536 -0.935878456 0.202303305 -0.175673798 -0.969029784 0.173551187 -0.370238721 -0.902039707 0.221918032 0.587276101 -0.107019678 -0.802280188 0.446916133 -0.804311037 -0.39159888 -0.39755702 -0.0327388346 0.916993201 -0.490723372 -0.272611648 0.827570856 -0.227737322 0.436464667 0.870421886 -0.146601349 -0.823977649 0.547328889 0.599279165 0.66524148 0.445329428 -0.14008154 -0.927984893 -0.345284283 0.728695512 0.517807901 -0.448193997 -0.0385188684 0.555498779 0.8306247 0.75595206 -0.65193361 0.0593213663 -0.157347471 -0.391641974 -0.906564057 0.119807348 -0.101650819 -0.987579525 -0.423921257 -0.123554818 -0.897231817 0.210472152 0.255628705 0.943586469 0.2239369 -0.950667918 0.214668944 0.723271072 0.258641958 -0.64029938 -0.00335401809 0.89751941 -0.440962225 -0.00270138029 0.933964431 -0.357355714 0.176124468 0.907760859 0.380723536 -0.860168159 -0.461351246 -0.217407033 -0.589387774 -0.799720109 -0.114323229 -0.498177111 -0.825633228 0.264857143 -0.890513957 -0.0323428996 -0.45380488 -0.677165031 -0.724002063 -0.13140969 0.150431901 -0.156099185 -0.976218879 -0.444671929 -0.0141002275 0.895582557 -0.193072572 0.213538289 -0.957666099 -0.271155775 0.583096862 0.76581502 0.334395498 0.230639011 -0.913775325 -0.0309050288 0.103824466 0.994115353 0.685188949 -0.707141757 0.174546823 0.60372901 -0.448456764 0.659088612 0.31866923 -0.922251523 0.218865499 0.904366255 0.409556746 0.119937301 0.949310422 0.309999794 -0.0520565882 0.650843203 0.68015492 0.337331355 0.972107887 0.213088617 -0.0979771465 -0.929743826 -0.324669152 -0.173684582 -0.387735456 -0.0981312245 -0.916532278 -0.811813831 -0.289806157 -0.506922841 0.527220249 -0.635607958 -0.563951492 0.435041457 -0.49168092 -0.754313469 0.580095708 -0.652974188 -0.486943245 0.79647857 0.0340189412 0.603709042 0.560153842 0.800872684 0.211732402 0.365383238 0.846549809 0.387102664 0.117045581 -0.991485715 -0.0570650138 0.580744207 0.802907288 0.134447068 0.39419511 -0.0803876892 -0.915504277 -0.1478654 -0.212734878 0.965856969 -0.161217481 -0.0178987551 -0.986756563 -0.71351254 0.700625122 0.00493377773 -0.671830237 0.511716604 0.535528064 -0.703348637 0.70840472 -0.0588506535 -0.610015512 0.702403545 -0.366756558 0.500260949 -0.339615852 0.796492338 -0.955149651 -0.294826299 -0.0276884418 -0.143789917 -0.875767708 0.460820377 -0.586245954 0.808076262 -0.0576927736 -0.147547528 0.984864056 0.0909531116 0.627571464 -0.75260669 -0.199342072 0.577759027 -0.807001114 0.122244403 -0.578915834 0.809134424 -0.100786492 -0.718204796 0.525414467 0.456203431 -0.67080456 0.262183428 0.693744302 0.31047225 0.888546944 -0.337773979 0.99123764 0.0666964725 -0.114015482 -0.752233088 0.635982752 0.172253445 -0.00723990472 -0.99887383 0.0468901992 -0.0318681672 -0.999010503 0.0310231876 -0.044933103 -0.998734593 0.0225879904 -0.830493748 -0.447502583 0.331694961 -0.605786502 -0.0467443839 0.794252872 -0.776892841 -0.245889723 0.57963413 -0.246991619 0.965972781 -0.0767573044 0.139741451 0.871361315 -0.47032091 0.15843308 0.614800632 -0.772605419 0.430193752 0.222250462 0.874950349 0.787666976 0.312133789 0.531180978 0.898506582 0.328219026 0.291475803 0.0493291914 0.104537852 0.993296742 -0.464262217 0.117926419 0.877812028 0.0775214434 -0.0538234748 -0.995536745 -0.418893278 0.0679033324 0.905492961 0.804199278 -0.0193105508 0.594045997 0.661401749 -0.439934641 0.607457995 0.316433132 -0.332167149 0.888557851 0.431011856 -0.6635378 0.611511528 0.152193978 -0.873910964 0.461645544 0.320350766 -0.726666868 0.607725799 0.917495787 -0.12815097 0.376535326 -0.771451533 -0.615443349 -0.161530241 -0.0671063364 -0.997711778 0.00824351422 -0.12935403 0.935998023 -0.327376217 -0.0497521684 0.785051882 0.61742878 0.214385748 0.056730926 -0.97510016 0.15509516 -0.0310955569 -0.987410009 0.0978477821 -0.155325323 0.983005524 -0.627128899 0.33802706 -0.701745689 -0.56739068 0.161630213 -0.807430148 -0.39766112 -0.167694926 -0.902077615 -0.646911621 0.699055314 -0.304675162 -0.156578243 0.750444531 0.642118573 -0.684984386 0.555442393 0.471465945 -0.376412064 0.00402618945 0.926443577 -0.479434013 -0.0985375494 -0.872028291 -0.393469781 -0.0372109376 -0.918584168 -0.720956266 0.0448133126 -0.691530108 -0.498412192 0.106085822 -0.860424936 0.845594287 -0.0592252687 -0.530530572 0.845311821 -0.400791824 -0.353289962 0.777754843 -0.0206796117 -0.628227472 0.233966172 -0.014493159 -0.972136736 0.964770973 0.101344213 0.242788643 0.962605596 0.0469517 0.266807169 -0.109619647 -0.782027841 0.613527477 -0.28229475 -0.531309247 -0.798761606 0.118863106 -0.0968749449 0.988173485 -0.102955811 0.0335322358 0.994120538 -0.256654143 -0.0222635102 0.966246843 0.828928292 -0.20922859 -0.518749714 0.376050025 0.0237637348 -0.926294565 -0.666963816 -0.613581121 0.422702581 0.355017334 0.934557855 -0.0237562153 0.236495629 0.463773698 -0.853805482 -0.627563834 0.485974103 -0.608270347 0.436717063 0.712295473 0.549466431 -0.359473318 0.265027821 -0.894728541 0.121708691 0.00103559776 -0.992565334 -0.407535821 -0.277665794 -0.869951904 0.315927207 -0.0114551671 -0.948714256 0.309437722 -0.0095411744 -0.950871825 0.397467911 -0.904146373 -0.156647921 0.301674932 -0.0254931413 -0.953069925 0.933558166 -0.189621195 -0.304159462</float_array>
          <technique_common>
            <accessor source="#normals_array" count="661" stride="3">
              <param name="X" type="float" />
              <param name="Y" type="float" />
              <param name="Z" type="float" />
            </accessor>
          </technique_common>
        </source>
        <vertices id="vertices">
          <input semantic="POSITION" source="#positions" />
        </vertices>
        <triangles material="qmat_103403739752e509" count="90">
          <input semantic="VERTEX" source="#vertices" offset="0" />
          <input semantic="NORMAL" source="#normals" offset="1" />
          <p>317 501 318 501 319 501 320 502 321 503 319 504 317 505 322 505 318 505 323 506 324 507 325 508 326 509 327 510 328 511 323 512 329 513 330 514 320 515 330 515 329 515 326 516 320 516 327 516 327 517 324 517 328 517 331 518 325 519 324 520 321 521 317 522 319 523 317 522 321 521 320 524 322 525 320 502 319 504 322 525 319 504 318 526 325 527 317 528 320 529 317 528 325 527 322 530 322 531 325 519 331 518 322 532 331 532 324 532 324 533 320 502 322 525 325 527 320 529 323 534 323 512 320 535 329 513 324 507 323 506 328 536 328 536 323 506 330 537 327 538 320 538 324 538 320 539 328 539 330 539 320 540 326 509 328 511 332 541 333 541 334 541 335 542 336 543 334 544 337 545 338 546 339 547 337 545 340 548 332 549 341 550 342 550 343 550 341 551 343 551 335 551 344 552 341 552 335 552 344 553 335 553 334 553 337 554 344 554 334 554 337 555 334 555 333 555 345 556 346 557 344 558 341 559 347 560 348 561 341 559 346 562 347 560 348 563 346 564 343 565 349 566 343 567 333 568 333 569 332 569 340 569 332 570 334 544 339 571 339 571 334 544 336 543 339 547 344 558 337 545 339 547 336 572 344 558 338 573 332 570 339 571 338 546 337 545 332 549 342 574 337 574 333 574 343 575 342 575 333 575 343 565 346 564 335 576 336 577 335 578 346 579 336 577 346 579 345 580 346 557 341 581 344 558 347 582 346 564 348 563 348 583 343 583 349 583 348 561 349 584 342 585 341 559 348 561 342 585 349 566 340 586 350 587 333 568 340 586 349 566 350 588 340 589 342 585 342 585 340 589 337 590 349 584 350 588 342 585 344 558 336 572 345 556 351 591 352 591 353 591 351 592 354 592 355 592 354 593 351 593 356 593 354 594 356 595 355 596 353 597 352 598 356 599 357 600 358 601 359 602 352 603 358 604 357 605 358 604 352 603 351 606 352 598 360 607 356 599 351 608 355 608 361 608 352 598 359 609 360 607 362 610 363 611 364 612 363 611 365 613 364 612 360 614 351 614 365 614 365 613 361 615 364 612 351 616 353 616 356 616 359 617 352 617 357 617 356 595 360 618 355 596 365 619 351 619 361 619 355 620 360 620 361 620 359 602 358 601 351 621 360 622 359 602 351 621 360 623 364 612 361 615 365 624 362 625 360 626 363 627 362 625 365 624 362 610 364 612 360 623</p>
        </triangles>
        <triangles material="qmat_1163a26947310579" count="40">
          <input semantic="VERTEX" source="#vertices" offset="0" />
          <input semantic="NORMAL" source="#normals" offset="1" />
          <p>366 628 367 629 368 630 369 631 370 632 371 633 371 633 372 634 369 631 373 635 374 636 375 637 374 636 376 638 375 637 377 639 374 636 378 640 379 641 380 642 374 636 379 641 377 643 381 644 381 644 377 643 382 645 373 635 383 646 381 647 384 648 379 641 368 630 380 642 371 633 376 638 385 649 386 650 366 628 366 628 387 651 367 629 387 651 386 650 370 632 375 637 370 632 386 650 385 649 366 628 383 652 366 628 381 644 383 652 381 644 366 628 368 630 379 641 381 644 368 630 372 634 384 653 368 654 368 654 367 655 369 631 368 654 369 631 372 634 376 638 371 633 370 632 381 647 382 656 373 635 382 656 378 657 373 635 374 636 373 635 378 640 375 637 376 638 370 632 384 648 380 642 379 641 379 641 374 636 377 658 378 657 382 656 377 659 385 660 383 646 373 635 385 660 373 635 375 637 375 637 386 650 385 660 367 655 387 651 369 631 370 632 369 631 387 651 384 653 372 634 380 642 380 642 372 634 371 633 374 636 380 642 376 638 386 650 387 651 366 628</p>
        </triangles>
        <triangles material="qmat_4b294f1aa1dfaafb" count="584">
          <input semantic="VERTEX" source="#vertices" offset="0" />
          <input semantic="NORMAL" source="#normals" offset="1" />
          <p>0 0 1 1 2 2 3 3 0 0 4 4 3 3 5 5 1 6 9 10 10 11 11 12 12 13 13 14 5 5 3 3 12 13 5 5 11 12 10 11 14 15 15 16 16 17 11 12 11 12 16 17 17 18 11 12 17 18 9 10 18 19 19 20 20 21 12 13 3 3 17 18 17 18 20 21 12 13 19 20 21 22 13 23 22 24 23 25 24 26 23 25 25 27 26 28 27 29 15 16 11 12 27 29 28 30 29 31 15 32 27 29 30 33 28 30 11 12 14 15 27 29 29 31 30 33 30 33 29 31 31 34 32 35 33 36 34 37 35 38 36 39 32 35 37 40 38 41 8 9 38 41 32 35 34 37 5 5 35 38 38 41 35 38 32 35 38 41 39 42 40 42 41 42 41 43 42 44 35 38 36 39 43 45 32 35 43 46 44 47 33 36 6 7 10 11 0 0 10 11 45 48 46 49 10 11 6 7 45 48 6 50 47 51 48 52 45 53 6 50 48 52 46 49 45 48 49 54 51 57 52 58 53 59 54 60 55 61 52 58 29 31 28 62 31 34 28 63 46 49 56 64 47 56 38 41 48 65 34 37 57 66 58 67 49 68 58 69 59 70 57 66 59 71 58 67 48 52 58 69 49 68 54 72 49 68 60 73 61 74 60 75 59 71 55 76 54 72 60 73 52 58 55 61 60 75 62 77 53 59 60 75 52 58 60 75 53 59 63 78 64 79 34 37 64 79 44 47 65 80 31 34 62 77 25 27 31 34 53 59 62 77 64 79 66 81 57 66 66 81 61 74 59 71 44 82 67 83 65 84 17 18 68 85 20 21 18 19 20 21 68 85 22 24 24 26 69 86 69 86 24 26 70 87 71 88 69 86 70 87 72 89 69 86 71 88 73 90 69 86 72 89 74 91 75 92 76 93 77 94 78 95 79 96 78 95 80 97 79 96 77 98 81 99 82 100 82 100 81 99 83 101 83 102 84 103 85 104 84 103 70 87 86 105 85 106 87 107 88 108 72 89 71 88 84 103 68 85 89 109 90 110 77 111 79 112 83 102 75 92 91 113 76 93 79 112 73 90 72 89 81 114 77 114 83 114 91 113 92 115 89 109 89 109 93 116 94 117 95 118 83 101 96 119 97 120 95 118 98 121 99 122 95 118 96 119 40 123 42 44 41 43 24 26 26 28 100 124 18 19 40 125 39 126 42 44 101 127 36 39 101 128 100 124 36 129 90 110 102 130 42 44 103 131 100 124 104 132 101 128 105 133 104 134 87 135 86 105 106 136 107 137 106 136 86 105 85 104 84 103 87 135 88 108 87 107 106 138 90 110 94 117 102 130 94 117 93 116 102 130 106 139 108 139 109 139 110 140 102 130 93 116 42 44 111 141 105 142 105 142 112 143 108 144 104 145 105 142 108 144 105 142 111 141 113 146 109 147 108 148 112 149 114 150 112 149 115 151 96 152 88 153 116 154 88 153 117 155 116 154 88 108 114 150 117 156 114 150 118 157 117 156 91 113 119 158 92 115 120 159 121 160 122 161 75 92 123 162 91 113 75 92 80 97 123 162 78 95 123 162 80 97 124 163 125 164 121 160 78 95 119 158 123 162 121 160 120 159 126 165 126 165 120 159 127 166 127 166 128 167 129 168 129 168 97 169 130 170 126 165 127 166 129 168 125 164 131 171 132 172 125 164 133 173 78 95 131 171 134 174 132 172 134 174 131 171 129 168 135 175 136 176 137 177 78 95 138 178 119 158 137 177 132 172 135 175 132 172 134 174 139 179 99 180 96 152 140 181 141 182 99 180 142 183 98 184 99 180 141 182 143 185 98 184 141 182 111 141 110 140 113 146 110 140 144 186 113 146 113 146 145 187 112 143 102 130 110 140 111 141 146 188 147 189 115 190 145 187 146 188 112 143 93 116 144 186 110 140 148 191 149 192 147 189 150 193 148 194 146 188 150 193 151 195 148 194 144 186 152 196 113 146 150 193 149 192 151 195 153 197 154 198 155 199 155 199 154 198 156 200 156 200 154 198 157 201 149 192 158 202 115 190 159 203 149 192 157 201 160 204 161 205 114 206 138 178 162 207 92 115 163 208 130 170 164 209 164 209 130 170 165 210 163 208 166 211 130 170 137 177 163 208 133 173 167 212 168 213 169 214 170 215 164 209 168 213 162 216 140 217 171 218 172 219 173 220 140 217 133 173 172 221 138 178 172 222 162 207 138 178 174 223 175 224 173 225 173 220 176 226 140 217 173 225 175 224 176 227 169 214 174 223 167 212 142 183 99 180 140 181 140 181 96 152 116 154 92 115 171 228 93 116 93 116 171 228 144 186 177 229 178 230 179 231 159 203 180 232 149 192 154 198 153 197 177 229 157 201 179 231 159 203 159 203 179 231 180 232 153 197 181 233 177 229 152 196 182 234 153 197 171 228 183 235 144 186 114 206 184 236 118 237 182 238 161 239 158 240 0 0 3 3 1 6 9 10 0 0 10 11 4 4 0 0 9 10 16 241 15 32 22 24 20 21 13 14 12 13 4 4 17 18 3 3 9 10 17 18 4 4 13 23 20 242 19 20 19 20 18 19 21 22 23 25 31 34 25 27 28 30 27 29 11 12 22 24 15 32 30 33 23 25 30 33 31 34 22 24 30 33 23 25 5 5 13 14 41 43 1 6 5 5 38 41 7 8 8 9 50 55 5 5 41 43 35 38 21 22 39 126 41 243 21 22 18 19 39 126 35 38 42 44 36 39 13 23 21 22 41 243 43 244 36 129 26 28 32 245 43 245 33 245 24 26 23 25 26 28 67 83 43 244 25 27 25 27 62 77 67 83 26 28 25 27 43 244 63 78 33 36 64 79 43 244 67 83 44 82 34 37 33 36 63 78 64 79 33 36 44 47 49 68 45 53 48 52 51 57 54 60 52 58 56 64 46 49 49 54 49 68 59 70 60 73 54 60 56 64 49 54 51 57 31 34 56 64 51 57 56 64 54 60 14 15 10 11 46 49 28 30 14 15 46 49 31 34 28 63 56 64 31 34 51 57 53 59 38 41 34 37 48 65 34 37 64 79 57 66 48 65 34 37 58 67 60 75 61 74 62 77 66 81 64 79 65 80 57 66 66 81 59 71 67 83 62 77 65 84 66 81 62 77 61 74 65 84 62 77 66 81 17 18 76 93 68 85 16 241 22 24 73 246 73 90 22 24 69 86 17 18 16 17 76 93 68 85 90 110 40 123 74 91 16 241 73 246 74 91 76 93 16 17 80 97 74 91 79 96 80 97 75 92 74 91 79 96 74 91 73 246 185 247 95 248 128 167 95 118 77 98 82 100 84 103 71 88 70 87 96 119 85 106 88 108 96 119 83 101 85 106 68 85 76 93 89 109 83 102 72 89 84 103 83 102 79 112 72 89 76 93 91 113 89 109 89 109 92 115 93 116 95 118 82 100 83 101 128 167 95 248 97 169 98 121 95 118 99 122 100 124 26 28 36 129 103 131 24 26 100 124 18 249 68 249 40 249 70 87 24 26 103 131 42 44 40 123 90 110 100 124 101 128 104 134 101 127 42 44 105 142 87 135 84 103 86 105 88 108 106 138 112 149 70 87 107 137 86 105 106 136 107 137 108 250 108 250 107 137 104 132 42 44 102 130 111 141 103 131 107 137 70 87 107 137 103 131 104 132 90 110 89 109 94 117 105 142 113 146 112 143 106 138 109 147 112 149 112 143 146 188 115 190 88 108 112 149 114 150 115 190 160 204 114 206 91 113 123 162 119 158 78 95 77 94 185 247 122 161 121 160 78 95 124 163 126 165 129 168 122 161 185 247 128 167 127 166 120 159 128 167 185 247 122 161 78 95 124 163 121 160 126 165 129 168 128 167 97 169 120 159 122 161 128 167 185 247 77 94 95 248 134 174 129 168 130 170 131 171 124 163 129 168 124 163 131 171 125 164 121 160 125 164 78 95 137 177 125 164 132 172 139 179 134 174 130 170 166 211 139 179 130 170 166 211 135 175 139 179 135 175 166 211 136 176 135 175 132 172 139 179 176 227 130 170 97 169 143 185 97 169 98 184 176 227 97 169 143 185 145 187 156 200 150 193 113 146 155 199 145 187 155 199 156 200 145 187 147 189 149 192 115 190 156 200 157 201 150 193 145 187 150 193 146 188 148 194 151 195 149 192 147 189 146 188 148 194 149 192 180 232 158 202 155 199 152 196 153 197 113 146 152 196 155 199 150 193 157 201 149 192 118 237 184 236 117 155 117 155 184 236 186 251 92 115 162 207 171 228 119 158 138 178 92 115 163 208 164 209 170 215 136 176 163 208 137 177 78 95 133 173 138 178 165 210 130 170 176 227 136 176 166 211 163 208 163 208 187 252 133 173 170 215 167 212 187 252 170 215 187 252 163 208 169 214 168 213 165 210 167 212 170 215 168 213 175 224 165 210 176 227 169 214 165 210 175 224 137 177 133 173 125 164 168 213 164 209 165 210 172 219 140 217 162 216 133 253 173 220 172 219 133 173 187 252 173 225 174 223 173 225 187 252 167 212 174 223 187 252 169 214 175 224 174 223 176 227 143 185 141 182 176 226 141 254 140 217 141 254 142 255 140 217 179 231 178 230 180 232 115 190 158 202 160 204 157 201 177 229 179 231 154 198 177 229 157 201 180 232 178 230 158 202 181 233 153 197 182 234 177 229 181 233 178 230 140 217 116 256 182 238 171 218 140 217 182 238 144 186 183 235 152 196 152 196 183 235 182 234 171 218 182 238 183 257 178 230 182 234 158 202 181 233 182 234 178 230 117 155 186 251 116 154 160 204 158 202 161 205 182 238 184 258 161 239 182 238 116 256 184 258 114 206 161 205 184 236 184 258 116 256 186 259 188 260 189 261 190 262 191 263 190 262 192 264 193 265 194 266 195 267 196 268 197 269 198 270 199 271 196 268 200 272 199 271 200 272 201 273 202 274 203 275 198 270 197 269 204 276 202 274 194 266 204 276 197 269 205 277 206 278 207 279 199 271 201 280 205 277 189 281 205 277 201 280 205 277 208 282 199 271 207 279 196 268 208 282 197 283 207 284 188 285 206 286 188 285 207 284 188 285 191 287 197 283 197 283 191 287 195 288 195 288 194 289 197 283 189 290 188 291 206 278 206 278 205 277 189 290 209 292 192 264 190 262 209 292 190 262 200 293 198 294 209 292 200 293 198 294 200 293 196 295 189 261 201 296 190 262 191 263 188 260 190 262 210 297 193 265 192 264 193 265 191 263 192 264 195 267 191 263 193 265 210 298 203 275 193 299 203 275 202 274 204 276 204 276 193 299 203 275 204 276 194 266 193 265 196 268 207 279 197 269 199 271 208 282 196 268 190 300 201 273 200 272 197 269 202 274 198 270 210 301 192 302 209 303 209 303 203 275 210 301 209 303 198 270 203 275 205 277 207 279 208 282 211 304 212 305 213 306 211 307 214 308 215 309 215 310 216 311 217 312 211 304 218 313 219 314 211 307 215 309 220 315 218 313 211 307 220 315 219 314 221 316 212 305 216 311 213 317 222 318 212 305 223 319 213 306 224 320 216 311 222 318 214 321 211 321 213 321 225 322 220 315 226 323 218 313 220 315 225 322 221 316 227 324 223 325 228 326 229 327 217 328 228 326 217 312 216 311 226 329 230 330 231 331 230 330 232 332 231 331 227 324 231 333 232 334 226 329 229 327 228 326 233 335 234 336 225 322 234 337 226 323 235 338 234 339 235 340 236 341 236 342 237 343 231 333 235 344 231 331 237 345 235 340 237 346 236 341 211 304 219 314 212 305 215 310 214 347 216 311 222 348 213 349 223 325 212 350 221 316 223 325 222 348 223 325 232 334 216 311 214 347 213 317 223 325 227 324 232 334 219 314 218 313 225 322 230 330 224 320 232 332 228 326 216 311 230 330 230 351 216 351 224 351 232 332 224 320 222 318 220 352 215 310 229 327 229 327 215 310 217 312 221 316 219 314 225 322 227 324 236 342 231 333 221 316 225 322 227 324 226 329 220 352 229 327 226 329 228 326 230 330 233 353 225 322 226 323 227 324 225 322 236 342 234 337 233 353 226 323 225 322 234 336 236 342 235 344 226 329 231 331 238 354 239 355 240 356 239 355 241 357 240 356 242 358 241 357 239 355 243 359 241 357 242 358 243 360 244 361 241 362 245 363 242 358 238 354 243 359 242 358 246 364 246 365 240 366 247 367 241 362 248 368 249 369 240 370 250 371 251 372 241 373 249 374 250 371 252 375 253 376 254 377 249 374 248 378 250 371 248 378 253 379 250 371 240 366 251 380 253 376 250 371 253 379 251 372 255 381 254 377 253 379 247 367 253 376 256 382 254 377 255 381 252 375 257 383 258 384 259 385 257 383 260 386 258 384 260 387 247 367 258 388 244 389 246 364 260 386 259 390 258 388 247 367 257 391 261 392 262 393 257 383 259 385 261 394 263 395 259 390 247 367 261 394 259 385 263 396 263 395 247 367 264 397 244 361 257 391 262 393 241 362 262 393 255 398 255 381 262 399 252 375 262 399 256 400 252 375 265 401 264 402 247 403 265 401 256 400 262 399 266 404 264 397 267 405 238 354 242 358 239 355 245 406 238 407 240 366 246 408 242 358 245 363 244 389 243 359 246 364 246 365 245 406 240 366 240 370 241 409 250 371 248 368 241 362 255 398 248 378 255 381 253 379 247 367 240 366 253 376 256 382 253 376 252 375 257 383 244 389 260 386 260 387 246 365 247 367 266 410 261 394 263 396 261 392 266 411 267 412 244 361 262 393 241 362 262 393 261 392 265 413 256 400 265 401 247 403 261 392 267 412 265 413 265 401 267 414 264 402 266 404 263 395 264 397 268 415 269 416 270 417 271 418 272 419 273 420 274 421 275 422 269 423 276 424 277 425 278 426 278 426 277 425 279 427 270 428 279 427 280 429 281 430 282 431 268 432 283 433 284 434 285 435 286 436 270 428 287 437 288 438 281 439 270 417 268 415 289 440 269 416 273 441 290 442 269 416 289 440 273 441 269 416 281 439 268 415 270 417 280 429 287 437 270 428 279 443 277 425 280 444 280 444 277 425 283 445 277 425 284 434 283 445 283 433 291 446 280 429 287 437 280 429 291 446 287 437 291 447 292 448 285 449 282 450 293 451 293 451 292 448 291 447 294 452 286 436 292 448 292 448 286 436 287 437 291 447 285 449 293 451 294 452 292 448 288 453 277 425 276 424 271 418 271 418 289 454 277 425 289 454 268 432 284 434 284 434 277 425 289 454 268 432 282 431 285 435 285 435 284 434 268 432 283 433 285 435 291 446 271 455 276 456 278 457 278 457 275 422 272 458 274 421 295 459 275 422 275 422 295 459 296 460 296 460 272 458 275 422 278 457 272 458 271 455 273 420 272 419 296 460 290 461 273 420 296 460 271 418 273 420 289 454 290 461 295 459 274 421 274 421 269 423 290 461 290 461 296 460 295 459 275 422 278 426 279 427 269 423 275 422 279 427 270 428 269 423 279 427 282 431 281 430 293 462 288 453 292 448 281 430 293 462 281 430 292 448 270 428 286 436 294 452 294 452 288 453 270 428 297 463 298 464 299 465 297 463 299 465 300 466 297 463 300 466 301 467 297 463 301 467 302 468 297 469 302 470 298 471 304 476 306 478 307 479 304 476 307 479 305 477 303 480 306 478 304 476 305 477 309 483 308 484 307 486 306 486 309 486 310 487 311 488 312 489 311 490 313 491 314 492 315 493 310 494 313 491 312 489 314 495 316 496 310 487 315 497 311 488 312 489 316 496 313 498 313 498 310 487 312 489 312 499 311 490 314 492 313 491 316 500 314 492 311 490 315 493 313 491</p>
        </triangles>
        <triangles material="qmat_e137245c464f31d5" count="18">
          <input semantic="VERTEX" source="#vertices" offset="0" />
          <input semantic="NORMAL" source="#normals" offset="1" />
          <p>6 7 2 2 7 8 7 8 2 2 8 9 2 2 1 1 37 40 6 7 50 55 47 56 50 55 38 41 47 56 8 9 2 2 37 40 6 7 0 0 2 2 37 40 1 1 38 41 50 55 8 9 38 41 6 7 7 8 50 55 298 471 302 470 301 472 298 471 301 472 300 473 298 471 300 473 299 474 303 475 304 476 305 477 308 481 306 478 303 480 307 482 309 483 305 477 305 477 308 484 303 475 309 483 306 485 308 484</p>
        </triangles>
      </mesh>
    </geometry>
  </library_geometries>
  <library_visual_scenes>
    <visual_scene id="scene">
      <node id="base_dae">
        <instance_geometry url="#geometry">
          <bind_material>
            <technique_common>
              <instance_material symbol="qmat_103403739752e509" target="#qmat_103403739752e509" />
              <instance_material symbol="qmat_1163a26947310579" target="#qmat_1163a26947310579" />
              <instance_material symbol="qmat_4b294f1aa1dfaafb" target="#qmat_4b294f1aa1dfaafb" />
              <instance_material symbol="qmat_e137245c464f31d5" target="#qmat_e137245c464f31d5" />
            </technique_common>
          </bind_material>
        </instance_geometry>
      </node>
    </visual_scene>
  </library_visual_scenes>
  <scene>
    <instance_visual_scene url="#scene" />
  </scene>
</COLLADA>