<?xml version='1.0' encoding='utf-8'?>
<COLLADA xmlns="http://www.collada.org/2005/11/COLLADASchema" version="1.4.1">
  <asset>
    <created>2026-09-14T00:00:00Z</created>
    <modified>2026-09-14T00:00:00Z</modified>
    <unit name="metre" meter="1" />
    <up_axis>Z_UP</up_axis>
  </asset>
  <library_effects>
    <effect id="qmat_4b294f1aa1dfaafb_effect">
      <profile_COMMON>
        <technique sid="common">
          <lambert>
            <emission>
              <color sid="emission">0 0 0 1</color>
            </emission>
            <diffuse>
              <color sid="diffuse">0.6717055 0.6924257 0.7742702 1</color>
            </diffuse>
            <reflectivity>
              <float sid="specular">0.5</float>
            </reflectivity>
          </lambert>
        </technique>
      </profile_COMMON>
    </effect>
    <effect id="qmat_fbc365fc3facc314_effect">
      <profile_COMMON>
        <technique sid="common">
          <lambert>
            <emission>
              <color sid="emission">0 0 0 1</color>
            </emission>
            <diffuse>
              <color sid="diffuse">0 0 0 1</color>
            </diffuse>
            <index_of_refraction>
              <float sid="ior">1.45</float>
            </index_of_refraction>
          </lambert>
        </technique>
      </profile_COMMON>
    </effect>
  </library_effects>
  <library_materials>
    <material id="qmat_4b294f1aa1dfaafb" name="qmat_4b294f1aa1dfaafb">
      <instance_effect url="#qmat_4b294f1aa1dfaafb_effect" />
    </material>
    <material id="qmat_fbc365fc3facc314" name="qmat_fbc365fc3facc314">
      <instance_effect url="#qmat_fbc365fc3facc314_effect" />
    </material>
  </library_materials>
  <library_geometries>
    <geometry id="geometry" name="calf_mirror_dae">
      <mesh>
        <source id="positions">
          <float_array id="positions_array" count="249">0.0149275139 0.0162067078 -0.218448922 0.0014616393 0.0182425398 -0.228043944 -0.0124593424 0.0196221303 -0.222709343 0.0124148708 0.00508374628 -0.231079459 -0.00344016915 0.00966934673 -0.234367669 -0.0154564017 -0.016177943 -0.199200734 0.0163138602 -0.0162672419 -0.21940051 0.00820244383 -0.0111136911 -0.23285374 -0.00585833285 -0.00731004588 -0.233957008 -0.00805905554 -0.0200408697 -0.226060092 -0.016467277 0.0138460286 -0.198616043 -0.022821689 0.011330897 -0.21981746 -0.0199532229 0.00260559143 -0.22636196 -0.0250476971 -0.00699221529 -0.215852141 -0.0166328587 -0.0139036542 -0.226558551 -0.022958044 -0.0125983469 -0.208802864 -0.0230505057 0.010509558 -0.207621753 -0.00933337677 0.00299167004 0.0187553987 0.0109514073 0.00636490248 0.000224933829 0.0154330237 0.00383242383 0.0267891865 -0.00249242154 0.00722011551 0.025679078 0.00379438139 0.00308272056 0.0316962078 -0.00531375129 -0.00505259633 0.0248295274 -0.0172817614 -0.00682821916 0.00753719499 0.0144641474 -0.00690203113 0.0262876209 0.0112748826 -0.00504091522 0.00172121217 0.0152573334 -0.00302482117 0.0285312366 -0.010513356 0.00756851444 0.0128396833 -0.0182112809 0.00787318684 -0.00256685656 -0.0181523003 0.00170205778 -0.0234586187 0.0170322414 -0.00657674298 -0.0482313298 0.0148912389 0.0058018202 -0.0314258151 -0.0163158141 -0.00781830586 -0.00645305356 -0.0112510798 -0.00882133842 -0.0366706401 0.000184507546 -0.0165432114 -0.0423525609 0.00325692352 -0.00382588268 -0.083736375 0.00409326004 -0.0141329458 -0.0705140829 0.0199843459 -0.0106742466 -0.0665703416 -0.0100885583 0.0135580078 -0.0278370287 0.00698416075 0.0101508489 -0.0893955454 0.0198926851 0.00950534828 -0.0646928996 0.0283079445 -0.00260835537 -0.0991963074 0.0170893017 -0.0167861432 -0.0942776799 0.0322016068 0.00472043222 -0.141548395 0.028903272 -0.00836831145 -0.131368816 0.0206856038 0.0155692641 -0.0962960348 0.0127212852 -0.00843536202 -0.119407244 0.0109328143 6.30160575e-05 -0.128539518 0.0177849978 0.0110619832 -0.153666496 0.0214250591 -0.0124675818 -0.143074885 0.011204116 -0.008585684 -0.155717686 0.0160678159 -0.0129737062 -0.187150344 0.00589711498 0.00526116183 -0.161009699 -0.0111626191 -0.00497128163 -0.18987684 -0.00167254778 -0.00552612823 -0.177645087 0.00309404358 -0.0121947853 -0.179386124 0.0308286883 -0.00235541235 -0.180102989 0.0267347358 0.00699330308 -0.194494903 0.0229207836 0.00440769922 -0.211734638 0.0230189394 -0.00499947974 -0.211068168 -0.0118157379 0.00497204438 -0.189293832 0.0114781037 0.0140681667 -0.184448108 0.0270108562 -0.00700730598 -0.194288313 -0.00193387677 0.00592443533 -0.176953241 0.00763336336 0.0180542339 -0.0561650619 -0.00132157223 -0.00342175411 -0.182894483 -0.00182906422 -0.00582902133 -0.177293241 0.0266778395 -0.0070301923 -0.194306612 0.00550409639 -0.0136631448 -0.180938855 0.0145527292 -0.0166473482 -0.217872486 -0.00985810719 -0.0180640016 -0.20251824 -0.0187547151 -0.00652253022 -0.196832389 -0.0113158058 -0.00448090071 -0.19000414 -0.0129168024 0.0179394372 -0.200654998 0.0178717449 0.0138581321 -0.188779071 0.0174580459 0.0132312104 -0.219989657 -0.00147891475 0.00736952061 -0.176572725 -0.0108455028 0.00425710017 -0.18999964 -0.00132046954 0.00340289087 -0.182893485 0.0221714154 -0.00435443129 -0.210335374 0.0224621203 0.00504340325 -0.210796982 0.0261917002 0.00486692786 -0.196380287 0.022433307 -0.00349272811 -0.197818279</float_array>
          <technique_common>
            <accessor source="#positions_array" count="83" stride="3">
              <param name="X" type="float" />
              <param name="Y" type="float" />
              <param name="Z" type="float" />
            </accessor>
          </technique_common>
        </source>
        <source id="normals">
          <float_array id="normals_array" count="390">0.608115256 0.746837676 -0.269126862 0.170256525 0.841168761 -0.513271689 -0.337988287 0.89275974 -0.297899187 0.677030981 0.190038055 -0.710995436 -0.123687968 0.32190448 -0.938657999 0.535448551 -0.000389728084 0.844567776 0.535158277 -8.22770471e-06 0.844751775 0.536537707 -0.00182285288 0.843874395 0.618813217 -0.703978837 -0.348545492 0.399342716 -0.412333906 -0.818844438 -0.219811887 -0.209734917 -0.952729762 -0.159747645 -0.9018448 -0.401443213 0.533998609 0.00151410908 0.845484018 -0.617842138 0.645639181 0.44879961 -0.829131603 0.456325352 -0.32296744 -0.702035367 0.089087069 -0.706547856 -0.965800583 -0.208224788 -0.154504731 -0.630290449 -0.509821534 -0.585504889 -0.58446461 -0.71440053 0.384750664 -0.833399057 -0.505364358 0.223724961 -0.874781668 0.395056307 0.280512959 0.0616874173 -0.994374454 -0.0861052722 0.0680805743 -0.992026389 -0.106059678 0.0598503724 -0.994965792 -0.080380179 -0.398944825 0.726861417 0.559030831 -0.824257731 0.232931554 0.51608336 -0.701579392 -0.0306745414 0.711930811 -0.107988507 -0.964345753 0.24161081 0.0453218967 -0.998357058 0.0350593962 -0.0728125647 -0.824352145 0.561374962 0.0595333092 -0.998122156 -0.014421694 0.172110796 0.968921125 0.177678719 0.0775927007 0.996973336 0.00485169841 0.334095895 0.911393225 0.24029626 -0.0868793502 0.994296074 -0.0618650131 0.815415263 0.397993237 0.420356214 0.650298774 0.544078708 0.530179024 -0.945041478 0.0868401155 0.315206975 -0.822986364 0.017495973 0.567791641 0.047103975 -0.998057961 -0.0407622419 0.983059585 -0.121915542 -0.136859104 -0.515941679 0.812357664 0.271807194 -0.98442626 0.135094151 0.112492129 -0.981223226 0.0590699092 -0.183607623 0.130673811 0.989901364 0.0549516827 0.773210287 -0.585984647 0.242420673 0.755293787 0.637056828 0.153915167 -0.933487654 -0.352434844 -0.0662607551 -0.808680952 -0.552624702 -0.201596275 0.089043051 -0.972970188 0.213073462 -0.958063424 -0.125570238 -0.257578433 -0.666801393 -0.713007987 -0.216784522 0.774704158 -0.598837495 0.203044459 0.193957716 -0.97381711 0.118577622 -0.816368341 0.532060623 -0.224620134 -0.889853954 0.418612659 -0.181448162 0.833381712 0.512641728 0.206575468 0.985131621 -0.112011626 0.130265266 0.134024382 -0.989499927 -0.0541051514 0.914449751 0.404322296 -0.0174681712 0.816104949 -0.577795863 0.0111673716 0.495038986 0.868589878 0.0220910106 -0.805398941 -0.578296721 -0.130021065 -0.997554243 0.0415721312 -0.0561902523 -0.0772101656 0.994922042 0.0645660087 0.0996234342 -0.994710982 -0.0250055399 -0.70127964 -0.69322443 0.166273326 0.273173809 -0.961642504 0.0248945989 -0.900011003 -0.221669003 0.375290573 -0.600126445 -0.720491469 0.347476959 -0.650071025 -0.642655671 0.405464441 -0.341492474 -0.90464294 0.254958779 0.984172523 -0.153323635 -0.0888609663 0.912580192 0.375314981 -0.162283942 0.970624566 0.0107402978 -0.240359202 0.969823956 -0.014007342 -0.243403584 -0.0840898901 0.995616257 -0.0409536958 -0.0669389516 0.99158597 -0.110798948 -0.0697613209 0.988678277 -0.132848054 0.0810116231 0.991859555 0.0982433334 -0.0624593943 -0.994724035 -0.0813812464 -0.528628707 -0.0533103757 -0.847177446 -0.525823236 -0.0655691624 -0.848062873 -0.540356338 0.00270028645 -0.841431916 -0.522435606 0.0790411904 -0.849007368 0.898990691 0.0819365382 0.430234998 -0.109113246 -0.481047958 0.869877636 0.137334719 0.877349973 0.459778458 0.546236873 0.755727649 0.361249238 0.16914387 0.965503395 0.197973683 -0.49612844 0.843371034 0.206353858 -0.843950391 -0.0864748061 0.529405177 -0.289597452 0.944752276 0.153546259 0.914905667 -0.358825684 -0.184910238 -0.510601878 -0.131879598 -0.849643171 -0.503168821 -0.103561148 -0.857960522 -0.504521191 -0.108590923 -0.856543243 -0.0648786128 -0.992529094 -0.103328377 -0.514421701 -0.147131547 -0.844821036 -0.54243511 0.0136216711 -0.839987278 -0.0301440768 0.968913078 0.245558128 0.139563844 0.770851314 0.621538579 0.919490457 -0.00702276034 0.393049538 -0.135929331 -0.927844107 0.347316206 0.631898344 -0.75633806 -0.169284239 -0.222245231 -0.91219604 0.344246209 -0.536003768 -0.00405726489 -0.844205856 -0.532678723 0.00631302781 -0.846293986 -0.534374177 -0.00143919082 -0.845246792 0.513291895 0.0829697177 0.854194045 -0.607912362 0.580072463 0.542179465 -0.536115825 -0.00558371469 -0.844125986 0.291130602 0.948389828 0.125697106 0.719961762 0.630427718 -0.290199757 -0.37233609 0.841982245 0.390425056 -0.167094857 0.00249530235 0.985937655 -0.597393692 -0.096293658 0.796145916 -0.0541916676 -0.946857154 0.317056507 -0.756942332 0.222689807 0.614367664 0.518842101 -0.0283654965 0.854399383 0.179434687 -0.766951144 0.616108 0.932961643 0.0913843364 -0.348183155 0.898568332 0.049520988 -0.436030477 0.856135786 0.505270362 -0.10832075 0.242103219 -0.776321352 0.58198899 -0.537784636 -0.00744500803 -0.843049407 0.336950034 0.935577989 0.105634041 0.564709902 -0.161641508 0.809305131 -0.531795204 -0.678415596 0.506898582 -0.520542145 -0.708795249 0.476072669</float_array>
          <technique_common>
            <accessor source="#normals_array" count="130" stride="3">
              <param name="X" type="float" />
              <param name="Y" type="float" />
              <param name="Z" type="float" />
            </accessor>
          </technique_common>
        </source>
        <vertices id="vertices">
          <input semantic="POSITION" source="#positions" />
        </vertices>
        <triangles material="qmat_4b294f1aa1dfaafb" count="124">
          <input semantic="VERTEX" source="#vertices" offset="0" />
          <input semantic="NORMAL" source="#normals" offset="1" />
          <p>17 21 18 22 19 23 20 24 17 25 21 26 22 27 23 28 24 29 24 29 23 28 25 30 19 31 18 32 20 24 22 33 26 34 25 35 17 36 22 33 25 35 17 25 23 37 22 38 21 39 17 21 19 23 26 40 24 40 25 40 20 24 18 32 27 41 28 42 29 43 23 37 27 41 18 32 28 44 25 30 23 28 30 45 31 46 25 35 30 45 32 47 33 48 34 49 29 43 32 47 23 37 29 43 33 48 32 47 29 43 35 50 33 48 35 50 36 51 33 48 37 52 32 53 34 49 32 53 37 52 30 45 38 54 39 55 29 43 40 56 31 46 41 57 34 49 36 51 42 58 43 59 41 57 44 60 45 61 40 56 43 59 35 50 46 62 36 51 47 63 35 50 39 55 45 61 43 59 48 64 42 58 46 62 49 65 46 62 50 66 49 65 47 63 50 66 46 62 44 60 49 65 51 67 52 68 53 69 54 70 54 70 55 71 50 66 52 68 54 70 50 66 43 59 56 72 57 73 58 74 56 72 59 75 60 76 57 77 58 78 48 64 57 73 61 79 54 70 53 69 62 80 58 81 59 82 53 83 61 84 57 84 63 84 18 85 17 36 25 35 26 86 22 27 24 29 20 24 27 41 17 25 17 25 27 41 23 37 23 37 27 41 28 42 19 31 20 24 21 87 28 42 38 54 29 43 28 44 18 32 31 46 30 45 23 28 32 53 38 88 28 44 40 56 31 46 18 85 25 35 64 89 38 88 40 56 34 49 33 48 36 51 28 44 31 46 40 56 38 54 64 89 39 55 37 52 34 49 42 58 29 43 39 55 35 50 41 57 30 45 37 52 41 57 31 46 30 45 64 89 40 56 45 61 44 60 41 57 37 52 43 59 40 56 41 57 37 52 42 58 44 60 35 50 47 63 46 62 36 51 46 62 42 58 39 55 64 89 48 64 39 55 48 64 47 63 47 63 52 68 50 66 48 64 52 90 47 63 48 64 64 89 45 61 44 60 42 58 49 65 56 72 43 59 44 60 52 68 60 91 53 69 52 90 63 92 60 76 51 67 50 66 55 71 52 90 48 64 61 79 63 92 52 90 61 79 62 93 56 72 44 60 51 67 49 65 50 66 44 60 51 67 62 93 48 64 43 59 57 73 59 75 56 72 62 93 58 74 57 73 56 72 60 76 63 92 57 77 54 94 62 95 51 96 59 97 62 80 53 69 55 98 54 94 51 96 60 99 58 81 53 83 65 100 66 101 67 102 68 103 69 104 67 102 70 105 69 104 68 103 69 106 70 107 71 108 68 109 67 102 66 101 65 100 72 110 66 101 69 106 71 108 73 111 74 112 75 113 73 114 76 115 77 116 78 117 77 116 73 114 71 118 77 116 71 118 72 110 72 119 79 120 77 116 75 113 80 121 79 122 81 123 80 121 75 113 80 121 81 123 79 122 77 116 81 124 78 117 81 124 76 115 78 117 81 123 75 113 74 112 77 116 79 120 81 124 73 111 75 125 69 106 69 104 75 113 79 122 67 102 79 122 82 126 82 126 79 122 72 110 82 126 65 100 67 102 65 100 82 126 72 110 79 122 67 102 69 104 73 114 77 116 76 115 74 112 73 114 76 115 74 127 76 115 81 124 71 128 70 105 68 103 66 129 71 128 68 103 66 101 72 110 71 118</p>
        </triangles>
        <triangles material="qmat_fbc365fc3facc314" count="30">
          <input semantic="VERTEX" source="#vertices" offset="0" />
          <input semantic="NORMAL" source="#normals" offset="1" />
          <p>0 0 1 1 2 2 1 1 3 3 4 4 0 5 5 6 6 7 3 3 6 8 7 9 4 4 7 9 8 10 6 8 9 11 7 9 0 5 10 12 5 6 10 13 0 0 2 2 11 14 4 4 12 15 11 14 12 15 13 16 14 17 8 10 9 11 12 15 8 10 14 17 5 18 15 19 9 11 12 15 14 17 13 16 13 16 14 17 15 19 16 20 13 16 15 19 3 3 0 0 6 8 1 1 0 0 3 3 4 4 3 3 7 9 6 8 5 18 9 11 11 14 16 20 2 2 16 20 10 13 2 2 12 15 4 4 8 10 11 14 2 2 4 4 2 2 1 1 4 4 5 18 10 13 15 19 10 13 16 20 15 19 16 20 11 14 13 16 8 10 7 9 9 11 9 11 15 19 14 17</p>
        </triangles>
      </mesh>
    </geometry>
  </library_geometries>
  <library_visual_scenes>
    <visual_scene id="scene">
      <node id="calf_mirror_dae">
        <instance_geometry url="#geometry">
          <bind_material>
            <technique_common>
              <instance_material symbol="qmat_4b294f1aa1dfaafb" target="#qmat_4b294f1aa1dfaafb" />
              <instance_material symbol="qmat_fbc365fc3facc314" target="#qmat_fbc365fc3facc314" />
            </technique_common>
          </bind_material>
        </instance_geometry>
      </node>
    </visual_scene>
  </library_visual_scenes>
  <scene>
    <instance_visual_scene url="#scene" />
  </scene>
</COLLADA>