<?xml version='1.0' encoding='utf-8'?>
<COLLADA xmlns="http://www.collada.org/2005/11/COLLADASchema" version="1.4.1">
  <asset>
    <created>2026-09-14T00:00:00Z</created>
    <modified>2026-09-14T00:00:00Z</modified>
    <unit name="metre" meter="1" />
    <up_axis>Z_UP</up_axis>
  </asset>
  <library_effects>
    <effect id="qmat_4b294f1aa1dfaafb_effect">
      <profile_COMMON>
        <technique sid="common">
          <lambert>
            <emission>
              <color sid="emission">0 0 0 1</color>
            </emission>
            <diffuse>
              <color sid="diffuse">0.6717055 0.6924257 0.7742702 1</color>
            </diffuse>
            <reflectivity>
              <float sid="specular">0.5</float>
            </reflectivity>
          </lambert>
        </technique>
      </profile_COMMON>
    </effect>
    <effect id="qmat_fbc365fc3facc314_effect">
      <profile_COMMON>
        <technique sid="common">
          <lambert>
            <emission>
              <color sid="emission">0 0 0 1</color>
            </emission>
            <diffuse>
              <color sid="diffuse">0 0 0 1</color>
            </diffuse>
            <index_of_refraction>
              <float sid="ior">1.45</float>
            </index_of_refraction>
          </lambert>
        </technique>
      </profile_COMMON>
    </effect>
  </library_effects>
  <library_materials>
    <material id="qmat_4b294f1aa1dfaafb" name="qmat_4b294f1aa1dfaafb">
      <instance_effect url="#qmat_4b294f1aa1dfaafb_effect" />
    </material>
    <material id="qmat_fbc365fc3facc314" name="qmat_fbc365fc3facc314">
      <instance_effect url="#qmat_fbc365fc3facc314_effect" />
    </material>
  </library_materials>
  <library_geometries>
    <geometry id="geometry" name="calf_dae">
      <mesh>
        <source id="positions">
          <float_array id="positions_array" count="249">0.00805696566 0.0192807652 -0.214984283 -0.0188801829 0.0127401445 -0.196989968 0.0174623299 0.0122717805 -0.220075965 0.00576529652 0.0112505564 -0.233306929 -0.00810754392 0.0179649983 -0.229014844 -0.00749158021 -0.0193247348 -0.204236984 -0.00323803327 -0.0189261567 -0.229977652 -0.00846711174 -0.00982667133 -0.232299551 0.00479575526 -0.00978811271 -0.233700559 0.0173096843 -0.0114490427 -0.220308349 0.0111361034 -0.00108159008 -0.23303932 -0.00719224103 0.00751362834 -0.234095797 -0.0182449725 0.018199889 -0.214919284 -0.0208011959 0.00345665612 -0.225785896 -0.0253999755 0.00779511733 -0.211569458 -0.023199711 -0.00837303698 -0.207298517 -0.0229544044 -0.0141514326 -0.216096848 0.0103821568 0.0059653325 0.00261882343 -0.00974056311 -0.00308682187 0.0197715554 0.0112558957 -0.00328462501 2.9789102e-05 0.0123813096 -0.00307576521 0.0300712101 -0.00973249134 0.0029580025 0.0188123174 -0.0181831475 -0.00726794032 0.00475321105 0.00323717948 0.0044375672 0.0317287482 0.0156899001 0.00411439547 0.025641527 -0.00155635702 -0.00762822386 0.0257974416 -0.016284382 -0.00765219517 -0.00585186994 0.0136460047 -0.00688877469 0.0263597239 -0.00425814837 -0.0150247002 -0.0355167389 0.0045405766 -0.00765409414 -0.0375637896 0.0162791647 -0.00566177582 -0.03992882 -0.0165587645 0.00995489676 -0.0119786467 0.0181574039 0.00717272935 -0.0546277314 0.0207429323 0.010206257 -0.0673076361 -0.0177316926 -0.00010342116 -0.0258346889 -0.00327097485 -0.0112651521 -0.0569769107 0.0114527866 0.0165103581 -0.0586967207 0.00596159557 -0.0145426979 -0.0748205036 0.0145006366 -0.0160149112 -0.0644875988 -0.000862938934 0.0141899586 -0.055658564 0.00993188098 -7.53755812e-05 -0.10878741 0.0146982372 -0.0138348164 -0.112014867 0.0286041424 -0.00243146019 -0.100713633 0.0209145248 0.0152330203 -0.117837355 0.0233296063 -0.013418667 -0.10192018 0.0124529945 0.00886418298 -0.115990058 0.0273034237 0.00983506534 -0.146268055 0.0121958656 0.00998034049 -0.16127488 0.00675077504 -0.000526478805 -0.155751601 0.0149230678 -0.00936403498 -0.153523684 -0.00208463776 -0.00609950116 -0.176996201 0.0206383858 0.0128084151 -0.190218866 0.0034197839 0.0123095084 -0.179509535 -0.00167396571 0.00556419324 -0.177175507 0.0331310071 0.00136841019 -0.153859973 0.0307871606 -0.00606509112 -0.149618208 0.0269489828 -0.00558501668 -0.195067257 0.0159441531 -0.0142095657 -0.187294886 0.0268674586 0.00559845893 -0.195178464 0.023243295 -0.00460118242 -0.211438984 0.0219225213 0.00491879275 -0.210829124 -0.0117557943 -0.00490016025 -0.189700559 -0.0147158038 0.00688661868 0.0114576304 0.0219732523 -0.0107199363 -0.160501376 -0.0116236145 0.00469024014 -0.189607248 -0.00132097385 0.00342181046 -0.182892963 0.0266778227 0.00703047449 -0.194306627 -0.00182906457 0.0058290828 -0.177293241 0.00550422398 0.0136633385 -0.180939004 0.014552475 0.0166475866 -0.217872292 -0.00985816587 0.0180640463 -0.202518404 -0.0187548436 0.00652211346 -0.196832091 -0.0113160163 0.00448092679 -0.19000417 -0.0129166516 -0.0179394148 -0.200654924 0.0181993209 -0.013725169 -0.189004868 0.0174580496 -0.0132311126 -0.219989672 0.0261945594 -0.00487032067 -0.19633399 -0.00296495948 -0.004641023 -0.178768009 0.00235673483 -0.0116414856 -0.179067507 -0.0108454991 -0.00425703544 -0.189999655 0.0221714117 0.00435453793 -0.210335344 0.0224621166 -0.00504333526 -0.210796982 0.022434881 0.00349271391 -0.197815731</float_array>
          <technique_common>
            <accessor source="#positions_array" count="83" stride="3">
              <param name="X" type="float" />
              <param name="Y" type="float" />
              <param name="Z" type="float" />
            </accessor>
          </technique_common>
        </source>
        <source id="normals">
          <float_array id="normals_array" count="378">0.534077048 0.107494421 0.838574171 -0.30313006 0.41818884 0.856288671 0.539883196 0.0244001634 0.841386199 0.198175982 0.95787549 -0.207848206 0.674716532 0.516355634 -0.52738452 0.324559987 0.477174461 -0.816679478 -0.234146327 0.784815133 -0.573795021 0.0911500379 -0.736659408 0.670093 -0.056807369 -0.827039719 -0.559265792 -0.501202583 -0.349701732 -0.791520476 0.285611272 -0.366761923 -0.885387957 0.698891461 -0.586096764 -0.409928352 0.574180424 -0.0401911177 -0.817741752 -0.274351925 0.171129122 -0.946280003 -0.52266413 0.848767877 -0.0800959021 -0.779251039 0.0839269534 -0.621066868 -0.970391035 0.241514862 0.0034447487 -0.790932894 -0.349674016 0.502148688 -0.776295602 -0.607782483 -0.167229146 0.546393037 -0.0117202103 0.837446868 0.86551106 -0.0409280322 0.499214947 0.630653203 0.0636649728 0.773448944 0.832951903 0.507505536 0.220520362 0.391037583 0.909489989 0.141129807 -0.80105567 0.0680361763 0.594710767 -0.778365195 0.201535761 0.594584703 -0.782743871 -0.592994332 0.188864231 0.0200584587 -0.995381534 0.0938788578 0.0530618727 -0.998184323 -0.0285049751 0.0509458184 -0.998489439 -0.0205760896 -0.35241577 -0.563926935 0.746853113 -0.486279637 -0.871819139 -0.0588519201 0.0323386379 -0.931536734 0.362206429 -0.0826422274 -0.978771687 0.187553212 0.395308793 -0.877399027 0.271849066 0.924536467 0.379752487 -0.0319430791 0.800665438 -0.558021426 0.218052655 0.253440142 0.957163095 0.140024722 0.791591048 0.550672233 0.264846563 0.853674352 0.480923176 0.199882612 -0.975027978 -0.0662625805 -0.211966336 -0.781324625 -0.579029799 -0.23292987 0.37586236 0.889932752 0.258354783 -0.357473522 -0.928390741 -0.101505384 0.418338448 -0.901273549 0.112689644 -0.961600423 0.271810383 -0.037996389 -0.583276629 0.797937334 -0.151935518 -0.983174801 -0.0677488372 -0.169639185 -0.507697105 -0.853073537 -0.120454043 0.989153981 -0.0802268162 0.123036839 0.145573854 0.988352895 -0.0443483852 0.578915358 -0.814390957 0.0403035581 -0.818021595 0.565637708 -0.10437756 0.567390442 0.822938859 -0.0289770048 -0.418644845 0.888296425 0.188854471 -0.946177483 -0.0359788612 0.32164222 -0.500455618 -0.86295718 0.0696351752 -0.453794986 -0.856048882 0.24748832 0.494239271 0.869317055 -0.00392014813 -0.319479823 0.908375382 0.269790411 -0.791778266 0.40938735 0.453309089 0.988974631 0.144299105 -0.0332704149 0.802370787 -0.59668839 -0.0128118135 0.955763578 -0.246213853 -0.160918191 0.25070703 -0.967781365 0.0233500451 0.958380222 0.230213359 -0.168846458 0.957233727 0.0953426138 -0.273154527 -0.0315968208 0.998646796 -0.0413061529 -0.0238194149 0.99907285 -0.0358611159 -0.0268868562 0.998915613 -0.0380088724 -0.528448761 -0.0140271951 -0.848849297 -0.527415395 -0.0187584404 -0.849400461 -0.533585012 0.0104092332 -0.845682383 -0.529508591 0.118481599 -0.839989722 -0.529756248 0.119883671 -0.839634538 -0.528114021 0.110699452 -0.841927111 -0.00773770129 0.992026865 0.125788614 -0.644588351 0.68158859 0.346327662 0.0518523268 0.997691453 0.0438537672 0.611065805 0.123265482 0.781923354 0.00731706806 -0.696236908 0.717774808 0.0709999204 -0.992827713 -0.0961881652 0.0584122501 0.996067584 0.0666134059 0.214541018 -0.976035714 0.0364205241 -0.634169996 -0.673929751 0.379007965 0.940859258 0.149993494 -0.303785741 -0.0257571731 -0.997960329 -0.0584097244 -0.524967015 -0.0926173404 -0.846068382 -0.0251895078 -0.998207748 -0.054284215 -0.0339963809 0.998497128 -0.0429857634 -0.527359426 0.106564976 -0.84293294 -0.78089118 0.00468500191 0.624649465 -0.534630597 0.015589512 -0.844942033 -0.0301228482 -0.968895793 0.245628923 0.919491708 0.00712255342 0.393044919 0.139548019 -0.770811975 0.621590912 -0.135931522 0.927845001 0.347312987 0.631887317 0.756346703 -0.169286862 -0.222250417 0.912195206 0.344245017 -0.536006093 0.00405164529 -0.844204366 -0.534375727 0.00143003184 -0.845245838 -0.53267467 -0.00634815497 -0.84629631 0.513293386 -0.0829614699 0.854193926 -0.607880354 -0.580111682 0.542173326 -0.536119401 0.0055842963 -0.844123662 0.320853412 -0.944909811 0.0647963658 -0.385987669 -0.841470957 0.378074318 0.719653606 -0.630814433 -0.29012388 0.231280565 0.772949874 0.590811133 0.235580862 0.894745171 0.379384696 0.4965657 0.314673394 0.808951914 -0.311584651 -0.830010712 0.462598354 -0.679125667 -0.448331863 0.581194341 -0.786784828 -0.251980364 0.563449681 -0.756925523 -0.222710133 0.614380896 0.518838704 0.0283796098 0.854400933 0.350893706 0.682172656 0.641493678 0.178829357 0.767643332 0.615421653 0.898633957 -0.0495000146 -0.435897678 0.93305999 -0.0915993378 -0.347862959 0.858977139 -0.499773413 -0.111287273 -0.537788272 0.00744568557 -0.843047082 0.337083399 -0.935520589 0.105716437 0.539489508 0.191526428 0.819919944 -0.531796157 0.678415716 0.50689733 -0.520542145 0.708799005 0.476067066</float_array>
          <technique_common>
            <accessor source="#normals_array" count="126" stride="3">
              <param name="X" type="float" />
              <param name="Y" type="float" />
              <param name="Z" type="float" />
            </accessor>
          </technique_common>
        </source>
        <vertices id="vertices">
          <input semantic="POSITION" source="#positions" />
        </vertices>
        <triangles material="qmat_4b294f1aa1dfaafb" count="124">
          <input semantic="VERTEX" source="#vertices" offset="0" />
          <input semantic="NORMAL" source="#normals" offset="1" />
          <p>17 20 18 21 19 22 20 23 19 22 18 24 21 25 22 26 18 24 23 27 21 28 24 29 18 24 22 26 25 30 25 30 22 26 26 31 25 30 26 31 27 32 26 31 28 33 29 34 19 22 27 35 30 36 27 32 29 34 30 36 31 37 32 38 33 39 34 40 26 31 22 26 34 40 35 41 26 31 31 37 33 39 36 42 28 33 35 41 37 43 28 33 37 43 38 44 29 34 38 44 30 36 31 45 36 42 39 46 39 46 40 47 34 40 35 41 41 48 37 43 40 47 41 48 35 41 33 39 30 36 42 49 36 42 33 39 43 50 34 40 40 47 35 41 38 44 41 48 44 51 39 46 45 52 40 47 43 50 46 53 47 54 45 52 48 55 40 47 40 47 49 56 41 48 45 52 43 50 48 55 48 55 50 57 49 56 47 54 51 58 52 59 47 54 46 53 51 58 48 55 47 54 53 60 54 61 55 62 56 63 49 56 50 57 57 64 58 65 54 61 56 63 58 65 56 63 59 66 53 67 58 68 60 69 60 70 59 71 61 72 51 73 58 74 53 75 23 76 62 77 21 25 62 77 23 76 17 78 17 20 21 79 18 21 20 23 18 24 25 30 20 80 25 30 27 32 21 25 62 77 22 26 24 29 21 28 17 81 23 76 24 82 17 78 19 22 20 23 27 35 31 45 39 46 34 40 31 45 34 40 22 26 62 77 17 78 32 38 27 32 26 31 29 34 31 37 62 77 32 38 62 77 31 45 22 26 26 31 35 41 28 33 30 36 17 20 19 22 38 44 29 34 28 33 32 38 17 20 30 36 43 50 45 52 39 46 39 46 36 42 43 50 44 51 30 36 38 44 33 39 32 38 30 36 38 44 37 43 41 48 55 62 42 49 44 51 55 62 54 61 42 49 42 49 30 36 44 51 54 61 33 39 42 49 46 53 33 39 54 61 43 50 33 39 46 53 40 47 48 55 49 56 44 51 63 83 55 62 44 51 41 48 63 83 41 48 49 56 63 83 48 55 61 84 50 57 48 55 53 60 61 84 63 83 49 56 57 64 55 62 63 83 57 64 43 50 47 54 48 55 53 60 47 54 52 59 46 53 54 61 58 65 51 58 46 53 58 65 60 85 58 65 59 66 56 86 50 57 61 84 50 87 56 87 57 87 57 64 56 63 55 62 56 86 61 84 59 88 64 89 53 67 60 69 52 90 51 73 53 75 53 60 64 91 61 84 64 92 60 70 61 72 65 93 66 94 67 95 68 96 66 94 69 97 70 98 68 96 69 97 69 99 71 100 70 101 68 102 67 95 66 94 65 93 67 95 72 103 69 99 73 104 71 100 74 105 73 106 75 107 76 108 77 109 78 110 78 111 77 112 73 106 79 113 71 114 73 106 79 113 72 103 71 114 72 115 79 116 80 117 75 107 80 118 81 119 76 120 75 107 81 119 81 119 80 118 76 120 79 116 77 109 76 108 76 120 74 105 75 107 79 116 76 108 80 117 73 104 69 99 75 121 69 97 80 118 75 107 66 94 82 122 80 118 82 122 72 103 80 118 82 122 66 94 65 93 65 93 72 103 82 122 80 118 69 97 66 94 73 106 77 112 79 113 74 105 78 111 73 106 74 123 76 108 78 110 71 124 68 96 70 98 67 125 68 96 71 124 67 95 71 114 72 103</p>
        </triangles>
        <triangles material="qmat_fbc365fc3facc314" count="30">
          <input semantic="VERTEX" source="#vertices" offset="0" />
          <input semantic="NORMAL" source="#normals" offset="1" />
          <p>0 0 1 1 2 2 0 3 2 4 3 5 0 3 3 5 4 6 2 2 1 1 5 7 6 8 7 9 8 10 9 11 8 10 10 12 10 12 8 10 11 13 12 14 0 3 4 6 1 1 0 3 12 14 12 14 13 15 14 16 14 16 15 17 1 1 13 15 6 8 16 18 15 17 16 18 5 7 3 5 2 4 10 12 11 13 3 5 10 12 10 12 2 4 9 11 7 9 11 13 8 10 9 19 2 2 5 7 9 11 5 7 6 8 9 11 6 8 8 10 11 13 4 6 3 5 1 1 12 14 14 16 13 15 12 14 4 6 13 15 4 6 11 13 13 15 11 13 7 9 5 7 1 1 15 17 13 15 7 9 6 8 5 7 16 18 6 8 15 17 14 16 16 18 14 16 13 15 16 18</p>
        </triangles>
      </mesh>
    </geometry>
  </library_geometries>
  <library_visual_scenes>
    <visual_scene id="scene">
      <node id="calf_dae">
        <instance_geometry url="#geometry">
          <bind_material>
            <technique_common>
              <instance_material symbol="qmat_4b294f1aa1dfaafb" target="#qmat_4b294f1aa1dfaafb" />
              <instance_material symbol="qmat_fbc365fc3facc314" target="#qmat_fbc365fc3facc314" />
            </technique_common>
          </bind_material>
        </instance_geometry>
      </node>
    </visual_scene>
  </library_visual_scenes>
  <scene>
    <instance_visual_scene url="#scene" />
  </scene>
</COLLADA>