<?xml version='1.0' encoding='utf-8'?>
<COLLADA xmlns="http://www.collada.org/2005/11/COLLADASchema" version="1.4.1">
  <asset>
    <created>2026-09-14T00:00:00Z</created>
    <modified>2026-09-14T00:00:00Z</modified>
    <unit name="metre" meter="1" />
    <up_axis>Z_UP</up_axis>
  </asset>
  <library_effects>
    <effect id="qmat_fbc365fc3facc314_effect">
      <profile_COMMON>
        <technique sid="common">
          <lambert>
            <emission>
              <color sid="emission">0 0 0 1</color>
            </emission>
            <diffuse>
              <color sid="diffuse">0 0 0 1</color>
            </diffuse>
            <index_of_refraction>
              <float sid="ior">1.45</float>
            </index_of_refraction>
          </lambert>
        </technique>
      </profile_COMMON>
    </effect>
  </library_effects>
  <library_materials>
    <material id="qmat_fbc365fc3facc314" name="qmat_fbc365fc3facc314">
      <instance_effect url="#qmat_fbc365fc3facc314_effect" />
    </material>
  </library_materials>
  <library_geometries>
    <geometry id="geometry" name="foot_dae">
      <mesh>
        <source id="positions">
          <float_array id="positions_array" count="99">0.0126542784 0.0114041101 -0.0143632023 0.0188821238 0.00895816926 -0.0078375414 0.0140150338 -0.0011014014 -0.0156919081 0.00890608411 0.00774820708 -0.0196874384 0.0125863058 -0.00889248215 -0.0158765037 0.00110999204 0.01909687 -0.0138926143 0.00291429157 0.0100305239 -0.0217204243 0.00641757902 -0.000460382813 -0.021475194 -0.00875907112 0.0179776717 -0.0160029195 -0.00831758324 0.00914122816 -0.0198467374 0.016024014 -0.0146188457 -0.00601972686 -0.00374552235 -0.0189486369 0.00637221709 0.00631500874 -0.00904038176 -0.0205865875 0.00245505618 -0.0153748011 -0.0188576877 -0.00625029067 -0.00469486788 -0.0214358587 -0.00623997953 -0.0199666191 -0.0127668818 -0.0241737198 0.00368233607 0.00668218965 -0.0255934354 0.00477769924 -0.00247379998 -0.0259221699 -0.00427560462 -0.000654142583 -0.0228185337 0.0128475688 -0.0040412941 -0.0183923468 0.0100074559 0.0156237222 -0.0158502869 -0.0136225261 0.0139244841 -0.0204070918 0.0127753485 0.00691233668 -0.013667752 0.0196253695 -0.00224380312 0.00670747971 0.0192317329 -0.000188345934 -0.0198315084 0.00329841604 -0.0127335358 -0.0154012153 -0.018948203 -0.00294891489 -0.0222574174 -0.00962652918 0.00717716618 -0.0225540735 -0.0128633073 -4.29646534e-05 -0.0223576762 -0.0114652654 -0.00707523851 -0.00929743238 -0.0101212487 -0.018755693 -0.0168972537 -0.0105304606 -0.014211392 -0.0174976829 0.00834474154 -0.0146383103</float_array>
          <technique_common>
            <accessor source="#positions_array" count="33" stride="3">
              <param name="X" type="float" />
              <param name="Y" type="float" />
              <param name="Z" type="float" />
            </accessor>
          </technique_common>
        </source>
        <source id="normals">
          <float_array id="normals_array" count="111">0.633997858 0.554810703 -0.538731575 0.794815958 0.388006449 -0.466603249 0.768545926 -0.0637171865 -0.636613965 0.543224514 0.278949142 -0.791893005 0.71690464 -0.310674131 -0.624122858 0.216810703 0.887270451 -0.407117099 0.167350411 0.372576207 -0.912787378 0.400050431 -0.0546548553 -0.914862037 -0.291873395 0.747142494 -0.597149849 -0.342762649 0.208175302 -0.916065931 0.530954659 0.000970807276 0.847399652 0.531749845 2.39965866e-05 0.846901476 0.530218005 0.00180216902 0.847859442 0.349286139 -0.264949143 -0.898777604 0.171959206 -0.667956293 -0.724061012 -0.27372548 -0.118453391 -0.954485834 0.630301952 -0.695487142 -0.344988614 -0.129831582 -0.905960202 -0.402963907 -0.925939322 0.0939739197 0.365794063 -0.973614097 0.156038076 -0.166516453 -0.984797835 -0.17110464 0.029940024 -0.81831646 0.544612944 -0.183725089 -0.268993586 0.379761845 0.885112047 0.531514347 -0.00120838557 0.847048402 -0.696911931 0.653583288 0.295199275 -0.302659839 0.948904634 0.0893140733 0.49277404 0.728944719 0.475198269 -0.765665889 0.0288871378 -0.642589509 -0.019862676 -0.990006506 0.139616072 -0.419777066 -0.906454861 -0.0461176597 -0.871795654 -0.314536512 0.37555179 -0.626023889 -0.630277216 0.459178358 -0.812502027 -0.57569468 0.0917394236 -0.805969536 -0.435084432 -0.401390851 -0.390306711 -0.342903525 -0.854445934 -0.607281744 -0.35837394 -0.709067702 -0.662704825 0.236307591 -0.710620165</float_array>
          <technique_common>
            <accessor source="#normals_array" count="37" stride="3">
              <param name="X" type="float" />
              <param name="Y" type="float" />
              <param name="Z" type="float" />
            </accessor>
          </technique_common>
        </source>
        <vertices id="vertices">
          <input semantic="POSITION" source="#positions" />
        </vertices>
        <triangles material="qmat_fbc365fc3facc314" count="62">
          <input semantic="VERTEX" source="#vertices" offset="0" />
          <input semantic="NORMAL" source="#normals" offset="1" />
          <p>0 0 1 1 2 2 3 3 2 2 4 4 5 5 3 3 6 6 6 6 3 3 7 7 8 8 6 6 9 9 2 2 1 1 4 4 10 10 1 11 11 12 3 3 4 4 12 13 12 13 4 4 13 14 6 6 7 7 14 15 14 15 12 13 13 14 10 16 15 17 13 14 16 18 17 19 18 20 19 21 17 19 16 18 1 11 20 22 21 23 22 24 23 25 19 21 20 22 23 25 22 24 24 26 20 22 1 11 24 26 23 25 20 22 19 21 25 27 17 19 17 19 25 27 18 20 11 28 26 29 15 17 20 22 16 18 27 30 21 31 28 32 26 29 27 30 28 32 21 31 16 18 28 32 27 30 18 20 29 33 28 32 14 15 13 14 30 34 30 34 13 14 15 17 25 27 31 35 29 33 32 36 30 34 31 35 26 29 29 33 15 17 15 17 29 33 31 35 28 32 29 33 26 29 24 26 1 1 0 0 3 3 0 0 2 2 5 5 24 26 0 0 5 5 0 0 3 3 8 8 5 5 6 6 7 7 3 3 12 13 4 4 1 1 10 16 14 15 7 7 12 13 10 16 11 28 15 17 4 4 10 16 13 14 9 9 6 6 14 15 23 25 24 26 5 5 23 25 5 5 8 8 22 24 19 21 16 18 20 22 22 24 16 18 32 36 9 9 14 15 19 21 23 25 8 8 19 21 8 8 32 36 8 8 9 9 32 36 19 21 32 36 25 27 25 27 32 36 31 35 1 11 21 23 11 12 20 22 27 30 21 31 11 28 21 31 26 29 16 18 18 20 28 32 32 36 14 15 30 34 31 35 30 34 15 17 18 20 25 27 29 33</p>
        </triangles>
      </mesh>
    </geometry>
  </library_geometries>
  <library_visual_scenes>
    <visual_scene id="scene">
      <node id="foot_dae">
        <instance_geometry url="#geometry">
          <bind_material>
            <technique_common>
              <instance_material symbol="qmat_fbc365fc3facc314" target="#qmat_fbc365fc3facc314" />
            </technique_common>
          </bind_material>
        </instance_geometry>
      </node>
    </visual_scene>
  </library_visual_scenes>
  <scene>
    <instance_visual_scene url="#scene" />
  </scene>
</COLLADA>