<?xml version='1.0' encoding='utf-8'?>
<COLLADA xmlns="http://www.collada.org/2005/11/COLLADASchema" version="1.4.1">
  <asset>
    <created>2026-09-14T00:00:00Z</created>
    <modified>2026-09-14T00:00:00Z</modified>
    <unit name="metre" meter="1" />
    <up_axis>Z_UP</up_axis>
  </asset>
  <library_effects>
    <effect id="qmat_4b294f1aa1dfaafb_effect">
      <profile_COMMON>
        <technique sid="common">
          <lambert>
            <emission>
              <color sid="emission">0 0 0 1</color>
            </emission>
            <diffuse>
              <color sid="diffuse">0.6717055 0.6924257 0.7742702 1</color>
            </diffuse>
            <reflectivity>
              <float sid="specular">0.5</float>
            </reflectivity>
          </lambert>
        </technique>
      </profile_COMMON>
    </effect>
    <effect id="qmat_ddc4e6410bf0a5b2_effect">
      <profile_COMMON>
        <technique sid="common">
          <lambert>
            <emission>
              <color sid="emission">0 0 0 1</color>
            </emission>
            <diffuse>
              <color sid="diffuse">0.9 0.95 0.95 1</color>
            </diffuse>
            <reflectivity>
              <float sid="specular">0.5</float>
            </reflectivity>
          </lambert>
        </technique>
      </profile_COMMON>
    </effect>
  </library_effects>
  <library_materials>
    <material id="qmat_4b294f1aa1dfaafb" name="qmat_4b294f1aa1dfaafb">
      <instance_effect url="#qmat_4b294f1aa1dfaafb_effect" />
    </material>
    <material id="qmat_ddc4e6410bf0a5b2" name="qmat_ddc4e6410bf0a5b2">
      <instance_effect url="#qmat_ddc4e6410bf0a5b2_effect" />
    </material>
  </library_materials>
  <library_geometries>
    <geometry id="geometry" name="hip_dae">
      <mesh>
        <source id="positions">
          <float_array id="positions_array" count="312">0.00786281005 0.037516959 0.0480359793 0.0408364423 0.037516959 0.0288719479 0.0398579538 0.0375152193 -0.0310143176 0.0101188589 0.0181151759 0.0472608954 0.0364079028 0.010917875 0.034805771 0.0100528132 0.0108466037 0.00760152796 -0.0158150271 0.0181954484 0.0458833613 0.0114170481 0.0112564638 -0.0101222545 0.0484619699 0.0120341238 -0.000313286437 0.0167770423 0.037516959 -0.0458553322 0.0368284918 0.0105732381 -0.03429823 0.010920506 0.0156036578 -0.0480305403 -0.0179338194 0.0374935381 -0.0456844494 -0.0149846682 0.0181537773 -0.0462983884 -0.0241119992 0.037516959 0.0411867239 -0.0509041473 0.0181725603 0.0245163999 -0.0531904213 0.037493974 0.021867428 -0.0544909351 0.037516959 -0.0214830749 -0.0554283112 0.0182454661 -0.0214971863 -0.00159371516 0.0179544408 0.0490989611 0.00939712767 0.0149957091 0.0404406898 -0.026560992 0.0154052181 0.0252385754 -0.0313337855 0.0112077994 0.042865254 0.00749653811 -0.0178522803 0.044817768 -0.0260025598 -0.0154151702 0.0436951965 -0.0213984922 -0.0174102802 0.0469915532 -0.0608726293 -0.0204840377 0.021022683 -0.0462884903 -0.0310324561 0.00244073849 -0.0477565005 -0.0167560652 0.0143441791 -0.0519345812 -0.0190757625 -0.0106656859 -0.0545546226 -0.00824154541 -0.000213269464 -0.0610866509 -0.0339171961 -0.000696577539 -0.0612750277 0.0149746835 0.0267047118 -0.0331574567 0.0194659792 0.0247996189 -0.0436643474 0.0194659792 0.0107730599 -0.0335681699 0.0116011864 0.00372744421 -0.0516273975 0.0177773722 -0.0081132669 -0.0498855971 0.0138985999 0.0061294511 -0.053491056 -0.00355444406 0.00417025294 -0.0485630296 0.00875130203 -0.00898545701 -0.0612694249 0.00398892397 -0.00335600437 -0.0348926224 0.0121657746 0.0203287955 -0.0356697813 0.0149258822 0.0184518751 -0.0343335606 0.013099636 0.0172490254 -0.0320656523 0.0149774095 -0.0209165458 -0.0301209744 0.0104638273 -0.0440774858 0.00980761833 0.0164457057 -0.0454438776 -0.0187105928 0.0172914565 -0.0462951213 -0.0197142195 -0.0176741779 -0.047973644 0.01018399 -0.0181022976 -0.0443554707 -0.0283053312 -0.0194958374 -0.0208818112 -0.02752853 -0.0153953349 -0.0449387059 -0.0605705976 -0.0188563354 -0.0231664684 -0.0608769432 0.0160871595 -0.0263159238 0.0275934655 0.0159982927 0.0141742099 0.0368033387 0.0107113374 0.0333017074 0.0484339483 0.0108893383 -0.00432871887 0.0437871553 -0.0154210711 0.0249948371 0.0314045511 -0.0119993873 0.0139119783 0.0277647413 -0.0127971806 -0.01715241 0.0453850515 -0.0151760215 -0.0178319458 0.00712249475 -0.0110153323 0.0406140052 0.0110792918 -0.0203979705 0.0268194377 -0.00965772849 -0.0153020667 0.0461030006 -0.00520013925 -0.0199721642 0.0300783087 0.0265527628 -0.0234429128 0.0122474078 0.0112295914 0.0153048597 -0.029973831 0.0309302509 0.0107412981 -0.0390200764 0.0217416119 -0.0154353576 -0.0453711897 -0.00831951387 -0.0108504696 -0.0392596871 0.0117554683 -0.0154107641 -0.0296654031 0.015186416 -0.0219675209 -0.0262062903 -0.0283263475 0.0106511554 -0.0419834107 -0.0268929377 -0.0115454486 0.0333853029 -0.0182564761 -0.0212825015 0.0203140993 -0.0436753109 -0.0133326389 0.0108560063 -0.0303830914 0.0113391271 0.0389527157 -0.0218773708 0.0139483837 0.021951789 -0.0479179583 0.0102138203 0.00481335167 -0.023514865 0.0144496318 -0.0197529141 -0.0440988168 -0.0154290795 -0.0224847384 0.0003301549 0.0100931954 0.0446048789 -0.0189163946 -0.022703182 -0.0210938081 -0.0173817296 -0.0153530119 -0.0457755513 -0.0300318748 -0.0131503874 -0.0172584541 -0.0620296076 -0.00703462353 -0.0286164843 -0.0617425069 -0.0296909809 0.00319711748 -0.0619362965 -0.0205317475 -0.0219908655 -0.0621402711 0.0229151491 -0.018308945 -0.0619975701 0.0110074952 -0.0270086583 -0.0622786544 -0.0267754048 -0.0136997234 -0.0620241612 -0.0216086302 0.02097065 -0.0620055087 -0.0065555051 0.0287962388 -0.0619882643 0.0283089802 0.0072070607 -0.062104553 0.0119304433 0.0271767545 -0.0626159906 0.0245433394 -0.00776054757 -0.0696159601 0.0253009703 0.00485210167 -0.0626159906 0.0111580621 0.02518587 -0.0696047246 -0.0239153337 -0.0154491579 -0.0696159601 0.0075691836 0.0260439496 -0.0696159601 0.0129920812 -0.0242637377 -0.0655273423 -0.0230925921 0.0170299094 -0.0626159906 -0.00273993891 -0.0259379707 -0.0626159906 -0.0256314334 -0.00835240167</float_array>
          <technique_common>
            <accessor source="#positions_array" count="104" stride="3">
              <param name="X" type="float" />
              <param name="Y" type="float" />
              <param name="Z" type="float" />
            </accessor>
          </technique_common>
        </source>
        <source id="normals">
          <float_array id="normals_array" count="696">-1.44227454e-06 1 -2.2603459e-05 -1.67249655e-05 1 -2.88020619e-05 -0.000178083108 1 1.74846027e-05 0.160155281 0.0475639477 0.985945225 0.230501696 -0.0120675322 0.972997069 0.740398586 0.0066987602 0.672134697 -0.180701926 -0.967370927 0.177595794 -0.0265574753 -0.999220431 0.0292096864 -0.0848891437 -0.992771864 0.0848402902 -0.291720659 0.0470355898 0.955346406 -0.997631609 0.0619115606 -0.0299695525 -0.991949081 -0.126424834 -0.00733009866 -0.932584703 0.355309874 -0.0635664091 0.84376657 0.0711919591 -0.531967759 0.849306345 0.095385991 0.519211173 0.991095126 0.132986963 -0.00670466386 0.300479412 0.0433486365 -0.952802718 0.76060921 -0.0295251533 -0.648538291 0.206210688 0.0251660366 -0.978183925 -0.0193474349 -0.999492288 -0.0253137164 -0.132292673 -0.984951377 -0.111218065 -0.0644919053 -0.997131884 -0.0396082178 0.0200877748 -0.999795973 0.00213348423 -0.317465961 0.00807714928 -0.948235273 -0.273345798 -0.0111490367 -0.961851239 -0.000299590261 0.99999994 -0.000289345073 -0.42041564 0.0544320568 0.905697465 -0.826560557 -0.0345372707 0.561787188 -0.000210310143 1 3.17896229e-05 3.41163577e-05 1 0.000155076428 -0.0186435152 -0.999811292 0.00546338595 -0.00157331605 -0.999998689 -0.000395088951 -0.0509230122 -0.998614669 0.0132514918 -0.88390857 0.0433346629 -0.465647638 -0.892930925 0.00796757918 -0.450123131 -0.988557816 -0.150779963 -0.00434233109 -0.000150547072 0.999999583 -0.000884872978 -0.000669042813 0.999999106 0.00115789846 -0.00345331663 -0.99997133 0.00674270513 -0.00062832894 -0.999999464 -0.000837193918 -0.884826005 -0.016552493 0.465627491 -0.096252121 -0.99503243 0.0254155677 0.0767589882 0.979737341 -0.184994116 0.0987176076 0.973287642 -0.207282409 -0.000348015805 0.994379461 -0.105874188 0.515029788 -0.0093257362 -0.857121527 -0.0181931071 -0.091207318 -0.995665729 0.409713745 0.0536566526 -0.910634756 0.146999121 0.0559699871 0.987551808 -0.194681257 -0.524011075 0.829163194 0.171267137 -0.412452281 0.894734979 -0.737430453 -0.478395015 0.47679615 0.0830916762 -0.986614287 0.140314117 0.772493839 0.37765792 -0.51051712 0.787313998 0.440577388 -0.431309879 0.974214673 0.0916587114 0.206166178 0.787546039 0.215553999 0.577328086 0.105780132 -0.994300604 -0.01329822 -0.153965175 0.987673342 -0.0282150861 -0.14934732 0.982435763 0.111871816 -0.355984777 0.924786985 -0.134327546 -0.764447093 0.0482998043 0.642874658 0.131322339 -0.981274843 -0.14090468 0.046167966 -0.997951865 0.0442781746 0.402421564 -0.909118056 -0.107522987 0.0394673795 0.170540795 0.984559894 0.984397411 0.01495401 0.175322935 0.935913801 -0.158003211 -0.31480211 0.941218853 0.00100736564 -0.337795824 0.821905017 0.228622541 0.521731555 -0.0343610011 -0.723419726 -0.689552963 0.660514593 0.189157024 -0.726594865 0.32464087 0.436665177 -0.839006424 0.732294261 0.0829770416 -0.675914168 0.650448322 -0.715668321 0.25443238 0.79819119 -0.500147641 -0.335772425 -0.448428929 0.874710023 0.1838312 -0.914656639 0.402025372 -0.042175889 -0.554026723 0.81926477 0.147849932 0.697365701 0.490717769 -0.522376418 -0.669276476 -0.682752371 0.293118089 -0.528649926 -0.701547503 0.477870584 -0.566658974 -0.700423241 0.433941066 -0.956234872 0.279936254 -0.0851501226 -0.289009362 0.688071251 -0.665606141 -0.825791538 0.308417022 -0.472172976 -0.289007962 0.688073575 -0.665604353 -0.96929878 0.117361166 -0.216069877 -0.938513756 -0.32432282 0.118349686 -0.991179824 -0.127115503 0.0374734253 -0.779120684 -0.588834584 0.215045869 -0.488419116 0.812095821 -0.319291681 -0.288029969 0.940944016 -0.177941382 -0.114120379 -0.980135202 0.16220814 0.639158726 -0.617904842 0.457897037 0.501629531 0.864927232 0.0163931176 0.624422252 0.78074038 0.0232645478 0.65490067 0.748703897 0.102701485 0.359103501 -0.923015773 0.138154045 0.46686548 -0.511382341 0.721473992 0.151862055 -0.96767956 0.201331168 -0.202140033 0.0527477935 -0.977935135 0.0712404177 0.0123096844 -0.997383237 -0.204554066 0.00178736122 -0.978853643 0.0980314314 0.994650066 0.0325747281 0.0263637863 0.994172931 0.104523413 0.0246794131 0.994307697 0.103649303 -0.0059393351 -0.997601569 -0.0689621568 0.0191273466 -0.98116982 -0.19219777 -0.00847945549 -0.99752754 -0.0697628036 0.117269449 0.962021589 0.24650009 0.0679430962 0.9831388 0.169769913 0.0742134675 0.982664347 0.169891566 0.00695194677 0.00771281077 0.999946117 0.439155251 0.0314504541 0.897860527 -0.0132067567 0.0313420892 0.999421477 0.0123938974 -0.903698683 -0.427989542 0.225960568 0.843108654 0.487964839 0.266328186 0.766450942 0.584484637 -0.839377165 -0.0159926265 -0.543314099 -0.999616623 -0.00918906741 -0.0261181258 0.115169324 0.306062162 0.945019543 -0.323984236 0.064656578 0.943850517 -0.293591857 0.953809321 0.0636523813 0.628485024 0.0668984875 0.774939418 -0.0469390564 -0.129270479 -0.990497768 0.0780627877 -0.974387288 -0.210892364 0.0755634084 0.991979718 -0.101323478 0.202474967 0.920568883 -0.334001273 -0.0161316078 0.995854735 -0.0895159617 -0.0109406887 0.999919295 0.00645485986 -0.95696336 0.277505606 -0.0849220306 0.101717934 0.973404884 -0.205271408 -0.407965302 -0.691301167 0.596378207 0.52355057 -0.373363256 -0.765829444 0.119663246 -0.0299599469 -0.99236238 -0.911837876 -0.0447758734 -0.408101439 -0.859078646 -0.329507053 0.391674519 0.130462527 0.988069057 0.0818479434 0.550861478 0.520029664 0.652779222 0.817892194 0.570334554 -0.0759665892 0.656357884 -0.641839504 0.396530479 -0.115928724 -0.990633607 -0.0721496269 0.0649338514 -0.997468889 0.028972216 -0.132232502 -0.990469098 0.0385422483 -0.117893621 0.803248942 -0.583859742 -0.603878617 0.429084033 -0.67172724 -0.308344573 0.823864698 -0.475573897 -0.148685127 -0.563937008 0.812322497 -0.0386579782 -0.965453625 0.257691413 0.256614447 -0.80766499 0.53087312 0.439745456 -0.309101462 0.843255699 -0.601524055 0.358849645 -0.713719666 0.0418491662 0.978680074 -0.20108211 0.937639654 -0.0254958346 -0.346672565 0.484164536 0.568550706 -0.665082574 0.342664391 0.0914674848 -0.934994578 -0.0550213903 -0.996191561 0.0676392317 -0.237865761 -0.9541049 0.181944147 0.272727937 -0.950066328 -0.151636004 0.152250707 -0.973718226 -0.16938886 0.300108343 0.953892052 -0.00498999469 0.802613914 0.594832182 0.0445598066 0.87295264 0.484888524 0.0532622263 -0.622169316 0.0850169212 0.77825284 -0.444127738 0.559601843 -0.699711621 0.253928095 0.848500669 -0.464292139 0.136172473 0.935607433 -0.325723469 0.398648828 0.841884732 -0.363743275 -0.0702894405 0.990655959 0.116876766 -0.0807675198 0.993458152 0.0807310268 -0.82926923 0.552366912 0.0848724768 -0.139153823 0.987856925 -0.0691010654 -0.91113615 0.0505169593 -0.408997536 -0.888887525 -0.285758466 0.358079731 0.116377994 0.0128152911 0.993122339 -0.631059229 -0.161971152 0.758636653 -0.0157341193 -0.999875963 -0.000726434519 0.0151330717 -0.998968959 -0.0428015813 -0.277137369 -0.855767429 0.436871856 0.205217019 0.872982502 0.442478776 -0.00629898906 -0.999979794 -0.000846203999 0.0431913659 -0.999065697 0.00148507277 -0.25562194 0.0333135054 -0.966202676 0.0900107324 -0.963388085 0.252550006 0.0255176332 -0.993951678 0.106812268 -0.152609542 0.952336848 0.264130354 0.113665707 0.800423861 0.588559091 -0.0904964805 -0.979414344 -0.180438265 0.00761720352 0.982307255 0.187121421 0.17922774 0.983689666 -0.0152348401 0.104504667 -0.994164109 0.0267676711 -0.149337754 0.213827178 -0.965389132 0.611514032 0.450353265 0.65056318 0.99995923 -1.04315786e-05 -0.0090314215 0.999974847 -0.00689337635 -0.00167280831 0.999877691 -0.0105622476 -0.0115339728 -0.999456763 -0.00118556793 -0.0329351127 -0.999997616 0.00111975404 -0.00188988249 -0.999955773 -0.00334176468 -0.0087935403 -0.99994725 -0.00747112092 -0.00704628835 -0.999954641 -0.00725361612 0.00617630873 -0.99696362 -0.0756182 0.0185867269 0.990789473 -0.124632075 -0.0529441722 0.999692202 -0.0124070905 0.0214842036 0.999967873 0.00327761983 0.0073114112 -0.999993563 0.00222993735 0.00280212308 -0.999999583 -0.000610020827 0.000680997444 -0.999919415 -0.00632244861 -0.011007674 0.999960661 0.00419317745 0.00781934615 0.99999088 0.00425587129 -0.00027156889 0.999975443 0.0065908283 -0.00237283437 0.999979973 0.00633227173 8.82075692e-05 -0.999887705 0.000440914097 0.0149793904 0.97442776 0.22368601 -0.0213332605 0.53181392 0.77001369 0.352495134 0.64081502 0.600373924 0.47844258 -0.934507549 -0.349369437 -0.0680928826 -0.997638345 -0.0548079684 0.0413981378 -0.968257546 0.0905415863 -0.232979596 -0.952558637 -0.276777685 0.126594245 -0.976904988 0.196809545 -0.0832023174 0.983380854 0.0206528325 -0.180376247 0.999198914 -0.0175231006 0.0359782726 0.980280221 -0.120386332 -0.156709433 -0.300052136 0.731601298 0.61215055 -0.515702128 0.789146245 -0.333615899 -0.602643907 -0.185548425 -0.7761392 0.548322618 -0.509457707 -0.663170516 -0.296331763 -0.95311296 0.0613448806 0.240337715 -0.24414438 0.939484596 0.723174036 0.382945448 -0.574780047</float_array>
          <technique_common>
            <accessor source="#normals_array" count="232" stride="3">
              <param name="X" type="float" />
              <param name="Y" type="float" />
              <param name="Z" type="float" />
            </accessor>
          </technique_common>
        </source>
        <vertices id="vertices">
          <input semantic="POSITION" source="#positions" />
        </vertices>
        <triangles material="qmat_4b294f1aa1dfaafb" count="112">
          <input semantic="VERTEX" source="#vertices" offset="0" />
          <input semantic="NORMAL" source="#normals" offset="1" />
          <p>0 0 1 1 2 2 0 3 3 4 4 5 3 6 5 7 4 8 0 3 6 9 3 4 3 10 7 11 5 12 2 13 1 14 8 15 9 16 2 13 10 17 9 16 10 17 11 18 7 19 11 20 10 21 8 22 7 19 10 21 12 23 11 18 13 24 14 25 0 0 2 2 14 26 15 27 6 9 14 25 2 2 16 28 2 2 17 29 16 28 3 30 18 31 13 32 17 33 12 23 18 34 8 15 1 14 4 5 8 22 4 8 5 7 1 14 0 3 4 5 8 22 5 7 7 19 3 10 11 35 7 11 2 13 8 15 10 17 12 23 9 16 11 18 12 36 2 2 9 37 17 29 2 2 12 36 0 3 14 26 6 9 6 38 15 39 3 30 14 26 16 40 15 27 3 30 15 39 18 31 16 40 17 33 18 34 15 27 16 40 18 34 11 41 3 30 13 32 18 34 12 23 13 24 19 42 20 43 21 44 22 45 23 46 24 47 19 48 25 49 23 50 25 49 26 51 27 52 25 49 27 52 23 50 22 45 24 47 28 53 28 53 27 54 29 55 28 53 29 55 30 56 26 51 31 57 27 52 32 58 33 59 34 60 19 48 32 61 25 49 22 62 35 63 21 64 32 65 21 65 33 65 36 66 37 67 38 68 36 66 38 68 39 69 38 70 40 70 39 70 38 68 28 53 30 56 33 71 21 72 41 73 35 74 33 71 42 75 21 76 43 77 41 78 33 79 43 79 34 79 34 80 43 81 42 82 33 71 41 73 42 75 41 78 43 77 35 83 38 84 30 85 32 86 30 85 31 87 32 61 32 88 40 89 38 90 34 60 39 91 37 92 32 58 34 60 37 92 37 93 39 94 35 63 34 95 41 96 35 97 44 98 45 99 46 100 47 101 46 102 48 103 44 104 46 105 47 106 49 107 50 108 48 109 50 110 49 111 51 112 46 113 51 114 49 115 50 108 31 57 52 116 29 117 27 118 50 110 29 117 50 110 51 112 27 52 31 57 50 108 40 89 53 119 31 120 34 95 35 97 44 104 35 63 39 94 44 98 39 94 30 56 29 55 30 56 40 121 31 122 34 95 44 104 36 123 47 101 48 103 53 119 20 124 19 48 23 50 22 45 20 125 23 46 20 126 22 62 21 64 28 53 24 127 23 128 28 53 23 128 27 54 25 49 32 61 26 51 26 51 32 61 31 87 32 129 19 42 21 44 32 58 37 92 53 130 35 83 43 77 33 131 21 132 35 132 42 132 21 133 42 82 43 81 32 88 53 119 40 89 37 67 22 45 38 68 38 68 22 45 28 53 35 63 22 62 37 93 41 73 34 134 42 75 46 113 45 99 51 114 50 108 52 116 48 109 48 103 46 102 49 135 45 99 29 55 51 114 53 119 48 103 52 136 53 119 52 136 31 120 39 94 40 121 30 56 36 123 44 104 53 130 45 99 39 94 29 55 34 137 36 137 39 137 53 130 37 92 36 123 44 98 39 94 45 99 53 130 44 104 47 106</p>
        </triangles>
        <triangles material="qmat_ddc4e6410bf0a5b2" count="92">
          <input semantic="VERTEX" source="#vertices" offset="0" />
          <input semantic="NORMAL" source="#normals" offset="1" />
          <p>54 138 55 139 56 140 57 141 58 142 59 143 57 141 59 143 60 144 61 145 58 146 62 147 55 139 63 148 57 141 64 149 65 150 58 151 64 149 58 142 57 141 62 147 58 146 65 152 54 138 56 140 66 153 56 140 60 154 67 155 67 155 60 154 68 156 58 142 69 157 70 158 59 143 71 159 68 160 62 161 71 162 70 163 59 164 70 164 71 164 58 142 70 158 59 143 66 153 67 155 72 165 73 166 74 167 75 168 76 169 77 170 78 171 79 172 78 171 77 170 78 171 80 173 75 174 81 175 76 176 63 148 73 166 61 145 74 167 65 150 82 177 71 178 64 149 74 179 65 150 74 167 62 147 82 180 61 181 73 182 69 157 75 174 74 179 64 149 77 170 54 138 79 172 78 171 79 172 72 165 79 172 54 138 66 153 72 165 68 156 83 183 84 184 80 185 71 159 82 180 70 186 69 187 80 185 83 188 71 159 56 140 55 139 57 141 81 189 55 139 54 138 55 139 81 175 63 148 57 141 63 148 64 149 74 167 61 145 62 147 58 142 61 181 69 157 62 161 65 190 71 162 60 144 59 143 68 160 66 153 56 140 67 155 60 154 56 140 57 141 68 160 71 159 83 188 72 165 67 155 68 156 63 148 76 176 75 174 84 184 75 191 80 185 76 176 78 171 75 174 54 138 77 170 81 189 77 170 76 169 81 189 64 149 63 148 75 174 65 150 74 179 82 177 69 157 73 182 75 191 78 171 72 165 80 173 72 165 83 183 80 173 69 157 75 191 84 184 84 192 71 192 82 192 82 180 62 147 70 186 79 172 66 153 72 165 84 193 82 180 69 187 85 194 86 195 87 196 87 197 88 198 89 199 90 200 88 198 87 197 91 201 88 198 90 200 91 201 90 200 86 202 86 195 90 203 87 196 91 204 86 195 92 205 93 206 92 207 94 208 88 198 91 201 92 207 88 198 92 207 93 206 94 209 86 195 93 210 88 211 86 195 89 212 89 212 86 195 85 194 85 213 87 197 89 199 93 210 86 195 88 211 92 205 86 195 94 209 95 214 96 215 97 216 98 217 99 218 100 219 101 220 99 218 98 217 100 219 99 218 96 221 102 222 101 223 103 224 97 216 101 223 95 214 95 214 101 223 102 222 99 225 97 216 96 215 95 226 100 219 96 221 100 219 102 227 98 217 98 228 102 222 103 224 101 220 98 217 103 229 97 230 99 230 101 230 100 231 95 214 102 222</p>
        </triangles>
      </mesh>
    </geometry>
  </library_geometries>
  <library_visual_scenes>
    <visual_scene id="scene">
      <node id="hip_dae">
        <instance_geometry url="#geometry">
          <bind_material>
            <technique_common>
              <instance_material symbol="qmat_4b294f1aa1dfaafb" target="#qmat_4b294f1aa1dfaafb" />
              <instance_material symbol="qmat_ddc4e6410bf0a5b2" target="#qmat_ddc4e6410bf0a5b2" />
            </technique_common>
          </bind_material>
        </instance_geometry>
      </node>
    </visual_scene>
  </library_visual_scenes>
  <scene>
    <instance_visual_scene url="#scene" />
  </scene>
</COLLADA>