<?xml version='1.0' encoding='utf-8'?>
<COLLADA xmlns="http://www.collada.org/2005/11/COLLADASchema" version="1.4.1">
  <asset>
    <created>2026-09-14T00:00:00Z</created>
    <modified>2026-09-14T00:00:00Z</modified>
    <unit name="metre" meter="1" />
    <up_axis>Z_UP</up_axis>
  </asset>
  <library_effects>
    <effect id="qmat_4b294f1aa1dfaafb_effect">
      <profile_COMMON>
        <technique sid="common">
          <lambert>
            <emission>
              <color sid="emission">0 0 0 1</color>
            </emission>
            <diffuse>
              <color sid="diffuse">0.6717055 0.6924257 0.7742702 1</color>
            </diffuse>
            <reflectivity>
              <float sid="specular">0.5</float>
            </reflectivity>
          </lambert>
        </technique>
      </profile_COMMON>
    </effect>
    <effect id="qmat_ddc4e6410bf0a5b2_effect">
      <profile_COMMON>
        <technique sid="common">
          <lambert>
            <emission>
              <color sid="emission">0 0 0 1</color>
            </emission>
            <diffuse>
              <color sid="diffuse">0.9 0.95 0.95 1</color>
            </diffuse>
            <reflectivity>
              <float sid="specular">0.5</float>
            </reflectivity>
          </lambert>
        </technique>
      </profile_COMMON>
    </effect>
  </library_effects>
  <library_materials>
    <material id="qmat_4b294f1aa1dfaafb" name="qmat_4b294f1aa1dfaafb">
      <instance_effect url="#qmat_4b294f1aa1dfaafb_effect" />
    </material>
    <material id="qmat_ddc4e6410bf0a5b2" name="qmat_ddc4e6410bf0a5b2">
      <instance_effect url="#qmat_ddc4e6410bf0a5b2_effect" />
    </material>
  </library_materials>
  <library_geometries>
    <geometry id="geometry" name="thigh_dae">
      <mesh>
        <source id="positions">
          <float_array id="positions_array" count="540">0.048374217 -0.0565320142 -0.00078090484 0.048415754 -0.0488433689 -0.00130596175 0.0379421376 -0.0566126555 -0.000513349776 0.0374096893 -0.0487032607 -0.000500423252 0.0318618193 -0.0484949909 -0.019112397 0.0215353761 -0.056795001 -0.0316146016 0.0424214788 -0.056318827 -0.0227751695 0.040697448 -0.0491571501 -0.0256555863 0.0435394198 -0.0525003225 -0.00737900008 0.0109997243 -0.0484949909 -0.0359042622 -0.010449728 -0.0567949899 -0.0352827534 -0.0248521194 -0.0484949872 -0.028631635 -0.0229632072 -0.0564768463 -0.0416246802 -0.0312612839 -0.056795001 -0.0201374553 0.0159234144 -0.056294959 -0.0449989922 -0.0366557799 -0.0522883087 -0.000518969144 -0.0176794436 -0.0489154272 -0.0441551283 -0.0418249816 -0.0489184782 -0.0229620207 -0.0417742059 -0.0560434945 -0.0230954997 -0.0479285605 -0.0487918742 -0.00121738436 0.0157640334 -0.0487728305 -0.0449899845 -0.0479562171 -0.0564068295 -0.00119242095 -0.0414402969 -0.0529340878 -0.00520651042 -0.0465777181 -0.0531627834 -0.0109785022 0.0469893478 -0.0518697798 -0.0112781413 0.031136496 -0.021536421 0.0401579998 0.0223600566 -0.0109493872 0.0448781736 0.00418161228 -0.0217998289 0.0504152514 0.0217207279 0.00750363106 0.0244012773 0.00624154182 0.00188304752 0.0333310701 0.0190569013 0.00166475924 0.0287504159 -0.00256292196 0.00698628649 0.0323102139 -0.0138572669 0.00227789115 0.0316966772 -0.023937216 0.00410343241 0.0259748902 0.0109969312 0.0123323351 0.0237532947 0.0296855737 0.0084712645 0.0106685059 0.0259884764 4.22510784e-05 0.022846045 0.0308558512 -0.00764947245 0.0356224477 0.0437676497 -0.0167176519 0.0252085011 0.0316336118 -0.0074279746 0.0123864822 0.0408876799 -0.0216343161 0.0303765964 0.0215859544 -0.00580633478 0.0420447178 0.013723352 0.0155422669 -0.00582493376 -0.0310412012 0.00935275573 0.0144129405 -0.0110299457 0.0127164433 0.0235843547 -0.0371456593 0.00244393991 0.0103169559 -0.0380621143 0.00748531846 0.00278734602 -0.0404579565 0.00248307269 -0.000433163863 -0.0403704792 0.00286776247 -0.0173530262 -0.045266021 -0.00493059633 0.00282525481 -0.0479223616 -0.0204143692 -0.0155811813 -0.0450825393 -0.00753863808 0.0131526226 -0.0478615686 -0.0215229262 0.0152522624 -0.0395628214 -0.0216039289 0.0311169811 -0.0246111564 -0.00640483061 0.0391161852 -0.036870379 -0.00618314184 0.0273067094 -0.0111409798 -0.00670837006 0.0453000665 -0.0246678833 -0.0216335095 0.0439812914 -0.00462560542 -0.010934595 0.0488807596 -0.0396204405 0.00963424612 -0.0173531547 0.00209706742 0.0157648418 -0.0159768518 -0.0252695344 0.014226675 0.00306660892 -0.0387062579 0.00139524497 -0.00360068446 -0.0420104824 -0.00728090294 0.0127012841 -0.046005711 -0.0218079593 0.0144704403 -0.0445844606 -0.0113058956 -0.00606234558 0.0195091218 -0.00732709793 0.0442710035 0.0321630538 -0.0119579136 0.0336151198 0.0282204878 -0.021807963 0.0397609808 -0.0457053632 -0.0204810668 -0.015512771 -0.0197804142 -0.0218079705 0.0449117944 -0.00779942283 -0.00877559651 0.0444183163 0.00838153996 -0.0218079705 0.0480786152 0.0424344502 -0.0193079691 0.0247738231 0.021918308 -0.00114500232 0.0247292444 -0.0170903224 0.000596375787 0.0287178047 -0.033661671 0.0017043805 0.0117395855 0.02173605 0.00900909863 0.0224277172 0.0182482544 0.0129213827 -0.00175806135 0.02900609 0.00704777334 0.00960986037 -0.0362359434 0.0062206313 0.00116043608 0.00290819118 0.0132997483 -0.0157077592 -0.0140842516 0.0135792317 0.000608986011 -0.0341258496 0.01053409 -0.0173505079 -0.0228250735 0.00772762997 0.0208647083 -0.00652179914 0.0112309447 0.0212317612 0.00613599736 0.000475090026 0.0313676968 0.000918548787 0.00653937692 0.0296739321 -0.0286965594 -0.0068533523 0.0323704146 -0.0400396734 -0.0218079593 0.0278908368 -0.0374004692 -0.0565855019 0.00172747625 -0.0313861668 -0.0484959409 0.0203565247 -0.0226089675 -0.056795951 0.0313544534 -0.0369762219 -0.0486886129 0.00174654822 -0.00727971084 -0.0484959483 0.0384977423 0.0110371253 -0.0564167649 0.0476127081 -0.0166074503 -0.0565459803 0.0457569472 0.0128558427 -0.0567959584 0.0367233865 0.0388166718 -0.056795951 0.00313442084 0.0406524017 -0.0562959909 0.0269689318 0.0382782295 -0.0486757159 0.00175783876 0.0240447894 -0.0484959409 0.0296375491 0.0185445342 -0.0487459898 0.0451839529 0.040336106 -0.0490502492 0.027440276 -0.0133334184 -0.0489465557 0.0469056629 0.0484028384 -0.0487917215 0.00247115199 0.0470277593 -0.0520623289 0.0123277204 0.042824287 -0.0529424325 0.00862096995 0.0483821556 -0.0565202571 0.00203195959 -0.0408954285 -0.0565164872 0.0257129502 -0.041276671 -0.0491601601 0.0252053179 -0.0479147024 -0.0487459786 0.00227708882 -0.0465121605 -0.0521309897 0.0125328442 -0.0432488769 -0.0526339971 0.00862096995 -0.0478066504 -0.0565693006 0.00187098002 -0.00408839155 0.00689482363 0.0296850018 0.0257021636 0.00563604617 0.0165717136 0.00348610664 0.0131088085 0.00780575583 0.0438867286 -0.0187735986 0.0208025929 0.0218289644 -0.0187706314 0.0435749963 0.0207765065 -0.0464083813 0.0434069075 0.0418751277 -0.0478326902 0.0249731056 0.0431350097 -0.0352651589 0.0226801597 0.0406678766 -0.0467673242 0.016879797 0.0218647122 -0.00753918337 0.0253998172 0.033671122 -0.00932548754 -0.0153844999 0.0452165417 -0.0188418441 -0.016373774 0.0277567748 0.00661723176 -0.0232804976 0.0444148295 -0.0451959893 -0.0165240839 -0.0268566571 -0.00753897894 0.0231116302 -0.00909708906 -0.0187979601 0.0477990769 -5.77940373e-05 -0.0474701934 0.0488501266 -0.0287716668 -0.0352083109 0.039076589 0.0155649697 -0.0353064314 0.0438869409 -0.0247129612 -0.0478465706 0.0419181101 -0.0440450571 -0.0451959893 0.0180350654 -0.0184929371 -0.0466550365 0.0409096517 -0.0409425311 -0.00859711971 -0.0227736793 -0.041132804 -0.0179906152 0.0245968215 -0.0323709659 0.00668446487 0.0102721089 -0.00649784692 0.0113116456 -0.0513608605 -0.0402157903 0.00427860348 -0.0271230582 -0.0456264727 -0.0352982096 0.0151861124 -0.044221513 -0.0353007726 -0.0177647546 -0.0241920222 -0.0353237428 -0.0408366285 -0.0457179509 -0.0457136966 -0.0140839899 -0.0451427549 -0.041233331 -0.0155966412 -0.0443864428 -0.0412587672 -0.0173783321 -0.044706095 -0.0412574969 -0.0166254025 -0.0438798741 -0.0412574783 -0.0185715128 -0.0394904912 -0.0473960005 -0.0219786577 0.00743210921 0.00594231626 -0.0853462294 0.0131494347 -0.00931651704 -0.061144568 -0.0011729839 -0.00657845847 -0.140051886 0.0226842873 -0.0150711136 -0.041919291 -0.00364763686 -0.0171902198 -0.0480942801 0.0206679925 -0.0465350226 -0.0420133211 0.0034195194 -0.0477856807 -0.045253858 0.022007335 -0.0352359191 -0.0424343757 0.0448773876 -0.035244979 -0.0173280407 0.0346235111 -0.0468959808 -0.0318037979 -0.0343113318 -0.00977489725 -0.0559353866 -0.0304725002 -0.0184218735 -0.0369085595 -0.0181736853 -0.0451959819 -0.0402239636 -0.0240710881 -0.0478959493 -0.0410538241 -0.0101539195 -0.0128085986 -0.14762333 -0.001688677 0.00951920357 -0.15016897 -0.0346818492 -0.00775552448 -0.129228145 0.00228440692 0.00664437655 -0.179794744 0.00186470314 -0.0111321611 -0.179811582 -0.00377636729 0.0148428688 -0.174474373 0.0175817013 0.00765030086 -0.215424493 0.00410212949 -0.0191269685 -0.203233644 -0.0292102974 0.0118506923 -0.186709315 -0.0285253301 0.00742594898 -0.198202342 -0.0292640049 -0.0137584601 -0.195430398 0.00317846332 0.0160709992 -0.22344771 -0.0114780366 -0.0154057564 -0.221863404 0.0157652497 -0.0129505778 -0.220954135 -0.00814874377 0.00732043013 -0.226256177</float_array>
          <technique_common>
            <accessor source="#positions_array" count="180" stride="3">
              <param name="X" type="float" />
              <param name="Y" type="float" />
              <param name="Z" type="float" />
            </accessor>
          </technique_common>
        </source>
        <source id="normals">
          <float_array id="normals_array" count="894">0.0250545163 0.0679751113 0.997372389 0.0448829047 0.0413229316 0.998137236 0.0545299351 0.0283152554 0.998110592 0.0730364174 0.00328681804 0.997323871 -0.846900105 0.208287746 0.489261091 -0.941709995 0.0550572909 0.331889987 -0.956511736 -0.0648552179 0.284392446 -0.580242813 -0.102638952 0.807950199 0.0318253376 -0.998500049 -0.0445517227 0.0251649544 -0.999579787 -0.0143875265 0.0137367519 -0.999851227 -0.010432723 0.91160053 0.0556354523 -0.407295018 0.805994689 -0.0280787852 -0.59125638 0.97521776 0.187572047 -0.117333293 -0.191650242 0.105408274 0.975786507 0.224517509 -0.199039862 0.953926086 0.616202891 0.0922044814 0.782171547 -0.0185733475 -0.999368608 -0.0302887838 0.00108583586 -0.9986341 -0.0522377007 0.454889357 -0.853754461 0.253335655 0.0105755068 -0.999071717 -0.0417598933 0.433339268 -0.845030844 0.313273072 -0.00654101232 0.999856889 -0.0156004 -0.0117643066 0.999386787 -0.0329787321 -0.0312914588 0.99932909 -0.0190310087 -0.265234351 -0.111157417 -0.957755089 -0.511565804 0.0487055518 -0.857862592 -0.913116276 0.0218762662 -0.407111853 -0.913485527 0.00111278484 -0.406869769 0.184340075 0.968800485 0.165663242 -0.140150338 -0.98844856 -0.0576831736 0.314132661 -0.0254019275 -0.949039221 0.307189345 0.0076482622 -0.951617658 0.0135752223 0.999632835 -0.0234503392 0.0102055045 0.999554396 -0.0280500967 0.108072035 0.992631137 -0.0548074469 0.0412339121 0.99856174 -0.0342664011 0.736316562 0.664955556 -0.125187695 -0.65688014 -0.753978848 0.00494170468 0.149937317 0.973614335 -0.172028899 -0.964885533 -0.0577982776 -0.256232798 -0.981309295 0.0836984366 -0.173281997 0.273905396 0.931162715 0.240648851 -0.0607577451 0.00349279586 0.998146415 0.285669208 -0.933371186 -0.21728158 -0.999772549 -0.00749759143 0.0199648067 -0.919206321 0.295966029 -0.259738117 -0.0200609397 -0.984027982 -0.176879853 -0.38584426 0.901591778 -0.195592672 0.00742925191 -0.999903917 -0.0117024584 0.980721414 -0.0941853225 -0.171215221 0.957650125 0.112516545 -0.265040219 0.92178762 -0.294337571 -0.252334982 0.0132582914 0.999885917 0.00723669678 0.612018883 0.14813222 0.776846051 0.398654789 0.252555341 0.881640613 0.0774041563 0.109584309 0.990959048 0.532573044 0.603216708 0.593713403 0.128363773 0.689479709 0.712839782 0.414930463 0.659659505 0.626643419 -0.0425833128 0.51469934 0.856312573 -0.207402721 0.703856885 0.679389179 -0.421260029 0.701584637 0.574733794 0.186566979 0.879672825 0.437456876 0.834414661 0.546189487 -0.0736831352 0.754127145 0.541688383 0.371303022 0.635189116 0.590703368 0.497598499 0.985581577 0.147535264 -0.082838662 0.869520307 0.493823111 0.00855758972 0.770227611 0.167970985 0.615252137 0.319814444 0.68552959 0.654039741 0.518140197 0.725676119 -0.45268634 -0.581004143 0.687529147 0.435589105 -0.164733589 0.886996925 0.431392223 -0.758254409 0.543673575 0.359818488 -0.761415601 0.609802961 0.219969615 -0.883290887 0.45083493 0.128627419 -0.970584929 0.237221494 -0.0411199816 -0.909966528 0.410051942 0.0617924556 -0.969154119 0.238785744 -0.061005868 -0.870124161 0.416413665 0.263597518 -0.940671623 0.21496582 0.26253885 -0.755288064 0.261316776 0.601043642 -0.458286643 0.523439407 0.718320608 -0.689648092 0.502752125 0.521177292 -0.205729514 0.587214828 0.782850027 -0.480266482 0.209502712 0.851735115 -0.0837113485 0.35055986 0.932791591 -0.738671124 0.674038768 0.00606492721 -0.0540447123 0.998529196 0.00431101676 -0.240330875 0.967589378 0.0775365978 0.861981332 -0.473174602 -0.181917503 0.836318135 -0.471032053 -0.280536503 0.880913019 -0.470743746 -0.0489141904 0.936105788 -0.264160722 -0.232217789 0.972863615 -0.231378585 -0.000592881232 -0.348386765 -0.543051243 -0.764016986 -0.707135975 -0.517097712 -0.48225379 -0.347337395 -0.835209429 -0.426358968 0.983782589 -0.172129497 0.0504310876 0.401689172 -0.303913474 -0.863876402 0.159082934 -0.541680157 -0.825393975 -0.0857674852 -0.14702104 -0.985407889 -0.642454505 -0.666736364 -0.377776265 -0.765500367 -0.558288574 -0.31987986 -0.614434063 -0.589050055 -0.524872243 0.298045486 -0.68871963 -0.660934329 0.687518477 -0.606183052 -0.399825454 -0.503640413 -0.649210155 -0.569975853 -0.117201328 -0.989029229 -0.0899167284 -0.68900764 -0.648873389 -0.322849542 0.74229902 -0.621121943 -0.251395553 0.00949357729 -0.999590099 0.0270083379 0.121057369 -0.990381956 -0.0669980794 0.4910523 -0.868839264 -0.0631348118 0.490057021 -0.683192492 -0.541379809 0.0861215889 -0.930966556 -0.354801774 -0.138242781 -0.713330328 -0.687058091 -0.0076329126 -0.591917515 -0.805962384 0.53925401 -0.567257702 -0.622433782 0.759326756 -0.338629782 -0.555655301 0.441888481 0.0476132296 -0.895805538 0.32854411 -0.00200223876 -0.944486499 0.728777051 0.428950995 -0.533746243 0.787933886 0.0781281814 -0.610783219 -0.292364836 -0.863663554 -0.41061914 0.000872812001 -0.999960244 0.00887312274 0.00486738328 -0.999913394 0.0122267641 -0.138671264 -0.800743818 0.582734585 -0.0470440201 -0.997079849 0.0601547807 -0.0747279748 -0.994574487 0.0723695979 -0.178061411 -0.980049551 0.0883006006 -0.152038679 -0.988370895 0.00268946611 -0.142264694 -0.989726841 0.0141952066 -0.0343502685 -0.998752952 -0.0362303816 -0.144163579 0.878949761 0.454603374 0.000494509586 -7.37284427e-05 -0.999999881 0.0281785354 -0.0849376768 -0.995987713 -0.0289462283 -0.998937607 -0.0358578935 0.0783532336 -0.991618097 0.102734171 0.863617241 -0.391107649 -0.318119526 0.0509672053 -0.0917874947 -0.994473457 0.943135023 0.0540974885 -0.327978402 0.855163097 0.163483664 -0.491903663 0.601877987 -0.123785861 -0.788935959 0.956638932 -0.050701391 -0.28682968 0.165048346 0.257581711 -0.95205605 -0.0158651844 -0.999665082 0.0204464216 0.00993675739 -0.999486983 0.0304471795 -0.00165605242 -0.999835849 0.0180432796 0.0342247523 -0.998593628 0.040489208 0.0284913369 -0.999394834 0.0199550316 0.116906099 -0.991919577 0.0492805615 -0.481492549 -0.177430496 -0.858302593 -0.525375962 -0.0570449978 -0.84895581 -0.692428112 0.273297817 -0.667721272 -0.331690967 -0.119505152 -0.935788214 -0.0140081933 0.999088407 0.040325094 0.0122970454 0.999667764 0.0226527397 0.109196112 0.992519677 0.0545971394 0.0170947909 0.999746084 0.014683011 0.0886509344 0.995466888 0.0344485566 -0.02125494 0.999042571 0.0382384136 0.868799508 -0.0202584788 0.494749397 0.452814847 -0.134619221 0.88138324 0.178568512 0.0842019096 0.98031795 0.850118697 0.00285512302 0.526583374 0.728027642 0.672682881 0.13218765 0.957411706 0.0605089851 0.282314569 0.991678059 0.0352350511 0.123826846 0.744709253 -0.65195179 0.142712906 -0.0338349827 -0.0422214977 -0.998535216 -0.115923919 0.0566626228 -0.991640568 -0.315214366 0.939455807 0.134397686 0.0236547086 -0.978376687 0.205473989 -0.276155025 0.0099106608 0.961062014 -0.444446713 0.056339018 0.894031882 -0.841737449 0.00453430461 0.539868057 -0.0143913832 -0.999883711 0.00505034206 -0.126848727 0.989946365 0.0625744462 -0.0399729908 0.998428047 0.039288871 -0.208523661 0.976078629 0.0615499243 0.0829338357 -0.977320313 0.194851249 0.339085102 0.926395714 0.16374442 -0.864550769 -0.0101335552 0.502443314 -0.991015613 -0.0426107831 0.126776889 -0.00878520031 -0.949932456 -0.312331706 -0.867520869 0.424751461 0.258831412 -0.0348167643 0.0320768841 -0.998878777 -0.0486494005 0.0511087179 -0.997507453 -0.0281932205 0.0229669008 -0.999338627 -0.0137839699 0.00315541774 -0.999900043 -0.00566372927 0.999946535 -0.00865132641 -0.960075676 -0.0277090259 0.278364688 -0.00571846077 -0.999981582 0.00204376923 -0.00152025896 -0.999995291 0.00265548029 -0.0658567473 0.488828331 0.86989069 0.71329087 0.568885148 0.409372538 0.0608654618 0.990749717 0.121286534 0.840610147 0.425266296 0.335444748 0.405888915 0.435440004 0.803521156 0.484036416 -0.001648042 0.875046313 0.882301927 0.0123262331 0.470522493 -0.92835778 0.0556430444 -0.367499173 -0.978083134 0.208190471 0.00317516527 -0.911357343 0.0163220484 -0.411292344 -0.482836962 -0.162583649 -0.860485375 0.465175748 0.65180409 0.598968267 0.812153995 0.565626144 -0.143083826 0.886958838 0.378789008 -0.264240265 0.719854295 0.674349606 -0.164506406 -0.307003528 -0.948419631 -0.0790511146 -0.966206312 0.0855070055 0.243174583 0.966085315 -0.0279246457 -0.256708771 -0.526996851 0.596899509 0.604967237 -0.179321721 0.484100163 0.856440723 0.0636963472 -0.327987462 -0.942532241 0.507928669 -0.522060156 -0.685172737 -0.223944068 -0.715280235 -0.661984324 -0.544963777 0.0227054134 0.838152111 0.000231178987 -0.000542293536 0.999999821 0.142352521 -0.957006931 -0.252732098 0.147720963 -0.962762773 -0.22642076 0.125630751 -0.935444713 -0.330393821 -0.997077703 0.0028382421 -0.0763412341 -0.80440563 0.403857201 0.435695916 -0.714612067 0.609041154 0.3440907 0.0382802524 0.999071002 -0.0197938289 -0.829642057 0.556980789 0.0382948034 -0.000154833702 -0.999999404 0.00107695325 -0.001111825 -0.999999404 3.04220757e-05 0.00148241792 -0.999998391 0.00102321943 -0.827561557 -0.544072509 -0.138300374 -0.976518452 0.0662403628 -0.204997405 -0.920446038 -0.00499376189 -0.390837759 -0.920472324 -0.00535250502 -0.390771031 -0.809662819 -0.0683937222 -0.58289659 -0.751118064 -0.256670564 -0.608228505 0.97700417 0.0423018783 -0.208981827 0.429852605 -0.834555745 -0.344591707 0.895983279 -0.440615833 -0.0554224402 0.720448315 -0.0715958402 -0.689803004 0.0659283549 -0.148676753 -0.986685693 0.396928698 -0.0340924822 -0.917216063 0.0401031263 -0.0831780359 -0.995727479 0.483943075 0.221083716 0.846711934 0.0226750355 -0.180571526 0.983300447 -0.407800794 -0.0422888175 0.912091076 -0.953901589 0.0137247453 0.299805611 -0.728870034 -0.0849615782 0.679359972 0.729695916 0.00630817097 -0.683742642 -0.236262292 -0.963747799 -0.123977222 -0.695121527 -0.448431343 -0.561885595 0.000816534157 -0.999999642 -0.000122504309 0.923038185 0.26333496 0.280455291 0.85506779 0.215336129 0.471687853 0.329602152 -0.199899703 0.92271477 -0.512056231 -0.0531213544 -0.857307732 0.324641496 -0.841705322 0.431439579 0.140075549 -0.986485004 0.0850069746 0.325976729 0.945246935 -0.0157273635 0.69637233 0.716169715 0.046546299 -0.201741472 -0.9794361 0.00230131927 0.963589668 0.260725617 -0.0593050458 0.982250035 -0.0173285268 -0.186774269 0.320170343 0.932326615 0.168101341 0.521333754 0.844353676 0.123604245 0.334572405 -0.939408839 0.0746483728 -0.722266614 0.687363803 -0.0765632316 0.472292036 -0.0949986652 -0.876307905 0.453408152 -0.131165445 -0.881598949 -0.0272425786 0.992681623 -0.11764776 -0.0648802891 -0.987592757 -0.143007398 0.310389638 -0.942460835 -0.124200635 0.381964803 -0.20523119 -0.901100993 -0.0606233925 0.994798124 -0.0818628594 -0.0870869011 0.993497849 -0.0733340383 -0.0669745952 0.994556546 -0.0798231214 -0.0395104736 0.995282352 -0.0886110663 -0.150492802 -0.987822175 0.039487388 0.000436292496 -0.999999642 -0.000757370435 0.000379520381 -0.999999762 -0.000580809487 0.463680625 0.281855315 -0.83997494 0.973608851 0.121997625 -0.192879289 0.931768239 0.131567746 -0.3383753 -0.948575258 0.0254390799 0.315527767 0.117272958 -0.922798336 -0.367001742 -0.227982625 -0.973275006 0.0275619756 -0.3821868 0.0796101317 0.920649469 -0.994617045 0.0793001205 -0.066696465 0.358608782 -0.879473627 0.31293115 -0.996359646 0.0293462537 -0.0800390467 -0.801558256 0.538862944 -0.259096712 0.0209151823 -0.999596059 -0.0192415733 -0.00175173907 -0.999898255 -0.0141560091 0.0019747417 -0.999885678 -0.0149926245 -0.0192532577 -0.999762356 -0.0102239866 -0.507995665 0.776937127 -0.371899307</float_array>
          <technique_common>
            <accessor source="#normals_array" count="298" stride="3">
              <param name="X" type="float" />
              <param name="Y" type="float" />
              <param name="Z" type="float" />
            </accessor>
          </technique_common>
        </source>
        <vertices id="vertices">
          <input semantic="POSITION" source="#positions" />
        </vertices>
        <triangles material="qmat_4b294f1aa1dfaafb" count="218">
          <input semantic="VERTEX" source="#vertices" offset="0" />
          <input semantic="NORMAL" source="#normals" offset="1" />
          <p>0 0 1 1 2 2 2 2 1 1 3 3 4 4 2 5 3 6 2 5 4 4 5 7 5 8 6 9 2 10 6 11 7 12 8 13 5 7 4 4 9 14 5 7 9 14 10 15 11 16 10 15 9 14 12 17 10 18 13 19 12 17 5 8 10 18 5 8 12 17 14 20 15 21 13 19 11 16 10 15 11 16 13 19 11 22 16 23 17 24 16 25 12 26 17 27 17 27 12 26 18 28 11 22 17 24 19 29 12 17 13 19 18 30 14 31 16 25 20 32 20 33 9 34 7 35 16 23 9 34 20 33 9 34 16 23 11 22 7 35 9 34 4 36 14 31 7 12 6 11 14 31 20 32 7 12 7 35 4 36 1 37 12 26 16 25 14 31 18 30 13 19 21 38 22 39 18 39 23 39 23 40 21 38 19 41 11 22 19 29 15 42 21 38 13 19 15 21 19 43 21 43 15 43 23 44 17 44 22 44 17 27 18 28 22 45 23 40 19 41 17 46 18 30 21 38 23 40 7 47 24 47 8 47 8 48 24 48 6 48 2 10 6 9 0 49 0 50 24 51 1 37 24 51 0 50 6 52 7 35 1 37 24 51 1 37 4 36 3 53 5 8 14 20 6 9 25 54 26 55 27 56 28 57 29 58 30 59 29 58 31 60 32 61 32 61 31 60 33 62 34 63 31 60 28 57 35 64 28 57 36 65 37 66 26 55 25 54 36 65 38 67 39 68 38 67 36 65 37 66 38 67 37 66 40 69 40 69 37 66 25 54 41 70 26 55 37 66 37 66 36 65 41 70 41 70 36 65 30 59 36 65 39 68 35 64 42 71 34 63 35 64 43 72 33 62 44 73 45 74 43 72 46 75 47 76 48 77 49 78 49 78 48 77 50 79 51 80 49 78 52 81 51 80 52 81 53 82 53 82 54 83 55 84 54 83 33 62 55 84 51 80 55 84 45 74 53 82 55 84 51 80 55 84 33 62 45 74 54 83 32 61 33 62 50 79 52 81 49 78 51 80 45 74 49 78 49 78 45 74 47 76 56 85 57 86 58 87 58 87 57 86 27 56 57 86 56 85 54 83 58 87 41 70 56 85 41 70 29 58 56 85 29 58 32 61 56 85 56 85 32 61 54 83 57 86 54 83 53 82 47 76 59 88 48 77 42 71 60 89 61 90 43 72 61 90 46 75 61 90 60 89 59 88 61 90 59 88 46 75 59 88 47 76 46 75 45 74 46 75 47 76 33 62 43 72 45 74 44 73 61 90 43 72 44 73 42 71 61 90 34 63 42 71 44 73 34 63 28 57 35 64 44 73 31 60 34 63 44 73 33 62 31 60 29 58 28 57 31 60 36 65 28 57 30 59 30 59 29 58 41 70 27 56 26 55 58 87 26 55 41 70 58 87 62 91 63 92 48 93 64 94 65 95 63 92 66 96 67 97 68 98 48 93 65 95 69 99 70 100 71 101 72 102 66 96 72 102 71 101 73 103 67 97 39 104 74 105 39 104 67 97 75 106 66 96 71 101 76 107 63 92 62 91 77 108 78 109 79 110 48 93 80 111 62 91 81 112 82 113 83 114 81 112 78 109 82 113 83 114 80 111 48 93 83 114 84 115 80 111 82 113 84 115 83 114 82 113 85 116 84 115 78 109 77 108 85 116 78 109 85 116 82 113 39 104 74 105 79 110 86 117 87 118 74 105 87 118 77 108 74 105 87 118 86 117 75 106 84 115 75 106 76 107 87 118 75 106 84 115 84 115 85 116 87 118 74 105 77 108 79 110 87 118 85 116 77 108 76 107 80 111 84 115 76 107 88 119 63 92 75 106 88 119 76 107 71 101 88 119 75 106 86 117 66 96 75 106 86 117 74 105 66 96 67 97 73 103 68 98 72 102 66 96 68 98 74 105 67 97 66 96 88 119 70 100 89 120 71 101 70 100 88 119 88 119 89 120 63 92 63 92 89 120 64 94 69 99 65 95 64 94 48 93 63 92 65 95 80 111 76 107 62 91 81 121 60 122 78 123 78 123 60 122 42 71 78 123 42 71 35 64 79 124 35 64 39 68 40 125 68 98 73 103 27 126 72 127 68 98 72 127 27 126 70 128 70 128 57 129 53 130 70 128 53 130 89 131 64 132 52 133 69 134 83 135 59 88 60 89 48 136 59 136 83 136 48 137 69 137 50 137 69 134 52 133 50 138 64 132 53 130 52 133 53 130 64 132 89 131 70 128 27 126 57 129 27 126 68 98 25 139 25 139 68 98 40 125 40 69 73 140 38 67 39 68 38 67 73 140 78 123 35 64 79 124 83 141 60 122 81 121 90 142 91 143 92 144 91 143 90 142 93 145 92 144 91 143 94 146 92 147 95 148 96 149 95 148 97 150 98 151 95 148 98 151 99 152 95 148 92 147 97 150 100 153 98 154 101 155 97 156 101 155 98 154 97 156 94 146 101 155 94 157 102 158 101 159 100 160 102 158 103 161 101 159 102 158 100 160 102 158 94 157 104 162 99 163 102 164 95 165 99 163 103 166 102 164 100 160 103 161 105 167 105 167 103 161 106 168 103 166 99 163 107 169 108 170 106 168 99 152 106 168 108 170 105 167 105 171 108 172 98 154 105 171 98 154 100 153 99 173 106 173 107 173 107 174 106 174 103 174 99 152 98 151 108 170 104 175 95 165 102 164 95 165 104 175 96 176 92 144 94 146 97 156 96 176 104 175 109 177 92 147 96 149 109 178 104 162 94 157 110 179 110 179 94 157 91 180 110 179 91 180 111 181 112 182 113 182 110 182 113 183 112 183 109 183 109 177 110 184 113 185 109 186 112 186 111 186 112 187 110 179 111 181 114 188 111 189 93 190 114 188 93 190 90 191 111 181 91 180 93 192 109 193 111 193 114 193 92 147 109 178 90 194 109 177 104 175 110 184 90 194 109 178 114 195</p>
        </triangles>
        <triangles material="qmat_ddc4e6410bf0a5b2" count="126">
          <input semantic="VERTEX" source="#vertices" offset="0" />
          <input semantic="NORMAL" source="#normals" offset="1" />
          <p>115 196 116 197 117 198 118 199 119 200 120 201 118 199 120 201 121 202 122 203 123 204 121 205 122 203 121 205 120 206 116 197 124 207 125 208 118 199 126 209 125 208 127 210 116 197 125 208 121 211 123 211 128 211 122 203 128 212 123 204 118 199 121 202 126 209 126 209 121 202 128 213 115 196 129 214 124 207 130 215 124 207 129 214 131 216 132 217 133 218 130 215 134 219 131 220 134 221 135 222 136 223 129 214 137 224 138 225 139 226 117 198 140 227 141 228 137 224 139 226 139 226 137 224 129 214 142 229 143 230 144 231 145 232 137 224 146 233 146 233 147 234 148 235 146 233 149 236 147 234 149 236 150 237 145 232 151 238 152 239 153 240 125 208 126 209 154 241 155 242 156 243 157 244 144 245 157 246 158 247 159 248 160 249 128 212 126 209 128 213 160 250 155 242 161 251 154 241 137 224 161 251 162 252 142 229 144 231 158 253 144 245 143 254 150 255 144 245 163 256 157 246 144 245 150 255 163 256 162 252 155 242 164 257 137 224 164 257 150 237 163 256 164 258 157 246 152 239 161 251 165 259 140 227 151 260 166 261 161 251 167 262 165 259 152 239 165 259 153 240 168 263 153 240 169 264 170 265 168 263 171 266 166 261 153 240 168 263 153 240 165 259 172 267 173 268 166 261 170 265 174 269 169 264 175 270 170 265 171 266 176 271 172 267 177 272 178 273 176 274 171 274 179 274 169 264 172 267 178 273 169 275 178 276 177 277 175 278 169 275 177 277 165 259 175 279 172 267 172 267 175 279 177 272 116 197 115 196 124 207 130 215 119 200 124 207 119 200 118 199 124 207 122 280 133 218 142 229 133 218 122 203 120 206 119 200 130 215 131 220 120 201 119 200 131 220 133 218 132 217 142 229 133 218 120 206 131 216 117 198 116 197 127 210 124 207 118 199 125 208 140 227 117 198 127 210 159 281 142 229 158 253 122 203 159 248 128 212 122 280 142 229 159 281 138 225 130 215 129 214 115 196 139 226 129 214 132 217 131 216 136 282 142 283 132 217 135 284 134 219 138 225 135 285 131 286 134 221 136 223 135 284 132 217 136 282 130 215 138 225 134 219 139 226 115 196 117 198 150 237 135 287 145 232 142 283 135 284 150 255 138 225 145 232 135 285 138 225 137 224 145 232 150 255 143 254 142 283 146 233 137 224 149 236 148 235 147 234 145 232 147 234 149 236 145 232 146 233 148 235 145 232 151 238 127 210 154 241 154 241 127 210 125 208 140 227 127 210 151 260 151 238 154 241 152 239 155 242 154 241 156 243 156 243 154 241 160 250 158 247 156 288 160 249 156 288 158 247 157 246 159 248 158 247 160 249 154 241 126 209 160 250 154 241 161 251 152 239 155 242 162 252 161 251 137 224 167 262 161 251 137 224 141 228 167 289 163 256 150 290 164 258 164 257 155 242 157 244 137 224 162 252 164 257 149 236 137 224 150 237 139 226 173 268 141 228 139 226 140 227 173 268 173 268 140 227 166 261 166 261 151 238 153 240 141 228 173 268 167 289 173 268 175 291 167 289 170 265 166 261 168 263 169 264 153 240 172 267 173 268 174 292 175 291 165 259 167 262 175 279 174 269 168 263 169 264 171 293 168 294 179 295 173 268 170 265 176 271 174 292 173 268 176 271 168 294 174 296 179 295 176 271 179 297 174 292</p>
        </triangles>
      </mesh>
    </geometry>
  </library_geometries>
  <library_visual_scenes>
    <visual_scene id="scene">
      <node id="thigh_dae">
        <instance_geometry url="#geometry">
          <bind_material>
            <technique_common>
              <instance_material symbol="qmat_4b294f1aa1dfaafb" target="#qmat_4b294f1aa1dfaafb" />
              <instance_material symbol="qmat_ddc4e6410bf0a5b2" target="#qmat_ddc4e6410bf0a5b2" />
            </technique_common>
          </bind_material>
        </instance_geometry>
      </node>
    </visual_scene>
  </library_visual_scenes>
  <scene>
    <instance_visual_scene url="#scene" />
  </scene>
</COLLADA>