<?xml version='1.0' encoding='utf-8'?>
<COLLADA xmlns="http://www.collada.org/2005/11/COLLADASchema" version="1.4.1">
  <asset>
    <created>2026-09-14T00:00:00Z</created>
    <modified>2026-09-14T00:00:00Z</modified>
    <unit name="metre" meter="1" />
    <up_axis>Z_UP</up_axis>
  </asset>
  <library_effects>
    <effect id="qmat_4b294f1aa1dfaafb_effect">
      <profile_COMMON>
        <technique sid="common">
          <lambert>
            <emission>
              <color sid="emission">0 0 0 1</color>
            </emission>
            <diffuse>
              <color sid="diffuse">0.6717055 0.6924257 0.7742702 1</color>
            </diffuse>
            <reflectivity>
              <float sid="specular">0.5</float>
            </reflectivity>
          </lambert>
        </technique>
      </profile_COMMON>
    </effect>
    <effect id="qmat_ddc4e6410bf0a5b2_effect">
      <profile_COMMON>
        <technique sid="common">
          <lambert>
            <emission>
              <color sid="emission">0 0 0 1</color>
            </emission>
            <diffuse>
              <color sid="diffuse">0.9 0.95 0.95 1</color>
            </diffuse>
            <reflectivity>
              <float sid="specular">0.5</float>
            </reflectivity>
          </lambert>
        </technique>
      </profile_COMMON>
    </effect>
  </library_effects>
  <library_materials>
    <material id="qmat_4b294f1aa1dfaafb" name="qmat_4b294f1aa1dfaafb">
      <instance_effect url="#qmat_4b294f1aa1dfaafb_effect" />
    </material>
    <material id="qmat_ddc4e6410bf0a5b2" name="qmat_ddc4e6410bf0a5b2">
      <instance_effect url="#qmat_ddc4e6410bf0a5b2_effect" />
    </material>
  </library_materials>
  <library_geometries>
    <geometry id="geometry" name="thigh_mirror_dae">
      <mesh>
        <source id="positions">
          <float_array id="positions_array" count="540">0.048375193 0.0565325692 -0.000785094919 0.0372129604 0.0514553748 -0.000441990007 0.048415754 0.0488433689 -0.00130594242 0.0318618156 0.0484949909 -0.0191123821 0.0348253176 0.056795001 -0.0136142233 0.0169750191 0.056795001 -0.0333667919 0.0424218811 0.0563187338 -0.0227744821 0.043539416 0.0525003262 -0.00737898983 0.0406973995 0.0491571575 -0.0256556366 0.0109997075 0.0484949909 -0.0359042659 -0.0144545473 0.056795001 -0.0343516357 -0.0245689489 0.0484949909 -0.0288657695 -0.016476687 0.0565080792 -0.0445729382 -0.0383731276 0.056795001 -0.00201627985 -0.037025135 0.0487449691 -0.000445990008 -0.0176798757 0.048915416 -0.0441549346 -0.0418274924 0.04891821 -0.0229573697 -0.0412342399 0.0560122095 -0.024031749 -0.0479285605 0.0487918742 -0.00121736468 0.0157640222 0.0487728529 -0.0449899696 0.0203372333 0.0563152358 -0.0432350934 -0.0479515754 0.0564150959 -0.001225607 -0.0413842462 0.0525654964 -0.00531157106 -0.0465589799 0.0531871654 -0.0110755349 0.046989359 0.0518696904 -0.0112780659 0.0311363824 0.021536395 0.0401580893 0.00418161741 0.0217998065 0.0504152551 0.0223599076 0.010949201 0.0448781922 0.0217207242 -0.0075036413 0.024401281 0.0190569032 -0.00166476809 0.0287504159 0.00622443482 -0.00187436678 0.0333380662 -0.0138572687 -0.00227791024 0.0316966772 -0.00256291032 -0.00698630465 0.0323102102 -0.0239372123 -0.00410344731 0.0259748921 0.0109969229 -0.0123323388 0.0237532873 0.0296855718 -0.00847127102 0.0106685031 0.0260281451 -2.29321304e-05 0.022798907 0.0308558531 0.00764945755 0.035622444 0.0316336155 0.0074279746 0.0123864831 0.0437676497 0.0167176519 0.0252085011 0.0408877097 0.0216342993 0.030376561 0.0215698536 0.00572677935 0.041980695 0.0137233539 -0.015542266 -0.00582494121 -0.0310411714 -0.00935277343 0.0144129712 -0.0110299401 -0.012716447 0.0235843565 -0.0371456593 -0.00244394434 0.0103169661 -0.0380621031 -0.00748533197 0.00278736232 -0.0404579528 -0.00248306803 -0.000433139503 -0.0452660285 0.00493060937 0.00282521313 -0.0403704792 -0.00286774803 -0.0173530262 -0.0479223616 0.0204143692 -0.0155811813 -0.0450824946 0.00753857475 0.013152671 -0.0478615724 0.0215229262 0.0152522614 -0.0395628512 0.0216039177 0.0311169419 -0.0368703865 0.00618311949 0.0273066815 -0.0246111546 0.00640481804 0.0391161889 -0.0111409724 0.00670836261 0.0453000739 -0.00462561473 0.0109346276 0.048880782 -0.0246678405 0.0216334946 0.0439813174 -0.039620433 -0.00963425264 -0.0173531547 -0.0252695512 -0.0142266722 0.00306657981 0.00209708093 -0.0157648418 -0.0159768481 -0.0387060009 -0.00139483891 -0.0036008507 -0.0420104824 0.00728088245 0.0127012748 -0.046005711 0.0218079593 0.0144704403 -0.0445844606 0.0113059003 -0.00606233533 0.0195091311 0.00732708396 0.0442709997 0.0282205064 0.02180795 0.0397609733 0.03216305 0.0119578959 0.0336151235 -0.0457053632 0.0204810668 -0.015512771 -0.0197803825 0.02180795 0.0449118093 0.00838154089 0.02180795 0.0480786152 -0.00779940886 0.0087755844 0.0444183201 0.0424344502 0.0193079691 0.0247738231 0.021918349 0.00114500104 0.0247291438 -0.017090315 -0.000596385624 0.0287178028 -0.0336616784 -0.00170438085 0.0117395753 0.0217360314 -0.00900910422 0.0224277321 0.0290060882 -0.00704777846 0.00960986223 0.0182482544 -0.0129213827 -0.00175806379 -0.0362359509 -0.00622062944 0.00116042071 0.00290818885 -0.0132997483 -0.015707761 -0.034125831 -0.0105340937 -0.0173505079 -0.0140842535 -0.0135792308 0.000608985894 -0.0228251107 -0.00772762904 0.0208646841 -0.00652183127 -0.0112309419 0.0212317668 0.00613600016 -0.000475115317 0.0313676856 0.000918548438 -0.00653938577 0.0296739321 -0.0286965482 0.00685333973 0.032370422 -0.0400396585 0.0218079537 0.0278908554 -0.0374001414 0.0565855429 0.00172753679 -0.0226080064 0.056795951 0.0313549452 -0.0313860439 0.0484959409 0.0203563701 -0.0369760133 0.048689086 0.0017461488 -0.00727978256 0.0484959297 0.0384977274 -0.00317813968 0.0487459712 0.0486779399 -0.0303050485 0.0487459712 0.0378796607 -0.0166074242 0.0565459616 0.0457569733 0.011037197 0.05641675 0.0476127081 0.0388166532 0.056795951 0.00313445204 0.0128558259 0.0567959398 0.0367234126 0.0405795649 0.0562470667 0.0270716343 0.0382782221 0.0486757234 0.00175784784 0.0240447558 0.0484959409 0.0296376254 0.0185449012 0.0487459712 0.0451838151 0.0406925529 0.0489959717 0.0269090477 0.0484094508 0.0487709083 0.00213543978 0.0465120375 0.0526459813 0.0118997497 0.0483883359 0.0565380491 0.00208800728 -0.0389036462 0.0562903434 0.028819615 -0.0441259965 0.0494561531 0.0195859727 -0.0479147024 0.0487459786 0.00227709161 -0.0432488769 0.0526340157 0.00862099044 -0.0461923182 0.0544436835 0.0137435487 -0.0479482822 0.0564411283 0.00245179236 0.0189125817 0.0451959819 0.0445736945 0.0238854587 0.0352536477 0.0425480604 -0.00498807151 0.0468959697 0.048468817 0.0433509909 0.0476027019 0.0218950007 0.0331369117 0.046366971 0.0316459127 -0.0185486618 0.0353375338 0.044909507 0.0428595133 0.0351975188 0.0159647446 -0.00598236965 0.0187992901 0.0482570827 0.0303652976 0.0182230696 0.0376272462 0.0213659927 -0.00617876602 0.0219048765 -0.00420595054 -0.00725535071 0.0293601211 0.00500198593 -0.0132866688 0.0033772178 0.0159579832 0.00805153325 0.0298818294 -0.0188313257 0.00812396966 0.0294436123 0.032556653 0.00861157384 0.00819765776 0.0457320809 0.0187329613 0.0161619205 0.0430963226 0.0453959703 0.0140446713 0.0443385653 0.0451959893 -0.0177815761 0.0435310006 0.0352985971 -0.0146599896 0.0452860817 0.0186362769 -0.0159650613 0.0309956837 -0.00523849903 -0.0118572265 -0.0217894539 0.0459710695 0.043343842 -0.040372856 0.0467428565 0.0198348034 -0.0450306013 0.0478181243 0.0164772607 -0.0433647037 0.0353342891 0.021005746 -0.0365667343 0.00665531727 0.00768681755 -0.0284613445 -0.00524738198 0.0182035454 -0.040864829 0.00918238051 -0.0230253562 -0.0415087491 0.0179872252 0.0239755753 -0.0433939733 0.0451959893 -0.0173115991 -0.0392959043 0.0351959392 -0.0237637293 -0.0371188447 -0.0077103856 -0.0188074559 0.00800759997 -0.00779758813 -0.0832057521 0.0143067958 0.00819665659 -0.0614132322 0.0226544458 0.0352550931 -0.0403334573 0.0211459901 0.047076147 -0.0424059518 0.00284544076 0.0468959883 -0.046277158 0.0255808737 0.0167385284 -0.0397512056 -0.0166112054 0.0352497399 -0.0444764048 -0.00836419314 0.0162736494 -0.0481836051 0.0302941874 0.00870822463 -0.026822526 -0.0369133577 0.0096396124 -0.0643329397 -0.0326049142 0.0463937484 -0.0303310603 -0.0172538254 0.0463774875 -0.0394507013 -0.0249896832 0.0478959717 -0.0405079164 -0.0345706455 0.0168977249 -0.0350222215 -0.0206940006 -0.0115598431 -0.147947207 -0.00274716294 -0.0104826652 -0.159490287 -0.0065908432 0.0181812588 -0.173078015 0.0157326274 0.0133473212 -0.211971924 -0.00689599244 0.0190116782 -0.219011262 -0.0310064591 0.0118970443 -0.152273327 -0.0297137983 0.0158308428 -0.185010031 0.0169192329 -0.0073721814 -0.215814516 0.00888715312 -0.0160424188 -0.216223195 -0.0179884154 -0.0160709191 -0.206586674 -0.00457685255 -0.00749345496 -0.227354005 0.00283231749 0.0110151442 -0.179410577 -0.0292304475 0.0114847403 -0.199244589 0.00638669496 0.0118044419 -0.227354005 0.0247612633 0.0461712144 -0.0362309553 -0.0328881741 -0.00717544928 -0.165381297 -0.00165968924 0.00829865038 -0.143650651 0.00186749839 -0.00680943625 -0.180118516 -0.0275672451 -0.00656554801 -0.197294027</float_array>
          <technique_common>
            <accessor source="#positions_array" count="180" stride="3">
              <param name="X" type="float" />
              <param name="Y" type="float" />
              <param name="Z" type="float" />
            </accessor>
          </technique_common>
        </source>
        <source id="normals">
          <float_array id="normals_array" count="885">0.0611477867 -0.0671350807 0.995868385 -0.80819732 -0.0333059467 0.587969244 -0.564982831 0.723933637 0.395871848 -0.538491309 0.79840225 0.269408584 -0.48623392 0.0164963081 0.873672962 0.918955803 -0.0647822469 -0.389003217 0.975208461 -0.187625855 -0.117324203 0.822666824 -0.00433132472 -0.568507314 -0.198222131 -0.0627128929 0.978148818 0.318633676 0.121860728 0.940011978 0.681807101 -0.276733905 0.677168667 -0.014574104 0.999475241 -0.0289287716 -0.0419050306 0.998689175 -0.0293918289 -0.0164389927 0.999557137 -0.0248060822 0.0203131866 0.999036551 -0.0389011428 0.549952984 0.204371884 0.809804857 0.553008378 0.173222333 0.814969778 -0.873892963 0.295984894 -0.385621578 -0.00445993058 -0.999967337 -0.00674395589 -0.00541521003 -0.999963939 -0.00654024631 -0.00578722032 -0.999962389 -0.00646091485 -0.385150701 0.000979122357 -0.922853172 -0.876689553 0.011286349 -0.4809241 -0.313212544 0.0185363404 -0.94950211 -0.918853641 0.0171351992 -0.394226342 -0.00381488795 -0.999969065 -0.00688150525 -0.119699776 0.991452515 -0.0519029051 0.229717568 0.0630953312 -0.971210003 0.450886935 -0.0330730565 -0.891968131 0.0135761779 -0.999632776 -0.0234521423 0.108069889 -0.992631376 -0.0548073575 0.0102360109 -0.999553084 -0.0280856583 -0.00583812641 -0.999513507 -0.0306385811 -0.00597133767 -0.999526739 -0.0301762931 0.0127066132 -0.999889493 -0.00771318609 0.698449194 -0.714314163 -0.0438638404 0.0197875537 0.998929083 -0.0418223403 -0.755552113 0.639489055 -0.142108142 0.0825311914 -0.980231881 -0.179816812 -0.962388635 0.0744800344 -0.261267751 -0.981258988 -0.0836175978 -0.173605651 -0.0705660284 0.000865509268 0.997506738 -0.0119041782 0.0843161196 0.996367931 0.332317889 0.921954274 -0.198909834 -0.996397197 0.0844708383 0.00756860944 -0.919205129 -0.296017319 -0.259683758 -0.0200345498 0.984027982 -0.176883027 -0.38586992 -0.901578963 -0.195600972 -0.222174287 0.941364288 0.253913015 0.0336546116 0.999099135 -0.0258517768 0.98072958 0.0939705297 -0.171286404 0.957622886 -0.112666734 -0.26507479 0.921840906 0.294084638 -0.252435237 -0.206529036 -0.955485761 0.210695654 0.612016499 -0.148133263 0.776847661 0.0774045214 -0.109583639 0.990959108 0.398368359 -0.253756225 0.881425202 0.532650948 -0.602999449 0.593864083 0.415082902 -0.66039592 0.625766277 0.127788246 -0.689821362 0.71261251 -0.207399487 -0.703845203 0.679402232 -0.042608317 -0.515055537 0.856097162 -0.421259969 -0.701584756 0.574733794 0.186566606 -0.879673362 0.437455863 0.834329545 -0.546299636 -0.0738301501 0.755032599 -0.541428089 0.369839787 0.635744631 -0.590230167 0.49745062 0.869824946 -0.493306726 0.00728467712 0.985603511 -0.147414505 -0.0827930048 0.770228267 -0.167970315 0.615251482 0.319299996 -0.687812686 0.651890516 0.518140495 -0.725675344 -0.452687204 -0.581003428 -0.687529683 0.435589194 -0.164733306 -0.886997163 0.431391895 -0.758254111 -0.54367429 0.359817952 -0.761415124 -0.609803617 0.219969437 -0.883290708 -0.450835258 0.128627598 -0.909966826 -0.410051435 0.0617917366 -0.970584929 -0.237221524 -0.0411200523 -0.969154119 -0.238785475 -0.0610061623 -0.87012279 -0.416415721 0.26359874 -0.940671444 -0.214966938 0.262538433 -0.755288363 -0.261316776 0.601043224 -0.689648151 -0.502752066 0.521177351 -0.458287001 -0.523439348 0.718320489 -0.205804169 -0.587216079 0.782829404 -0.0837499648 -0.350436062 0.932834685 -0.480266452 -0.209502667 0.851735175 -0.73867166 -0.674038112 0.00606410624 -0.240330726 -0.967589438 0.0775361359 -0.0540437438 -0.998529255 0.00430728635 0.861972868 0.47318241 -0.181937411 0.8809129 0.470743418 -0.0489196554 0.836317122 0.471036106 -0.280532777 0.936105728 0.264160782 -0.232217982 0.972863674 0.231378332 -0.00059282803 -0.348387033 0.5430516 -0.764016688 -0.347336203 0.835210383 -0.426358044 -0.707135975 0.517098069 -0.482253313 0.98378253 0.172129601 0.0504310355 0.401688665 0.303913653 -0.863876581 -0.0857676342 0.147021353 -0.985407829 0.159082755 0.541680455 -0.825393796 -0.642454445 0.666736662 -0.377775818 -0.765500069 0.558289051 -0.319879621 -0.614436388 0.589047909 -0.524871826 0.298045397 0.688720047 -0.660933971 0.687524438 0.606181026 -0.399818361 -0.503639579 0.649208963 -0.569977999 -0.689007282 0.648873389 -0.322850138 -0.117201187 0.989029229 -0.0899166688 0.742316365 0.621102035 -0.251393557 0.00949357729 0.999590099 0.0270083174 0.491051763 0.868839562 -0.0631343424 0.121057332 0.990381956 -0.0669980943 0.490057915 0.683191836 -0.541379809 0.0861222371 0.930966377 -0.354802072 -0.138244569 0.713331103 -0.687056899 -0.00763342949 0.591917276 -0.805962563 0.539253771 0.567257941 -0.622433782 0.759326637 0.338629693 -0.555655479 0.44188714 -0.0476122051 -0.895806253 0.728777289 -0.428948462 -0.533747911 0.328545272 0.00200161408 -0.944486082 0.787932754 -0.0781272203 -0.610784829 -0.292364389 0.863663971 -0.410618633 0.000873205019 0.999960244 0.00887303706 0.00486717094 0.999913275 0.0122353202 -0.138665274 0.80076164 0.582711577 -0.0747293532 0.99457413 0.0723731443 -0.047042422 0.997080088 0.0601522624 -0.178061739 0.980049253 0.0883034915 -0.15203768 0.988371015 0.00268967263 -0.0343503356 0.998752952 -0.0362304524 -0.142263725 0.98972702 0.0141954413 -0.14416562 -0.87895596 0.454590648 0.00049430778 7.37288501e-05 -0.999999881 0.0281785559 0.0849377289 -0.995987713 -0.0289463252 0.998937607 -0.035857968 0.0783569217 0.991617262 0.102739513 0.863616586 0.391107321 -0.318121672 0.0509669781 0.0917855799 -0.994473636 0.943136513 -0.0541002117 -0.327973604 0.601872444 0.123775452 -0.78894186 0.855157077 -0.163516954 -0.491903067 0.956641257 0.0507073477 -0.286820889 0.165049046 -0.257561386 -0.952061415 -0.00106142077 -0.999687374 0.024981156 -0.492078274 -0.600832403 0.629967809 -0.0058766338 -0.999690711 0.0241640955 -0.0249533076 0.999377429 0.0249418579 -0.00455072522 0.999804318 0.0192517806 0.0104139009 0.999473214 0.0307382923 0.0280823112 0.999364734 0.021944575 0.0342237875 0.998593688 0.0404893719 0.0219232552 0.99953264 0.0213049911 -0.49440673 0.177052423 -0.851007879 -0.69242698 -0.273299068 -0.667721927 -0.531920314 0.0691044554 -0.843970001 -0.331690162 0.119508147 -0.935788155 0.109178536 -0.99252212 0.0545884147 0.0120672164 -0.999745131 0.0190814026 0.0149359433 -0.999805987 0.0128393956 0.0184456762 -0.999769807 0.0109593812 0.805969894 0.0478881598 0.590016305 0.231777146 0.0246000942 0.972457826 0.474272877 0.157632291 0.866150856 0.815488577 -0.0227550063 0.578325629 0.00895168167 -0.999889433 0.0118719554 0.956484258 0.00560671976 0.291730046 0.97390002 0.072621502 0.215046078 0.974588931 -0.0638282821 0.214714691 -0.0443358123 0.0710523725 -0.996486783 -0.108846754 -0.00636637164 -0.994038165 0.0291971397 0.999357939 0.0207652431 -0.0817091987 0.0995965898 0.99166733 -0.356074989 -0.113029711 0.927596271 -0.813810349 0.00652514398 0.581093907 -0.0732557923 0.996751308 0.0334719159 -0.0247293394 -0.999609411 0.013017823 -0.825665891 -0.515652776 0.228862435 -0.0359324031 -0.999298036 0.0105973091 0.770765066 0.592804015 0.233462259 -0.844188333 0.529131711 0.0858236626 -0.208012983 -0.95366472 0.217380345 -0.905753016 0.348519832 0.241133675 -0.727351606 0.674320519 0.12748149 -0.984221399 -0.046208214 0.170800999 -0.0563388616 0.0111342659 -0.998349607 -0.0603450984 0.00544678047 -0.998162687 -0.0483521894 0.0224594641 -0.998577833 -0.0684171915 -0.00602626894 -0.997638583 -0.00562251313 -0.999946475 -0.0086884303 -0.965226233 -0.145409703 0.217242554 -0.0137073779 0.999906003 -0.000257493899 -0.347017944 0.0147603489 -0.937742352 -0.407230437 0.621678352 -0.669088483 0.0134388059 0.244557962 -0.96954155 -0.904665768 0.168082878 -0.391571254 -0.593327582 -0.432133108 -0.679134309 0.327268749 0.656168997 -0.679953992 -0.964753568 0.132911965 -0.227123201 0.403706014 -0.0158361867 0.914751709 -0.0637391508 -0.00526485872 0.9979527 -0.116744034 -0.451776564 0.884459615 0.545589507 -0.446123242 0.709440708 0.566971302 -0.628451586 0.532533646 -0.0723750144 -0.6608845 0.746989608 0.0620488189 -0.994692683 0.0820757374 0.338946223 -0.611032009 0.715370715 -0.384184599 -0.545499861 0.744870484 0.750582218 -0.628431201 0.204207182 0.867211461 -0.425437391 0.258741766 -0.991204739 0.131023511 -0.0186020043 -0.916267395 0.145412073 0.373241752 -0.954975009 0.152056292 0.254757911 0.929592073 0.0363232084 -0.366795778 0.883105576 -0.384464264 -0.268908471 0.790935397 -0.60910517 -0.0584130995 0.611653566 0.0836261287 -0.786693454 0.774600029 0.487318933 -0.403131574 0.284308016 0.954622567 -0.0886833593 0.891519785 -0.217840895 -0.397162229 0.00144055951 0.999995887 -0.00249121268 -0.000122693469 1 -0.000118068943 -0.853049576 -0.452062875 0.260663837 -0.603497684 -0.62996769 0.48880595 -0.957396805 -0.0243657064 0.287745744 -0.991140783 -0.0686496049 -0.113697708 -0.80300653 -0.376124263 0.462288976 0.952122867 0.158343017 0.261513889 0.833252907 0.0637956038 0.549199104 -0.681459844 -0.730703294 0.0410507321 0.0500816032 -0.998714507 0.00782016292 0.951268315 -0.0364173315 -0.306206465 0.975172937 -0.0768999085 -0.207663625 -0.537335992 0.0811617225 0.839453876 -0.526159942 0.0812673047 0.846493542 -0.0471867435 0.168544158 0.984564006 0.707508504 0.0279075131 -0.706153631 0.458166897 -0.0107992291 -0.888800561 0.403188169 -0.223748848 0.887341976 0.0591716953 0.0286921151 -0.997835398 -0.0451276675 0.629428327 -0.775747001 0.825974464 -0.428522974 -0.366243362 0.0669879392 0.964373589 -0.255922258 -0.759474874 0.638781548 -0.123109937 0.558333039 0.496393681 0.664723694 0.411371887 0.441324741 0.797499657 0.153554663 0.946236074 0.284707397 -0.535575032 0.0739839301 -0.841240585 -0.780734003 0.485108018 -0.393858612 -0.00065990811 0.999998629 0.00151329546 0.000299291336 0.999999762 -0.000658596226 -0.127629489 -0.991537273 0.0237599723 0.124605052 -0.989358485 0.075122498 0.181366608 0.970483243 0.158960432 0.305752039 0.950378239 -0.0574188605 0.119547784 0.987842679 -0.0993741155 0.00503889984 0.991441488 0.130454347 -0.709141552 0.704275846 -0.0333734378 0.717476964 -0.65327096 -0.241793081 0.405891001 -0.847779512 -0.341353714 -0.497668207 -0.805052102 -0.322827339 -0.150699124 -0.74246031 -0.652719319 -0.00305650104 -0.997353137 -0.0726454556 0.0352643244 -0.999143779 -0.0216377992 0.0414113775 -0.999118388 0.00689204223 0.0593446791 -0.996192455 0.0638650507 -0.832091153 0.505018532 -0.229304567 0.910656512 0.0530912913 0.409739047 -0.53311497 -0.0501434244 0.844555557 0.266546756 0.961843014 -0.0617316253 -0.947584152 -0.0159179028 -0.319109529 -0.764775753 -0.0920538232 0.63768661 -0.18717055 0.950285316 0.248847395 -0.0059813722 0.999977112 0.0031690977 -0.00107487559 0.99999845 0.00140843156 -0.867627621 -0.496549487 -0.0257087536 0.119290903 0.899846017 0.419579387 0.991037428 -0.0882178992 0.10031151 0.998169184 -0.0115682995 -0.0593666285 -0.989968538 0.132105857 -0.0501033925 0.151428819 0.982250452 0.110695116 0.510623574 -0.030342387 -0.859268844 0.901662171 -0.0316765159 -0.43127948 0.810789704 0.581132054 -0.0700399354 -0.0159921106 -0.996845841 -0.0777340084 -0.888655007 -0.402359813 -0.219997495 0.503141463 -0.0468898006 -0.862931073 0.0379309691 0.999280334 0.000240547946 0.0181775037 0.99969095 -0.0169565286 0.00953250565 0.999830067 -0.0157790985 0.314619362 0.906340182 -0.282067657 -0.602568567 -0.223767564 -0.766054273</float_array>
          <technique_common>
            <accessor source="#normals_array" count="295" stride="3">
              <param name="X" type="float" />
              <param name="Y" type="float" />
              <param name="Z" type="float" />
            </accessor>
          </technique_common>
        </source>
        <vertices id="vertices">
          <input semantic="POSITION" source="#positions" />
        </vertices>
        <triangles material="qmat_4b294f1aa1dfaafb" count="218">
          <input semantic="VERTEX" source="#vertices" offset="0" />
          <input semantic="NORMAL" source="#normals" offset="1" />
          <p>0 0 1 0 2 0 3 1 1 2 4 3 3 1 4 3 5 4 6 5 7 6 8 7 5 4 9 8 3 1 5 4 10 9 9 8 11 10 9 8 10 9 12 11 13 12 10 13 12 11 10 13 5 14 14 15 11 10 13 16 11 17 14 17 15 17 14 18 16 19 15 20 15 21 17 22 12 23 15 21 16 24 17 22 14 18 18 25 16 19 12 11 17 26 13 12 12 23 19 27 15 21 12 23 20 28 19 27 19 29 8 30 9 31 15 32 19 29 9 31 9 31 11 33 15 32 8 30 3 34 9 31 20 28 6 5 8 7 20 28 8 7 19 27 8 30 2 35 3 34 5 14 20 36 12 11 17 26 21 37 13 12 22 38 23 38 17 38 23 39 18 40 21 37 18 41 14 15 21 42 14 15 13 16 21 42 23 43 22 43 16 43 16 24 22 44 17 22 23 39 16 45 18 40 17 26 23 39 21 37 10 9 13 16 11 10 8 46 7 46 24 46 7 47 6 47 24 47 4 3 0 48 6 49 4 3 1 2 0 48 0 50 2 35 24 51 24 51 6 52 0 50 8 30 24 51 2 35 2 35 1 53 3 34 5 14 4 3 6 49 5 14 6 49 20 36 25 54 26 55 27 56 28 57 29 58 30 59 30 59 31 60 32 61 31 60 33 62 32 61 34 63 28 57 32 61 35 64 36 65 28 57 37 66 25 54 27 56 36 65 38 67 39 68 39 68 37 66 36 65 39 68 40 69 37 66 40 69 25 54 37 66 41 70 37 66 27 56 37 66 41 70 36 65 41 70 29 58 36 65 36 65 35 64 38 67 42 71 35 64 34 63 43 72 44 73 33 62 45 74 46 75 43 72 47 76 48 77 49 78 48 77 50 79 49 78 51 80 52 81 48 77 51 80 53 82 52 81 53 82 54 83 55 84 55 84 54 83 33 62 51 80 45 74 54 83 53 82 51 80 54 83 54 83 45 74 33 62 55 84 33 62 31 60 50 79 48 77 52 81 51 80 48 77 45 74 48 77 47 76 45 74 56 85 57 86 58 87 57 86 26 55 58 87 58 87 55 84 56 85 57 86 56 85 41 70 41 70 56 85 30 59 30 59 56 85 31 60 56 85 55 84 31 60 58 87 53 82 55 84 47 76 49 78 59 88 42 71 60 89 61 90 43 72 46 75 60 89 60 89 59 88 61 90 60 89 46 75 59 88 59 88 46 75 47 76 45 74 47 76 46 75 33 62 45 74 43 72 44 73 43 72 60 89 44 73 60 89 42 71 34 63 44 73 42 71 34 63 35 64 28 57 44 73 34 63 32 61 44 73 32 61 33 62 30 59 32 61 28 57 36 65 29 58 28 57 29 58 41 70 30 59 26 55 57 86 27 56 27 56 57 86 41 70 62 91 49 92 63 93 64 94 63 93 65 95 66 96 67 97 68 98 49 92 69 99 65 95 70 100 71 101 72 102 66 96 72 102 71 101 73 103 38 104 68 98 74 105 68 98 38 104 75 106 72 102 66 96 76 107 62 91 63 93 77 108 78 109 79 110 49 92 62 91 80 111 81 112 82 113 83 114 81 112 83 114 79 110 82 113 49 92 80 111 82 113 80 111 84 115 83 114 82 113 84 115 83 114 84 115 85 116 79 110 85 116 77 108 79 110 83 114 85 116 38 104 78 109 74 105 86 117 74 105 87 118 87 118 74 105 77 108 87 118 75 106 86 117 84 115 76 107 75 106 87 118 84 115 75 106 84 115 87 118 85 116 74 105 78 109 77 108 87 118 77 108 85 116 76 107 84 115 80 111 76 107 63 93 88 119 75 106 76 107 88 119 72 102 75 106 88 119 86 117 75 106 66 96 86 117 66 96 74 105 68 98 67 97 73 103 71 101 67 97 66 96 74 105 66 96 68 98 88 119 89 120 70 100 72 102 88 119 70 100 88 119 63 93 89 120 63 93 64 94 89 120 69 99 64 94 65 95 49 92 65 95 63 93 80 111 62 91 76 107 81 121 79 122 61 123 79 122 42 71 61 123 79 122 35 64 42 71 78 124 38 67 35 64 40 125 73 103 67 97 26 126 67 97 71 127 71 127 70 128 26 126 70 128 53 129 58 130 70 128 89 131 53 129 64 132 69 133 52 134 82 135 61 90 59 88 49 136 82 136 59 136 49 137 50 137 69 137 69 133 50 138 52 134 64 132 52 134 53 129 53 129 89 131 64 132 70 128 58 130 26 126 26 126 25 139 67 97 25 139 40 125 67 97 40 69 39 68 73 140 38 67 73 140 39 68 79 122 78 124 35 64 82 141 81 121 61 123 90 142 91 143 92 144 92 144 93 145 90 142 91 143 94 146 92 144 95 147 96 148 94 149 91 150 97 151 98 152 98 152 99 153 100 154 98 152 101 155 99 153 98 152 100 154 91 150 102 156 103 157 99 158 100 159 99 158 103 157 100 159 103 157 94 146 94 149 103 160 104 161 102 162 105 163 104 161 103 160 102 162 104 161 104 161 95 147 94 149 101 164 98 165 104 166 101 164 104 166 105 167 102 162 106 168 105 163 105 167 107 169 101 164 108 170 101 164 107 169 107 169 106 171 108 170 106 172 99 158 108 173 106 172 102 156 99 158 107 169 105 167 106 171 101 155 108 174 99 153 95 175 104 166 98 165 98 165 97 176 95 175 91 143 100 159 94 146 97 176 109 177 96 148 91 150 109 178 97 151 96 148 92 179 94 149 109 177 110 180 96 148 96 148 111 181 92 179 112 182 113 182 110 182 112 183 110 180 109 177 113 184 112 184 109 184 113 185 109 178 114 186 114 186 111 187 113 185 114 188 93 189 111 190 114 188 90 191 93 189 111 181 93 192 92 179 111 187 110 193 113 185 91 150 114 186 109 178 91 150 90 194 114 186 111 181 96 148 110 180 96 148 95 175 97 176</p>
        </triangles>
        <triangles material="qmat_ddc4e6410bf0a5b2" count="126">
          <input semantic="VERTEX" source="#vertices" offset="0" />
          <input semantic="NORMAL" source="#normals" offset="1" />
          <p>115 195 116 196 117 197 118 198 116 196 119 199 117 197 116 196 120 200 118 198 121 201 116 196 115 202 117 203 122 204 115 202 122 204 123 205 124 206 125 207 126 208 123 205 122 204 127 209 127 209 128 210 125 207 123 205 129 211 130 212 131 213 118 198 132 214 132 214 133 215 131 213 132 216 130 212 134 217 130 212 129 211 134 217 124 206 126 208 135 218 136 219 137 220 138 221 137 220 120 200 139 222 139 223 120 200 121 224 140 225 141 226 128 210 128 210 141 226 125 207 138 227 142 228 143 229 144 230 139 222 145 231 143 229 142 228 140 225 140 225 146 232 141 226 126 208 146 232 147 233 148 234 135 218 147 235 132 214 149 236 133 215 150 237 151 238 149 236 132 216 152 239 150 240 132 216 134 217 152 239 151 238 153 241 149 236 151 242 152 239 154 243 152 239 155 244 148 234 148 234 155 244 135 218 154 243 148 245 156 246 157 247 158 248 159 249 159 250 151 242 154 243 159 250 154 243 160 251 158 248 145 231 153 241 121 224 153 252 145 253 142 228 156 246 146 232 147 233 161 254 162 255 163 256 164 257 165 258 166 259 163 256 167 260 168 261 162 255 169 262 169 262 170 263 171 264 172 265 173 266 164 267 164 267 173 266 174 268 167 260 165 258 173 269 118 198 131 213 121 201 120 200 116 196 121 224 118 270 123 205 130 212 119 199 115 195 118 198 118 270 115 202 123 205 115 195 119 199 116 196 127 209 125 207 124 206 123 205 127 209 129 211 129 211 127 209 124 206 132 216 118 270 130 212 131 213 133 215 121 201 134 217 129 211 155 244 155 244 129 211 135 218 135 218 129 211 124 206 137 220 136 219 120 200 122 204 136 271 143 229 136 271 138 227 143 229 136 219 117 197 120 200 117 203 136 271 122 204 128 210 143 229 140 225 122 204 128 210 127 209 128 210 122 204 143 229 139 223 121 224 145 253 138 221 137 220 144 272 138 227 144 273 142 228 144 230 137 220 139 222 126 208 125 207 146 232 125 207 141 226 146 232 140 225 142 228 146 232 154 243 152 239 148 245 175 274 150 237 149 236 175 275 132 275 150 275 151 242 150 240 152 239 132 214 175 274 149 236 121 224 133 276 149 277 153 252 121 224 149 277 134 217 155 244 152 239 135 218 126 208 147 233 160 251 154 243 156 246 147 233 146 232 161 254 146 232 176 278 161 254 156 246 148 245 166 259 158 248 151 279 159 249 142 228 144 273 159 250 157 247 144 230 145 231 142 228 159 250 160 251 151 238 158 248 153 241 144 230 157 247 159 249 158 248 157 247 145 231 146 232 156 246 176 278 142 228 160 251 156 246 162 280 177 281 147 235 177 281 148 234 147 235 156 246 166 282 176 278 166 282 167 260 176 278 166 259 177 283 163 256 166 259 148 245 177 283 162 255 161 254 170 263 162 255 170 263 169 262 173 284 172 285 178 286 178 286 177 281 162 280 164 267 177 287 172 265 163 256 177 283 164 257 178 286 172 285 177 281 161 254 176 278 170 263 176 278 173 269 179 288 167 260 173 269 176 278 173 284 178 286 179 289 167 260 163 256 165 258 168 290 178 286 162 280 171 264 168 261 169 262 179 291 178 286 171 292 171 292 178 286 168 290 165 258 164 257 174 293 173 294 165 294 174 294 179 288 171 264 170 263 176 278 179 288 170 263</p>
        </triangles>
      </mesh>
    </geometry>
  </library_geometries>
  <library_visual_scenes>
    <visual_scene id="scene">
      <node id="thigh_mirror_dae">
        <instance_geometry url="#geometry">
          <bind_material>
            <technique_common>
              <instance_material symbol="qmat_4b294f1aa1dfaafb" target="#qmat_4b294f1aa1dfaafb" />
              <instance_material symbol="qmat_ddc4e6410bf0a5b2" target="#qmat_ddc4e6410bf0a5b2" />
            </technique_common>
          </bind_material>
        </instance_geometry>
      </node>
    </visual_scene>
  </library_visual_scenes>
  <scene>
    <instance_visual_scene url="#scene" />
  </scene>
</COLLADA>