<?xml version='1.0' encoding='utf-8'?>
<COLLADA xmlns="http://www.collada.org/2005/11/COLLADASchema" version="1.4.1">
  <asset>
    <created>2026-09-14T00:00:00Z</created>
    <modified>2026-09-14T00:00:00Z</modified>
    <unit name="metre" meter="1" />
    <up_axis>Z_UP</up_axis>
  </asset>
  <library_effects>
    <effect id="qmat_4b294f1aa1dfaafb_effect">
      <profile_COMMON>
        <technique sid="common">
          <lambert>
            <emission>
              <color sid="emission">0 0 0 1</color>
            </emission>
            <diffuse>
              <color sid="diffuse">0.6717055 0.6924257 0.7742702 1</color>
            </diffuse>
            <reflectivity>
              <float sid="specular">0.5</float>
            </reflectivity>
          </lambert>
        </technique>
      </profile_COMMON>
    </effect>
    <effect id="qmat_fbc365fc3facc314_effect">
      <profile_COMMON>
        <technique sid="common">
          <lambert>
            <emission>
              <color sid="emission">0 0 0 1</color>
            </emission>
            <diffuse>
              <color sid="diffuse">0 0 0 1</color>
            </diffuse>
            <index_of_refraction>
              <float sid="ior">1.45</float>
            </index_of_refraction>
          </lambert>
        </technique>
      </profile_COMMON>
    </effect>
  </library_effects>
  <library_materials>
    <material id="qmat_4b294f1aa1dfaafb" name="qmat_4b294f1aa1dfaafb">
      <instance_effect url="#qmat_4b294f1aa1dfaafb_effect" />
    </material>
    <material id="qmat_fbc365fc3facc314" name="qmat_fbc365fc3facc314">
      <instance_effect url="#qmat_fbc365fc3facc314_effect" />
    </material>
  </library_materials>
  <library_geometries>
    <geometry id="geometry" name="calf_mirror_dae">
      <mesh>
        <source id="positions">
          <float_array id="positions_array" count="384">0.00678210333 0.0185798816 -0.213251606 0.0014616393 0.0182425398 -0.228043944 -0.0124593424 0.0196221303 -0.222709343 0.0168588776 0.0122746807 -0.220320061 0.0124148708 0.00508374628 -0.231079459 0.00204134267 0.00871640909 -0.23466751 -0.0172149148 -0.0115983831 -0.198091164 0.0181031898 -0.0114516765 -0.220401391 0.00740834139 -0.0128177898 -0.232177183 -0.00585833285 -0.00731004588 -0.233957008 0.00885294098 -0.00615515048 -0.233552575 0.00959492102 -0.0187012088 -0.215759933 -0.00805905554 -0.0200408697 -0.226060092 -0.016467277 0.0138460286 -0.198616043 -0.00878844969 0.0100233126 -0.231987521 -0.02023004 0.0140209207 -0.221472844 -0.0199532229 0.00260559143 -0.22636196 -0.0248522777 0.00562632224 -0.217079625 -0.0230505057 0.010509558 -0.207621753 -0.0250476971 -0.00699221529 -0.215852141 -0.0142668672 -0.00986698363 -0.229247406 -0.00648023002 -0.0187139977 -0.205042347 -0.0211988501 -0.0154614598 -0.212735042 -0.0175337959 -0.0153242666 -0.224065855 -0.023318816 -0.00834579952 -0.206703573 0.0142690334 0.00681143068 0.0267818533 0.00379438139 0.00308272056 0.0316962078 0.0151589205 0.00304590841 0.0241351128 0.00357220578 0.00295414659 0.00860727765 0.0109514073 0.00636490248 0.000224933829 -0.00249242154 0.00722011551 0.025679078 -0.00999229494 0.0030134765 0.0189344343 -0.00820079912 0.00710422173 0.011874401 -0.0115270941 0.00965846423 0.012070219 0.00116339733 -0.00676767575 0.0295008533 -0.0168020837 -0.00696585746 0.00663074944 0.0144641474 -0.00690203113 0.0262876209 0.0110054631 -0.00650343392 -0.000228763005 0.00660385005 -0.0030050911 0.00590938376 0.0120329186 -0.00305315037 0.0301930979 0.0138212536 -0.00303982641 0.014313329 -0.00841597002 -0.00322075887 0.021433806 -0.0125169242 0.00728046196 -0.00874421932 -0.0183857884 0.0083838217 -0.00354621629 -0.0191938635 0.00159888843 -0.0180318542 -0.0180030894 0.000805378077 0.0068683885 0.0170322414 -0.00657674298 -0.0482313298 -0.00269302889 -0.00722812908 -0.0229288004 -0.0145790568 -0.0105268704 -0.0149038611 0.00788147561 -0.00970467273 -0.0466126688 0.0150806559 2.63559614e-05 -0.0302576032 -0.0112510798 -0.00882133842 -0.0366706401 -0.00444628345 -0.0151236746 -0.0348501801 -0.00919025391 0.00312724477 -0.0488789678 0.00325692352 -0.00382588268 -0.083736375 0.00330149964 -0.0120356381 -0.073208645 0.00535959797 -0.0167274438 -0.0498296507 0.019249456 -0.0124421297 -0.0691923127 -0.0086491704 0.0136530492 -0.0284557045 0.0139119448 0.0162159614 -0.0902385563 -0.00474747457 0.0118950782 -0.0501499176 0.0172719043 -0.0164731182 -0.0856543109 0.00627179863 -0.0160950683 -0.0664260089 0.0169010609 -0.0154125094 -0.104651928 0.00698416075 0.0101508489 -0.0893955454 0.0198926851 0.00950534828 -0.0646928996 0.0283079445 -0.00260835537 -0.0991963074 0.0195949171 0.0159355775 -0.0986336768 0.0233998373 0.0117721464 -0.0931391045 0.0317031592 0.00266774325 -0.127874911 0.028903272 -0.00836831145 -0.131368816 0.0302197076 0.00625562575 -0.159883559 0.0127212852 -0.00843536202 -0.119407244 0.0103485333 0.00249067065 -0.117599674 0.0182572454 0.0116013065 -0.163466632 0.0214250591 -0.0124675818 -0.143074885 0.00970327388 -0.00596172316 -0.152482912 0.00905350782 -0.000162667056 -0.142784506 0.0160678159 -0.0129737062 -0.187150344 0.00421949569 0.0026796062 -0.163515061 -0.0115325535 -0.00504185399 -0.189899519 -0.00170349947 -0.00557857705 -0.177208364 0.0101927621 0.00831745565 -0.160567895 0.0113062272 -0.0104792425 -0.164807782 0.00309404358 -0.0121947853 -0.179386124 0.0308286883 -0.00235541235 -0.180102989 0.0232964605 0.0102852043 -0.192146465 0.0265209395 0.00538537931 -0.195366576 0.0229207836 0.00440769922 -0.211734638 0.0230189394 -0.00499947974 -0.211068168 0.010716931 -0.00553257205 -0.185232118 -0.0118157379 0.00497204438 -0.189293832 -0.00204192568 0.00625893148 -0.176903918 0.00877530687 0.00547755603 -0.183989882 0.0114781037 0.0140681667 -0.184448108 0.00407407107 -0.00499266852 -0.199352697 0.0261036605 -0.00553375343 -0.19482182 0.0145631675 0.00650277827 -0.0355132557 0.00570833823 0.0167981964 -0.0505351126 0.0161825605 0.0110337567 -0.134614795 0.0236532614 -0.0100937337 -0.192243651 -0.00132157223 -0.00342175411 -0.182894483 -0.00182906422 -0.00582902133 -0.177293241 0.026372483 -0.00569854863 -0.19492197 0.00550409639 -0.0136631448 -0.180938855 0.0106433053 -0.0176506881 -0.215465963 0.021551488 -0.0120457076 -0.19128871 -0.00985810719 -0.0180640016 -0.20251824 -0.0187547151 -0.00652253022 -0.196832389 -0.00777920941 -0.00300827646 -0.192946196 -0.0119088609 -0.00514247268 -0.189730138 -0.0157870129 0.0134528717 -0.198955014 -0.00452656439 0.0188635308 -0.205781147 0.0178717449 0.0138581321 -0.188779071 0.0136500448 0.0160536449 -0.21728158 0.0263156928 0.0056924182 -0.194936529 0.00220661727 0.0114831775 -0.178981856 -0.00188755605 0.00568432827 -0.177340329 -0.00765004801 0.00285611651 -0.192734718 -0.00132046954 0.00340289087 -0.182893485 -0.0116001209 0.0051416182 -0.189518899 0.0185494311 -0.00195952528 -0.209383339 0.0193745941 0.00232048961 -0.220943034 0.0224621203 0.00504340325 -0.210796982 0.0228841752 -0.00529858842 -0.210172564 0.0224342067 0.00347367744 -0.197815344 0.0175992511 -0.0109474026 -0.219494224 0.022433307 -0.00349272811 -0.197818279</float_array>
          <technique_common>
            <accessor source="#positions_array" count="128" stride="3">
              <param name="X" type="float" />
              <param name="Y" type="float" />
              <param name="Z" type="float" />
            </accessor>
          </technique_common>
        </source>
        <source id="normals">
          <float_array id="normals_array" count="594">0.190412104 0.981617332 -0.0130621996 0.169644132 0.831185937 -0.52948159 -0.327161014 0.898641109 -0.29224965 0.694727004 0.559015393 -0.452610463 0.667386413 0.209814459 -0.714544117 0.110680252 0.317986816 -0.941612601 0.547207236 -0.00167220063 0.836995482 0.540302098 -0.00305042369 0.841465592 0.534069777 -0.00763648655 0.845405877 0.731268644 -0.44525975 -0.516710699 0.371495038 -0.548844695 -0.748839676 -0.226377875 -0.212394938 -0.950600564 0.599694252 -0.194645956 -0.776195645 0.534568548 -0.0760377496 0.841697514 0.276949465 -0.935968101 -0.217399999 -0.165191978 -0.876776278 -0.451635867 0.553809345 -0.0222350582 0.832346559 0.532470822 0.0018151548 0.846446395 -0.353043169 0.339102924 -0.871991813 -0.64187175 0.648623109 0.409009367 -0.728165865 0.582117558 -0.361819893 -0.713067055 0.0557268262 -0.698877573 -0.969494939 0.166154876 -0.180200189 -0.862871826 0.426143944 0.271760046 -0.965831578 -0.196547478 -0.168933168 -0.527405977 -0.261865139 -0.808250964 -0.195508704 -0.967747867 0.158872336 -0.67386049 -0.736232221 0.0622428842 -0.649095953 -0.578261495 -0.494255036 -0.718041599 -0.485631227 0.498576552 -0.906955957 -0.210287228 0.364979744 0.554555416 0.024031017 0.831799746 0.503256261 -0.414155692 0.758424819 0.0883976519 -0.986526012 0.137667179 0.251883686 -0.925601661 0.282517552 0.130188614 -0.98727566 -0.0913111418 0.242199033 -0.954297721 -0.175087094 -0.415037721 0.72931993 0.543908238 -0.808195591 0.196653455 0.555110157 -0.168151438 0.72143954 0.671751499 0.342521876 0.93293047 -0.110993274 0.538422883 0.825683355 -0.168367937 -0.0621606968 -0.975465953 0.211192504 -0.668699324 -0.706262708 0.232452571 0.0724358261 -0.951274753 0.299715519 0.015387007 -0.999868989 -0.00502779568 0.649415553 0.65653336 0.383697003 0.274069548 0.943921864 0.184112579 0.778272331 0.61676079 -0.117890857 0.0129387109 0.985599637 0.168600053 0.0334641933 0.999433041 -0.00371346693 0.321368843 0.823611259 0.467318505 0.653694332 0.345779777 0.673141956 0.275981158 0.949300885 0.15053983 -0.750797629 -0.399122298 0.526312053 0.000132629764 -0.999984324 0.00559457671 0.923912525 0.375840694 0.0716196969 0.962119877 -0.240119681 -0.129104331 -0.972794652 0.223231509 0.0619537309 -0.984336019 0.0648596436 -0.163938463 -0.941024184 0.0673820823 0.331561595 0.178736299 0.983871818 -0.00703833811 0.927079678 0.0232156869 0.374144703 0.94437021 -0.0113383131 0.32868889 0.738667428 -0.631445348 0.235896528 0.278927863 -0.944625974 0.172861382 0.420820504 -0.876978159 0.231990084 0.557051957 -0.737324357 0.382159531 0.989817977 0.052989535 0.132107764 -0.898027062 -0.427246571 -0.104917847 -0.840144455 -0.482885271 -0.24693948 -0.614824176 -0.770365298 -0.168904096 -0.943402588 0.134617522 -0.303100049 -0.958392978 -0.0992368683 -0.267647028 -0.763072968 -0.600111008 -0.239971638 0.69480145 -0.533358634 0.482472271 0.333419949 -0.906419575 0.259296477 0.755169153 -0.626192212 0.193914697 -0.757487237 0.626669943 -0.183024049 -0.31904462 0.942893803 -0.0957171023 -0.738889575 0.635114789 -0.225102946 0.350512445 -0.936352372 0.0196291581 -0.383993894 -0.915780425 -0.117876679 -0.256998777 -0.958276093 -0.125134245 -0.848736465 0.480926722 -0.219899893 0.822371542 0.531720877 0.20242998 0.980353951 -0.139503464 0.139445141 0.336347669 0.941418886 -0.0245097335 0.815848708 0.565232813 0.122077078 0.981575787 0.185286194 0.0466686524 0.80232805 -0.596842766 0.00695822714 0.80960381 0.585740387 -0.038077157 -0.850148857 -0.515800118 -0.105816826 -0.987482846 0.087464653 -0.131253853 0.0590992048 0.99706763 0.048614759 0.0571481027 -0.998093963 -0.0232932251 -0.78167665 -0.595645607 0.184899911 -0.987682164 0.107452728 0.113744482 0.208332032 -0.977588236 0.0303155277 -0.8677423 0.24561888 0.432081729 -0.591208339 -0.725683093 0.351932824 -0.612141013 -0.683004141 0.398483068 -0.568357408 0.798730075 0.197484493 -0.403831542 -0.9000085 0.164026767 -0.347171426 -0.888481498 0.30012095 0.97749114 -0.184409574 -0.102490127 0.642559469 0.764339268 -0.0538772158 0.947434783 0.265168041 -0.179034248 0.970677793 0.0121139251 -0.240078822 0.765226424 -0.608650684 -0.209697127 -0.016944617 -0.99940443 -0.0300606694 -0.64864403 0.673997283 0.353537172 -0.018774204 0.998544812 -0.0505550019 -0.0195281524 0.998276949 -0.0553328805 -0.477695912 0.833218098 0.278485537 -0.0110478196 0.998571217 -0.0522821024 0.0166949034 0.99512285 0.0972202495 -0.0171281639 -0.999399602 -0.030117806 0.666175425 -0.731679082 -0.144415885 -0.52692008 -0.052395042 -0.848298311 -0.524840713 -0.0656016842 -0.848668754 -0.517015636 -0.0853029191 -0.851714909 -0.526123703 0.178454921 -0.831473231 -0.528624415 0.195053384 -0.826141894 -0.529627502 0.128782213 -0.838397205 -0.522969842 0.119522408 -0.84392947 0.656410038 -0.00758464495 0.754366159 0.328726232 0.902402401 -0.278583914 0.942974389 0.30930537 -0.123001873 -0.283076942 0.707711518 0.64731127 0.173195958 -0.645446122 0.743910253 -0.808089554 0.366181344 0.461413622 0.568954885 0.734610796 0.369644761 0.664093733 0.72884047 0.166646659 0.300566286 0.912034869 0.27902028 -0.758123696 0.651812434 -0.0197228007 0.677383184 -0.731149614 -0.0810697079 -0.538669944 -0.115919434 -0.834504306 -0.519019783 -0.148575991 -0.841750324 -0.531671107 -0.126511157 -0.837448955 -0.53738147 0.124581277 -0.834086716 -0.519102216 -0.191951245 -0.832879126 -0.517322242 -0.181662604 -0.83628726 -0.512306035 -0.150431395 -0.845525205 -0.541892529 0.0354646035 -0.839699209 -0.538796306 0.0183096379 -0.842237115 -0.0870579854 0.95305717 0.290005058 0.130438998 0.779276192 0.612955332 0.477511972 0.76101172 0.439139426 -0.200197518 -0.91922909 0.339026302 0.421331197 -0.906900167 0.00347146089 0.476510197 -0.879089534 0.0118158124 -0.233911037 -0.906535268 0.351396471 -0.524442375 -0.00437714998 -0.851434708 -0.534040093 0.00484539429 -0.845445275 -0.537032068 -0.00625374494 -0.843538642 0.527836502 0.0981614217 0.843654513 -0.135388479 0.976954579 0.165014178 -0.652602315 0.477124035 0.588610947 -0.529083908 0.000862995395 -0.848569095 -0.526545286 0.0067920587 -0.850119948 0.329365522 0.938845575 0.10043595 0.593302906 0.794085205 -0.131986395 -0.0232290868 0.978566587 0.204616398 0.465269744 -0.784640908 0.409710467 0.526531577 -0.124817468 0.840942979 0.186408833 -0.759239912 0.623543501 -0.315066487 0.839468241 0.442748487 -0.57937938 0.6515311 0.48972106 -0.618719995 0.523302138 0.58595252 0.332664609 -0.625010371 0.706184328 -0.0707274601 -0.956387401 0.283409268 -0.299892187 -0.912014961 0.279809505 -0.780914128 0.211822465 0.5876261 -0.778674066 0.121474363 0.615557253 0.618820965 -0.0346968733 0.784765422 0.6232059 -0.03840537 0.781114221 0.585582197 -0.042089548 0.809519589 0.558403552 -0.786233485 0.264617413 0.916607678 0.140117183 -0.374429613 0.885129452 0.365044802 -0.288596779 0.911086738 -0.301327616 -0.281287462 -0.534382284 0.00259872875 -0.845238924 -0.52779007 -0.00201283954 -0.849372447 0.721719086 0.686190903 -0.0909043327 0.378775984 -0.908681214 0.175576672 0.821623862 -0.566115737 -0.0666874424 0.229150683 0.0679788291 0.971014321 0.818782985 -0.51606369 -0.251540631 0.586364985 0.804317951 -0.0961700007 0.317228734 0.942301333 0.106930301 0.338046402 0.941062391 0.0112330383 0.769249201 -0.623070657 -0.141557962 -0.477645576 -0.0319592692 -0.877971113 0.537105322 -0.0779346824 0.839907169 -0.531795204 -0.678415596 0.506898582 -0.520542145 -0.708795249 0.476072669 0.535105884 0.0752149299 0.841429949</float_array>
          <technique_common>
            <accessor source="#normals_array" count="198" stride="3">
              <param name="X" type="float" />
              <param name="Y" type="float" />
              <param name="Z" type="float" />
            </accessor>
          </technique_common>
        </source>
        <vertices id="vertices">
          <input semantic="POSITION" source="#positions" />
        </vertices>
        <triangles material="qmat_4b294f1aa1dfaafb" count="198">
          <input semantic="VERTEX" source="#vertices" offset="0" />
          <input semantic="NORMAL" source="#normals" offset="1" />
          <p>25 32 26 33 27 34 28 35 29 36 27 34 30 37 31 38 26 39 30 37 32 40 33 41 34 42 35 43 36 44 36 44 35 43 37 45 38 46 39 47 40 48 25 49 29 50 30 37 41 51 39 47 38 46 31 52 41 51 38 46 33 41 32 40 42 53 31 38 35 43 41 54 26 33 31 55 27 34 34 42 41 54 35 43 40 48 36 56 37 57 30 37 29 50 32 40 43 58 44 59 45 60 33 41 42 53 43 61 32 40 29 50 42 53 29 62 38 46 37 63 37 45 35 43 46 64 47 65 48 66 49 67 50 68 37 63 46 64 48 69 51 70 52 71 44 59 48 69 35 43 45 60 44 59 35 43 44 59 51 70 48 69 44 59 53 72 51 70 53 72 54 73 51 70 54 73 55 74 51 70 49 67 52 75 56 76 49 67 48 66 52 75 47 65 49 67 46 64 46 64 49 67 57 77 58 78 59 79 60 80 61 81 62 82 63 83 60 80 64 84 53 72 65 85 50 68 66 86 56 76 62 82 61 81 67 87 65 85 68 88 69 89 66 86 70 90 68 88 65 85 69 89 68 88 69 89 71 91 68 88 71 91 67 87 54 73 72 92 55 74 73 93 54 73 64 84 67 87 71 91 74 94 63 83 72 92 75 95 72 92 76 96 75 95 77 97 76 96 72 92 70 90 75 95 78 98 61 81 63 83 75 95 79 99 80 100 81 101 82 102 79 99 77 97 76 96 81 101 83 103 81 101 84 104 83 103 79 99 81 101 76 96 71 91 69 89 85 105 86 106 71 91 87 107 71 91 85 105 87 107 88 108 85 105 89 109 81 101 80 100 90 110 91 111 87 112 88 113 92 114 93 115 91 111 74 94 86 106 94 116 90 110 95 117 96 118 88 119 89 120 95 121 86 122 87 123 93 124 94 125 86 122 93 124 80 100 95 117 90 110 29 62 28 126 38 46 28 126 31 52 38 46 38 46 40 48 37 127 29 128 25 128 27 128 39 47 41 51 34 129 39 130 34 42 36 44 30 37 33 131 31 38 31 38 33 131 45 60 45 60 33 131 43 58 27 34 31 55 28 35 31 38 45 60 35 43 25 49 30 37 26 39 40 48 39 47 36 56 43 61 42 53 58 132 43 58 60 80 44 59 42 53 29 50 97 133 46 64 35 43 47 65 58 132 42 53 65 85 43 58 58 78 60 80 97 133 29 62 50 68 50 68 29 62 37 63 47 65 35 43 48 66 98 134 58 132 65 85 51 70 55 74 62 82 52 71 51 70 62 82 56 76 52 71 62 82 65 85 97 133 50 68 42 53 97 133 65 85 44 59 60 80 53 72 58 78 98 134 59 79 60 80 59 79 64 84 57 77 56 76 61 81 59 79 98 134 67 87 57 77 49 67 56 76 53 72 64 84 54 73 66 86 46 64 57 77 66 86 50 68 46 64 63 83 62 82 55 74 98 134 65 85 67 87 70 90 66 86 57 77 69 89 65 85 66 86 57 77 61 81 70 90 54 73 73 93 72 92 55 74 72 92 63 83 64 84 59 79 99 135 64 84 99 135 73 93 77 97 79 99 76 96 73 93 77 97 72 92 99 135 82 102 77 97 73 93 99 135 77 97 99 135 59 79 67 87 70 90 61 81 75 95 74 94 99 135 67 87 82 102 99 135 74 94 85 105 69 89 70 90 79 99 91 111 80 100 79 99 92 114 91 111 78 98 83 103 84 104 82 102 74 94 94 116 92 114 82 102 94 116 100 136 85 105 70 90 78 98 75 95 83 103 75 95 76 96 83 103 70 90 78 98 100 136 79 99 82 102 92 114 74 94 71 91 86 106 81 137 90 138 84 139 96 118 85 105 100 136 89 109 85 105 96 118 88 108 87 107 85 105 91 111 93 115 87 112 92 140 94 125 93 124 90 138 96 141 100 142 90 138 100 142 78 143 89 109 96 118 95 117 84 139 90 138 78 143 91 144 88 119 80 145 80 145 88 119 95 121 101 146 102 147 103 148 104 149 105 150 106 151 107 152 105 150 104 149 105 153 107 154 108 155 104 156 103 148 102 147 109 157 110 158 102 147 101 146 109 157 102 147 105 153 111 159 112 160 105 153 108 155 111 159 113 161 114 162 112 163 115 164 116 165 117 166 116 167 111 168 117 169 117 166 118 170 119 171 117 166 120 172 118 170 120 173 111 168 108 174 120 173 108 174 110 158 118 170 120 175 110 176 118 170 110 176 109 177 109 177 121 178 118 170 122 179 123 180 124 181 122 179 114 162 123 180 112 160 114 182 122 183 115 184 123 180 114 162 125 185 123 186 115 164 123 186 125 185 121 178 124 187 123 187 121 187 118 170 125 185 119 171 115 164 117 166 119 171 115 164 119 171 125 185 115 184 114 162 113 161 118 170 121 178 125 185 112 160 122 183 105 153 126 188 122 179 124 181 103 148 124 189 127 190 124 189 121 191 127 190 127 190 121 191 109 157 127 190 101 146 103 148 101 146 127 190 109 157 124 181 103 192 126 188 126 188 106 151 105 150 122 183 126 193 105 153 106 151 126 188 103 192 116 167 112 163 111 168 111 168 120 173 117 169 113 161 112 163 116 167 113 194 116 165 115 164 108 195 107 152 104 149 102 196 108 195 104 149 102 147 110 158 108 174 104 156 106 197 103 148</p>
        </triangles>
        <triangles material="qmat_fbc365fc3facc314" count="46">
          <input semantic="VERTEX" source="#vertices" offset="0" />
          <input semantic="NORMAL" source="#normals" offset="1" />
          <p>0 0 1 1 2 2 0 0 3 3 1 1 1 1 4 4 5 5 3 6 6 7 7 8 4 4 7 9 8 10 9 11 10 12 8 10 5 5 10 12 9 11 7 8 6 7 11 13 7 9 11 14 8 10 11 14 12 15 8 10 0 16 13 17 6 7 1 1 5 5 14 18 14 18 5 5 9 11 13 19 0 0 2 2 15 20 14 18 16 21 15 20 16 21 17 22 18 23 15 20 17 22 17 22 16 21 19 24 20 25 9 11 12 15 16 21 9 11 20 25 21 26 22 27 12 15 16 21 23 28 19 24 6 29 22 27 21 26 24 30 22 27 6 29 20 25 12 15 23 28 19 24 23 28 22 27 18 23 19 24 24 30 24 30 19 24 22 27 3 6 0 16 6 7 4 4 3 3 7 9 1 1 3 3 4 4 5 5 4 4 10 12 10 12 4 4 8 10 11 13 6 7 21 31 11 14 21 26 12 15 15 20 18 23 2 2 18 23 13 19 2 2 16 21 14 18 9 11 15 20 2 2 14 18 2 2 1 1 14 18 6 29 13 19 24 30 13 19 18 23 24 30 18 23 17 22 19 24 9 11 8 10 12 15 16 21 20 25 23 28 12 15 22 27 23 28</p>
        </triangles>
      </mesh>
    </geometry>
  </library_geometries>
  <library_visual_scenes>
    <visual_scene id="scene">
      <node id="calf_mirror_dae">
        <instance_geometry url="#geometry">
          <bind_material>
            <technique_common>
              <instance_material symbol="qmat_4b294f1aa1dfaafb" target="#qmat_4b294f1aa1dfaafb" />
              <instance_material symbol="qmat_fbc365fc3facc314" target="#qmat_fbc365fc3facc314" />
            </technique_common>
          </bind_material>
        </instance_geometry>
      </node>
    </visual_scene>
  </library_visual_scenes>
  <scene>
    <instance_visual_scene url="#scene" />
  </scene>
</COLLADA>