<?xml version='1.0' encoding='utf-8'?>
<COLLADA xmlns="http://www.collada.org/2005/11/COLLADASchema" version="1.4.1">
  <asset>
    <created>2026-09-14T00:00:00Z</created>
    <modified>2026-09-14T00:00:00Z</modified>
    <unit name="metre" meter="1" />
    <up_axis>Z_UP</up_axis>
  </asset>
  <library_effects>
    <effect id="qmat_4b294f1aa1dfaafb_effect">
      <profile_COMMON>
        <technique sid="common">
          <lambert>
            <emission>
              <color sid="emission">0 0 0 1</color>
            </emission>
            <diffuse>
              <color sid="diffuse">0.6717055 0.6924257 0.7742702 1</color>
            </diffuse>
            <reflectivity>
              <float sid="specular">0.5</float>
            </reflectivity>
          </lambert>
        </technique>
      </profile_COMMON>
    </effect>
    <effect id="qmat_fbc365fc3facc314_effect">
      <profile_COMMON>
        <technique sid="common">
          <lambert>
            <emission>
              <color sid="emission">0 0 0 1</color>
            </emission>
            <diffuse>
              <color sid="diffuse">0 0 0 1</color>
            </diffuse>
            <index_of_refraction>
              <float sid="ior">1.45</float>
            </index_of_refraction>
          </lambert>
        </technique>
      </profile_COMMON>
    </effect>
  </library_effects>
  <library_materials>
    <material id="qmat_4b294f1aa1dfaafb" name="qmat_4b294f1aa1dfaafb">
      <instance_effect url="#qmat_4b294f1aa1dfaafb_effect" />
    </material>
    <material id="qmat_fbc365fc3facc314" name="qmat_fbc365fc3facc314">
      <instance_effect url="#qmat_fbc365fc3facc314_effect" />
    </material>
  </library_materials>
  <library_geometries>
    <geometry id="geometry" name="calf_dae">
      <mesh>
        <source id="positions">
          <float_array id="positions_array" count="384">0.00805696566 0.0192807652 -0.214984283 -0.0111272437 0.0174969286 -0.201915026 0.0174623299 0.0122717805 -0.220075965 0.00576529652 0.0112505564 -0.233306929 -0.00810754392 0.0179649983 -0.229014844 -0.000219804177 -0.0197766852 -0.208842605 -0.0093584517 -0.0179295987 -0.228020027 -0.00846711174 -0.00982667133 -0.232299551 0.00479575526 -0.00978811271 -0.233700559 -0.0113189081 -0.0171469152 -0.201842189 0.0173096843 -0.0114490427 -0.220308349 0.0111361034 -0.00108159008 -0.23303932 -0.00491922814 -7.54014764e-05 -0.235115558 0.00528724212 -0.0176686887 -0.226427093 -0.00951514486 0.0104999915 -0.231720909 -0.0231303927 0.00755744288 -0.206100255 -0.0192337781 0.00213807891 -0.196835905 -0.0202932134 -0.00254262448 -0.226087719 -0.0182449725 0.018199889 -0.214919284 -0.0234273039 0.0104051521 -0.216098011 -0.0187693015 0.00923931412 -0.225694701 -0.0258157663 0.00277651101 -0.213987768 -0.023199711 -0.00837303698 -0.207298517 -0.020534642 -0.0159098189 -0.213428497 -0.0238520224 -0.00960012246 -0.217677087 0.0154438457 0.00301972171 0.0253562629 0.00216774619 0.00292008277 0.00969596021 0.0109702274 0.0031049049 0.000424626254 0.00428497419 0.00677153887 0.0312131327 -0.00973249134 0.0029580025 0.0188123174 0.00207352173 0.00303676119 0.0307390932 -0.00974056311 -0.00308682187 0.0197715554 0.0112558957 -0.00328462501 2.9789102e-05 -0.00223328336 -0.00691229058 0.0265772026 -0.00211276789 -0.00768010411 0.0206741076 0.0136460047 -0.00688877469 0.0263597239 0.0123813096 -0.00307576521 0.0300712101 0.0104571851 0.00684331078 -0.00618321262 0.0147053702 0.00682593416 0.0252022371 -0.0194348227 -0.000219295645 0.00335647096 -0.0151141789 -0.00903388299 0.00845965929 -0.0121086631 -0.00708343461 0.00380044617 -0.0177408643 0.0082811052 -0.00802642293 -0.0116362162 0.00608062232 -0.0389474034 -0.0187762063 -0.00326518482 -0.0171746276 -0.0119465422 0.0123929139 -0.0219917037 0.0181574039 0.00717272935 -0.0546277314 -0.014965632 -0.0101468461 -0.0142105203 -0.000755580666 -0.00722298538 -0.0262483191 -0.00787123013 -0.0137121659 -0.0293223672 0.0139583666 -0.00648851646 -0.0315750986 0.0192589369 0.0113026528 -0.0661550015 0.0149108823 -1.97011032e-05 -0.0292055514 -0.0056523052 -0.0126260174 -0.0457564071 0.0114527866 0.0165103581 -0.0586967207 -0.0122316172 -0.00245150621 -0.0403689221 -0.00130296138 -0.010180451 -0.0642082691 0.00596159557 -0.0145426979 -0.0748205036 0.00202687527 -0.016178403 -0.0446314514 0.0149020152 -0.0166168492 -0.0755584687 0.0195787307 -0.00718587404 -0.0590402819 0.00229175296 0.0160516985 -0.0539586097 -0.000500241295 0.012396289 -0.0614823401 0.00802357029 -0.00939648598 -0.046420902 0.0162920784 -0.0143387746 -0.0649577379 0.0191614944 0.0131828682 -0.12708801 0.0228427984 -0.0119784344 -0.0903132185 0.00453142636 0.00304602855 -0.0886841565 0.0109842056 -0.00932550617 -0.106666744 0.0257344749 0.00666097878 -0.0907245874 0.0286041424 -0.00243146019 -0.100713633 0.0192082822 0.0160672478 -0.0990886092 0.0161493197 -0.0156683531 -0.101456732 0.0162713435 -0.0106950849 -0.138486817 0.0240393337 -0.0128571754 -0.118777506 0.0284066312 0.00886713434 -0.13303034 0.0110433511 -0.002729723 -0.125292748 0.0124529945 0.00886418298 -0.115990058 0.0218911842 0.0106657799 -0.162366107 0.0121958656 0.00998034049 -0.16127488 0.00907167979 0.00187033461 -0.14681536 0.0120407371 -0.0100658014 -0.162533417 0.0219732523 -0.0107199363 -0.160501376 0.00581666501 -0.00310137426 -0.160210013 -0.00208463776 -0.00609950116 -0.176996201 0.0206383858 0.0128084151 -0.190218866 0.0034197839 0.0123095084 -0.179509535 -0.00175685389 0.00538035063 -0.176842451 0.00881115813 0.00549792033 -0.184016079 0.0307521187 -8.26657269e-05 -0.176828384 0.0307871606 -0.00606509112 -0.149618208 0.0269489828 -0.00558501668 -0.195067257 0.0159441531 -0.0142095657 -0.187294886 0.0268674586 0.00559845893 -0.195178464 0.023243295 -0.00460118242 -0.211438984 0.0219225213 0.00491879275 -0.210829124 0.00302529661 -0.00500727817 -0.198673978 -0.0120271714 -0.00484180264 -0.189854905 -0.0147158038 0.00688661868 0.0114576304 0.0326268114 0.00226137904 -0.143609136 -0.0116236145 0.00469024014 -0.189607248 -0.00132097385 0.00342181046 -0.182892963 0.0263721589 0.00569837587 -0.194921702 -0.00182906457 0.0058290828 -0.177293241 0.00550422398 0.0136633385 -0.180939004 0.0215513315 0.0120459022 -0.19128865 0.0106440159 0.0176508296 -0.215466276 -0.00985816587 0.0180640463 -0.202518404 -0.0187548436 0.00652211346 -0.196832091 -0.00777921546 0.00300833466 -0.192946196 -0.0119090443 0.00514249736 -0.189730167 -0.00452645775 -0.0188634861 -0.205781221 -0.0157868527 -0.013452976 -0.198954999 0.0181993209 -0.013725169 -0.189004868 0.0136500467 -0.0160535648 -0.21728158 0.0263158996 -0.00569346268 -0.194928721 -0.00189893972 -0.00568113755 -0.177352428 0.00235673483 -0.0116414856 -0.179067507 -0.00132046989 -0.0034028308 -0.1828935 -0.00765005127 -0.00285604526 -0.192734718 -0.0116001284 -0.00514154695 -0.189518929 0.018549433 0.00195959257 -0.209383339 0.0193745922 -0.00232043723 -0.220943034 0.0228841789 0.00529865455 -0.210172549 0.0224621166 -0.00504333526 -0.210796982 0.0224342179 -0.00347361318 -0.197815359 0.0176001862 0.0109449821 -0.219494864 0.022434881 0.00349271391 -0.197815731</float_array>
          <technique_common>
            <accessor source="#positions_array" count="128" stride="3">
              <param name="X" type="float" />
              <param name="Y" type="float" />
              <param name="Z" type="float" />
            </accessor>
          </technique_common>
        </source>
        <source id="normals">
          <float_array id="normals_array" count="579">0.548891187 0.137603864 0.824489951 0.536663413 0.0140179452 0.843679965 0.543690741 0.0244758502 0.838928699 0.194836259 0.949041009 -0.247709587 0.674716532 0.516355634 -0.52738452 0.31509763 0.491803706 -0.811691165 -0.199032456 0.787980974 -0.582642376 0.5386374 -0.00326798856 0.842531323 -0.29744637 -0.784822524 -0.543672085 -0.346077323 -0.295259863 -0.890534759 0.2669231 -0.395048857 -0.879027009 0.533119857 -0.0011706847 0.846038938 0.739917696 -0.524015248 -0.421817213 0.591856658 -0.0427879244 -0.804906726 -0.200183064 0.00684898021 -0.9797346 0.33216095 -0.851216853 -0.406323671 -0.370096654 0.260794908 -0.891635835 -0.401112586 0.860950112 0.312847584 -0.858481586 0.343138278 0.381137133 -0.819882989 0.0630767569 0.569045901 -0.737535536 -0.0861634463 -0.669788957 -0.544392228 0.838218153 -0.0320542604 -0.894829035 0.406043857 -0.185497761 -0.718148291 0.314553112 -0.62074095 -0.994878888 0.077639617 -0.0647151694 -0.857140481 -0.337598652 0.38902095 -0.441766202 -0.837398708 0.32187897 -0.634616852 -0.772382855 0.0261956062 0.00704612443 -0.999945819 -0.00766175007 -0.892420709 -0.352764517 -0.281322777 0.551244557 -0.0117202448 0.834261417 0.532527566 -0.0011665927 0.846411884 0.00503895106 -0.999985039 0.00212660758 0.00794804562 -0.99996835 -0.000375670701 0.0146306679 -0.999874711 -0.0060414956 -0.31438002 0.89727062 0.309952617 -0.764111221 0.223526821 0.605119646 -0.67547071 0.315360337 0.666548729 0.98459518 -0.0511965491 0.167186111 0.632266045 0.0604388714 0.772390306 0.871790409 0.437009424 0.221369073 -0.385360539 -0.387094855 0.837648392 0.0393148027 -0.99874264 0.0311051141 0.0222397354 -0.93245548 0.360599816 0.390138358 0.914279997 0.109014444 -0.792582572 0.132617548 0.595168471 0.973960459 0.219088241 0.0583210178 0.892597198 0.119001381 0.434866488 0.873540461 0.187657699 0.449123234 0.379699677 -0.257685781 0.888496578 0.353376955 -0.320780993 0.87876296 -0.978994906 -0.0224186927 0.202648327 0.000989689841 -0.999983668 0.00562369172 0.00101072225 -0.999984145 0.00554281427 -0.497190177 -0.842266262 0.208301395 0.311984986 -0.949978948 -0.0143307559 -0.964613855 0.254848272 -0.0676196069 -0.899980426 0.347744524 -0.262885779 -0.973114312 -0.173747733 -0.151196301 -0.193604752 0.964440584 0.179921031 0.178240955 0.97735399 0.114058323 0.779667318 0.56980449 0.25969553 0.362595648 -0.915820539 0.172618523 0.290275455 -0.937817633 0.190363422 0.554837167 -0.731162906 0.396933973 0.930233419 0.365349531 -0.0344317555 0.658737779 -0.737571061 0.148504227 0.800378442 0.562815011 0.206479102 0.988258779 -0.0266543422 0.150446564 -0.848956108 -0.522388518 -0.0798983127 -0.679438353 -0.707352698 -0.194976062 0.446387708 0.848801017 0.283328235 -0.94444561 -0.153041273 -0.290862322 -0.851064801 -0.433945894 -0.295600444 -0.501510501 -0.851210713 -0.154685438 0.220638216 -0.938979387 0.263887286 0.220382616 -0.975124478 0.0237444453 0.851605356 -0.453421056 0.263016522 -0.297133237 0.954062283 -0.0384324715 -0.743852019 0.625501633 -0.235439837 0.516725719 -0.792928874 0.322890699 0.618095636 -0.752348542 0.227880478 -0.51128608 0.854537487 -0.0913905427 0.774943888 -0.624456644 0.0975492746 -0.964999914 0.046777539 -0.25804463 -0.851781547 -0.501999795 -0.149881288 0.912504017 0.386897445 0.132841125 0.981936693 -0.154022321 0.109897695 0.319945216 0.9474141 -0.00644520763 -0.207435161 -0.972022116 -0.110198267 -0.606679082 -0.79450351 -0.0265467893 0.586033881 -0.810274184 0.00447759032 0.724480033 0.689240932 0.00869819894 -0.982657015 -0.182252035 -0.034196008 -0.865185022 0.469666839 -0.175692767 -0.0541809313 0.997783959 0.0386212468 -0.365550667 0.918442369 0.151117101 -0.907949686 0.390713543 0.151559502 -0.388645828 -0.907879293 0.157192826 0.218981758 -0.975568831 0.0176766943 -0.848152876 -0.43054384 0.308656305 -0.435396552 -0.868575215 0.236657843 0.501326799 0.865250647 0.00357054849 -0.312635124 0.911602437 0.266908795 -0.80811286 0.352332056 0.47203365 -0.547906458 0.114571258 -0.828656733 -0.533818305 0.127988756 -0.835856974 -0.559513211 0.101376399 -0.822598219 0.995334089 0.00474479981 -0.0963720456 0.829758406 -0.557206929 -0.0319591351 0.949324071 -0.259583712 -0.17720069 0.253224969 -0.967247963 0.017564645 0.953021169 0.243827254 -0.179719165 0.957233727 0.0953426138 -0.273154527 -0.0365152657 0.998555183 -0.0394231565 -0.0270915907 0.999026179 -0.0348252095 -0.0285632275 0.998984396 -0.0348477699 -0.0299932528 0.998955786 -0.0344634429 -0.530882239 -0.0184813794 -0.847244024 -0.533476293 -0.0198438168 -0.845582187 -0.508068442 -0.0826166123 -0.857345283 -0.522764742 0.131042406 -0.84234488 -0.521954715 0.129044786 -0.843155205 -0.640973508 -0.663060129 0.386657834 -0.023772588 -0.998122215 -0.0564523861 0.694304645 -0.236042514 0.679871261 -0.631595552 0.680293679 0.371870279 0.00538180349 0.999966919 0.00610244041 0.603674471 0.124160752 0.787503183 0.0108682681 -0.695608139 0.718339205 -0.0045457338 0.999988973 0.00116893859 -0.62865895 -0.765786767 -0.135493562 0.982811749 0.184579819 0.00337610091 0.940859258 0.149993494 -0.303785741 -0.0157309622 -0.998330772 -0.055571422 -0.524967015 -0.0926173404 -0.846068382 -0.0155958049 -0.998283029 -0.0564602315 -0.530165792 0.0226831026 -0.847590506 -0.027520055 0.99908489 -0.0327420644 -0.791530788 0.0176394749 0.610874712 -0.534306824 0.0445523113 -0.844115734 -0.0870525911 -0.953040004 0.290063173 0.477621615 -0.760918975 0.439181 0.130417451 -0.779243648 0.613001287 -0.200198799 0.919229746 0.339023799 0.476532608 0.879077613 0.0118007585 0.421405077 0.906866014 0.00344144762 -0.233916327 0.906534255 0.351395577 -0.524449289 0.00437259674 -0.851430476 -0.537033439 0.00624709483 -0.843537807 -0.534031987 -0.00488587143 -0.845450163 0.527835906 -0.0981492177 0.843656361 -0.13539131 -0.976954758 0.165010765 -0.652566791 -0.477188259 0.588598251 -0.52654773 -0.00678754179 -0.850118458 -0.529087305 -0.000857947802 -0.848566949 0.341217428 -0.935308456 0.0936415344 -0.0214078706 -0.978762746 0.203875363 0.592913985 -0.79445833 -0.131487519 0.466259927 0.782476425 0.412713349 0.184811413 0.760283351 0.622747123 0.525999248 0.124666207 0.841298461 -0.30616647 -0.845098197 0.438259274 -0.615870893 -0.527089059 0.585559726 -0.580657303 -0.650960922 0.488965183 -0.0701673031 0.956403494 0.283494145 0.332664937 0.625046372 0.70615226 -0.300011635 0.912019074 0.279668123 -0.780921698 -0.211816296 0.587618172 -0.778662741 -0.12149547 0.615567327 0.623190761 0.0384108387 0.781126082 0.618810117 0.0347076543 0.784773529 0.585570574 0.0420899577 0.809527934 0.558403671 0.786233425 0.264617264 0.91661036 -0.14013274 -0.374417275 0.911083102 0.301369667 -0.281254232 0.88513267 -0.36505726 -0.288571298 -0.527794659 0.0020151739 -0.849369586 -0.534384668 -0.00259903818 -0.845237374 0.72581929 -0.681218088 -0.0955417678 0.378880143 0.90867126 0.175403446 0.821665525 0.566056013 -0.0666809604 0.229160592 -0.0679800585 0.971011937 0.818838298 0.515964985 -0.251563102 0.31730631 -0.942269206 0.10698314 0.586386621 -0.80429554 -0.0962260813 0.338022798 -0.941071451 0.0111869909 0.76925391 0.62306118 -0.141574025 -0.47766766 0.0319533944 -0.877959311 0.537036717 0.0768733993 0.84004885 -0.531796157 0.678415716 0.50689733 -0.520542145 0.708799005 0.476067066 0.535105169 -0.0751971602 0.841432035</float_array>
          <technique_common>
            <accessor source="#normals_array" count="193" stride="3">
              <param name="X" type="float" />
              <param name="Y" type="float" />
              <param name="Z" type="float" />
            </accessor>
          </technique_common>
        </source>
        <vertices id="vertices">
          <input semantic="POSITION" source="#positions" />
        </vertices>
        <triangles material="qmat_4b294f1aa1dfaafb" count="198">
          <input semantic="VERTEX" source="#vertices" offset="0" />
          <input semantic="NORMAL" source="#normals" offset="1" />
          <p>25 32 26 33 27 34 28 35 29 36 30 37 27 38 31 39 32 40 33 41 34 42 35 43 36 44 32 40 31 45 37 46 25 47 27 38 38 48 28 49 25 47 28 49 30 50 25 47 29 36 39 51 31 45 30 52 29 53 25 32 31 45 40 54 33 41 34 42 40 54 41 55 33 41 40 54 34 42 34 42 41 55 35 43 42 56 43 57 44 58 45 59 42 60 46 61 41 55 47 62 48 63 47 62 49 64 48 63 32 40 35 65 50 66 35 43 48 63 50 66 45 59 46 61 51 67 37 46 27 38 52 68 52 68 32 40 50 66 44 58 47 69 40 54 39 51 44 58 40 54 44 58 53 70 47 69 45 59 51 67 54 71 44 58 55 72 53 70 55 72 56 73 53 70 53 70 56 73 57 74 58 75 53 70 57 74 58 75 57 74 59 76 52 68 50 66 60 77 45 59 61 78 62 79 50 66 63 80 60 77 63 80 64 81 60 77 45 59 54 71 61 78 48 63 63 80 50 66 48 63 49 64 63 80 61 78 65 82 62 79 64 81 59 76 66 83 62 79 67 84 43 57 43 57 67 84 55 72 56 73 68 85 57 74 67 84 68 85 56 73 51 67 46 61 69 86 69 86 52 68 70 87 54 71 51 67 71 88 55 72 67 84 56 73 72 89 68 85 73 90 70 87 66 83 74 91 59 76 72 89 74 91 75 92 51 67 69 86 76 93 68 85 67 84 62 79 77 94 67 84 77 94 76 93 67 84 65 82 78 95 79 96 77 94 80 97 76 93 65 82 71 88 78 95 76 93 73 90 68 85 73 90 81 98 82 99 77 94 65 82 80 97 83 100 84 101 81 98 79 96 85 102 86 103 79 96 78 95 85 102 80 97 79 96 87 104 86 105 88 106 87 107 89 108 90 109 91 110 81 98 84 101 92 111 93 112 89 108 91 110 93 112 91 110 94 113 88 114 93 115 95 116 87 117 88 114 95 116 95 118 94 119 96 120 85 121 93 122 88 106 97 123 96 124 84 101 27 38 26 125 31 39 28 35 98 126 29 36 98 126 28 35 37 127 26 125 29 128 31 39 37 46 38 48 25 47 36 44 31 45 33 41 36 129 33 41 35 43 29 36 98 126 39 51 25 32 29 53 26 33 28 35 38 130 37 127 31 45 39 51 40 54 32 40 36 44 35 65 43 57 55 72 44 58 45 59 62 79 43 57 45 59 43 57 42 56 42 56 44 58 39 51 98 126 37 127 46 61 35 43 41 55 48 63 42 60 98 126 46 61 98 126 42 56 39 51 47 69 53 70 49 131 52 68 27 38 32 40 41 55 40 54 47 62 58 75 49 131 53 70 64 81 58 75 59 76 64 81 63 80 58 75 46 61 37 46 52 68 63 80 49 64 58 75 65 82 77 94 62 79 61 78 71 88 65 82 61 78 54 71 71 88 66 83 60 77 64 81 70 87 52 68 60 77 69 86 46 61 52 68 59 76 57 74 72 89 57 74 68 85 72 89 90 109 70 87 74 91 90 109 99 132 70 87 70 87 60 77 66 83 66 83 59 76 74 91 99 132 69 86 70 87 75 92 69 86 99 132 71 88 51 67 75 92 76 93 80 97 83 100 76 93 83 100 73 90 71 88 75 92 78 95 74 91 82 99 90 109 74 91 72 89 82 99 72 89 73 90 82 99 83 100 97 123 84 101 83 100 87 104 97 123 78 95 75 92 85 102 82 99 81 98 92 111 89 108 99 132 90 109 90 109 82 99 92 111 65 82 79 96 80 97 73 90 83 100 81 98 80 97 87 104 83 100 87 104 79 96 86 103 75 92 99 132 93 112 93 112 99 132 89 108 85 102 75 92 93 112 95 133 93 112 94 113 91 134 84 101 96 124 84 135 91 135 92 135 92 111 91 110 90 109 91 134 96 124 94 136 97 137 95 118 96 120 100 138 87 117 95 116 86 105 85 121 88 106 87 104 100 139 97 123 100 140 95 118 97 137 101 141 102 142 103 143 104 144 105 145 106 146 107 147 104 144 106 146 106 148 108 149 107 150 104 151 103 143 102 142 109 152 103 143 110 153 101 141 103 143 109 152 106 148 111 154 112 155 106 148 112 155 108 149 113 156 111 157 114 158 115 159 116 160 117 161 117 162 116 163 112 164 116 160 118 165 119 166 116 160 119 166 120 167 120 168 108 169 112 164 120 168 110 153 108 169 119 166 110 170 120 171 119 166 109 172 110 170 109 172 119 166 121 173 122 174 123 175 124 176 122 174 124 176 114 158 111 154 122 177 114 178 115 179 114 158 124 176 125 180 115 159 124 181 124 181 121 173 125 180 123 182 121 182 124 182 119 166 118 165 125 180 115 159 118 165 116 160 115 159 125 180 118 165 115 179 113 156 114 158 119 166 125 180 121 173 111 154 106 148 122 177 126 183 123 175 122 174 102 142 127 184 123 185 123 185 127 184 121 186 127 184 109 152 121 186 127 184 102 142 101 141 101 141 109 152 127 184 123 175 126 183 102 187 126 183 106 146 105 145 122 177 106 148 126 188 105 145 102 187 126 183 117 162 112 164 111 157 112 164 116 163 120 168 113 156 117 162 111 157 113 189 115 159 117 161 108 190 104 144 107 147 103 191 104 144 108 190 103 143 108 169 110 153 104 151 102 142 105 192</p>
        </triangles>
        <triangles material="qmat_fbc365fc3facc314" count="46">
          <input semantic="VERTEX" source="#vertices" offset="0" />
          <input semantic="NORMAL" source="#normals" offset="1" />
          <p>0 0 1 1 2 2 0 3 2 4 3 5 0 3 3 5 4 6 2 2 1 1 5 7 6 8 7 9 8 10 1 1 9 11 5 7 10 12 8 10 11 13 11 13 8 10 12 14 8 10 13 15 6 8 3 5 12 14 14 16 1 17 15 18 16 19 14 16 12 14 17 20 18 21 19 22 15 18 18 21 0 3 4 6 1 17 0 3 18 21 18 21 20 23 19 22 19 22 20 23 17 20 14 16 17 20 20 23 19 22 21 24 15 18 21 24 22 25 15 18 19 22 17 20 21 24 9 26 23 27 5 28 5 28 6 8 13 15 15 18 22 25 16 19 17 20 6 8 24 29 22 25 23 27 9 26 24 29 6 8 23 27 3 5 2 4 11 13 12 14 3 5 11 13 11 13 2 4 10 12 7 9 12 14 8 10 10 30 2 2 5 7 10 12 5 28 13 15 10 12 13 15 8 10 14 16 4 6 3 5 1 17 18 21 15 18 20 23 18 21 4 6 20 23 4 6 14 16 1 1 16 31 9 11 17 20 12 14 7 9 9 26 16 19 22 25 22 25 24 29 23 27 17 20 7 9 6 8 5 28 23 27 6 8 22 25 21 24 24 29 21 24 17 20 24 29</p>
        </triangles>
      </mesh>
    </geometry>
  </library_geometries>
  <library_visual_scenes>
    <visual_scene id="scene">
      <node id="calf_dae">
        <instance_geometry url="#geometry">
          <bind_material>
            <technique_common>
              <instance_material symbol="qmat_4b294f1aa1dfaafb" target="#qmat_4b294f1aa1dfaafb" />
              <instance_material symbol="qmat_fbc365fc3facc314" target="#qmat_fbc365fc3facc314" />
            </technique_common>
          </bind_material>
        </instance_geometry>
      </node>
    </visual_scene>
  </library_visual_scenes>
  <scene>
    <instance_visual_scene url="#scene" />
  </scene>
</COLLADA>