<?xml version='1.0' encoding='utf-8'?>
<COLLADA xmlns="http://www.collada.org/2005/11/COLLADASchema" version="1.4.1">
  <asset>
    <created>2026-09-14T00:00:00Z</created>
    <modified>2026-09-14T00:00:00Z</modified>
    <unit name="metre" meter="1" />
    <up_axis>Z_UP</up_axis>
  </asset>
  <library_effects>
    <effect id="qmat_fbc365fc3facc314_effect">
      <profile_COMMON>
        <technique sid="common">
          <lambert>
            <emission>
              <color sid="emission">0 0 0 1</color>
            </emission>
            <diffuse>
              <color sid="diffuse">0 0 0 1</color>
            </diffuse>
            <index_of_refraction>
              <float sid="ior">1.45</float>
            </index_of_refraction>
          </lambert>
        </technique>
      </profile_COMMON>
    </effect>
  </library_effects>
  <library_materials>
    <material id="qmat_fbc365fc3facc314" name="qmat_fbc365fc3facc314">
      <instance_effect url="#qmat_fbc365fc3facc314_effect" />
    </material>
  </library_materials>
  <library_geometries>
    <geometry id="geometry" name="foot_dae">
      <mesh>
        <source id="positions">
          <float_array id="positions_array" count="153">0.0117923087 0.0135776056 -0.0127136381 0.0188821238 0.00895816926 -0.0078375414 0.0130534023 0.00803480018 -0.0154175246 0.0140150338 -0.0011014014 -0.0156919081 0.00903214142 0.00895097107 -0.018031206 0.00818521436 0.0068800482 -0.0210666861 0.0119764507 -0.00690572569 -0.0172921177 -0.00384636689 0.0188846458 0.00646763109 0.0107385768 0.0176261123 -0.00272353343 0.00110999204 0.01909687 -0.0138926143 0.00439108023 0.0108699696 -0.0203581955 0.00641757902 -0.000460382813 -0.021475194 -0.00513692433 0.0172166843 -0.0173167624 0.00219168584 0.00650683092 -0.0226119664 -0.00596428756 0.0065542846 -0.0211614948 0.016024014 -0.0146188457 -0.00601972686 -0.00374552235 -0.0189486369 0.00637221709 0.0049389326 -0.00720217871 -0.0216493681 0.007246444 -0.0105198566 -0.0192551278 0.0126715731 -0.0116861202 -0.0130213769 0.00583362021 -0.0157790873 -0.0161290672 -0.00522167655 -0.00187737017 -0.0220390689 9.15802559e-07 -0.013468978 -0.0199262965 -0.00299078226 -0.0200139172 -0.0104657914 -0.013667752 0.0196253695 -0.00224380312 -0.0116998153 0.0174602941 -0.0142045682 -0.0245440118 0.00597854052 0.0049033463 -0.0255934354 0.00477769924 -0.00247379998 -0.0257087797 -0.00657184329 0.000565597962 -0.0228651799 0.0125496341 -9.4039191e-05 -0.0160766076 0.01320701 0.0141866403 -0.0190220699 -0.00045183886 0.0159166567 -0.0158037785 -0.0134497872 0.0139870113 -0.0204070918 0.0127753485 0.00691233668 -0.0220557805 0.012294516 -0.0063610794 -0.0198315084 0.00329841604 -0.0127335358 -0.0183817223 0.0100982049 -0.0123209879 -0.0160416961 0.00768139213 -0.016106246 -0.0253425855 -0.00286910776 -0.00270257122 -0.0154012153 -0.018948203 -0.00294891489 -0.0232999455 -0.000360529579 0.00818743836 -0.0222574174 -0.00962652918 0.00717716618 -0.018627895 -0.0141218984 0.0081019653 -0.0225540735 -0.0128633073 -4.29646534e-05 -0.0223576762 -0.0114652654 -0.00707523851 -0.00678840606 -0.00638896041 -0.0203812327 -0.00929743238 -0.0101212487 -0.018755693 -0.00898849498 -0.0179655626 -0.0146703543 -0.017527815 -0.00617950363 -0.0142086511 -0.0171362534 -0.0127122914 -0.0129318777 -0.010007781 0.0101161078 -0.0187656842</float_array>
          <technique_common>
            <accessor source="#positions_array" count="51" stride="3">
              <param name="X" type="float" />
              <param name="Y" type="float" />
              <param name="Z" type="float" />
            </accessor>
          </technique_common>
        </source>
        <source id="normals">
          <float_array id="normals_array" count="177">0.559797943 0.660471499 -0.500403583 0.815006256 0.332140952 -0.474812776 0.658899367 0.257531673 -0.706773698 0.844619155 -0.0932168737 -0.527189791 0.603105664 0.472478896 -0.642672002 0.449465871 0.262252152 -0.853934586 0.715703368 -0.225178331 -0.661107659 -0.0481708422 0.986443818 0.156869724 0.36730057 0.920272946 -0.134862989 0.192197174 0.902573705 -0.385254323 0.314440697 0.517617762 -0.795737922 0.491433829 -0.0898923576 -0.86626333 -0.149943635 0.709724963 -0.68833673 0.145143658 0.182423949 -0.972447872 -0.304437727 0.187390655 -0.933917761 0.530954659 0.000970807276 0.847399652 0.532047987 0.000193073094 0.846714199 0.53278935 -0.00110372866 0.846247196 0.244609326 -0.192658529 -0.950288892 0.463537514 -0.432442009 -0.773386657 0.683153629 -0.472629994 -0.556706429 0.347855687 -0.766291618 -0.540179193 -0.259374171 -0.0773990527 -0.962670445 0.00414226204 -0.544284046 -0.838890791 0.655593216 -0.679043412 -0.330299348 0.0788583979 -0.974449992 -0.210306004 -0.328689307 0.94435358 0.0126331216 -0.384581476 0.757627189 -0.527350128 -0.925288081 0.213073656 0.313753992 -0.972449303 0.137912571 -0.187942833 -0.949339449 -0.271209955 0.158744201 -0.804665923 0.591069281 0.0561233982 -0.63303709 0.638349354 0.437920332 -0.842184365 -0.0110132582 0.539077163 0.53105998 -0.000175906665 0.847334206 0.531362236 0.00257447199 0.847140789 0.532546937 -0.00557918008 0.846382082 -0.714147151 0.617724895 0.329256386 0.533191323 0.00166800583 0.845993042 -0.792005897 0.502886415 -0.346167445 -0.778000891 0.0383483581 -0.627091765 -0.724497259 0.330146492 -0.60506779 -0.605303764 0.178424522 -0.77573967 -0.942803204 -0.0591297187 -0.328063667 -0.0285738371 -0.986475945 0.161396399 -0.41062063 -0.911046922 -0.0372052118 -0.905861557 -0.0553377196 0.419943571 -0.890625119 -0.313969374 0.328953028 -0.60615474 -0.729382217 0.317140311 -0.593910336 -0.664300561 0.453844965 -0.799110651 -0.596206427 0.0772019103 -0.810476243 -0.432216078 -0.395370066 -0.207376108 -0.272081137 -0.939663231 -0.394904435 -0.276688963 -0.876067162 -0.27954334 -0.770942748 -0.572278559 -0.653167665 -0.1139846 -0.748585045 -0.626980782 -0.476326853 -0.616447806 0.53326416 0.00190184754 0.84594661 -0.303283095 0.343716592 -0.88875097</float_array>
          <technique_common>
            <accessor source="#normals_array" count="59" stride="3">
              <param name="X" type="float" />
              <param name="Y" type="float" />
              <param name="Z" type="float" />
            </accessor>
          </technique_common>
        </source>
        <vertices id="vertices">
          <input semantic="POSITION" source="#positions" />
        </vertices>
        <triangles material="qmat_fbc365fc3facc314" count="98">
          <input semantic="VERTEX" source="#vertices" offset="0" />
          <input semantic="NORMAL" source="#normals" offset="1" />
          <p>0 0 1 1 2 2 2 2 1 1 3 3 4 4 3 3 5 5 5 5 3 3 6 6 7 7 8 8 9 9 9 9 4 4 10 10 10 10 5 5 11 11 12 12 13 13 14 14 3 3 1 1 6 6 15 15 1 16 16 17 5 5 6 6 17 18 18 19 19 20 20 21 13 13 11 11 21 22 21 22 17 18 22 23 15 24 23 25 20 21 24 26 12 12 25 27 12 12 14 14 25 27 26 28 27 29 28 30 29 31 27 29 26 28 30 32 26 28 31 33 1 16 31 34 32 35 30 36 31 34 1 16 33 37 24 26 29 31 30 32 24 26 33 37 7 38 30 36 1 16 7 7 24 26 30 32 29 31 24 26 34 39 34 39 35 40 27 29 36 41 37 42 35 40 29 31 34 39 27 29 27 29 35 40 38 43 16 44 39 45 23 25 31 33 40 46 41 47 41 47 42 48 32 49 32 49 42 48 39 45 42 48 43 50 39 45 41 47 43 50 42 48 40 46 43 50 41 47 28 30 44 51 43 50 45 52 22 23 46 53 21 22 45 52 46 53 39 45 47 54 23 25 46 53 22 23 47 54 23 25 47 54 22 23 35 40 48 55 44 51 37 42 46 53 48 55 48 55 46 53 49 56 39 45 44 51 47 54 47 54 44 51 49 56 43 50 44 51 39 45 8 57 7 38 1 16 8 8 1 1 0 0 4 4 2 2 3 3 9 9 8 8 0 0 45 52 21 22 22 23 9 9 0 0 4 4 12 12 9 9 10 10 4 4 0 0 2 2 11 11 5 5 17 18 10 10 4 4 5 5 13 13 10 10 11 11 12 12 10 10 13 13 6 6 1 1 15 24 15 24 19 20 6 6 17 18 6 6 18 19 18 19 6 6 19 20 21 22 11 11 17 18 22 23 17 18 18 19 15 24 16 44 23 25 19 20 15 24 20 21 22 23 18 19 20 21 20 21 23 25 22 23 14 14 13 13 21 22 24 26 7 7 9 9 24 26 9 9 12 12 33 37 29 31 26 28 30 32 33 37 26 28 31 33 26 28 40 46 50 58 25 27 14 14 50 58 14 14 21 22 37 42 50 58 21 22 34 39 24 26 25 27 34 39 25 27 36 41 36 41 25 27 37 42 25 27 50 58 37 42 34 39 36 41 35 40 35 40 37 42 48 55 1 16 32 35 16 17 31 33 41 47 32 49 16 44 32 49 39 45 40 46 26 28 28 30 40 46 28 30 43 50 27 29 38 43 28 30 37 42 21 22 46 53 49 56 46 53 47 54 44 51 48 55 49 56 38 43 35 40 44 51 28 30 38 43 44 51</p>
        </triangles>
      </mesh>
    </geometry>
  </library_geometries>
  <library_visual_scenes>
    <visual_scene id="scene">
      <node id="foot_dae">
        <instance_geometry url="#geometry">
          <bind_material>
            <technique_common>
              <instance_material symbol="qmat_fbc365fc3facc314" target="#qmat_fbc365fc3facc314" />
            </technique_common>
          </bind_material>
        </instance_geometry>
      </node>
    </visual_scene>
  </library_visual_scenes>
  <scene>
    <instance_visual_scene url="#scene" />
  </scene>
</COLLADA>