<?xml version='1.0' encoding='utf-8'?>
<COLLADA xmlns="http://www.collada.org/2005/11/COLLADASchema" version="1.4.1">
  <asset>
    <created>2026-09-14T00:00:00Z</created>
    <modified>2026-09-14T00:00:00Z</modified>
    <unit name="metre" meter="1" />
    <up_axis>Z_UP</up_axis>
  </asset>
  <library_effects>
    <effect id="qmat_4b294f1aa1dfaafb_effect">
      <profile_COMMON>
        <technique sid="common">
          <lambert>
            <emission>
              <color sid="emission">0 0 0 1</color>
            </emission>
            <diffuse>
              <color sid="diffuse">0.6717055 0.6924257 0.7742702 1</color>
            </diffuse>
            <reflectivity>
              <float sid="specular">0.5</float>
            </reflectivity>
          </lambert>
        </technique>
      </profile_COMMON>
    </effect>
    <effect id="qmat_ddc4e6410bf0a5b2_effect">
      <profile_COMMON>
        <technique sid="common">
          <lambert>
            <emission>
              <color sid="emission">0 0 0 1</color>
            </emission>
            <diffuse>
              <color sid="diffuse">0.9 0.95 0.95 1</color>
            </diffuse>
            <reflectivity>
              <float sid="specular">0.5</float>
            </reflectivity>
          </lambert>
        </technique>
      </profile_COMMON>
    </effect>
  </library_effects>
  <library_materials>
    <material id="qmat_4b294f1aa1dfaafb" name="qmat_4b294f1aa1dfaafb">
      <instance_effect url="#qmat_4b294f1aa1dfaafb_effect" />
    </material>
    <material id="qmat_ddc4e6410bf0a5b2" name="qmat_ddc4e6410bf0a5b2">
      <instance_effect url="#qmat_ddc4e6410bf0a5b2_effect" />
    </material>
  </library_materials>
  <library_geometries>
    <geometry id="geometry" name="hip_dae">
      <mesh>
        <source id="positions">
          <float_array id="positions_array" count="414">0.0354796499 0.0375113487 0.0349764675 0.0319474041 0.0107924407 0.0372821651 0.0380512662 0.0105868345 0.0316354781 0.046134524 0.037516959 0.0161889456 0.0453406945 0.0375144631 -0.0182530191 0.0106770899 0.01069846 0.0155405588 0.0102470154 0.01041881 0.00426480873 0.00786281005 0.037516959 0.0480359793 0.0101188589 0.0181151759 0.0472608954 -0.0158150271 0.0181954484 0.0458833613 0.010332467 0.0113276485 -0.00535079325 0.0484619699 0.0120341238 -0.000313286437 0.0358384661 0.0374728329 -0.0354950242 0.0352344774 0.0119629912 -0.0353649855 0.0439510755 0.0103175817 -0.0202077348 0.0230406951 0.0111498078 -0.0190527644 0.0167770423 0.037516959 -0.0458553322 0.0117225861 0.0103205843 -0.0480737165 0.0211059134 0.0105465371 -0.0260316357 -0.0179338194 0.0374935381 -0.0456844494 0.0099979369 0.0180364251 -0.0476326309 -0.0149846682 0.0181537773 -0.0462983884 -0.0241119992 0.037516959 0.0411867239 -0.0509041473 0.0181725603 0.0245163999 -0.0531904213 0.037493974 0.021867428 -0.0503897332 0.0375150479 -0.0256851129 -0.0495343693 0.0183390267 -0.0261146352 -0.0568579994 0.0181818511 -0.00591639429 -0.0567655414 0.0375098288 -0.00447426969 -0.0256789513 0.0175555907 0.0428866893 0.00939712767 0.0149957091 0.0404406898 -0.026560992 0.0154052181 0.0252385754 0.00770275062 0.0169083849 0.0490989611 -0.0313337855 0.0112077994 0.042865254 0.01018399 -0.0171585623 0.0458442159 -0.0260025598 -0.0154151702 0.0436951965 -0.0213984922 -0.0174102802 0.0469915532 -0.0145998551 -0.0185027048 0.0333076529 -0.0608726293 -0.0204840377 0.021022683 -0.0421024859 -0.0268101003 0.00800839905 -0.0412851237 -0.0158793777 0.0153463511 -0.053491056 -0.00355444406 0.00417025294 -0.0568961836 -0.0173675474 0.0153300436 -0.0516494177 -0.022059245 -0.00369620975 -0.0545546226 -0.00824154541 -0.000213269464 -0.0610866509 -0.0339171961 -0.000696577539 -0.0612750277 0.0149746835 0.0267047118 -0.0331574567 0.0194659792 0.0247996189 -0.0436643474 0.0194659792 0.0107730599 -0.0345347561 0.0103412867 0.00987930968 -0.0516273975 0.0177773722 -0.0081132669 -0.0498855971 0.0138985999 0.0061294511 -0.0485630296 0.00875130203 -0.00898545701 -0.0612694249 0.00398892397 -0.00335600437 -0.0348926224 0.0121657746 0.0203287955 -0.0356697813 0.0149258822 0.0184518751 -0.0343335606 0.013099636 0.0172490254 -0.0314681679 0.0123267062 -0.00348452618 -0.0244700294 0.0122621115 -0.029228108 0.0101532899 0.0151990885 -0.0481755361 0.00528659392 0.0167770069 -0.0391301662 -0.0301209744 0.0104638273 -0.0440774858 -0.0187105928 0.0172914565 -0.0462951213 -0.0197142195 -0.0176741779 -0.047973644 -0.0356209874 0.0187995657 -0.0137140378 0.01018399 -0.0181022976 -0.0443554707 -0.017478466 -0.018544808 -0.0317269638 -0.02752853 -0.0153953349 -0.0449387059 -0.0313745961 -0.0220509619 -0.0145215429 -0.0605705976 -0.0188563354 -0.0231664684 -0.048149135 -0.0370412581 -0.000297906634 -0.049760472 -0.0153228706 -0.0156613123 -0.061272826 0.00314393546 -0.0282316636 -0.059969537 0.0180902258 -0.0227693021 0.0275934655 0.0159982927 0.0141742099 0.0368033387 0.0107113374 0.0333017074 0.0484339483 0.0108893383 -0.00432871887 0.0437871553 -0.0154210711 0.0249948371 0.0334531814 -0.0135807004 0.0065058372 0.0277647413 -0.0127971806 -0.01715241 0.0453850515 -0.0151760215 -0.0178319458 0.0110792918 -0.0203979705 0.0268194377 0.0312312506 -0.0111474385 0.0250531938 0.00712249475 -0.0110153323 0.0406140052 0.0169334728 -0.0153687485 0.0454400629 -0.00520013925 -0.0199721642 0.0300783087 0.0265527628 -0.0234429128 0.0122474078 0.0074621141 -0.0159145724 -0.0314350575 0.0201145038 -0.0233654622 -0.0215307046 0.0112295914 0.0153048597 -0.029973831 0.0309302509 0.0107412981 -0.0390200764 0.0217416119 -0.0154353576 -0.0453711897 -0.00831951387 -0.0108504696 -0.0392596871 0.0147113809 -0.0122299809 -0.0392764881 0.00851243455 -0.019074047 -0.0267307255 -0.00608332548 0.0102678807 -0.0463969707 -0.0268929377 -0.0115454486 0.0333853029 -0.0148059968 -0.0144421039 0.025184093 -0.0336372852 -0.0131910928 0.00831650198 -0.0444922522 -0.0151888151 0.0187399797 -0.0300318748 -0.0131503874 -0.0172584541 -0.0303830914 0.0113391271 0.0389527157 -0.0218773708 0.0139483837 0.021951789 -0.0479179583 0.0102138203 0.00481335167 -0.023514865 0.0144496318 -0.0197529141 -0.0440988168 -0.0154290795 -0.0224847384 0.0003301549 0.0100931954 0.0446048789 -0.0210531373 -0.0152155962 0.0447602905 -0.0189163946 -0.022703182 -0.0210938081 -0.0252890475 -0.0230096951 0.0122537706 -0.0365384109 0.0106801912 -0.0330164582 -0.0173817296 -0.0153530119 -0.0457755513 -0.0620296076 -0.00703462353 -0.0286164843 -0.0617425069 -0.0296909809 0.00319711748 -0.0619362965 -0.0205317475 -0.0219908655 -0.0622277595 0.0256435145 -0.0129746562 -0.0619975701 0.0110074952 -0.0270086583 -0.0622786544 -0.0267754048 -0.0136997234 -0.0620241612 -0.0216086302 0.02097065 -0.0620055087 -0.0065555051 0.0287962388 -0.0619529337 0.0283089802 0.000290111435 -0.0622051358 0.00732417451 0.0283506177 -0.0620781332 0.025481835 0.0133080268 -0.0619319007 0.017296588 0.0230671298 -0.0616227351 0.0201413874 -0.0202821009 -0.0626159906 0.0245433394 -0.00776054757 -0.0696159601 0.0253009703 0.00485210167 -0.0626159906 0.0186012443 0.0184017811 -0.0696159601 0.00400497904 -0.0259379707 -0.0696159601 0.0075691836 0.0260439496 -0.0696159601 0.0202963371 -0.0153621612 -0.0696047246 -0.0239153337 -0.0154491579 -0.0696159601 -0.0210407507 0.017400125 -0.0626159906 0.00627496513 -0.0244129542 -0.0626159906 -0.0218879767 0.0164266098 -0.0626159906 -0.0103953714 -0.0237502512 -0.0626159906 -0.0256314334 -0.00835240167 -0.0626159906 0.00092664134 0.0260439496</float_array>
          <technique_common>
            <accessor source="#positions_array" count="138" stride="3">
              <param name="X" type="float" />
              <param name="Y" type="float" />
              <param name="Z" type="float" />
            </accessor>
          </technique_common>
        </source>
        <source id="normals">
          <float_array id="normals_array" count="837">0.680211723 0.017725464 0.732801378 0.558696389 -0.00411676383 0.829362035 0.829066396 -0.0421921164 0.557556093 0.000136957067 1 8.3867526e-05 -0.000628775102 0.999999821 -5.8053196e-05 0.000427845225 0.999999762 -0.000587924034 0.00678659091 -0.999975145 -0.00192113174 -0.61124599 -0.788060963 0.0730637684 0.0208318904 -0.998677611 -0.0470001139 6.78799115e-05 1 8.548501e-07 0.138733134 0.0266439039 0.98997134 0.226247013 -0.0126018841 0.973988414 -0.397785515 -0.894553244 0.203816444 -0.105650298 -0.988561094 0.107633308 -0.291720659 0.0470355898 0.955346406 -0.999965966 0.00707049528 -0.00424616178 -0.998882353 -0.0472586565 -0.000836282794 0.955800951 0.0167900026 -0.293534666 0.963723004 0.000843095302 0.266903102 0.999765635 -0.00796892773 0.0201287866 0.706562459 -0.020334946 -0.70735842 0.701018274 -0.0159169268 -0.712965608 -0.0383641496 -0.998945296 0.0252291802 0.0338585563 -0.998756289 0.0365989245 0.032579191 -0.998619437 -0.041204337 0.00517824944 0.999972701 -0.00526762381 -7.15219285e-05 1 0.000163979203 0.276807576 0.0314853974 -0.960409403 0.384981692 0.00373257464 -0.922916651 0.0547432974 -0.998173058 0.0255673844 0.0392558575 -0.999208272 -0.00646840315 0.0131646823 -0.999884963 0.00753396424 0.0200091749 -0.999455631 -0.0262314919 -0.303468794 0.00402266765 -0.952832878 0.0256964155 0.0704585165 -0.997183681 -0.264050722 -0.00964884739 -0.964460552 -0.979525506 -0.199888587 -0.0239660386 -0.97589469 -0.216609046 -0.0266477708 -0.000284295937 0.999999881 -0.000374116062 -0.42041564 0.0544320568 0.905697465 -0.802056909 -0.0265950114 0.59665519 -0.000127173276 1 2.74064805e-05 8.13736915e-05 1 8.44359965e-05 -0.00244362443 -0.999996662 0.000807760342 -0.00110988237 -0.999997079 -0.00214839564 -0.00474604499 -0.999988377 0.000860857661 -0.789730728 -0.00560398307 -0.613428056 -0.767055392 -0.0273162555 -0.640999079 0.0026886093 -0.999985635 -0.00464007398 -0.995744944 -0.0201167744 -0.0899298266 0.928618789 -0.0208220333 -0.370450497 -4.01713623e-05 0.999999762 -0.000669837871 -0.00345331663 -0.99997133 0.00674270513 -0.00110239373 -0.999999285 0.000434625457 -0.860599697 -0.0123224454 0.509132922 0.000815541134 0.999999523 0.000491149956 -0.997597039 0.00988841802 -0.0685734674 -0.00465266732 -0.999988854 0.000835818588 0.032534942 0.991006672 -0.129796937 0.058839418 0.981308103 -0.183227509 0.0163398962 0.992427409 -0.121741027 0.0570393912 0.977161407 -0.204699993 0.489720732 -0.505316079 -0.710513413 -0.00584739633 -0.112902448 -0.993588865 0.413427919 0.572277427 -0.708220243 0.0110294102 -0.99631834 0.0850185826 -0.169557229 -0.59441036 0.786083102 0.088640824 -0.988446295 0.12295033 -0.0800932944 0.00670861546 0.996764779 0.0368840322 -0.0923794061 0.995040536 -0.720234871 -0.502445757 0.478340924 -0.0362816118 -0.884259105 0.465585142 0.532646894 0.483815104 -0.694413602 0.0614677742 -0.636377037 -0.76892525 0.759121954 0.597012818 -0.259440809 0.537038624 0.571065962 -0.620864809 0.829187751 0.471734971 0.299856335 0.726818681 0.0423765779 0.685520828 -0.0184305105 -0.754420102 0.656133056 -0.130717054 0.99132508 -0.0136987623 -0.14934732 0.982435763 0.111871816 -0.355984777 0.924786985 -0.134327546 -0.31056264 0.0732410699 0.947727084 -0.775076091 0.0179791972 0.631612062 -0.122348614 -0.990935683 -0.0554734133 0.401502788 -0.909484446 -0.107859053 0.0394673795 0.170540795 0.984559894 0.984397411 0.01495401 0.175322935 0.935913801 -0.158003211 -0.31480211 0.938313067 0.0360406935 -0.343903571 0.821905017 0.228622541 0.521731555 -0.0343610011 -0.723419726 -0.689552963 0.972893894 -0.230993181 0.0109397024 0.500352502 0.362587243 -0.786242843 0.32464087 0.436665177 -0.839006424 0.732294261 0.0829770416 -0.675914168 0.283382446 -0.82956177 0.481167018 -0.448428929 0.874710023 0.1838312 -0.91685915 0.397629559 -0.0354964808 -0.589127421 0.796742439 0.13464886 0.697365701 0.490717769 -0.522376418 -0.669276476 -0.682752371 0.293118089 -0.528649926 -0.701547503 0.477870584 -0.566658974 -0.700423241 0.433941066 0.716336906 -0.243067071 -0.6540488 -0.957270861 0.278451473 -0.0780850649 -0.289009362 0.688071251 -0.665606141 -0.825791538 0.308417022 -0.472172976 -0.289007962 0.688073575 -0.665604353 -0.96929878 0.117361166 -0.216069877 -0.952139199 -0.287151098 0.104762629 -0.994256675 -0.099499099 0.039415963 -0.779120684 -0.588834584 0.215045869 -0.488419116 0.812095821 -0.319291681 -0.249901637 0.954082668 -0.165152773 -0.0967300609 -0.990764022 0.09502583 0.598050058 -0.625820935 0.500683725 0.0645577088 -0.996069074 0.0606523007 0.529163063 0.845552087 0.0709092468 0.698482513 0.708633065 -0.0998067558 0.70822823 0.698702574 0.101131029 0.222571 -0.942069769 0.25093165 0.193991169 -0.959171534 0.205809146 0.245279744 -0.9151842 0.319805741 0.47147736 -0.570881665 0.672163069 -0.159986526 0.682029605 -0.71361053 0.0195680857 -0.0239174403 -0.999522388 -0.209863856 -0.0306753535 -0.977249265 0.0523185693 0.993209183 -0.103914842 0.0626085624 0.988349557 -0.13872771 0.281475008 0.957463324 0.063527517 0.300256163 -0.782458067 0.545532405 -0.00795568246 -0.998593509 -0.0524180979 -0.0118825426 -0.99608767 -0.0875679106 -0.00578060886 -0.998592734 -0.0527174026 0.044269722 0.978862643 0.199669883 0.0675864816 0.98089546 0.182417646 0.369463235 0.553124487 0.746692836 0.0360996537 0.0610691644 0.997480512 -0.0071844887 0.113955058 0.99345994 -0.0181707386 -0.920752943 -0.389722824 -0.0100310482 -0.748021126 -0.663599074 0.0357442647 -0.912777185 -0.406890869 0.449767739 0.296203285 0.842598677 0.307194054 0.849663377 0.428607047 0.78370738 0.394085556 0.480103403 -0.122521564 -0.607540846 -0.784781873 -0.821858823 0.0652049035 -0.565947294 -0.999620438 -0.0194881652 -0.0194718242 0.668737173 0.714525402 0.20553349 0.672545969 0.717573702 0.181024477 0.115169324 0.306062162 0.945019543 -0.323984236 0.064656578 0.943850517 -0.255696654 0.957447946 0.133838043 0.982129455 0.0543165021 0.180198357 -0.0161027405 -0.410440028 -0.911745429 0.0601273738 0.972920656 -0.223181844 0.149522126 0.960322499 -0.235422611 0.782498419 0.0419037119 -0.621240973 -0.160931513 -0.563010097 0.810629785 -0.0173821673 0.992612243 -0.120078109 -0.655510664 0.698111892 -0.28800261 -0.961926579 0.263549507 -0.0723806694 0.27170521 0.863141596 -0.425632268 -0.407965302 -0.691301167 0.596378207 0.52355057 -0.373363256 -0.765829444 0.117773443 -0.113064244 -0.986582935 -0.911232352 -0.119816288 -0.394080848 -0.859078646 -0.329507053 0.391674519 0.130462527 0.988069057 0.0818479434 0.571903646 0.573200405 0.586828351 0.817892194 0.570334554 -0.0759665892 0.0288069993 -0.998799503 -0.039619267 -0.229874179 -0.973214328 0.00343077304 -0.112219147 -0.991944551 0.058761511 -0.132232502 -0.990469098 0.0385422483 -0.1204006 0.908221424 -0.400796086 -0.42014578 0.859942555 -0.289786637 -0.625463963 0.612517655 -0.483339429 -0.0180636011 0.85288924 -0.521779358 0.287460506 0.0722075105 0.9550668 0.889677107 -0.00528843096 0.456559569 0.496510178 0.150314808 0.85491699 -0.0755047873 -0.978962719 0.189554691 -0.679580748 0.0493725203 -0.731937349 0.0722942576 -0.655241966 -0.751951754 0.5820629 -0.0863794312 -0.808542788 0.304430276 -0.758175552 -0.576621234 -0.0618741363 -0.997984648 0.0140787736 0.0437414646 0.984761298 -0.168320656 0.937639654 -0.0254958346 -0.346672565 0.517393112 0.570395648 -0.637928784 0.389596522 0.0173362195 -0.920822442 0.00575710228 -0.999830186 0.017504897 -0.068742536 -0.997040093 0.0344313048 0.0337674804 -0.999245286 0.0191992912 0.0164400283 -0.998834908 0.0453708656 0.313797712 0.949489772 0.000364537293 -0.0982919037 0.928713381 0.357533455 -0.510629117 0.510815501 0.691610754 -0.427746415 -0.0638963878 0.901637554 -0.173060343 0.898057103 0.404405236 -0.0957210585 0.594219387 -0.798586786 0.114854425 0.977660418 -0.176035851 0.201756656 0.87123251 -0.447490931 0.521252394 0.666909218 -0.532473505 0.0624130107 -0.995016098 0.0777664259 0.126412034 -0.990557313 -0.0530682206 0.105642416 -0.98747611 0.117177688 -0.0702894405 0.990655959 0.116876766 -0.0807675198 0.993458152 0.0807310268 -0.813613355 0.577194691 0.0698542669 -0.112715065 0.990549147 -0.0781514719 -0.911388576 -0.011036274 -0.411398977 -0.929382265 -0.0288105402 0.367992669 0.0289350916 0.634992361 0.771976352 -0.372180402 0.0145610087 0.928046167 -0.611613274 0.0536574945 0.789335191 -0.0117459558 -0.998910904 0.0451556295 -0.246650785 -0.665436268 -0.704526782 -0.402663529 -0.762201965 0.506863177 0.346005589 0.795975983 -0.496691376 0.222933069 0.87917614 0.421129555 0.00523855351 -0.999981523 -0.00307676359 0.0484337769 -0.998822391 0.00282773701 -0.601442575 0.583241701 -0.545981646 -0.33155337 0.0126301888 -0.943351924 0.0914115757 -0.993249655 0.0714078769 0.144090801 0.802366614 0.579176724 -0.0101802386 -0.999716759 -0.021511592 0.0781368613 -0.980338454 0.181193769 0.166246817 0.985644996 -0.0294273812 -0.116941623 -0.98767215 0.104059778 -0.355926692 -0.0392840207 -0.933687806 0.611514032 0.450353265 0.65056318 0.99995923 -1.04315786e-05 -0.0090314215 0.999958456 -0.00908556674 -0.000765657052 0.999877691 -0.0105622476 -0.0115339728 -0.99954015 0.000691427907 -0.0303155724 -0.999755919 0.0180432703 -0.0127492109 -0.999728084 0.00813295133 -0.0218545236 -0.999934733 -0.00806536805 -0.00809482485 -0.999936163 -0.00863653049 0.00728188548 -0.99696362 -0.0756182 0.0185867269 0.990789473 -0.124632075 -0.0529441722 0.999692202 -0.0124070905 0.0214842036 0.999942839 0.0106764436 0.00062396744 -0.999897063 0.0104182176 0.00986583903 -0.999995112 -0.00308082649 -0.000522649498 -0.999890387 -0.00782094989 -0.0125698401 -0.999984443 0.00322590256 -0.00454876758 -0.995671451 0.0633250773 0.0680311695 0.99998641 0.00199532416 0.00481256656 0.999980271 0.00554242078 0.0029494476 0.999837279 0.0163051412 0.00771658169 -0.945939779 0.216606736 -0.241411328 0.999862432 0.0132716717 -0.00995000638 0.999586761 -0.0128278034 -0.025724208 -0.999887705 0.000440914097 0.0149793904 0.981252611 0.184009284 -0.0573052876 0.999687493 -0.00424602907 0.0246348456 0.583031535 0.777022541 -0.237297684 -0.522804379 0.833262742 0.17985779 0.521977365 0.650534034 0.551674783 -0.591340661 0.124962807 -0.796680927 -0.561101377 0.23884365 0.792539537 -1 -2.26957539e-07 0 -0.522011101 -0.54986316 -0.652038991 -0.99999994 0.00010585889 -0.000351319468 0.681515813 0.25690484 -0.685227036 1 1.93470896e-07 0 0.54824698 -0.303617179 -0.779257238 0.957503259 -0.205019757 -0.202865452 0.596372783 -0.0939910784 0.797185779 0.175361484 0.74057591 -0.648687601 -0.0497031994 -0.83815974 0.543155432 -0.0431237444 -0.764514804 0.643162072 -0.30084905 -0.945300341 0.126083761 -0.366964102 -0.919797897 0.138957426</float_array>
          <technique_common>
            <accessor source="#normals_array" count="279" stride="3">
              <param name="X" type="float" />
              <param name="Y" type="float" />
              <param name="Z" type="float" />
            </accessor>
          </technique_common>
        </source>
        <vertices id="vertices">
          <input semantic="POSITION" source="#positions" />
        </vertices>
        <triangles material="qmat_4b294f1aa1dfaafb" count="152">
          <input semantic="VERTEX" source="#vertices" offset="0" />
          <input semantic="NORMAL" source="#normals" offset="1" />
          <p>0 0 1 1 2 2 0 3 3 4 4 5 2 6 5 7 6 8 7 9 0 3 4 5 7 10 8 11 1 1 8 12 5 7 1 13 7 10 9 14 8 11 8 12 6 15 5 7 8 12 10 16 6 15 4 17 3 18 11 19 12 20 4 17 13 21 14 22 15 23 13 24 4 5 12 25 16 26 16 27 12 20 13 21 16 27 13 21 17 28 15 23 18 29 13 24 18 29 17 30 13 24 11 31 15 23 14 22 11 31 10 32 15 23 19 33 20 34 21 35 20 36 17 37 10 16 22 38 7 9 4 5 22 39 23 40 9 14 22 38 4 5 24 41 4 5 25 42 24 41 8 43 26 44 21 45 25 46 19 33 26 47 8 43 27 48 26 44 25 46 26 47 27 49 3 18 0 0 2 2 11 19 3 18 2 2 11 31 2 6 6 8 2 6 1 13 5 7 0 0 7 10 1 1 11 31 6 8 10 32 8 12 20 36 10 16 4 17 11 19 14 50 13 21 4 17 14 50 20 34 16 27 17 28 15 23 10 32 18 29 18 29 10 32 17 30 19 33 16 27 20 34 19 51 4 5 16 26 25 42 4 5 19 51 7 10 22 39 9 14 9 52 23 53 8 43 22 39 24 54 23 40 28 55 24 41 25 42 8 43 23 53 27 48 24 54 28 56 27 49 23 40 24 54 27 49 20 57 8 43 21 45 26 47 19 33 21 35 28 56 25 46 27 49 29 58 30 59 31 60 29 58 32 61 30 59 33 62 34 63 35 64 34 65 36 66 37 67 32 68 36 66 34 69 36 66 38 70 39 71 36 66 39 71 37 67 33 62 35 64 40 72 41 73 40 73 42 73 42 74 39 75 43 76 42 74 43 76 44 77 38 70 45 78 39 71 46 79 47 80 48 81 29 82 46 83 36 66 33 62 49 84 31 85 46 86 31 86 47 86 50 87 51 88 41 89 50 87 41 89 52 90 41 91 53 91 52 91 41 92 42 74 44 77 47 93 31 94 54 95 49 96 47 96 55 96 31 97 56 98 54 99 47 100 56 100 48 100 48 101 56 102 55 103 47 93 54 95 55 104 54 99 56 98 49 105 41 106 44 107 46 108 44 107 45 109 46 83 46 110 53 111 41 112 48 81 52 113 51 114 46 79 48 81 51 114 51 115 52 116 57 117 48 118 54 119 49 120 58 121 59 122 60 123 58 121 61 124 59 122 62 125 59 126 63 127 60 128 59 129 62 125 64 130 60 128 62 125 64 131 58 121 60 123 65 132 66 133 63 134 66 135 65 136 67 137 59 138 67 137 65 139 68 140 45 141 69 142 43 76 70 143 68 144 43 76 68 144 71 145 71 145 68 144 67 137 70 146 45 141 68 140 53 111 72 147 45 148 48 118 57 149 64 130 57 149 58 150 64 130 57 117 52 116 58 121 52 116 44 77 71 145 44 77 53 151 45 152 48 118 64 130 50 153 62 125 63 127 72 147 30 154 32 154 34 154 33 62 30 155 34 63 32 68 29 82 36 66 30 155 33 62 31 85 35 64 34 156 37 157 40 72 35 64 37 157 40 72 37 157 39 75 42 74 40 72 39 75 43 76 39 75 70 158 36 66 46 83 38 70 39 71 45 78 70 159 38 70 46 83 45 109 46 160 29 58 31 60 46 79 51 114 73 161 49 105 56 98 47 162 31 163 49 163 55 163 31 164 55 103 56 102 57 149 48 118 49 120 46 110 73 161 53 111 51 88 33 62 41 89 41 89 33 62 40 72 49 84 51 115 57 117 49 84 33 62 51 115 54 95 48 165 55 104 59 138 61 124 67 137 66 133 69 142 63 134 63 127 59 126 65 166 61 124 71 145 67 137 72 147 63 127 69 167 71 145 44 77 43 76 66 133 68 140 69 142 68 144 66 135 67 137 72 147 69 167 45 148 52 116 53 151 44 77 50 153 64 130 73 161 53 111 73 161 72 147 61 124 52 116 71 145 48 168 50 168 52 168 73 161 51 114 50 153 58 121 52 116 61 124 73 161 64 130 62 125 72 147 73 161 62 125</p>
        </triangles>
        <triangles material="qmat_ddc4e6410bf0a5b2" count="120">
          <input semantic="VERTEX" source="#vertices" offset="0" />
          <input semantic="NORMAL" source="#normals" offset="1" />
          <p>74 169 75 170 76 171 77 172 78 173 79 174 77 172 79 174 80 175 81 176 82 177 78 178 83 179 82 177 81 176 75 170 84 180 77 181 85 182 86 182 78 182 85 183 78 173 77 172 81 176 78 178 86 184 87 185 79 186 88 187 78 173 82 188 79 174 74 169 76 171 89 189 76 171 80 190 90 191 90 191 80 190 91 192 82 188 92 193 93 194 79 174 87 195 91 196 81 176 88 197 94 198 79 199 94 198 88 200 82 188 93 194 79 174 79 199 93 201 94 198 89 189 90 191 95 202 96 203 97 204 98 205 98 206 99 207 100 208 101 209 102 210 103 211 104 212 103 211 102 210 103 211 105 213 99 214 106 215 107 216 84 180 106 215 101 217 107 216 96 203 83 179 97 204 86 218 108 219 88 187 85 183 109 220 86 218 109 221 81 176 108 222 83 223 96 224 92 193 97 204 81 176 109 221 98 206 109 220 85 183 102 210 74 169 104 212 103 211 104 212 110 225 104 212 74 169 89 189 95 202 91 192 111 226 100 208 105 227 87 195 108 222 94 198 92 228 105 227 111 229 87 195 76 171 75 170 77 181 106 215 75 170 74 169 75 170 106 215 84 180 77 172 84 230 85 183 97 204 83 179 81 176 82 188 83 223 92 193 81 176 86 231 88 197 80 175 79 174 91 196 89 189 76 171 90 191 80 190 76 171 77 181 91 196 87 195 111 229 95 202 90 191 91 192 92 228 94 198 93 201 98 205 97 204 109 221 107 232 99 207 98 206 107 216 101 217 99 214 100 208 99 207 105 227 101 217 103 211 99 214 74 169 102 210 106 215 84 230 107 232 85 183 102 210 101 209 106 215 85 183 107 232 98 206 86 218 109 220 108 219 92 193 96 224 98 206 103 211 110 225 105 213 110 225 111 226 105 213 92 193 98 206 100 208 100 233 87 185 108 219 108 222 81 176 94 198 110 225 104 212 95 202 104 212 89 189 95 202 110 225 95 202 111 226 100 234 108 222 92 228 108 219 87 185 88 187 112 235 113 236 114 237 114 238 115 239 116 240 117 241 115 239 114 238 118 242 115 239 117 241 118 242 117 241 113 243 113 236 117 244 114 237 118 245 113 236 119 246 120 247 119 248 121 249 115 239 118 242 119 248 115 239 119 248 120 247 120 247 121 249 122 250 122 250 121 249 123 251 123 252 113 236 122 253 122 253 113 236 120 254 116 240 115 239 124 255 124 256 113 236 116 257 116 257 113 236 112 235 112 258 114 238 116 240 115 259 120 254 124 256 120 254 113 236 124 256 119 246 113 236 121 260 121 260 113 236 123 252 125 261 126 262 127 263 128 264 129 265 130 266 131 267 129 265 128 264 132 268 129 265 131 267 130 266 129 265 126 262 133 269 134 270 135 271 135 271 134 270 136 272 137 273 134 270 125 261 125 261 134 270 133 269 129 265 127 263 126 262 127 263 129 265 137 273 125 261 130 274 126 262 135 271 128 264 133 269 128 264 135 271 131 267 131 267 135 271 136 272 134 275 132 276 131 277 134 275 131 277 136 278 137 273 129 265 132 276 137 273 132 276 134 275 130 274 133 269 128 264 130 274 125 261 133 269 125 261 127 263 137 273</p>
        </triangles>
      </mesh>
    </geometry>
  </library_geometries>
  <library_visual_scenes>
    <visual_scene id="scene">
      <node id="hip_dae">
        <instance_geometry url="#geometry">
          <bind_material>
            <technique_common>
              <instance_material symbol="qmat_4b294f1aa1dfaafb" target="#qmat_4b294f1aa1dfaafb" />
              <instance_material symbol="qmat_ddc4e6410bf0a5b2" target="#qmat_ddc4e6410bf0a5b2" />
            </technique_common>
          </bind_material>
        </instance_geometry>
      </node>
    </visual_scene>
  </library_visual_scenes>
  <scene>
    <instance_visual_scene url="#scene" />
  </scene>
</COLLADA>