<?xml version='1.0' encoding='utf-8'?>
<COLLADA xmlns="http://www.collada.org/2005/11/COLLADASchema" version="1.4.1">
  <asset>
    <created>2026-09-14T00:00:00Z</created>
    <modified>2026-09-14T00:00:00Z</modified>
    <unit name="metre" meter="1" />
    <up_axis>Z_UP</up_axis>
  </asset>
  <library_effects>
    <effect id="qmat_4b294f1aa1dfaafb_effect">
      <profile_COMMON>
        <technique sid="common">
          <lambert>
            <emission>
              <color sid="emission">0 0 0 1</color>
            </emission>
            <diffuse>
              <color sid="diffuse">0.6717055 0.6924257 0.7742702 1</color>
            </diffuse>
            <reflectivity>
              <float sid="specular">0.5</float>
            </reflectivity>
          </lambert>
        </technique>
      </profile_COMMON>
    </effect>
    <effect id="qmat_ddc4e6410bf0a5b2_effect">
      <profile_COMMON>
        <technique sid="common">
          <lambert>
            <emission>
              <color sid="emission">0 0 0 1</color>
            </emission>
            <diffuse>
              <color sid="diffuse">0.9 0.95 0.95 1</color>
            </diffuse>
            <reflectivity>
              <float sid="specular">0.5</float>
            </reflectivity>
          </lambert>
        </technique>
      </profile_COMMON>
    </effect>
  </library_effects>
  <library_materials>
    <material id="qmat_4b294f1aa1dfaafb" name="qmat_4b294f1aa1dfaafb">
      <instance_effect url="#qmat_4b294f1aa1dfaafb_effect" />
    </material>
    <material id="qmat_ddc4e6410bf0a5b2" name="qmat_ddc4e6410bf0a5b2">
      <instance_effect url="#qmat_ddc4e6410bf0a5b2_effect" />
    </material>
  </library_materials>
  <library_geometries>
    <geometry id="geometry" name="thigh_mirror_dae">
      <mesh>
        <source id="positions">
          <float_array id="positions_array" count="759">0.048375193 0.0565325692 -0.000785094919 0.0372069813 0.0565511473 -0.00056674378 0.048415754 0.0488433689 -0.00130594242 0.037409693 0.048703257 -0.000500405265 0.0318618156 0.0484949909 -0.0191123821 0.0348253176 0.056795001 -0.0136142233 0.0169750191 0.056795001 -0.0333667919 0.0424218811 0.0563187338 -0.0227744821 0.0410149582 0.0526449606 -0.00747798989 0.0406973995 0.0491571575 -0.0256556366 0.0109997075 0.0484949909 -0.0359042659 -0.0144545473 0.056795001 -0.0343516357 -0.017684998 0.0484949909 -0.0322860964 -0.016476687 0.0565080792 -0.0445729382 -0.0330697522 0.056795001 -0.0161632709 -0.037025135 0.0487449691 -0.000445990008 -0.0315598808 0.0485431924 -0.0184178129 -0.00947283395 0.0487449802 -0.0465652868 -0.0270139799 0.0487449802 -0.0391052626 -0.0418274924 0.04891821 -0.0229573697 -0.0412342399 0.0560122095 -0.024031749 -0.0479285605 0.0487918742 -0.00121736468 0.0157640222 0.0487728529 -0.0449899696 0.0203372333 0.0563152358 -0.0432350934 -0.0479515754 0.0564150959 -0.001225607 -0.0422531404 0.0551202931 -0.00737898983 -0.0465589799 0.0531871654 -0.0110755349 -0.0432629585 0.0526451729 -0.00217896001 -0.0414231643 0.0507347882 -0.00737898983 -0.0367960036 0.0565578565 -0.000524401024 0.0453706756 0.0504936576 -0.00748512102 0.046989359 0.0518696904 -0.0112780659 0.0450995043 0.0550025627 -0.00747798989 0.0311363824 0.021536395 0.0401580893 0.00418161741 0.0217998065 0.0504152551 0.0223599076 0.010949201 0.0448781922 0.0217207242 -0.0075036413 0.024401281 0.0190569032 -0.00166476809 0.0287504159 0.00622443482 -0.00187436678 0.0333380662 -0.0138572687 -0.00227791024 0.0316966772 -0.00256291032 -0.00698630465 0.0323102102 -0.0239372123 -0.00410344731 0.0259748921 0.0109969229 -0.0123323388 0.0237532873 0.0296855718 -0.00847127102 0.0106685031 0.0260281451 -2.29321304e-05 0.022798907 0.0308558531 0.00764945755 0.035622444 0.0316336155 0.0074279746 0.0123864831 0.0437676497 0.0167176519 0.0252085011 0.0408877097 0.0216342993 0.030376561 0.0215698536 0.00572677935 0.041980695 0.0137233539 -0.015542266 -0.00582494121 -0.0310411714 -0.00935277343 0.0144129712 -0.0110299401 -0.012716447 0.0235843565 -0.0371456593 -0.00244394434 0.0103169661 -0.0380621031 -0.00748533197 0.00278736232 -0.0404579528 -0.00248306803 -0.000433139503 -0.0452660285 0.00493060937 0.00282521313 -0.0403704792 -0.00286774803 -0.0173530262 -0.0479223616 0.0204143692 -0.0155811813 -0.0450824946 0.00753857475 0.013152671 -0.0478615724 0.0215229262 0.0152522614 -0.0395628512 0.0216039177 0.0311169419 -0.0368703865 0.00618311949 0.0273066815 -0.0246111546 0.00640481804 0.0391161889 -0.0111409724 0.00670836261 0.0453000739 -0.00462561473 0.0109346276 0.048880782 -0.0246678405 0.0216334946 0.0439813174 -0.039620433 -0.00963425264 -0.0173531547 -0.0252695512 -0.0142266722 0.00306657981 0.00209708093 -0.0157648418 -0.0159768481 -0.0387060009 -0.00139483891 -0.0036008507 -0.0420104824 0.00728088245 0.0127012748 -0.046005711 0.0218079593 0.0144704403 -0.0445844606 0.0113059003 -0.00606233533 0.0195091311 0.00732708396 0.0442709997 0.0282205064 0.02180795 0.0397609733 0.03216305 0.0119578959 0.0336151235 -0.0457053632 0.0204810668 -0.015512771 -0.0197803825 0.02180795 0.0449118093 0.00838154089 0.02180795 0.0480786152 -0.00779940886 0.0087755844 0.0444183201 0.0424344502 0.0193079691 0.0247738231 0.021918349 0.00114500104 0.0247291438 -0.017090315 -0.000596385624 0.0287178028 -0.0336616784 -0.00170438085 0.0117395753 0.0217360314 -0.00900910422 0.0224277321 0.0290060882 -0.00704777846 0.00960986223 0.0182482544 -0.0129213827 -0.00175806379 -0.0362359509 -0.00622062944 0.00116042071 0.00290818885 -0.0132997483 -0.015707761 -0.034125831 -0.0105340937 -0.0173505079 -0.0140842535 -0.0135792308 0.000608985894 -0.0228251107 -0.00772762904 0.0208646841 -0.00652183127 -0.0112309419 0.0212317668 0.00613600016 -0.000475115317 0.0313676856 0.000918548438 -0.00653938577 0.0296739321 -0.0286965482 0.00685333973 0.032370422 -0.0400396585 0.0218079537 0.0278908554 -0.0374001414 0.0565855429 0.00172753679 -0.0296002403 0.0567432195 0.0225716941 -0.0313860439 0.0484959409 0.0203563701 -0.0369760133 0.048689086 0.0017461488 -0.0158222653 0.056795951 0.0343721211 -0.0157178435 0.0484959409 0.0344207175 -0.00317813968 0.0487459712 0.0486779399 -0.0303050485 0.0487459712 0.0378796607 -0.0166074242 0.0565459616 0.0457569733 0.011037197 0.05641675 0.0476127081 0.0335149765 0.056795951 0.0174707863 0.0200278722 0.0567909479 0.0321563855 0.0348164625 0.0565459691 0.0341692381 0.00301581342 0.056758441 0.0376154371 0.0382782221 0.0486757234 0.00175784784 0.0240447558 0.0484959409 0.0296376254 0.00384972151 0.0485169925 0.0376133434 0.0185449012 0.0487459712 0.0451838151 0.0406925529 0.0489959717 0.0269090477 0.0420554727 0.0559759922 0.0246867128 0.0484094508 0.0487709083 0.00213543978 0.042824287 0.052942425 0.00862099044 0.0483883359 0.0565380491 0.00208800728 0.0470031686 0.0525930002 0.0124334376 0.037258558 0.0565582961 0.00177562202 -0.0389036462 0.0562903434 0.028819615 -0.0441259965 0.0494561531 0.0195859727 -0.0479147024 0.0487459786 0.00227709161 -0.0415273719 0.0505741201 0.00871999003 -0.0449822955 0.0547285005 0.00871999003 -0.0464259423 0.0530248731 0.0128902458 -0.043576356 0.0558189303 0.0208208282 -0.0479482822 0.0564411283 0.00245179236 0.0372058451 0.0481459312 0.0315106064 0.0409877673 0.0473960005 0.0221822299 0.0331369117 0.046366971 0.0316459127 0.0125030112 0.0468959697 0.0454172529 0.0155420173 0.0352755934 0.043925412 0.00108452514 0.0474639013 0.0488184988 0.0319604054 0.0352126099 0.0367855318 -0.0185486618 0.0353375338 0.044909507 0.0400312133 0.0471891388 0.015192071 0.0453349911 0.0477829501 0.0165189598 0.0428595133 0.0351975188 0.0159647446 0.0303652976 0.0182230696 0.0376272462 0.0187733788 0.0460531265 0.0408861265 0.0184143689 0.0451959819 0.045147948 0.00287326379 0.01815526 0.0480755717 0.0213659927 -0.00617876602 0.0219048765 -0.00416401587 -0.0104390606 0.0230921209 0.0142588448 -0.0123222647 0.00448982883 0.00716066873 0.00850254111 0.0332583264 0.022284599 0.00793606974 0.0254390519 -0.0188313257 0.00812396966 0.0294436123 -0.00514304545 -0.0052340976 0.0308139119 0.032556653 0.00861157384 0.00819765776 0.0457320809 0.0187329613 0.0161619205 0.0453349911 0.0477799699 -0.0152759403 0.0415469222 0.0466817543 -0.014860088 0.0435310006 0.0352985971 -0.0146599896 0.0449869595 0.0452783033 0.00622536335 0.0413674936 0.0464924499 -0.021122463 0.0452860817 0.0186362769 -0.0159650613 0.0301872101 -0.00674413983 -0.00441005547 -0.0084759593 -0.0133782523 -0.00154757127 0.00758966571 -0.0102858078 -0.0440086164 -0.0246560667 0.0478959493 0.0419525914 -0.0294657815 0.0473745465 0.0297368784 -0.0450306013 0.0478181243 0.0164772607 -0.0224342905 0.0462245122 0.0411763228 -0.0391626544 0.0448173396 0.0255398788 -0.0348667689 0.0353786126 0.0312934294 -0.0134366062 0.0186931975 0.0466550626 -0.0430619307 0.0453959703 0.0135515686 -0.0383713879 0.0468658619 0.016113095 -0.0445896611 0.0353153832 0.0181314722 -0.0365667343 0.00665531727 0.00768681755 -0.030928243 -0.0059346538 0.013982065 -0.0349897146 0.0180487614 0.0328775495 -0.0447074324 0.0173902847 0.0158582646 -0.0234129615 -0.00481750676 0.0237285141 -0.0454486012 0.0182967652 -0.0130231502 -0.0443900414 0.0443543345 -0.012694411 -0.0389382616 0.0483959988 -0.0156945921 -0.0411109887 0.0455074869 -0.0208349694 -0.0426496044 0.0353102274 -0.0147064254 -0.0449272171 0.0475949869 -0.0152564878 -0.0407433547 0.00909068994 -0.024368763 -0.0400723815 -0.00456043566 -0.0155672645 -0.0230257921 -0.0106706833 -0.0382782631 0.0155088613 0.00541086076 -0.0606193133 0.0263961535 -0.00547417393 -0.0303759705 0.00760127604 -0.00617616624 -0.0893645957 0.0185705516 0.015818283 -0.0449698344 0.00783743896 0.00977392867 -0.0644690767 0.0127839325 0.0459772386 -0.0418651029 0.018415628 0.0451960005 -0.0439054631 0.0034202165 0.0468959883 -0.0473778136 0.0332321152 0.0352542028 -0.0324890241 0.00136769586 0.0451687574 -0.046042826 0.0155724613 0.0353032723 -0.0425266698 0.0339574926 0.0184646472 -0.0335084833 0.0309348851 0.0481459498 -0.0365053043 -0.0166112054 0.0352497399 -0.0444764048 -0.000312099932 0.0182869844 -0.0478155911 0.0311719552 0.0462404341 -0.0281463396 0.0184487924 0.0461459793 -0.0373951606 0.0234731939 0.0447458178 -0.0398234501 0.0302941874 0.00870822463 -0.026822526 -0.0268918276 -0.0103339851 -0.144047379 -0.0134019284 -0.0110819079 -0.139494404 -0.0345706455 0.0168977249 -0.0350222215 -0.0245123822 0.0110591194 -0.0626384467 -0.0380337238 0.00642820541 -0.0683542863 -0.0163766947 0.0166574474 -0.0459067747 -0.0332389772 0.00918002613 -0.144823417 0.00294325221 0.0476257801 -0.0409790948 -0.0150709087 0.0466527343 -0.0380953662 -0.0203712303 0.0474648587 -0.0422237143 -0.0353283845 0.0351959392 -0.0298656132 -0.0292461216 0.0474646948 -0.0287970733 -0.0227232352 0.0448773168 -0.0399953648 -0.0331322625 0.0481459461 -0.0341237634 -0.0333843231 -0.00923578162 -0.00541239232 -0.0372042693 -0.00507148495 -0.0889848769 -0.0318443961 -0.00803487469 -0.174749359 -0.00130238396 -0.00796158612 -0.144837469 -0.000950083893 0.00857417192 -0.149509668 0.0010528547 -0.0135288499 -0.183433354 0.00266123749 0.00839002151 -0.112552866 -0.0178801306 0.0123508712 -0.148746908 -0.00989196543 0.000426594634 -0.18578662 0.00239755982 -0.00718995836 -0.180248633 -0.0171097722 -0.00652112206 -0.191317558 -0.0065908432 0.0181812588 -0.173078015 0.00986038148 0.0175172314 -0.209507436 -0.00476655597 0.0190553162 -0.207547069 0.00283231749 0.0110151442 -0.179410577 0.016403852 0.0112885879 -0.213876218 -0.0207822789 -0.0154591249 -0.183233917 -0.0182713233 -0.0125237107 -0.213398844 -0.0297137983 0.0158308428 -0.185010031 0.0169192329 -0.0073721814 -0.215814516 0.0120591484 -0.0140240286 -0.214915827 0.000473951513 -0.0160603225 -0.217671081 4.35602597e-05 -0.00784423202 -0.227354005 -0.0171951167 -0.00731874909 -0.217377365 -0.0215773545 0.0116167041 -0.21322757 0.00638669496 0.0118044419 -0.227354005 -0.00476207305 0.0187613647 -0.221440464 -0.027735794 0.0105854617 -0.196650341 -0.0277838558 -0.006886872 -0.197705939 -0.0119915921 0.0474993996 0.0472858548 -0.015629774 0.0456186533 0.041364938 -0.0335377082 0.0447166003 -0.0316838883</float_array>
          <technique_common>
            <accessor source="#positions_array" count="253" stride="3">
              <param name="X" type="float" />
              <param name="Y" type="float" />
              <param name="Z" type="float" />
            </accessor>
          </technique_common>
        </source>
        <source id="normals">
          <float_array id="normals_array" count="1272">0.0193906445 -0.0674680993 0.997532964 0.0521132126 -0.0199696273 0.998441517 0.0402772799 -0.037186861 0.998496294 0.0728606209 0.010312086 0.997288823 -0.812074542 -0.0315943696 0.582697749 -0.975508332 0.0392096713 0.216439664 -0.919552565 0.0237174947 0.392250687 -0.48623392 0.0164963081 0.873672962 0.933578312 -0.190467566 -0.303568244 0.646930933 -0.752837956 -0.121307068 0.8481251 -0.0272042844 -0.52909708 -0.204968244 -0.0858867168 0.97499305 0.34359464 0.0437290519 0.938099384 0.517897427 0.0112953447 0.855368137 -0.252636373 0.648247421 -0.718296707 -0.0491642132 0.998337686 -0.0300782751 -0.0121075176 0.999597311 -0.0256637745 0.0203131866 0.999036551 -0.0389011428 0.968407273 0.0106216287 0.249147624 0.827621818 -0.0058576283 0.561255515 0.883285105 0.0126543567 0.468665451 -0.0378479026 -0.998512387 -0.03924907 -0.206046686 -0.976958513 -0.0556494482 -0.00448053889 -0.999782264 -0.0203801896 -0.0100191208 -0.999896646 -0.010313632 -0.0127392234 -0.999890447 -0.00753336493 -0.0140334433 -0.999890447 -0.00470122835 -0.596717119 0.20080018 -0.776922107 -0.694788992 0.643015206 -0.322179496 -0.942881942 0.0285849832 -0.331898391 -0.00381488795 -0.999969065 -0.00688150525 -0.0624987222 0.194827348 -0.978844345 0.235390827 0.0918286741 -0.9675529 0.450886935 -0.0330730565 -0.891968131 0.0165559463 -0.999623299 -0.021889288 0.108069889 -0.992631376 -0.0548073575 0.0142228911 -0.99959904 -0.0244831238 0.0412343666 -0.99856174 -0.0342668816 0.73614651 -0.665141106 -0.125202283 0.0197875537 0.998929083 -0.0418223403 -0.721792102 0.681017518 -0.12341518 0.526938319 -0.830766976 -0.179338261 0.467649341 -0.879855633 -0.0846055523 0.425429106 -0.904713809 -0.0224264469 0.571997643 -0.778183937 -0.25932318 0.500267744 0.856535554 -0.126802996 0.496512502 0.859773159 -0.119438268 0.504354119 0.8528952 -0.134895161 -0.962388635 0.0744800344 -0.261267751 -0.981258988 -0.0836175978 -0.173605651 -0.0705660284 0.000865509268 0.997506738 -0.0658042356 0.00767892832 0.997803032 -0.067534484 0.00520401215 0.997703373 -0.0628799647 0.0118596349 0.997950613 -0.0135452971 0.999837041 0.0119337393 0.493391246 0.862387896 -0.113367409 -0.97072947 -0.183714852 -0.154703587 -0.979481936 -0.144450411 -0.140531838 -0.94633615 -0.17909798 -0.26902017 -0.919205129 -0.296017319 -0.259683758 0.972523808 -0.0261991359 0.231324509 0.032176625 0.996150076 -0.0815455839 -0.359660655 0.664699912 -0.654842138 -0.981968641 0.188394368 -0.0156563055 0.435614169 0.882569253 -0.176951438 -0.720135272 -0.274007916 -0.637436211 -0.801206887 -0.591680706 0.08933907 0.0289247464 0.99944973 -0.0162356161 0.017072672 0.999851346 0.00242073112 0.0336546116 0.999099135 -0.0258517768 0.00202131784 0.999830186 0.0183169097 -0.983542979 -0.0238904487 0.179087773 0.493466735 -0.854932189 -0.159942269 -0.000882186694 0.00152850337 -0.99999845 0.98072958 0.0939705297 -0.171286404 0.957622886 -0.112666734 -0.26507479 0.921840906 0.294084638 -0.252435237 0.0132586062 -0.999885917 0.00723641878 0.612016499 -0.148133263 0.776847661 0.0774045214 -0.109583639 0.990959108 0.398368359 -0.253756225 0.881425202 0.532650948 -0.602999449 0.593864083 0.415082902 -0.66039592 0.625766277 0.127788246 -0.689821362 0.71261251 -0.207399487 -0.703845203 0.679402232 -0.042608317 -0.515055537 0.856097162 -0.421259969 -0.701584756 0.574733794 0.186566606 -0.879673362 0.437455863 0.834329545 -0.546299636 -0.0738301501 0.755032599 -0.541428089 0.369839787 0.635744631 -0.590230167 0.49745062 0.869824946 -0.493306726 0.00728467712 0.985603511 -0.147414505 -0.0827930048 0.770228267 -0.167970315 0.615251482 0.319299996 -0.687812686 0.651890516 0.518140495 -0.725675344 -0.452687204 -0.581003428 -0.687529683 0.435589194 -0.164733306 -0.886997163 0.431391895 -0.758254111 -0.54367429 0.359817952 -0.761415124 -0.609803617 0.219969437 -0.883290708 -0.450835258 0.128627598 -0.909966826 -0.410051435 0.0617917366 -0.970584929 -0.237221524 -0.0411200523 -0.969154119 -0.238785475 -0.0610061623 -0.87012279 -0.416415721 0.26359874 -0.940671444 -0.214966938 0.262538433 -0.755288363 -0.261316776 0.601043224 -0.689648151 -0.502752066 0.521177351 -0.458287001 -0.523439348 0.718320489 -0.205804169 -0.587216079 0.782829404 -0.0837499648 -0.350436062 0.932834685 -0.480266452 -0.209502667 0.851735175 -0.73867166 -0.674038112 0.00606410624 -0.240330726 -0.967589438 0.0775361359 -0.0540437438 -0.998529255 0.00430728635 0.861972868 0.47318241 -0.181937411 0.8809129 0.470743418 -0.0489196554 0.836317122 0.471036106 -0.280532777 0.936105728 0.264160782 -0.232217982 0.972863674 0.231378332 -0.00059282803 -0.348387033 0.5430516 -0.764016688 -0.347336203 0.835210383 -0.426358044 -0.707135975 0.517098069 -0.482253313 0.98378253 0.172129601 0.0504310355 0.401688665 0.303913653 -0.863876581 -0.0857676342 0.147021353 -0.985407829 0.159082755 0.541680455 -0.825393796 -0.642454445 0.666736662 -0.377775818 -0.765500069 0.558289051 -0.319879621 -0.614436388 0.589047909 -0.524871826 0.298045397 0.688720047 -0.660933971 0.687524438 0.606181026 -0.399818361 -0.503639579 0.649208963 -0.569977999 -0.689007282 0.648873389 -0.322850138 -0.117201187 0.989029229 -0.0899166688 0.742316365 0.621102035 -0.251393557 0.00949357729 0.999590099 0.0270083174 0.491051763 0.868839562 -0.0631343424 0.121057332 0.990381956 -0.0669980943 0.490057915 0.683191836 -0.541379809 0.0861222371 0.930966377 -0.354802072 -0.138244569 0.713331103 -0.687056899 -0.00763342949 0.591917276 -0.805962563 0.539253771 0.567257941 -0.622433782 0.759326637 0.338629693 -0.555655479 0.44188714 -0.0476122051 -0.895806253 0.728777289 -0.428948462 -0.533747911 0.328545272 0.00200161408 -0.944486082 0.787932754 -0.0781272203 -0.610784829 -0.292364389 0.863663971 -0.410618633 0.000873205019 0.999960244 0.00887303706 0.00486717094 0.999913275 0.0122353202 -0.138665274 0.80076164 0.582711577 -0.0747293532 0.99457413 0.0723731443 -0.047042422 0.997080088 0.0601522624 -0.178061739 0.980049253 0.0883034915 -0.15203768 0.988371015 0.00268967263 -0.0343503356 0.998752952 -0.0362304524 -0.142263725 0.98972702 0.0141954413 -0.14416562 -0.87895596 0.454590648 0.00049430778 7.37288501e-05 -0.999999881 0.0281785559 0.0849377289 -0.995987713 -0.0289463252 0.998937607 -0.035857968 0.0783569217 0.991617262 0.102739513 0.863616586 0.391107321 -0.318121672 0.0509669781 0.0917855799 -0.994473636 0.952837169 0.00988203008 -0.303321064 0.787617147 -0.00504098041 -0.6161443 0.853558242 -0.0285312384 -0.52021569 0.956641257 0.0507073477 -0.286820889 0.435445756 0.00759131601 -0.900182962 0.432725251 0.00291731977 -0.901521146 8.27222248e-05 -0.999847531 0.0174616314 -0.492417514 -0.600377679 0.630136192 -0.00933431555 -0.999698043 0.0227301475 -0.0156719554 0.999604821 0.0233369097 -0.0083918022 0.999736309 0.0213746913 0.00672276691 0.999571979 0.0284719616 0.0471084379 0.998657703 0.0215303823 0.0578802824 0.996649086 0.057797242 0.0259000454 0.999580741 0.0129453111 -0.000616629841 0.999399304 0.0346511602 -0.953802466 0.0205041096 -0.299733967 -0.657785356 0.0163788665 -0.75302732 -0.870148182 0.194565043 -0.452754378 -0.495635688 -0.00160568103 -0.868529022 -0.0985687301 0.0113008972 -0.995066047 -0.00290766801 -0.999352157 0.0358713865 0.112117715 -0.992137015 0.0556218624 0.0117320139 -0.999739826 0.0195619371 0.0149359433 -0.999805987 0.0128393956 0.100371286 -0.994276464 0.0366050266 0.652341366 -0.128364161 0.746976137 0.209885016 0.00054357521 0.977725923 0.430946112 0.0603844225 0.900355041 0.868603528 -0.104687855 0.484322637 0.944723427 -0.0835223943 0.31705156 0.722254336 -0.678953409 0.131799147 0.982839823 -0.166901693 0.078547664 0.164399952 0.985257506 0.0473318882 0.721613586 0.681265175 0.123091877 0.962717593 -0.0255737528 0.269296825 0.0316286385 -0.000892513781 -0.999499261 0.0333264135 0.00154113874 -0.999443352 0.0280450042 -0.00602807663 -0.99958849 -0.965582073 -0.124390535 -0.228425562 0.0371771082 0.00706235692 -0.999283731 -0.234679237 -0.957179844 0.169506446 -0.0998044908 0.974953949 0.198755905 0.00222899765 0.999890804 -0.0146086477 -0.0817091987 0.0995965898 0.99166733 -0.356074989 -0.113029711 0.927596271 -0.0582009591 -0.00847036019 -0.998268962 -0.818820536 0.0279383603 0.573369384 -0.049358055 0.998401403 0.0275402255 -0.0302810594 0.99930644 0.0216722433 -0.0255288258 -0.999589562 0.0130016441 -0.893040538 -0.428487062 0.137395382 -0.714726508 -0.689204037 0.119011641 0.745966315 0.620371044 0.242227346 0.628596365 0.718018889 0.298856944 0.582928896 0.748110294 0.317056596 0.161134079 0.892855644 0.420528948 0.733062148 -0.679740965 -0.0239186585 -0.719615698 0.68692559 -0.101422317 -0.760694444 -0.632618427 0.145388544 -0.700971663 -0.690003157 0.180372819 -0.480496436 -0.83143276 0.279003143 -0.42476961 -0.854670763 0.29851082 -0.352023154 0.928869426 0.11524462 -0.726777375 0.676216662 0.120522767 -0.974371552 0.046563711 0.220072433 -0.0563388616 0.0111342659 -0.998349607 -0.0603450984 0.00544678047 -0.998162687 -0.0483521894 0.0224594641 -0.998577833 -0.0684171915 -0.00602626894 -0.997638583 -0.00562251313 -0.999946475 -0.0086884303 -0.0138530675 0.999901235 -0.00238004257 -0.392922312 0.88232249 -0.259073466 -0.323321998 0.928273797 -0.183767796 -0.368111342 0.882435143 -0.292920202 -0.406747013 0.0108992318 -0.913475811 -0.251901686 0.676363289 -0.692154765 -0.0547084883 0.248171702 -0.96717 -0.951358676 -0.075386785 -0.298719734 -0.628804862 -0.179457769 -0.756570756 -0.659446418 -0.256109238 -0.706780314 0.337295443 0.606834173 -0.719711065 -0.117179923 0.993084133 -0.00726821274 -0.127176598 0.991654515 -0.0211539511 -0.966167033 -0.014048595 -0.257534295 0.7818048 -0.0517078601 0.621375561 0.566118777 -0.450593203 0.690271914 0.960269272 -0.0215882342 0.278238833 -0.501831949 -0.14423649 -0.852854311 0.385768324 0.51473695 0.765655696 0.160087466 0.965031087 0.207574114 0.24641116 0.761969984 0.598901689 0.0443597026 0.00967154931 0.99896878 0.0905030742 -0.471533507 0.877191722 0.00455866056 0.999988258 0.00166160509 0.000457352231 0.999999881 5.4624179e-06 0.548688829 -0.626915514 0.553098023 -0.0548363812 -0.92144084 0.384629399 0.209788054 -0.973960936 0.0859595686 0.162244722 -0.622115731 0.765929937 0.560336769 -0.578844607 0.592420101 -0.395189852 -0.562319458 0.726375818 -0.0810159817 -0.53656435 0.83996141 0.771282136 -0.607856035 0.188772008 0.85978967 -0.429595739 0.276060164 -0.269608587 0.962661088 -0.0243904553 -0.280985802 0.959359765 -0.0259969756 -0.969390094 -0.23027423 0.0851855651 -0.973411381 -0.0227460973 0.227931872 -0.875371695 -0.475709409 -0.0861678198 -0.280509949 0.959621966 -0.0209714901 0.956908524 0.0139989313 -0.290051877 0.885453045 -0.399482846 -0.237458184 0.772461057 -0.634953201 0.0117640542 -0.0663036034 -0.996822238 0.0441508554 0.167236403 -0.984156013 -0.0588971749 0.373562098 0.848351002 -0.375169158 0.13072525 0.986727417 -0.0963321924 0.117008701 0.992906749 -0.0210989211 0.396943688 0.285766304 -0.872223198 0.72354728 -0.549412429 -0.417881876 0.358293325 -0.888596594 -0.286394835 0.688329279 -0.122542337 -0.714972854 -0.266601413 -0.446778625 0.853998005 0.73075074 -0.614668548 -0.296961248 0.605792344 -0.750355899 -0.264540464 0.931490958 -0.218963042 -0.290481895 0.00156213262 0.999991179 -0.00389245432 -0.833875299 -0.463815212 0.299211293 -0.666131496 -0.596875906 0.447222501 -0.658144534 -0.411310285 0.630610466 -0.888892412 -0.365140647 0.276663274 -0.510718942 -0.606035054 0.609825969 -0.949579418 0.0249657501 0.312530994 -0.973534465 -0.188515857 -0.129198939 0.926567018 -0.347315401 0.144379929 0.54305321 -0.824624062 0.158393085 0.780979753 -0.458712816 0.423855096 0.953641772 0.139998943 0.266397536 -0.124639817 0.986576736 -0.105504632 -0.11241027 0.992846668 -0.0402422771 -0.988578856 -0.0231594555 -0.148914218 -0.891019106 -0.449156433 0.0659048334 -0.0913672522 -0.995624542 -0.0195911601 0.852460027 0.36944434 -0.369895548 0.753929675 -0.618208468 -0.222279966 0.9718256 -0.0143869156 -0.235261604 0.593988061 0.269934714 -0.757834733 0.295278937 0.932672203 -0.207202688 0.117790788 0.989940643 -0.0783762857 0.00841510575 0.992286086 -0.123683169 0.0782216042 0.991870821 -0.100367442 -0.683802724 -0.579527855 0.443352371 -0.709884882 -0.0476019643 0.702707291 -0.432338595 -0.285128564 0.855444372 -0.010468415 -0.442839324 0.896539867 -0.310661912 -0.0501034409 0.949199021 0.7125476 -0.289090097 -0.639298677 0.693521321 0.0208076313 -0.72013551 0.289952606 -0.23807928 0.926955104 0.00265890383 0.0321906433 -0.999478221 -0.0109495455 -0.359544665 -0.933063626 -0.123084016 -0.970076799 0.209287792 -0.15038389 -0.642933071 0.751013815 -0.289458573 -0.53283143 0.795175731 -0.217452884 -0.911789358 0.348359674 -0.00111606997 0.999996543 0.00237750658 -0.00174628617 0.999995887 0.00228468096 -0.00219317223 0.99995935 0.00874723122 0.374281019 0.035546191 -0.926633775 0.386858732 -0.918887019 -0.0773754939 0.849777162 -0.407704711 -0.334149122 -0.313210547 -0.948791325 0.0411610566 0.102303982 -0.994405985 0.0262800716 -0.78016144 0.407121986 -0.47497344 -0.122927241 0.979139626 -0.16178526 -0.82851541 0.554076016 -0.0810064226 -0.0498642251 0.955330968 -0.291300952 -0.777257502 0.629145563 -0.0068301186 -0.00580508076 -0.898957491 0.437997341 0.148879245 -0.674310446 0.723284483 0.0664442629 0.994075 -0.0860232338 0.0634775534 0.994634867 0.0816830248 0.765744209 0.0290713385 0.642487884 0.0685563833 0.996260047 0.0525925457 0.0233421978 0.986178756 0.164032429 0.336310357 -0.554902732 0.760906279 -0.381820083 0.0530426428 -0.922713339 -0.301021755 0.0226163082 -0.953349054 0.307042122 -0.888272583 0.341609389 -0.712869704 0.0442228504 -0.699900746 0.00135118188 0.999996364 -0.0023399042 -0.474989593 -0.871825814 0.119601794 -0.906954408 -0.419298798 -0.0402765982 -0.887878418 -0.453793883 -0.0757831037 0.232890576 -0.97157371 0.0425036214 0.998467267 -0.0528041162 0.0165766235 0.999290824 -0.011914501 -0.0357200578 0.549189091 -0.804458976 0.226356104 0.767621398 0.627213061 -0.131761953 0.263129592 0.953143954 0.149263009 -0.00979177095 0.993786573 0.110871039 0.492793202 0.0525489002 -0.868558288 0.44780314 0.0746935382 -0.891006827 0.527441978 0.0929903015 -0.844486713 0.171370745 0.970066965 0.172052667 0.493250936 0.869856715 0.00726588722 -0.0141242938 0.999899209 -0.0014395325 0.755301356 0.581634045 0.302029431 0.641941667 0.757534504 -0.118542857 -0.282585502 -0.959236681 -0.00323079876 -0.592824221 -0.678655863 -0.433573216 -0.732479513 0.676678598 -0.0746983513 0.783872187 -0.581491947 -0.217741817 0.574156165 -0.790786684 -0.212134793 0.0197330099 -0.930233419 -0.366437376 0.00839958061 -0.71062535 -0.703520477 0.00809162855 0.999689758 -0.023555994 0.00236391183 0.999845505 -0.0174166374 0.00368337426 0.998923123 -0.0462501943 0.006084505 -0.999735594 -0.0221758597 0.0113410782 -0.99949199 -0.0297858585 -0.00898419973 -0.9997527 -0.0203433484 -0.00917117391 -0.999463618 -0.0314375944 -0.212210834 0.744277537 -0.633259475 -0.549904644 0.74566716 -0.376278311 0.0405499376 -0.998070359 -0.0470240228 -0.945427358 0.205145031 -0.253145456 -0.0159686115 0.99940604 -0.0305371396 0.0293702595 0.999097764 -0.0306761786 -0.924631655 -0.360739768 -0.122160137 0.138649032 0.989033997 -0.0508743413 -0.585312605 0.01112427 0.810731411 -0.251548976 -0.00857429113 0.967806578 0.388216227 -0.0293298457 -0.921101451 0.511437416 0.211545333 -0.832874715 0.198705822 0.892231882 -0.405509949 0.00129129714 0.999996543 -0.00228028651 0.00245522661 0.999991953 -0.00317049655 -0.961493611 0.0217769276 -0.273963064 -0.0859733 0.993313551 -0.0770507827 -0.197266147 0.96679157 0.162481174 -0.263274997 0.938946187 0.221509218 -0.300847292 0.927934527 0.22006458 -0.00965729263 0.999948621 0.00308845169 0.616664648 -0.48103255 0.623163283 0.0830438137 0.994319141 0.0665820539 0.520037413 0.0278002154 -0.853690982 0.454132587 -0.00927319936 -0.89088583 0.926383853 -0.272272617 0.260154843 0.781398714 -0.622179091 0.0480537675 0.89413631 -0.441108078 0.0770965219 -0.864620686 -0.46233958 -0.196654946 0.0214794949 0.999659717 -0.0148022147 0.408177286 0.843384087 -0.349420369 -0.450800866 0.0357160158 -0.891909719 -0.60739249 -0.399333566 -0.686736524 0.511623621 0.0504126623 -0.857729495</float_array>
          <technique_common>
            <accessor source="#normals_array" count="424" stride="3">
              <param name="X" type="float" />
              <param name="Y" type="float" />
              <param name="Z" type="float" />
            </accessor>
          </technique_common>
        </source>
        <vertices id="vertices">
          <input semantic="POSITION" source="#positions" />
        </vertices>
        <triangles material="qmat_4b294f1aa1dfaafb" count="250">
          <input semantic="VERTEX" source="#vertices" offset="0" />
          <input semantic="NORMAL" source="#normals" offset="1" />
          <p>0 0 1 1 2 2 1 1 3 3 2 2 4 4 3 5 5 6 4 4 5 6 6 7 7 8 8 9 9 10 6 7 10 11 4 4 6 7 11 12 10 11 12 13 10 11 11 12 13 14 14 15 11 16 13 14 11 16 6 17 15 18 16 19 14 20 16 19 12 13 11 12 12 21 16 22 17 23 16 22 18 24 17 23 16 22 15 25 18 24 15 25 19 26 18 24 18 27 20 28 13 14 18 27 19 29 20 28 15 25 21 30 19 26 13 14 20 28 14 15 13 14 17 31 18 27 13 14 22 32 17 31 13 14 23 33 22 32 22 34 9 35 10 36 17 23 22 34 10 36 10 36 12 21 17 23 9 35 4 37 10 36 23 33 7 8 9 10 23 33 9 10 22 32 9 35 2 38 4 37 6 17 23 39 13 14 20 28 24 40 14 15 25 41 26 42 20 43 26 42 25 41 27 44 28 45 26 46 27 47 26 48 21 49 24 40 21 50 15 51 24 52 15 51 29 53 24 52 24 40 29 54 14 15 26 46 28 45 19 55 25 56 28 57 27 58 28 57 25 56 20 28 19 29 28 57 20 28 26 48 19 59 21 49 20 28 26 48 24 40 11 12 14 20 16 19 14 20 29 60 15 18 9 61 30 62 31 63 30 62 9 61 8 64 32 65 7 66 31 63 5 67 0 68 7 69 5 67 1 70 0 68 3 5 1 71 5 6 32 72 8 9 7 8 30 62 8 73 32 65 31 63 30 62 32 65 0 74 2 38 31 75 31 75 7 76 0 74 9 35 31 75 2 38 2 38 3 77 4 37 6 17 5 67 7 69 6 17 7 69 23 39 33 78 34 79 35 80 36 81 37 82 38 83 38 83 39 84 40 85 39 84 41 86 40 85 42 87 36 81 40 85 43 88 44 89 36 81 45 90 33 78 35 80 44 89 46 91 47 92 47 92 45 90 44 89 47 92 48 93 45 90 48 93 33 78 45 90 49 94 45 90 35 80 45 90 49 94 44 89 49 94 37 82 44 89 44 89 43 88 46 91 50 95 43 88 42 87 51 96 52 97 41 86 53 98 54 99 51 96 55 100 56 101 57 102 56 101 58 103 57 102 59 104 60 105 56 101 59 104 61 106 60 105 61 106 62 107 63 108 63 108 62 107 41 86 59 104 53 98 62 107 61 106 59 104 62 107 62 107 53 98 41 86 63 108 41 86 39 84 58 103 56 101 60 105 59 104 56 101 53 98 56 101 55 100 53 98 64 109 65 110 66 111 65 110 34 79 66 111 66 111 63 108 64 109 65 110 64 109 49 94 49 94 64 109 38 83 38 83 64 109 39 84 64 109 63 108 39 84 66 111 61 106 63 108 55 100 57 102 67 112 50 95 68 113 69 114 51 96 54 99 68 113 68 113 67 112 69 114 68 113 54 99 67 112 67 112 54 99 55 100 53 98 55 100 54 99 41 86 53 98 51 96 52 97 51 96 68 113 52 97 68 113 50 95 42 87 52 97 50 95 42 87 43 88 36 81 52 97 42 87 40 85 52 97 40 85 41 86 38 83 40 85 36 81 44 89 37 82 36 81 37 82 49 94 38 83 34 79 65 110 35 80 35 80 65 110 49 94 70 115 57 116 71 117 72 118 71 117 73 119 74 120 75 121 76 122 57 116 77 123 73 119 78 124 79 125 80 126 74 120 80 126 79 125 81 127 46 128 76 122 82 129 76 122 46 128 83 130 80 126 74 120 84 131 70 115 71 117 85 132 86 133 87 134 57 116 70 115 88 135 89 136 90 137 91 138 89 136 91 138 87 134 90 137 57 116 88 135 90 137 88 135 92 139 91 138 90 137 92 139 91 138 92 139 93 140 87 134 93 140 85 132 87 134 91 138 93 140 46 128 86 133 82 129 94 141 82 129 95 142 95 142 82 129 85 132 95 142 83 130 94 141 92 139 84 131 83 130 95 142 92 139 83 130 92 139 95 142 93 140 82 129 86 133 85 132 95 142 85 132 93 140 84 131 92 139 88 135 84 131 71 117 96 143 83 130 84 131 96 143 80 126 83 130 96 143 94 141 83 130 74 120 94 141 74 120 82 129 76 122 75 121 81 127 79 125 75 121 74 120 82 129 74 120 76 122 96 143 97 144 78 124 80 126 96 143 78 124 96 143 71 117 97 144 71 117 72 118 97 144 77 123 72 118 73 119 57 116 73 119 71 117 88 135 70 115 84 131 89 145 87 146 69 147 87 146 50 95 69 147 87 146 43 88 50 95 86 148 46 91 43 88 48 149 81 127 75 121 34 150 75 121 79 151 79 151 78 152 34 150 78 152 61 153 66 154 78 152 97 155 61 153 72 156 77 157 60 158 90 159 69 114 67 112 57 160 90 160 67 160 57 161 58 161 77 161 77 157 58 162 60 158 72 156 60 158 61 153 61 153 97 155 72 156 78 152 66 154 34 150 34 150 33 163 75 121 33 163 48 149 75 121 48 93 47 92 81 164 46 91 81 164 47 92 87 146 86 148 43 88 90 165 89 145 69 147 98 166 99 167 100 168 100 168 101 169 98 166 102 170 103 171 100 168 99 167 102 170 100 168 104 172 105 173 103 174 102 175 106 176 107 177 107 177 108 178 109 179 107 177 110 180 108 178 107 177 109 179 111 181 107 177 111 181 102 175 112 182 113 183 108 184 109 185 108 184 113 183 109 185 113 183 114 186 114 187 113 188 115 189 112 190 116 191 115 189 103 174 114 187 115 189 113 188 112 190 115 189 115 189 104 172 103 174 110 192 107 193 115 194 110 192 115 194 116 195 116 195 117 196 110 192 112 190 118 197 116 191 116 195 119 198 117 196 110 180 117 199 108 178 120 200 117 199 121 201 121 201 118 197 120 200 118 202 122 203 120 204 108 184 122 205 112 182 118 202 112 206 122 203 117 207 119 207 121 207 121 208 119 208 116 208 121 201 116 191 118 197 120 200 122 209 108 178 117 199 120 200 108 178 104 210 115 194 107 193 107 193 106 211 104 210 111 212 114 186 103 171 102 170 111 212 103 171 111 212 109 185 114 186 106 211 123 213 105 173 102 175 123 214 106 176 102 175 99 215 123 214 105 173 100 216 103 174 123 213 124 217 105 173 105 173 125 218 100 216 126 219 127 220 124 221 127 220 128 222 124 221 127 223 129 223 128 223 126 224 124 217 123 213 127 225 126 226 129 227 129 227 126 226 123 228 129 229 123 214 130 230 128 231 129 229 130 230 130 230 125 218 128 231 130 232 101 233 125 234 130 232 98 235 101 233 125 218 101 236 100 216 125 218 124 217 128 231 99 215 130 230 123 214 99 215 98 237 130 230 125 218 105 173 124 217 105 173 104 210 106 211</p>
        </triangles>
        <triangles material="qmat_ddc4e6410bf0a5b2" count="240">
          <input semantic="VERTEX" source="#vertices" offset="0" />
          <input semantic="NORMAL" source="#normals" offset="1" />
          <p>131 238 132 239 133 240 134 241 135 242 136 243 132 244 137 245 133 246 136 243 135 242 138 247 139 248 132 239 140 249 132 244 141 250 137 245 131 251 142 252 140 253 143 254 137 245 135 242 144 255 143 256 134 257 134 241 143 254 135 242 144 255 136 258 145 259 135 242 137 260 141 261 144 255 145 259 142 252 146 262 147 263 148 264 142 252 145 259 149 265 142 252 149 265 150 266 149 265 151 267 152 268 142 252 153 269 154 270 139 248 140 249 155 271 139 248 155 271 156 272 156 273 157 274 158 275 156 272 155 271 159 276 155 277 154 270 160 278 154 270 153 269 160 278 146 262 148 264 161 279 148 264 162 280 163 281 164 282 165 283 166 284 167 285 168 286 165 287 168 286 138 247 169 288 136 258 170 289 145 259 171 290 172 291 173 292 172 291 168 286 173 292 164 282 167 285 165 283 168 286 169 288 173 292 169 293 138 247 141 261 174 294 175 295 151 267 176 296 177 297 174 294 152 268 178 298 175 295 151 267 178 298 152 268 166 299 179 300 177 297 171 290 180 301 181 302 181 302 180 301 182 303 180 301 183 304 182 303 166 284 181 305 184 306 180 301 173 292 183 304 177 297 185 307 174 294 174 294 186 308 175 295 162 280 187 309 163 281 147 263 162 280 148 264 188 310 189 311 190 312 191 313 188 310 192 314 193 315 194 316 195 317 159 318 196 319 157 274 193 320 197 321 198 322 155 277 199 323 200 324 155 277 160 278 199 323 197 321 201 325 198 322 195 326 191 313 202 327 203 328 204 329 205 330 156 273 159 318 157 274 159 318 155 331 203 328 201 332 196 333 198 334 200 324 199 323 191 313 194 335 200 324 191 313 161 279 163 281 190 336 191 313 199 323 206 337 191 313 206 337 188 310 188 310 206 337 189 311 187 309 207 338 208 339 209 340 210 341 211 342 212 343 192 314 210 341 211 342 210 341 213 344 214 345 215 346 197 321 214 347 195 317 216 348 182 303 183 304 217 349 218 350 215 351 216 348 215 346 219 352 201 325 216 353 195 326 202 327 216 353 212 354 209 340 181 305 218 350 184 306 216 353 202 327 212 354 181 302 182 303 218 355 219 352 217 349 201 325 220 356 216 353 209 340 141 261 201 332 217 357 221 358 222 359 223 360 186 308 222 359 221 358 185 307 211 342 186 308 202 327 191 313 212 354 211 342 223 360 222 359 190 336 208 339 224 361 225 362 224 363 226 364 227 365 225 366 228 367 229 368 230 369 231 370 232 371 233 372 234 373 233 372 235 374 236 375 208 339 207 338 237 376 223 360 238 377 237 376 213 344 228 367 239 378 228 367 232 371 239 378 240 379 226 364 241 380 242 381 238 377 243 382 244 383 240 384 243 385 226 364 242 381 241 380 235 386 245 387 236 388 236 388 245 387 246 389 239 378 234 373 247 390 239 378 247 390 245 391 235 386 248 392 245 387 245 391 248 393 239 378 249 394 231 395 244 383 131 238 140 249 132 239 139 396 158 275 141 250 132 244 139 396 141 250 136 258 144 255 134 257 138 247 135 242 141 261 140 253 142 252 154 270 133 240 144 255 131 238 143 256 144 255 133 240 131 251 144 255 142 252 143 254 133 246 137 245 149 265 152 268 146 262 146 262 152 268 147 263 142 252 150 266 153 269 150 266 149 265 146 262 153 269 150 266 146 262 139 396 156 273 158 275 155 277 140 253 154 270 158 275 157 274 141 250 160 278 153 269 206 337 206 337 153 269 161 279 161 279 153 269 146 262 166 284 165 283 172 397 176 296 166 299 177 297 168 286 167 285 138 247 170 289 164 398 176 296 136 258 250 399 170 289 165 287 168 286 172 291 164 398 166 299 176 296 250 400 136 243 138 247 164 282 251 401 167 285 251 401 250 400 138 247 164 282 250 402 251 401 167 285 251 401 138 247 250 399 164 398 170 289 173 403 169 293 141 261 151 267 176 296 174 294 145 259 151 267 149 265 151 267 175 295 178 298 145 259 170 289 151 267 147 263 152 268 175 295 151 267 170 289 176 296 173 403 141 261 183 404 184 405 185 307 179 300 181 302 172 291 171 290 166 284 172 397 181 305 166 299 184 405 179 300 180 301 171 290 173 292 185 307 177 297 179 300 162 280 147 263 221 358 147 263 175 295 221 358 221 358 175 295 186 308 174 294 185 307 186 308 212 343 191 313 192 314 190 336 163 281 208 339 227 365 192 314 188 310 214 347 193 315 195 317 204 406 200 407 194 316 193 315 204 406 194 316 205 330 204 329 198 322 204 329 193 320 198 322 193 320 214 345 197 321 203 408 155 409 200 407 204 406 203 408 200 407 195 326 194 335 191 313 159 318 203 328 205 330 159 318 205 330 196 319 196 319 205 330 198 322 141 261 157 410 196 333 201 332 141 261 196 333 160 278 206 337 199 323 189 311 161 279 190 336 161 279 148 264 163 281 189 311 206 337 161 279 209 340 212 343 210 341 163 281 187 309 208 339 187 309 223 360 207 338 210 341 192 314 228 367 215 351 214 347 216 348 185 307 184 405 220 356 252 411 182 303 217 349 185 307 220 356 209 340 215 346 218 355 219 352 197 321 215 346 201 325 220 412 218 350 216 348 184 306 218 350 220 412 218 355 252 411 219 352 219 352 252 411 217 349 217 357 183 404 141 261 218 355 182 303 252 411 162 280 221 358 187 309 187 309 221 358 223 360 186 308 211 342 222 359 185 307 209 340 211 342 224 363 227 365 190 312 227 365 188 310 190 312 211 342 213 344 223 360 213 344 239 378 223 360 228 367 225 366 232 371 213 344 210 341 228 367 225 362 227 365 224 363 228 367 192 314 227 365 224 361 237 376 226 364 224 361 208 339 237 376 226 364 237 376 242 381 248 413 235 414 229 368 230 415 225 362 226 364 233 416 225 362 235 417 232 371 225 366 233 372 230 415 235 417 225 362 229 368 235 414 230 369 207 338 223 360 237 376 223 360 248 393 249 418 239 378 248 393 223 360 248 413 229 368 231 370 239 378 232 371 234 373 240 379 230 415 226 364 243 382 240 379 241 380 231 395 230 419 244 383 244 383 230 419 240 384 247 390 233 372 246 420 241 380 242 381 243 382 234 373 233 372 247 390 246 420 233 372 236 375 245 391 247 390 246 421 244 422 243 382 238 377 249 423 248 413 231 370 249 418 244 422 238 377 242 381 237 376 238 377 223 360 249 418 238 377</p>
        </triangles>
      </mesh>
    </geometry>
  </library_geometries>
  <library_visual_scenes>
    <visual_scene id="scene">
      <node id="thigh_mirror_dae">
        <instance_geometry url="#geometry">
          <bind_material>
            <technique_common>
              <instance_material symbol="qmat_4b294f1aa1dfaafb" target="#qmat_4b294f1aa1dfaafb" />
              <instance_material symbol="qmat_ddc4e6410bf0a5b2" target="#qmat_ddc4e6410bf0a5b2" />
            </technique_common>
          </bind_material>
        </instance_geometry>
      </node>
    </visual_scene>
  </library_visual_scenes>
  <scene>
    <instance_visual_scene url="#scene" />
  </scene>
</COLLADA>