<?xml version='1.0' encoding='utf-8'?>
<COLLADA xmlns="http://www.collada.org/2005/11/COLLADASchema" version="1.4.1">
  <asset>
    <created>2026-09-14T00:00:00Z</created>
    <modified>2026-09-14T00:00:00Z</modified>
    <unit name="metre" meter="1" />
    <up_axis>Z_UP</up_axis>
  </asset>
  <library_effects>
    <effect id="qmat_4b294f1aa1dfaafb_effect">
      <profile_COMMON>
        <technique sid="common">
          <lambert>
            <emission>
              <color sid="emission">0 0 0 1</color>
            </emission>
            <diffuse>
              <color sid="diffuse">0.6717055 0.6924257 0.7742702 1</color>
            </diffuse>
            <reflectivity>
              <float sid="specular">0.5</float>
            </reflectivity>
          </lambert>
        </technique>
      </profile_COMMON>
    </effect>
    <effect id="qmat_ddc4e6410bf0a5b2_effect">
      <profile_COMMON>
        <technique sid="common">
          <lambert>
            <emission>
              <color sid="emission">0 0 0 1</color>
            </emission>
            <diffuse>
              <color sid="diffuse">0.9 0.95 0.95 1</color>
            </diffuse>
            <reflectivity>
              <float sid="specular">0.5</float>
            </reflectivity>
          </lambert>
        </technique>
      </profile_COMMON>
    </effect>
  </library_effects>
  <library_materials>
    <material id="qmat_4b294f1aa1dfaafb" name="qmat_4b294f1aa1dfaafb">
      <instance_effect url="#qmat_4b294f1aa1dfaafb_effect" />
    </material>
    <material id="qmat_ddc4e6410bf0a5b2" name="qmat_ddc4e6410bf0a5b2">
      <instance_effect url="#qmat_ddc4e6410bf0a5b2_effect" />
    </material>
  </library_materials>
  <library_geometries>
    <geometry id="geometry" name="thigh_dae">
      <mesh>
        <source id="positions">
          <float_array id="positions_array" count="759">0.048374217 -0.0565320142 -0.00078090484 0.048415754 -0.0488433689 -0.00130596175 0.0379421376 -0.0566126555 -0.000513349776 0.0374096893 -0.0487032607 -0.000500423252 0.0318618193 -0.0484949909 -0.019112397 0.0279923007 -0.056795001 -0.0243832357 0.0424214788 -0.056318827 -0.0227751695 0.040697448 -0.0491571501 -0.0256555863 0.0410149582 -0.0526449606 -0.00747800991 0.0109997243 -0.0484949909 -0.0359042622 0.0108586662 -0.0567781143 -0.0350054018 -0.010449728 -0.0567949899 -0.0352827534 -0.0178042538 -0.0484949909 -0.0322286673 -0.0229632072 -0.0564768463 -0.0416246802 -0.0312612839 -0.056795001 -0.0201374553 0.00503430795 -0.0565449409 -0.0473134853 -0.0369854644 -0.0487207547 -0.000470227038 -0.0318062454 -0.0485399663 -0.0180170741 -0.0176794436 -0.0489154272 -0.0441551283 -0.0418249816 -0.0489184782 -0.0229620207 -0.0417742059 -0.0560434945 -0.0230954997 -0.0479285605 -0.0487918742 -0.00121738436 0.0157640334 -0.0487728305 -0.0449899845 0.0272563044 -0.0565449409 -0.0392624103 -0.0479562171 -0.0564068295 -0.00119242095 -0.0408746563 -0.0513114445 -0.00737900008 -0.0446349904 -0.0550229512 -0.00737900008 -0.0465777181 -0.0531627834 -0.0109785022 -0.0432629585 -0.0526451766 -0.00217897026 -0.0367915593 -0.0565584973 -0.000528145523 0.0469893478 -0.0518697798 -0.0112781413 0.0453706682 -0.0504936576 -0.00748513173 0.045099508 -0.0550025627 -0.00747800991 0.031136496 -0.021536421 0.0401579998 0.0223600566 -0.0109493872 0.0448781736 0.00418161228 -0.0217998289 0.0504152514 0.0217207279 0.00750363106 0.0244012773 0.00624154182 0.00188304752 0.0333310701 0.0190569013 0.00166475924 0.0287504159 -0.00256292196 0.00698628649 0.0323102139 -0.0138572669 0.00227789115 0.0316966772 -0.023937216 0.00410343241 0.0259748902 0.0109969312 0.0123323351 0.0237532947 0.0296855737 0.0084712645 0.0106685059 0.0259884764 4.22510784e-05 0.022846045 0.0308558512 -0.00764947245 0.0356224477 0.0437676497 -0.0167176519 0.0252085011 0.0316336118 -0.0074279746 0.0123864822 0.0408876799 -0.0216343161 0.0303765964 0.0215859544 -0.00580633478 0.0420447178 0.013723352 0.0155422669 -0.00582493376 -0.0310412012 0.00935275573 0.0144129405 -0.0110299457 0.0127164433 0.0235843547 -0.0371456593 0.00244393991 0.0103169559 -0.0380621143 0.00748531846 0.00278734602 -0.0404579565 0.00248307269 -0.000433163863 -0.0403704792 0.00286776247 -0.0173530262 -0.045266021 -0.00493059633 0.00282525481 -0.0479223616 -0.0204143692 -0.0155811813 -0.0450825393 -0.00753863808 0.0131526226 -0.0478615686 -0.0215229262 0.0152522624 -0.0395628214 -0.0216039289 0.0311169811 -0.0246111564 -0.00640483061 0.0391161852 -0.036870379 -0.00618314184 0.0273067094 -0.0111409798 -0.00670837006 0.0453000665 -0.0246678833 -0.0216335095 0.0439812914 -0.00462560542 -0.010934595 0.0488807596 -0.0396204405 0.00963424612 -0.0173531547 0.00209706742 0.0157648418 -0.0159768518 -0.0252695344 0.014226675 0.00306660892 -0.0387062579 0.00139524497 -0.00360068446 -0.0420104824 -0.00728090294 0.0127012841 -0.046005711 -0.0218079593 0.0144704403 -0.0445844606 -0.0113058956 -0.00606234558 0.0195091218 -0.00732709793 0.0442710035 0.0321630538 -0.0119579136 0.0336151198 0.0282204878 -0.021807963 0.0397609808 -0.0457053632 -0.0204810668 -0.015512771 -0.0197804142 -0.0218079705 0.0449117944 -0.00779942283 -0.00877559651 0.0444183163 0.00838153996 -0.0218079705 0.0480786152 0.0424344502 -0.0193079691 0.0247738231 0.021918308 -0.00114500232 0.0247292444 -0.0170903224 0.000596375787 0.0287178047 -0.033661671 0.0017043805 0.0117395855 0.02173605 0.00900909863 0.0224277172 0.0182482544 0.0129213827 -0.00175806135 0.02900609 0.00704777334 0.00960986037 -0.0362359434 0.0062206313 0.00116043608 0.00290819118 0.0132997483 -0.0157077592 -0.0140842516 0.0135792317 0.000608986011 -0.0341258496 0.01053409 -0.0173505079 -0.0228250735 0.00772762997 0.0208647083 -0.00652179914 0.0112309447 0.0212317612 0.00613599736 0.000475090026 0.0313676968 0.000918548787 0.00653937692 0.0296739321 -0.0286965594 -0.0068533523 0.0323704146 -0.0400396734 -0.0218079593 0.0278908368 -0.0374004692 -0.0565855019 0.00172747625 -0.0313861668 -0.0484959409 0.0203565247 -0.0296010971 -0.0567432605 0.0225707088 -0.0369762219 -0.0486886129 0.00174654822 -0.0158222821 -0.056795951 0.034372095 -0.0157178286 -0.0484959409 0.0344206989 -0.0031781646 -0.0487459898 0.0486779176 -0.0247167367 -0.0487459898 0.0418342575 0.0110371253 -0.0564167649 0.0476127081 -0.0166074503 -0.0565459803 0.0457569472 0.0128558427 -0.0567959584 0.0367233865 0.0335149914 -0.0567959547 0.0174707696 0.0348164439 -0.0565459691 0.0341692343 0.0382782295 -0.0486757159 0.00175783876 0.0240447894 -0.0484959409 0.0296375491 0.00384983304 -0.0485170111 0.0376133248 0.0185445342 -0.0487459898 0.0451839529 0.040336106 -0.0490502492 0.027440276 0.042132467 -0.0560955442 0.0245457515 0.0484028384 -0.0487917215 0.00247115199 0.045892112 -0.0503270403 0.0162296239 0.042824287 -0.0529424325 0.00862096995 0.0483821556 -0.0565202571 0.00203195959 0.0468557514 -0.0533967502 0.0130509222 0.0372585543 -0.0565582961 0.00177560421 -0.0393174961 -0.0562959909 0.0282486994 -0.041276671 -0.0491601601 0.0252053179 -0.0479147024 -0.0487459786 0.00227708882 -0.0465121605 -0.0521309897 0.0125328442 -0.0415273719 -0.0505741201 0.00871996954 -0.0449822992 -0.0547284968 0.00871996954 -0.0436295122 -0.056248717 0.0206946544 -0.0478066504 -0.0565693006 0.00187098002 0.0197259709 0.00599380163 0.0237087309 0.0183571186 -0.00823032018 0.0288592912 0.0298550874 -0.00754068373 0.0139783332 0.00558095239 -0.00738683669 0.0326772891 0.0291972011 0.00645126589 0.00552743953 0.00348610664 0.0131088085 0.00780575583 -0.00408839155 0.00689482363 0.0296850018 0.0438867286 -0.0187735986 0.0208025929 0.0218289644 -0.0187706314 0.0435749963 0.0243236609 -0.0468959883 0.041460786 0.044965338 -0.0352692828 0.0183704346 0.0339113623 -0.0353284068 0.0329586975 -0.0432732925 -0.0351959392 0.0154507216 0.0180433057 -0.0451960005 0.0452900939 0.0155649697 -0.0353064314 0.0438869409 0.0153633589 -0.0459022969 0.0428156629 0.043160338 -0.0476426035 0.0213512927 0.0406445526 -0.0472928137 0.0241564214 0.0329005532 -0.0463799275 0.0313989557 0.039295055 -0.0467341319 0.0173220783 -0.000755851739 -0.047931958 0.0488370731 0.0326263346 -0.00635592081 -0.0079036979 0.0452165417 -0.0188418441 -0.016373774 0.0337384641 -0.0108101601 -0.0198506098 0.0277567748 0.00661723176 -0.0232804976 0.0464720055 -0.0479517952 -0.0110751027 0.0436382368 -0.0453959703 -0.0130267562 0.0422607362 -0.0467778593 -0.0212040935 0.0425859615 -0.0461456366 0.00922335126 -0.015123778 -0.00741434004 0.0304352809 -0.0114569236 -0.0188810583 0.0472385883 -0.0321447849 -0.0180342216 0.0356605835 -0.0326110311 -0.0070182886 0.0157294534 -0.0442694724 -0.0179014485 0.0180771295 -0.0305918343 0.00523144938 0.0155269764 -0.00116481958 -0.0457940213 0.047264155 -0.0154456478 -0.0463565327 0.0415222943 -0.0167053081 -0.0352231301 0.041379407 -0.0407154262 -0.044421833 0.0230416395 -0.0385214873 -0.0471857861 0.015706962 -0.021584928 -0.0483959988 0.0388551839 -0.0202893224 -0.0472539961 0.0433942154 -0.0327532068 -0.0481459498 0.0357311331 -0.0449402891 -0.0476118363 0.01650545 -0.0305316392 -0.0453959703 0.0318386517 -0.0375849567 -0.0352429003 0.0304319076 -0.0411535949 -0.0079304548 -0.0138578285 -0.0338814855 0.00888170209 -0.00351763447 -0.0206837822 0.0107292961 -0.0439729244 -0.0400900804 0.00475319568 -0.0175134242 -0.044221513 -0.0353007726 -0.0177647546 -0.0323441625 -0.0352336429 -0.032844387 -0.0393039733 -0.0473960005 -0.0149279796 -0.045726046 -0.0193314366 -0.0132667441 -0.0402364284 -0.012123201 -0.025837373 -0.0451427549 -0.041233331 -0.0155966412 -0.0455700457 -0.0478959605 -0.0144538032 -0.0443864428 -0.0412587672 -0.0173783321 -0.044706095 -0.0412574969 -0.0166254025 -0.0438798741 -0.0412574783 -0.0185715128 -0.0428373106 -0.0474321842 -0.0205331072 -0.0325745232 -0.0468959808 -0.0296346154 0.00399981951 0.00571967522 -0.10560742 0.016938623 -0.00677106436 -0.0557781123 0.00441706553 -0.00692343246 -0.105123155 0.0235192329 -0.0162392091 -0.0413370579 -0.00364763686 -0.0171902198 -0.0480942801 0.0208855495 -0.0474926792 -0.0422325544 0.00375271356 -0.0468959697 -0.0473531336 0.0155671481 -0.0352204852 -0.0426373482 0.0166045688 -0.0465974547 -0.0397663862 0.0247905161 -0.0468413942 -0.0387656949 0.0312476624 -0.0353406221 -0.0341924392 0.033110626 -0.0478671752 -0.0346902125 0.0349775739 -0.0459063798 -0.0301664993 -0.0133975651 -0.0353563093 -0.0440677144 0.00214912929 -0.0470549315 -0.0436117835 0.0448773876 -0.035244979 -0.0173280407 -0.0340888016 -0.0116494987 -0.0482033379 -0.0380261354 -0.00607246347 -0.0707182437 -0.0280347764 -0.0105408588 -0.0626144782 -0.0365496092 0.00467970967 -0.106192939 0.00585184898 0.0103762634 -0.0458815843 0.0160180349 -0.0152716488 -0.0466463678 -0.0304725002 -0.0184218735 -0.0369085595 -0.0157984551 -0.0461110026 -0.0400198251 -0.032917507 -0.0481325611 -0.0343349837 -0.0154839698 -0.0475429706 -0.0442849994 -0.0236126781 -0.0451441407 -0.0394453891 -0.0417870805 -0.0436959788 -0.0180427171 -0.0331027992 -0.00882177521 -0.149379164 0.00320459763 -0.0108304536 -0.0658199638 -0.010716306 -0.0121934423 -0.145746931 0.0151920822 0.00613114564 -0.0604148284 -0.00868454762 0.0105525646 -0.14350155 -0.000635761418 -0.0076252427 -0.149806008 -0.0284721442 0.0104864892 -0.148412868 -0.0292710848 0.0127917258 -0.187724099 0.00279196166 0.00702135265 -0.180147812 0.00186470314 -0.0111321611 -0.179811582 0.00318897585 0.0129342545 -0.18862325 0.0145519478 0.00767742004 -0.205652952 -0.00076233258 0.00793468021 -0.152229026 -0.00655962853 -0.0183119141 -0.17394644 0.00339180557 -0.0158362538 -0.189544335 -0.0112408865 0.0150999473 -0.174294218 -0.00192649418 -0.0194428153 -0.206294253 -0.0285253301 0.00742594898 -0.198202342 -0.0277613848 -0.0111229913 -0.197437882 0.0107992906 0.0145650776 -0.216237783 0.0128499316 0.00743494928 -0.221739069 -0.00415918278 -0.0184224527 -0.222221449 0.0101811038 -0.0122334259 -0.225684762 0.0152144814 -0.0137577392 -0.212434962 -0.00320223207 0.0148564307 -0.223797157 -0.00814874377 0.00732043013 -0.226256177 -0.0148336161 -0.0113712559 -0.220818251 -0.0166851711 -0.016141694 -0.214180872 -0.0297670625 -0.01591984 -0.184375092 0.000835355662 -0.0173959807 0.0435783044 -0.0443050824 -0.0446824729 0.0145404954 -0.0133222518 -0.000213114297 -0.187832892</float_array>
          <technique_common>
            <accessor source="#positions_array" count="253" stride="3">
              <param name="X" type="float" />
              <param name="Y" type="float" />
              <param name="Z" type="float" />
            </accessor>
          </technique_common>
        </source>
        <source id="normals">
          <float_array id="normals_array" count="1266">0.0250545163 0.0679751113 0.997372389 0.0448829047 0.0413229316 0.998137236 0.0545299351 0.0283152554 0.998110592 0.0730364174 0.00328681804 0.997323871 -0.863791347 0.0415508449 0.502133548 -0.95051825 -0.00016174365 0.310668677 -0.956511736 -0.0648552179 0.284392446 -0.721530914 -0.0513246804 0.690477312 0.027803082 -0.99949652 -0.0152855022 0.0294924825 -0.999508858 -0.0105916904 0.0154692624 -0.999829471 -0.0100837406 0.939902186 0.201436222 -0.275694191 0.866923332 0.0793173015 -0.492090106 0.646935999 0.75283128 -0.121321261 -0.276493281 0.024518149 0.960703015 -0.280878097 0.108266912 0.953617215 0.238740265 -0.083864294 0.967455387 0.496928424 0.0487501025 0.866421163 -0.0193544086 -0.999465942 -0.0263295695 -0.00329866423 -0.999043286 -0.0436083376 -0.0485999696 -0.998401523 -0.0288527962 0.00922654103 -0.999646366 -0.0249410737 -0.000939672987 -0.999843001 -0.0176935662 0.961604893 0.0141365705 0.274073243 0.829165161 -0.0282676723 0.558288515 0.878629029 -0.0635570139 0.47325635 -0.025375437 0.999500155 -0.0188564304 -0.260911286 0.613896728 -0.745020866 -0.027686432 0.999408364 -0.0204059891 -0.538931847 0.0744611621 -0.839051843 -0.924853504 0.0209791735 -0.379744411 -0.915350497 0.0812275782 -0.394379914 -0.0155480951 0.999879122 7.19055824e-05 -0.140150338 -0.98844856 -0.0576831736 0.0313040465 0.170026019 -0.984942257 0.253947347 0.627435625 -0.736094654 0.0137256542 -0.999752998 -0.0174800344 0.576023221 0.182308435 -0.796844363 0.0106680272 0.999534726 -0.0285741985 0.108072035 0.992631137 -0.0548074469 -0.0262341592 0.999025583 -0.0354920998 0.0412339121 0.99856174 -0.0342664011 0.736316562 0.664955556 -0.125187695 -0.721610725 -0.681476951 -0.121931054 -0.774114311 0.61980629 -0.128791153 -0.693695545 0.702821493 -0.157570586 0.872843802 0.415108711 -0.256570667 0.62626785 0.777014196 0.0635419264 0.708888531 0.705085099 -0.0182227921 0.899862468 0.254862458 -0.3539671 -0.964885533 -0.0577982776 -0.256232798 -0.981309295 0.0836984366 -0.173281997 -0.00705980044 0.999941289 0.00821928028 -0.0140643464 -0.999868333 0.00809213333 -0.0627340749 -0.00138914713 0.998029292 -0.0593454614 0.00348796439 0.998231411 -0.0646802112 -0.00419155555 0.997897267 -0.0680565983 -0.00905599445 0.997640371 0.369387239 -0.922657669 -0.110706083 0.351836562 -0.93283397 -0.077664718 0.383766323 -0.912990749 -0.138460457 0.396159828 -0.903611779 -0.162920684 -0.695677638 0.704829574 -0.13873665 -0.919206321 0.295966029 -0.259738117 0.962296605 0.0218037851 0.271126986 0.0321612842 -0.996150851 -0.0815421194 -0.98197341 -0.188370496 -0.0156449247 -0.359662801 -0.664700449 -0.654840469 0.435615659 -0.882568419 -0.176951766 -0.720136166 0.274015397 -0.637431979 -0.801192164 0.591699064 0.0893495679 0.00742925191 -0.999903917 -0.0117024584 0.493465513 0.854930878 -0.159953177 -0.000881042622 -0.00152651314 -0.99999845 0.980721414 -0.0941853225 -0.171215221 0.957650125 0.112516545 -0.265040219 0.92178762 -0.294337571 -0.252334982 0.0132582914 0.999885917 0.00723669678 0.612018883 0.14813222 0.776846051 0.398654789 0.252555341 0.881640613 0.0774041563 0.109584309 0.990959048 0.532573044 0.603216708 0.593713403 0.128363773 0.689479709 0.712839782 0.414930463 0.659659505 0.626643419 -0.0425833128 0.51469934 0.856312573 -0.207402721 0.703856885 0.679389179 -0.421260029 0.701584637 0.574733794 0.186566979 0.879672825 0.437456876 0.834414661 0.546189487 -0.0736831352 0.754127145 0.541688383 0.371303022 0.635189116 0.590703368 0.497598499 0.985581577 0.147535264 -0.082838662 0.869520307 0.493823111 0.00855758972 0.770227611 0.167970985 0.615252137 0.319814444 0.68552959 0.654039741 0.518140197 0.725676119 -0.45268634 -0.581004143 0.687529147 0.435589105 -0.164733589 0.886996925 0.431392223 -0.758254409 0.543673575 0.359818488 -0.761415601 0.609802961 0.219969615 -0.883290887 0.45083493 0.128627419 -0.970584929 0.237221494 -0.0411199816 -0.909966528 0.410051942 0.0617924556 -0.969154119 0.238785744 -0.061005868 -0.870124161 0.416413665 0.263597518 -0.940671623 0.21496582 0.26253885 -0.755288064 0.261316776 0.601043642 -0.458286643 0.523439407 0.718320608 -0.689648092 0.502752125 0.521177292 -0.205729514 0.587214828 0.782850027 -0.480266482 0.209502712 0.851735115 -0.0837113485 0.35055986 0.932791591 -0.738671124 0.674038768 0.00606492721 -0.0540447123 0.998529196 0.00431101676 -0.240330875 0.967589378 0.0775365978 0.861981332 -0.473174602 -0.181917503 0.836318135 -0.471032053 -0.280536503 0.880913019 -0.470743746 -0.0489141904 0.936105788 -0.264160722 -0.232217789 0.972863615 -0.231378585 -0.000592881232 -0.348386765 -0.543051243 -0.764016986 -0.707135975 -0.517097712 -0.48225379 -0.347337395 -0.835209429 -0.426358968 0.983782589 -0.172129497 0.0504310876 0.401689172 -0.303913474 -0.863876402 0.159082934 -0.541680157 -0.825393975 -0.0857674852 -0.14702104 -0.985407889 -0.642454505 -0.666736364 -0.377776265 -0.765500367 -0.558288574 -0.31987986 -0.614434063 -0.589050055 -0.524872243 0.298045486 -0.68871963 -0.660934329 0.687518477 -0.606183052 -0.399825454 -0.503640413 -0.649210155 -0.569975853 -0.117201328 -0.989029229 -0.0899167284 -0.68900764 -0.648873389 -0.322849542 0.74229902 -0.621121943 -0.251395553 0.00949357729 -0.999590099 0.0270083379 0.121057369 -0.990381956 -0.0669980794 0.4910523 -0.868839264 -0.0631348118 0.490057021 -0.683192492 -0.541379809 0.0861215889 -0.930966556 -0.354801774 -0.138242781 -0.713330328 -0.687058091 -0.0076329126 -0.591917515 -0.805962384 0.53925401 -0.567257702 -0.622433782 0.759326756 -0.338629782 -0.555655301 0.441888481 0.0476132296 -0.895805538 0.32854411 -0.00200223876 -0.944486499 0.728777051 0.428950995 -0.533746243 0.787933886 0.0781281814 -0.610783219 -0.292364836 -0.863663554 -0.41061914 0.000872812001 -0.999960244 0.00887312274 0.00486738328 -0.999913394 0.0122267641 -0.138671264 -0.800743818 0.582734585 -0.0470440201 -0.997079849 0.0601547807 -0.0747279748 -0.994574487 0.0723695979 -0.178061411 -0.980049551 0.0883006006 -0.152038679 -0.988370895 0.00268946611 -0.142264694 -0.989726841 0.0141952066 -0.0343502685 -0.998752952 -0.0362303816 -0.144163579 0.878949761 0.454603374 0.000494509586 -7.37284427e-05 -0.999999881 0.0281785354 -0.0849376768 -0.995987713 -0.0289462283 -0.998937607 -0.0358578935 0.0783532336 -0.991618097 0.102734171 0.863617241 -0.391107649 -0.318119526 0.0509672053 -0.0917874947 -0.994473457 0.95283556 -0.00988493394 -0.30332607 0.853549302 0.0285215136 -0.520230889 0.787637055 0.00506682089 -0.61611861 0.956638932 -0.050701391 -0.28682968 0.395249754 -0.00706878304 -0.918546498 0.399551958 0.0265065599 -0.916327238 0.00040386332 0.9998523 0.0171806142 -0.0151012326 0.999689937 0.0197982844 -0.0194901805 0.999759436 0.0100626396 -0.0151199829 -0.999614537 0.0232850313 0.00668371748 -0.999510229 0.0305722523 -0.00825606566 -0.999737322 0.021381598 0.0229593739 -0.998990119 0.0386220179 0.0607294068 -0.998115957 0.00874601677 0.0217299853 -0.99967581 0.0132716997 -0.953802764 -0.0205038916 -0.299732953 -0.868001282 -0.17185609 -0.465874732 -0.67041862 0.0794002861 -0.737722516 -0.314814448 -0.0727123618 -0.946363986 0.0309318863 0.140031293 -0.98966378 -0.00290638185 0.999352336 0.035868071 0.0124674262 0.999724925 0.0198655315 0.112135723 0.992134452 0.0556308515 0.0170947909 0.999746084 0.014683011 0.0598831028 0.997886181 0.0252416916 0.653026521 0.113788337 0.748737991 0.430072397 -0.0624593608 0.900631189 0.209883943 -0.000548753422 0.977726161 0.857201219 0.110011131 0.503094077 0.945683241 0.116420172 0.303528517 0.730018258 0.671669543 0.126227647 0.709981203 0.673797846 0.204751402 0.973293722 0.213429123 0.0845419765 0.136352167 -0.990164936 0.0313291475 0.704437256 -0.697946846 0.12898998 0.956743479 -0.190150663 0.220192268 0.0414281078 0.0299940426 -0.998691201 0.022809267 0.0566602424 -0.998132944 0.0502896048 0.0172691941 -0.998585343 -0.96558243 0.124391042 -0.228423879 0.070145674 -0.0113219516 -0.997472525 -0.0978031158 0.977054238 0.189207807 -0.197954237 -0.899686515 0.3890737 0.0472494178 -0.950336456 0.30761686 0.241284117 -0.943522751 0.227039054 -0.585254133 -0.664656222 0.464445591 0.0217889696 -0.999640048 0.0156512018 -0.0696935952 -0.120428488 0.990272582 -0.340622157 0.00131843821 0.940199316 -0.554542124 -0.105479866 0.825443506 -0.832749486 -0.0494219586 0.551439703 -0.0332825594 -0.999249458 0.0198196638 -0.0325168446 -0.999275744 0.0197637957 -0.122460008 0.990969121 0.0546241775 -0.0414251238 0.998494148 0.035963472 -0.208523661 0.976078629 0.0615499243 0.472024411 -0.837559402 0.275113046 0.505147338 -0.795032859 0.335780978 0.348979712 -0.934139132 0.0748146102 0.61683476 -0.512981772 0.596962869 0.843398869 0.536601186 -0.0271565374 -0.942451596 -0.126815572 0.309358746 -0.967515886 -0.250208795 0.0361740105 -0.758232713 0.630573511 0.165710971 -0.548940599 0.78852284 0.277301133 -0.711211801 0.675339103 0.195179 -0.507356048 0.809786856 0.294677854 -0.966710985 -0.216197863 0.136851534 -0.618560791 -0.767413735 -0.168697208 -0.977537513 -0.086218141 0.192319557 -0.867520869 0.424751461 0.258831412 -0.0348167643 0.0320768841 -0.998878777 -0.0486494005 0.0511087179 -0.997507453 -0.0281932205 0.0229669008 -0.999338627 -0.0137839699 0.00315541774 -0.999900043 -0.00566372927 0.999946535 -0.00865132641 -0.975863814 -0.0247403942 0.216973945 -0.0298728105 -0.999493122 0.0110057611 -0.0135635231 -0.999819577 0.0132984444 -0.00131779781 -0.999849141 0.0173205603 0.495367676 0.635631561 0.592100799 0.43098563 0.584937334 0.687095106 0.771801531 0.558138847 0.304636568 0.156753942 0.523525298 0.837466061 0.736566126 0.657996356 0.156560481 0.0528371669 0.991063356 0.122481421 -0.0955864713 0.672133088 0.734234512 0.842975259 0.411688715 0.346273214 0.39743048 0.441263109 0.804571867 0.642826974 -0.00573227229 0.765989959 -0.000759364862 -0.999997377 -0.00217077928 -0.00092641206 -0.999993503 -0.00348201301 0.000732400105 -0.999999583 -0.000526468735 0.343486309 0.0117424363 0.939084291 -0.188642517 -0.671276331 -0.716799855 -0.49271664 -0.0510881692 -0.868688822 -0.0997600034 -0.693098009 -0.713906884 0.917134345 0.0034151529 0.398563653 -0.700361013 0.0315946117 -0.713089228 -0.898448825 0.211219192 -0.384936512 -0.706448972 -0.265780479 -0.655965388 -0.93746835 0.236272886 -0.255593896 -0.89367044 0.446273625 -0.046829842 0.0190213546 -0.966668963 0.25532189 0.0393479578 -0.665594816 -0.745275259 0.997403204 0.0700084269 0.0169007871 0.873358727 0.41671893 -0.252170205 0.478632927 0.829242051 -0.288562268 0.74916476 0.638535082 -0.176139548 -0.679106891 -0.733672678 0.0232011974 -0.954910994 -0.279265255 0.10077627 -0.885883272 -0.0588770658 0.460156798 -0.21147044 -0.973383367 -0.0883462876 -0.943897426 -0.307572693 -0.120235771 0.99370259 0.0228912458 -0.109686755 -0.320965052 0.599209249 0.733436882 -0.185765862 0.420189589 0.888218284 -0.599735498 0.415971011 0.683582842 -0.735988379 0.510466993 0.444684774 -0.875981152 0.36384356 0.316662043 -0.637833595 0.597019374 0.486555398 0.0852444023 -0.426947683 -0.900249481 0.326836705 -0.563747048 -0.758529484 0.259609431 -0.68855083 -0.677126765 0.97764492 0.148918927 -0.148436949 0.785910666 0.531915069 -0.315294862 0.736063719 0.674337924 -0.0589792393 0.502188087 0.155395105 -0.850681782 0.117501497 -0.989086449 0.0888899416 0.00142412318 -0.981274068 0.192611381 -0.428857207 0.0111092394 0.903303981 -0.025325207 0.0240334999 0.999390304 -0.0263576396 -0.999551356 0.0142235421 0.0558517724 -0.99798888 -0.0299787279 0.602262199 0.587457955 -0.540530682 0.721645534 0.175558731 -0.669631839 -0.693983436 0.0169240274 0.719792068 -0.962762117 0.268742472 0.0294382852 -0.53028208 0.833000064 0.157834589 -0.0612722933 0.998103201 -0.00597139774 -0.870649993 0.489590108 0.0476452075 0.00932072662 -0.999952376 0.00288995029 0.00228231307 -0.999992311 0.00318923546 0.0601183772 -0.997002661 -0.0486979112 0.0664004013 -0.99769187 -0.0142086912 -0.976083517 0.160878465 -0.146215782 -0.960064828 -0.0387716591 -0.277078122 -0.934968233 0.00601898599 -0.354680389 -0.981469274 -0.010777547 -0.191316113 -0.920456469 -0.00207900675 -0.390839607 -0.920476615 -0.00245126337 -0.390789956 -0.906578362 -0.00104802637 -0.42203626 -0.867290318 -0.0222107116 -0.497306883 0.0676863715 -0.997690856 -0.00560922455 0.210926414 -0.955785692 0.204899326 0.931961656 0.306283742 -0.194004565 0.816071093 -0.364901572 -0.448190629 0.84835422 -0.509005666 -0.145630687 0.776880383 0.025701981 -0.629123449 -0.0426526107 0.032957945 -0.998546183 0.400320113 -0.0196861383 -0.916163862 0.101803623 0.000541483227 -0.994804382 -0.248528346 0.0824362412 0.965110302 -0.178669453 0.225393325 0.957744777 -0.419065118 -0.479580641 0.770964861 -0.64772135 -0.017434096 0.761677802 -0.390842974 -0.772965848 0.499765515 -0.0930883959 -0.961358428 0.259084016 -0.720450521 -0.296005934 0.627161443 0.212729231 0.144451723 0.966374636 -0.0470067635 0.097658515 0.994109213 -0.95419687 0.0784522593 0.288710266 0.873761773 -0.00836816616 -0.48628217 0.697524488 0.02563392 -0.716102242 -0.00205356837 -0.999997318 0.00109050411 -0.00147341215 -0.999993265 0.00336900726 -0.0189673696 -0.999599576 0.0209983308 -0.335957587 -0.916158199 -0.218601584 -0.83181417 -0.55155921 -0.0621901937 -0.152386799 -0.985113859 -0.0795544758 -0.915947974 0.399006426 -0.042815689 0.152300552 0.986920536 -0.0528429598 0.0476553589 0.242750719 -0.968917489 0.334613949 -0.515286088 -0.788995385 -0.614298105 -0.431700051 -0.660509586 0.139231116 -0.937748909 0.318185031 0.20944719 -0.947462261 0.24175851 0.0895568207 -0.949839175 0.299641669 0.401186258 0.519604206 0.754361391 0.157147557 0.430026114 0.88903439 0.703023911 0.0958340392 0.704679549 0.924693882 0.206648439 0.319746166 0.730120718 0.305576861 0.611184537 -0.342914581 -0.0253690314 -0.939023972 -0.670233309 -0.0270582922 -0.741657078 0.728972197 0.665500998 0.160336897 0.839618921 0.439836055 0.318723023 0.0317442343 -0.999486148 -0.00444516214 0.022919612 -0.999711335 -0.00720769027 -0.789974034 -0.613135576 -0.00241470174 0.164153919 -0.977998018 -0.128737748 0.129731908 -0.987939477 0.0845291391 0.773715258 0.597059488 -0.211859882 0.175990984 0.983418524 0.0437623784 0.860934079 -0.502758265 0.0776316449 -0.21124889 0.975344121 0.0638571605 -0.734256923 0.669915795 -0.109907165 0.989043355 0.0833353102 -0.121854275 0.983211994 0.0479746461 -0.17604728 0.577890217 0.779100895 0.242991254 0.758463979 0.627054453 0.1775814 0.816761494 0.572685182 0.0702308491 0.189118847 -0.966957808 0.170957953 0.614142656 -0.756992817 0.223138198 0.0638421103 0.993806124 0.0909592137 0.107684739 -0.993960619 -0.0211261194 0.521289587 -0.027828062 -0.852926016 0.511249959 -0.0143588427 -0.859312117 0.555636942 0.805473983 -0.206104875 0.63793081 0.505512536 -0.58094871 -0.0745862797 -0.770817339 -0.632674873 0.300445557 -0.93996191 -0.161876783 0.322208881 -0.943690479 -0.0750315487 -0.092136614 0.759983242 -0.643378794 -0.397672743 0.509923935 -0.762780428 0.020466378 -0.9997769 -0.00522687053 0.00431756908 -0.999989152 -0.00173523719 0.00226239674 -0.999887466 0.0148322489 0.0508298762 0.998676658 -0.00782906357 0.097857751 0.995181382 -0.00615029084 0.0206929632 0.999684274 -0.0142551707 -0.570714235 -0.744036019 -0.347412795 0.00498641375 0.999956667 -0.00786088314 -0.738933504 -0.671711028 -0.0527404547 0.0954739302 0.784024239 0.613343835 -0.0548815764 -0.942882061 0.328574806 0.161686465 0.985642493 0.0486454852 -0.134553194 -0.986499667 -0.0933477506 0.00323425373 -0.999985278 -0.00436187256 0.225722268 0.0686899349 -0.971767008 -0.957956076 -0.000533729733 0.286914438 0.078626357 -0.996831775 -0.0120152356 0.994032025 -0.10542196 -0.0280444697 0.853312075 0.521281779 -0.0111289816 0.399965286 0.916381657 -0.0165041052 0.195393056 0.924748719 -0.326590568 -0.0732759982 -0.979655206 0.186832368 0.00382963521 -0.999841392 0.0173927173 0.589669645 0.141136363 -0.795217097 -0.877150893 0.394968539 -0.273141325 -0.903726935 -0.337643921 -0.263199925 0.00652022846 -0.999946475 -0.00803318247 0.240462527 0.970446169 0.0202965364 -0.551482201 -0.480216593 -0.682099223 -0.193304345 -0.0983703509 -0.976195037 -0.0106338961 -0.999935627 -0.00396273285</float_array>
          <technique_common>
            <accessor source="#normals_array" count="422" stride="3">
              <param name="X" type="float" />
              <param name="Y" type="float" />
              <param name="Z" type="float" />
            </accessor>
          </technique_common>
        </source>
        <vertices id="vertices">
          <input semantic="POSITION" source="#positions" />
        </vertices>
        <triangles material="qmat_4b294f1aa1dfaafb" count="250">
          <input semantic="VERTEX" source="#vertices" offset="0" />
          <input semantic="NORMAL" source="#normals" offset="1" />
          <p>0 0 1 1 2 2 2 2 1 1 3 3 4 4 2 5 3 6 2 5 4 4 5 7 5 8 6 9 2 10 6 11 7 12 8 13 5 7 4 4 9 14 5 7 9 14 10 15 10 15 9 14 11 16 12 17 11 16 9 14 13 18 11 19 14 20 13 18 10 21 11 19 10 21 13 18 15 22 16 23 14 24 17 25 11 16 12 17 14 24 17 25 14 24 12 17 17 26 18 27 19 28 18 27 13 29 19 30 19 30 13 29 20 31 17 26 19 28 21 32 13 18 14 20 20 33 15 34 18 27 22 35 5 8 15 22 23 36 22 35 23 37 15 34 22 35 9 38 7 39 18 27 9 38 22 35 9 38 18 27 12 40 7 39 9 38 4 41 23 37 7 12 6 11 23 37 22 35 7 12 10 21 15 22 5 8 7 39 4 41 1 42 13 29 18 27 15 34 20 33 14 20 24 43 25 44 20 31 26 45 26 46 20 47 27 48 27 48 28 49 26 46 27 50 24 43 21 51 17 26 21 32 16 52 24 43 14 20 29 53 21 54 24 55 29 56 21 54 29 56 16 57 25 58 28 59 27 60 27 60 19 61 25 58 26 45 28 62 25 44 19 30 20 31 25 44 27 50 21 51 19 63 20 33 24 43 27 50 12 40 18 27 17 26 14 24 16 23 29 64 7 65 30 66 31 67 31 67 8 68 7 65 32 69 30 66 6 70 2 10 6 9 0 71 32 72 6 11 8 13 31 67 32 69 8 73 30 66 32 69 31 67 0 74 30 75 1 42 30 75 0 74 6 76 7 39 1 42 30 75 1 42 4 41 3 77 5 8 23 36 6 9 33 78 34 79 35 80 36 81 37 82 38 83 37 82 39 84 40 85 40 85 39 84 41 86 42 87 39 84 36 81 43 88 36 81 44 89 45 90 34 79 33 78 44 89 46 91 47 92 46 91 44 89 45 90 46 91 45 90 48 93 48 93 45 90 33 78 49 94 34 79 45 90 45 90 44 89 49 94 49 94 44 89 38 83 44 89 47 92 43 88 50 95 42 87 43 88 51 96 41 86 52 97 53 98 51 96 54 99 55 100 56 101 57 102 57 102 56 101 58 103 59 104 57 102 60 105 59 104 60 105 61 106 61 106 62 107 63 108 62 107 41 86 63 108 59 104 63 108 53 98 61 106 63 108 59 104 63 108 41 86 53 98 62 107 40 85 41 86 58 103 60 105 57 102 59 104 53 98 57 102 57 102 53 98 55 100 64 109 65 110 66 111 66 111 65 110 35 80 65 110 64 109 62 107 66 111 49 94 64 109 49 94 37 82 64 109 37 82 40 85 64 109 64 109 40 85 62 107 65 110 62 107 61 106 55 100 67 112 56 101 50 95 68 113 69 114 51 96 69 114 54 99 69 114 68 113 67 112 69 114 67 112 54 99 67 112 55 100 54 99 53 98 54 99 55 100 41 86 51 96 53 98 52 97 69 114 51 96 52 97 50 95 69 114 42 87 50 95 52 97 42 87 36 81 43 88 52 97 39 84 42 87 52 97 41 86 39 84 37 82 36 81 39 84 44 89 36 81 38 83 38 83 37 82 49 94 35 80 34 79 66 111 34 79 49 94 66 111 70 115 71 116 56 117 72 118 73 119 71 116 74 120 75 121 76 122 56 117 73 119 77 123 78 124 79 125 80 126 74 120 80 126 79 125 81 127 75 121 47 128 82 129 47 128 75 121 83 130 74 120 79 125 84 131 71 116 70 115 85 132 86 133 87 134 56 117 88 135 70 115 89 136 90 137 91 138 89 136 86 133 90 137 91 138 88 135 56 117 91 138 92 139 88 135 90 137 92 139 91 138 90 137 93 140 92 139 86 133 85 132 93 140 86 133 93 140 90 137 47 128 82 129 87 134 94 141 95 142 82 129 95 142 85 132 82 129 95 142 94 141 83 130 92 139 83 130 84 131 95 142 83 130 92 139 92 139 93 140 95 142 82 129 85 132 87 134 95 142 93 140 85 132 84 131 88 135 92 139 84 131 96 143 71 116 83 130 96 143 84 131 79 125 96 143 83 130 94 141 74 120 83 130 94 141 82 129 74 120 75 121 81 127 76 122 80 126 74 120 76 122 82 129 75 121 74 120 96 143 78 124 97 144 79 125 78 124 96 143 96 143 97 144 71 116 71 116 97 144 72 118 77 123 73 119 72 118 56 117 71 116 73 119 88 135 84 131 70 115 89 145 68 146 86 147 86 147 68 146 50 95 86 147 50 95 43 88 87 148 43 88 47 92 48 149 76 122 81 127 35 150 80 151 76 122 80 151 35 150 78 152 78 152 65 153 61 154 78 152 61 154 97 155 72 156 60 157 77 158 91 159 67 112 68 113 56 160 67 160 91 160 56 161 77 161 58 161 77 158 60 157 58 162 72 156 61 154 60 157 61 154 72 156 97 155 78 152 35 150 65 153 35 150 76 122 33 163 33 163 76 122 48 149 48 93 81 164 46 91 47 92 46 91 81 164 86 147 43 88 87 148 91 165 68 146 89 145 98 166 99 167 100 168 99 167 98 166 101 169 102 170 99 167 103 171 100 168 99 167 102 170 104 172 103 173 105 174 102 175 106 176 107 177 106 176 108 178 109 179 106 176 109 179 110 180 106 176 102 175 108 178 111 181 109 182 112 183 108 184 112 183 109 182 108 184 113 185 112 183 113 186 114 187 112 188 111 189 114 187 115 190 103 173 114 187 113 186 112 188 114 187 111 189 114 187 103 173 104 172 110 191 114 192 106 193 110 191 115 194 114 192 115 194 110 191 116 195 111 189 115 190 117 196 117 196 115 190 118 197 115 194 116 195 119 198 110 180 109 179 116 199 120 200 121 201 116 199 121 201 120 200 117 196 117 202 120 203 122 204 109 182 111 181 122 205 117 202 122 204 111 206 121 201 117 196 118 197 116 207 121 207 119 207 119 208 118 209 115 210 118 209 119 208 121 211 116 199 109 179 122 212 116 199 122 212 120 200 104 213 106 193 114 192 106 193 104 213 107 214 108 184 103 171 113 185 102 170 103 171 108 184 107 214 105 215 123 216 102 175 107 177 123 217 102 175 123 217 100 218 105 174 103 173 124 219 124 219 103 173 99 220 124 219 99 220 125 221 126 222 127 223 124 224 127 223 126 222 128 225 128 226 126 226 129 226 123 216 124 227 127 228 128 229 129 230 127 231 129 230 123 232 127 231 129 233 126 234 125 235 126 236 124 219 125 221 130 237 125 238 101 239 130 237 101 239 98 240 125 221 99 220 101 241 129 233 125 235 130 242 100 218 123 217 129 243 100 218 129 243 98 244 123 216 105 215 124 227 105 215 107 214 104 213 98 244 129 243 130 245</p>
        </triangles>
        <triangles material="qmat_ddc4e6410bf0a5b2" count="240">
          <input semantic="VERTEX" source="#vertices" offset="0" />
          <input semantic="NORMAL" source="#normals" offset="1" />
          <p>131 246 132 247 133 248 131 246 134 249 132 247 131 246 135 250 136 251 137 252 131 246 136 251 138 253 139 254 140 255 141 256 142 257 143 258 139 254 144 259 140 255 145 260 140 261 146 262 138 253 140 255 147 263 142 264 148 265 149 266 142 264 149 266 140 261 141 267 150 268 148 265 144 269 151 270 146 262 135 250 133 248 152 271 138 253 153 272 154 273 133 248 154 273 152 271 155 274 135 250 152 271 156 275 157 276 158 277 147 278 159 279 156 275 141 267 157 276 159 279 138 253 147 263 153 272 153 272 147 263 156 280 137 252 160 281 134 249 161 282 134 249 160 281 162 283 163 284 164 285 165 286 163 284 160 281 166 287 151 270 167 288 166 287 168 289 145 260 143 290 169 291 170 292 168 289 167 288 171 293 167 288 172 294 171 295 161 282 172 296 151 297 173 298 174 299 171 295 171 293 170 292 175 300 172 294 173 298 171 295 169 291 175 300 170 292 176 301 171 293 175 300 161 282 173 302 172 296 163 284 177 303 164 285 178 304 136 251 179 305 180 306 177 303 165 286 165 286 178 304 180 306 165 286 177 303 163 284 143 258 181 307 182 308 170 309 174 299 183 310 184 311 185 312 186 313 184 311 186 313 187 314 186 313 188 315 189 316 186 313 190 317 188 315 190 317 191 318 187 314 183 310 191 319 192 320 193 321 194 322 195 323 154 273 153 272 196 324 197 325 198 326 199 327 200 328 201 329 202 330 203 331 200 328 202 330 204 332 202 330 198 333 204 332 205 334 202 330 158 277 205 334 204 332 206 335 207 336 200 328 208 337 205 334 158 277 153 272 158 338 204 339 208 340 200 341 203 342 209 343 210 344 211 345 180 306 178 304 212 346 180 306 212 346 185 312 180 306 185 312 177 303 136 251 213 347 179 305 197 325 209 348 214 349 185 312 209 343 215 350 143 258 182 308 200 341 216 351 217 352 218 353 206 335 219 354 216 355 182 356 181 357 192 358 206 335 216 355 207 336 182 356 192 358 219 354 215 350 197 325 218 359 215 350 218 359 217 360 183 361 192 358 220 362 185 312 217 360 191 318 181 357 220 362 192 358 207 363 218 353 199 364 216 351 218 353 207 363 212 346 221 365 210 344 222 366 211 345 223 367 213 347 224 368 225 369 193 321 195 323 226 370 211 345 221 365 223 367 227 371 228 372 212 346 222 366 223 367 195 323 229 373 226 370 230 374 231 375 229 373 232 376 233 377 226 370 229 373 226 370 234 378 235 379 225 369 233 377 236 380 234 378 237 381 235 379 227 371 225 369 236 380 238 382 230 374 239 383 240 384 232 376 241 385 231 375 232 376 240 384 237 381 242 386 243 387 235 379 237 381 244 388 245 389 241 385 246 390 232 391 246 392 241 393 230 374 235 379 244 388 230 394 243 395 247 396 237 381 248 397 242 386 239 398 230 394 247 396 234 378 249 399 237 381 237 381 249 399 248 397 135 250 131 246 133 248 131 246 137 252 134 249 250 400 139 254 132 247 250 400 132 247 134 249 132 247 138 253 133 248 139 254 138 253 132 247 140 401 144 269 146 262 142 257 145 260 143 258 145 260 142 264 140 261 139 254 250 400 161 282 139 254 161 282 151 297 144 259 139 254 151 297 145 260 168 289 143 258 147 278 140 261 149 266 149 402 148 402 150 402 147 278 149 266 150 403 145 260 146 262 166 287 166 287 146 262 151 270 150 268 141 267 159 279 142 264 141 267 148 265 136 251 135 250 155 274 133 248 138 253 154 273 213 347 136 251 155 274 159 279 157 276 156 275 157 276 208 337 158 277 147 278 150 403 159 279 208 340 143 258 200 341 141 267 208 337 157 276 158 338 153 272 156 280 141 256 143 258 208 340 161 282 250 400 134 249 160 281 163 284 162 283 162 283 161 282 160 281 137 252 165 286 160 281 165 286 137 252 178 304 168 289 166 287 167 288 168 289 176 404 143 258 251 405 143 405 170 405 143 290 176 301 169 291 173 302 164 285 174 406 176 301 168 289 171 293 151 270 172 294 167 288 162 283 164 285 173 302 171 295 174 299 170 309 169 291 176 301 175 300 161 282 162 283 173 302 177 303 185 312 184 311 178 304 137 252 136 251 183 310 174 299 187 407 181 357 143 408 251 409 251 409 170 410 183 361 164 285 184 311 174 406 164 285 177 303 184 311 174 406 184 311 187 314 251 409 183 361 220 362 220 362 181 357 251 409 187 407 191 319 183 310 186 313 185 312 190 317 189 316 188 315 187 314 188 315 190 317 187 314 186 313 189 316 187 314 193 321 224 368 194 322 195 323 194 322 222 366 194 322 214 349 222 366 224 368 155 274 196 324 196 324 155 274 152 271 196 324 152 411 154 273 213 347 155 274 224 368 196 324 214 349 194 322 224 368 196 324 194 322 198 333 202 330 201 412 197 325 214 349 198 326 198 326 196 324 204 339 203 331 202 330 205 334 201 329 200 328 207 336 198 333 201 412 199 364 201 412 207 363 199 364 208 337 203 331 205 334 214 349 196 324 198 326 196 324 153 272 204 339 214 349 209 343 222 366 222 366 209 343 211 345 179 305 213 347 225 369 197 325 215 350 209 343 185 312 210 344 209 343 185 312 212 346 210 344 192 320 191 319 217 352 216 351 192 320 217 352 206 335 182 356 219 354 218 359 197 325 199 327 219 354 192 358 216 355 200 341 182 308 206 413 185 312 215 350 217 360 190 317 185 312 191 318 178 304 227 371 212 346 211 345 210 344 221 365 225 369 224 368 193 321 178 304 179 305 227 371 225 369 193 321 233 377 227 371 179 305 225 369 233 377 193 321 226 370 212 346 228 372 221 365 226 370 195 323 223 367 228 372 249 399 221 365 231 375 233 377 229 373 230 374 226 370 235 379 236 380 233 377 231 375 238 382 229 373 252 414 252 414 229 373 230 374 226 370 223 367 234 378 228 372 227 371 236 380 234 378 223 367 249 399 228 372 238 415 239 416 249 399 228 372 239 416 223 367 221 365 249 399 238 382 252 414 230 374 236 380 231 375 240 384 245 389 240 384 241 385 232 391 229 417 246 392 244 388 237 381 243 387 236 380 240 384 245 389 228 372 236 380 245 389 230 394 244 418 243 395 247 419 243 420 242 386 238 415 228 372 245 389 229 417 238 421 246 392 245 389 246 390 238 415 248 397 247 419 242 386 239 416 247 419 248 397 249 399 239 416 248 397</p>
        </triangles>
      </mesh>
    </geometry>
  </library_geometries>
  <library_visual_scenes>
    <visual_scene id="scene">
      <node id="thigh_dae">
        <instance_geometry url="#geometry">
          <bind_material>
            <technique_common>
              <instance_material symbol="qmat_4b294f1aa1dfaafb" target="#qmat_4b294f1aa1dfaafb" />
              <instance_material symbol="qmat_ddc4e6410bf0a5b2" target="#qmat_ddc4e6410bf0a5b2" />
            </technique_common>
          </bind_material>
        </instance_geometry>
      </node>
    </visual_scene>
  </library_visual_scenes>
  <scene>
    <instance_visual_scene url="#scene" />
  </scene>
</COLLADA>